<?xml version="1.0" encoding="us-ascii" standalone="no"?><svg xmlns="http://www.w3.org/2000/svg" xmlns:xlink="http://www.w3.org/1999/xlink" contentStyleType="text/css" height="980px" preserveAspectRatio="none" style="width:1358px;height:980px;background:#FFFFFF;" version="1.1" viewBox="0 0 1358 980" width="1358px" zoomAndPan="magnify"><defs/><g><!--class Member--><g id="elem_Member"><rect codeLine="6" fill="#FFFFFF" height="342.5586" id="Member" rx="5" ry="5" style="stroke:#000000;stroke-width:1.0;" width="264" x="369.5" y="12"/><ellipse cx="465.25" cy="26.3105" fill="#FFFFFF" rx="9" ry="9" style="stroke:#000000;stroke-width:1.0;"/><path d="M460.9844,32.3105 L460.9844,20.1387 L470.0156,20.1387 L470.0156,22.2012 L463.4375,22.2012 L463.4375,24.9043 L469.5469,24.9043 L469.5469,26.9512 L463.4375,26.9512 L463.4375,30.2637 L470.25,30.2637 L470.25,32.3105 L460.9844,32.3105 Z " fill="#000000"/><text fill="#000000" font-family="Malgun Gothic" font-size="14" lengthAdjust="spacing" textLength="65" x="482.75" y="32.2373">MEMBER1</text><line style="stroke:#000000;stroke-width:1.0;" x1="370.5" x2="632.5" y1="40.6211" y2="40.6211"/><ellipse cx="380.5" cy="55.4316" fill="#FFFFFF" rx="3" ry="3" style="stroke:#000000;stroke-width:1.0;"/><text fill="#000000" font-family="Malgun Gothic" font-size="14" lengthAdjust="spacing" textLength="158" x="387.5" y="59.8584">ID : VARCHAR2(20) &#171;PK&#187;</text><line style="stroke:#000000;stroke-width:1.0;" x1="370.5" x2="632.5" y1="67.2422" y2="67.2422"/><ellipse cx="380.5" cy="82.0527" fill="#FFFFFF" rx="3" ry="3" style="stroke:#000000;stroke-width:1.0;"/><text fill="#000000" font-family="Malgun Gothic" font-size="14" lengthAdjust="spacing" textLength="149" x="387.5" y="86.4795">NAME : VARCHAR2(20)</text><ellipse cx="380.5" cy="100.6738" fill="#FFFFFF" rx="3" ry="3" style="stroke:#000000;stroke-width:1.0;"/><text fill="#000000" font-family="Malgun Gothic" font-size="14" lengthAdjust="spacing" textLength="140" x="387.5" y="105.1006">PWD : VARCHAR2(20)</text><ellipse cx="380.5" cy="119.2949" fill="#FFFFFF" rx="3" ry="3" style="stroke:#000000;stroke-width:1.0;"/><text fill="#000000" font-family="Malgun Gothic" font-size="14" lengthAdjust="spacing" textLength="181" x="387.5" y="123.7217">NICKNAME : VARCHAR2(20)</text><ellipse cx="380.5" cy="137.916" fill="#FFFFFF" rx="3" ry="3" style="stroke:#000000;stroke-width:1.0;"/><text fill="#000000" font-family="Malgun Gothic" font-size="14" lengthAdjust="spacing" textLength="163" x="387.5" y="142.3428">GENDER : VARCHAR2(10)</text><ellipse cx="380.5" cy="156.5371" fill="#FFFFFF" rx="3" ry="3" style="stroke:#000000;stroke-width:1.0;"/><text fill="#000000" font-family="Malgun Gothic" font-size="14" lengthAdjust="spacing" textLength="157" x="387.5" y="160.9639">EMAIL1 : VARCHAR2(20)</text><ellipse cx="380.5" cy="175.1582" fill="#FFFFFF" rx="3" ry="3" style="stroke:#000000;stroke-width:1.0;"/><text fill="#000000" font-family="Malgun Gothic" font-size="14" lengthAdjust="spacing" textLength="157" x="387.5" y="179.585">EMAIL2 : VARCHAR2(20)</text><ellipse cx="380.5" cy="193.7793" fill="#FFFFFF" rx="3" ry="3" style="stroke:#000000;stroke-width:1.0;"/><text fill="#000000" font-family="Malgun Gothic" font-size="14" lengthAdjust="spacing" textLength="130" x="387.5" y="198.2061">TEL1 : VARCHAR2(3)</text><ellipse cx="380.5" cy="212.4004" fill="#FFFFFF" rx="3" ry="3" style="stroke:#000000;stroke-width:1.0;"/><text fill="#000000" font-family="Malgun Gothic" font-size="14" lengthAdjust="spacing" textLength="130" x="387.5" y="216.8271">TEL2 : VARCHAR2(4)</text><ellipse cx="380.5" cy="231.0215" fill="#FFFFFF" rx="3" ry="3" style="stroke:#000000;stroke-width:1.0;"/><text fill="#000000" font-family="Malgun Gothic" font-size="14" lengthAdjust="spacing" textLength="130" x="387.5" y="235.4482">TEL3 : VARCHAR2(4)</text><ellipse cx="380.5" cy="249.6426" fill="#FFFFFF" rx="3" ry="3" style="stroke:#000000;stroke-width:1.0;"/><text fill="#000000" font-family="Malgun Gothic" font-size="14" lengthAdjust="spacing" textLength="155" x="387.5" y="254.0693">ADDR : VARCHAR2(200)</text><ellipse cx="380.5" cy="268.2637" fill="#FFFFFF" rx="3" ry="3" style="stroke:#000000;stroke-width:1.0;"/><text fill="#000000" font-family="Malgun Gothic" font-size="14" lengthAdjust="spacing" textLength="105" x="387.5" y="272.6904">LOGTIME : DATE</text><ellipse cx="380.5" cy="286.8848" fill="#FFFFFF" rx="3" ry="3" style="stroke:#000000;stroke-width:1.0;"/><text fill="#000000" font-family="Malgun Gothic" font-size="14" lengthAdjust="spacing" textLength="198" x="387.5" y="291.3115">IS_SUSPENDED : VARCHAR2(1)</text><ellipse cx="380.5" cy="305.5059" fill="#FFFFFF" rx="3" ry="3" style="stroke:#000000;stroke-width:1.0;"/><text fill="#000000" font-family="Malgun Gothic" font-size="14" lengthAdjust="spacing" textLength="193" x="387.5" y="309.9326">SUSPEND_START_DATE : DATE</text><ellipse cx="380.5" cy="324.127" fill="#FFFFFF" rx="3" ry="3" style="stroke:#000000;stroke-width:1.0;"/><text fill="#000000" font-family="Malgun Gothic" font-size="14" lengthAdjust="spacing" textLength="181" x="387.5" y="328.5537">SUSPEND_END_DATE : DATE</text><ellipse cx="380.5" cy="342.748" fill="#FFFFFF" rx="3" ry="3" style="stroke:#000000;stroke-width:1.0;"/><text fill="#000000" font-family="Malgun Gothic" font-size="14" lengthAdjust="spacing" textLength="240" x="387.5" y="347.1748">SUSPEND_REASON : VARCHAR2(200)</text></g><!--class Imageboard--><g id="elem_Imageboard"><rect codeLine="26" fill="#FFFFFF" height="323.9375" id="Imageboard" rx="5" ry="5" style="stroke:#000000;stroke-width:1.0;" width="292" x="85.5" y="415"/><ellipse cx="178.75" cy="429.3105" fill="#FFFFFF" rx="9" ry="9" style="stroke:#000000;stroke-width:1.0;"/><path d="M174.4844,435.3105 L174.4844,423.1387 L183.5156,423.1387 L183.5156,425.2012 L176.9375,425.2012 L176.9375,427.9043 L183.0469,427.9043 L183.0469,429.9512 L176.9375,429.9512 L176.9375,433.2637 L183.75,433.2637 L183.75,435.3105 L174.4844,435.3105 Z " fill="#000000"/><text fill="#000000" font-family="Malgun Gothic" font-size="14" lengthAdjust="spacing" textLength="98" x="196.25" y="435.2373">IMAGEBOARD1</text><line style="stroke:#000000;stroke-width:1.0;" x1="86.5" x2="376.5" y1="443.6211" y2="443.6211"/><ellipse cx="96.5" cy="458.4316" fill="#FFFFFF" rx="3" ry="3" style="stroke:#000000;stroke-width:1.0;"/><text fill="#000000" font-family="Malgun Gothic" font-size="14" lengthAdjust="spacing" textLength="132" x="103.5" y="462.8584">SEQ : NUMBER &#171;PK&#187;</text><line style="stroke:#000000;stroke-width:1.0;" x1="86.5" x2="376.5" y1="470.2422" y2="470.2422"/><ellipse cx="96.5" cy="485.0527" fill="#FFFFFF" rx="3" ry="3" style="stroke:#000000;stroke-width:1.0;"/><text fill="#000000" font-family="Malgun Gothic" font-size="14" lengthAdjust="spacing" textLength="200" x="103.5" y="489.4795">IMAGEID : VARCHAR2(20) &#171;FK&#187;</text><ellipse cx="96.5" cy="503.6738" fill="#FFFFFF" rx="3" ry="3" style="stroke:#000000;stroke-width:1.0;"/><text fill="#000000" font-family="Malgun Gothic" font-size="14" lengthAdjust="spacing" textLength="200" x="103.5" y="508.1006">IMAGENAME : VARCHAR2(100)</text><ellipse cx="96.5" cy="522.2949" fill="#FFFFFF" rx="3" ry="3" style="stroke:#000000;stroke-width:1.0;"/><text fill="#000000" font-family="Malgun Gothic" font-size="14" lengthAdjust="spacing" textLength="151" x="103.5" y="526.7217">IMAGEPRICE : NUMBER</text><ellipse cx="96.5" cy="540.916" fill="#FFFFFF" rx="3" ry="3" style="stroke:#000000;stroke-width:1.0;"/><text fill="#000000" font-family="Malgun Gothic" font-size="14" lengthAdjust="spacing" textLength="172" x="103.5" y="545.3428">MAX_BID_PRICE : NUMBER</text><ellipse cx="96.5" cy="559.5371" fill="#FFFFFF" rx="3" ry="3" style="stroke:#000000;stroke-width:1.0;"/><text fill="#000000" font-family="Malgun Gothic" font-size="14" lengthAdjust="spacing" textLength="140" x="103.5" y="563.9639">IMAGEQTY : NUMBER</text><ellipse cx="96.5" cy="578.1582" fill="#FFFFFF" rx="3" ry="3" style="stroke:#000000;stroke-width:1.0;"/><text fill="#000000" font-family="Malgun Gothic" font-size="14" lengthAdjust="spacing" textLength="154" x="103.5" y="582.585">IMAGECONTENT : CLOB</text><ellipse cx="96.5" cy="596.7793" fill="#FFFFFF" rx="3" ry="3" style="stroke:#000000;stroke-width:1.0;"/><text fill="#000000" font-family="Malgun Gothic" font-size="14" lengthAdjust="spacing" textLength="168" x="103.5" y="601.2061">IMAGE1 : VARCHAR2(200)</text><ellipse cx="96.5" cy="615.4004" fill="#FFFFFF" rx="3" ry="3" style="stroke:#000000;stroke-width:1.0;"/><text fill="#000000" font-family="Malgun Gothic" font-size="14" lengthAdjust="spacing" textLength="179" x="103.5" y="619.8271">CATEGORY : VARCHAR2(20)</text><ellipse cx="96.5" cy="634.0215" fill="#FFFFFF" rx="3" ry="3" style="stroke:#000000;stroke-width:1.0;"/><text fill="#000000" font-family="Malgun Gothic" font-size="14" lengthAdjust="spacing" textLength="225" x="103.5" y="638.4482">AUCTION_PERIOD : VARCHAR2(20)</text><ellipse cx="96.5" cy="652.6426" fill="#FFFFFF" rx="3" ry="3" style="stroke:#000000;stroke-width:1.0;"/><text fill="#000000" font-family="Malgun Gothic" font-size="14" lengthAdjust="spacing" textLength="268" x="103.5" y="657.0693">TRANSACTION_METHOD : VARCHAR2(20)</text><ellipse cx="96.5" cy="671.2637" fill="#FFFFFF" rx="3" ry="3" style="stroke:#000000;stroke-width:1.0;"/><text fill="#000000" font-family="Malgun Gothic" font-size="14" lengthAdjust="spacing" textLength="192" x="103.5" y="675.6904">AUCTION_START_DATE : DATE</text><ellipse cx="96.5" cy="689.8848" fill="#FFFFFF" rx="3" ry="3" style="stroke:#000000;stroke-width:1.0;"/><text fill="#000000" font-family="Malgun Gothic" font-size="14" lengthAdjust="spacing" textLength="180" x="103.5" y="694.3115">AUCTION_END_DATE : DATE</text><ellipse cx="96.5" cy="708.5059" fill="#FFFFFF" rx="3" ry="3" style="stroke:#000000;stroke-width:1.0;"/><text fill="#000000" font-family="Malgun Gothic" font-size="14" lengthAdjust="spacing" textLength="158" x="103.5" y="712.9326">STATUS : VARCHAR2(20)</text><ellipse cx="96.5" cy="727.127" fill="#FFFFFF" rx="3" ry="3" style="stroke:#000000;stroke-width:1.0;"/><text fill="#000000" font-family="Malgun Gothic" font-size="14" lengthAdjust="spacing" textLength="105" x="103.5" y="731.5537">LOGTIME : DATE</text></g><!--class ImageboardImages--><g id="elem_ImageboardImages"><rect codeLine="45" fill="#FFFFFF" height="137.7266" id="ImageboardImages" rx="5" ry="5" style="stroke:#000000;stroke-width:1.0;" width="251" x="12" y="817.5"/><ellipse cx="56.25" cy="831.8105" fill="#FFFFFF" rx="9" ry="9" style="stroke:#000000;stroke-width:1.0;"/><path d="M51.9844,837.8105 L51.9844,825.6387 L61.0156,825.6387 L61.0156,827.7012 L54.4375,827.7012 L54.4375,830.4043 L60.5469,830.4043 L60.5469,832.4512 L54.4375,832.4512 L54.4375,835.7637 L61.25,835.7637 L61.25,837.8105 L51.9844,837.8105 Z " fill="#000000"/><text fill="#000000" font-family="Malgun Gothic" font-size="14" lengthAdjust="spacing" textLength="155" x="73.75" y="837.7373">IMAGEBOARD_IMAGES1</text><line style="stroke:#000000;stroke-width:1.0;" x1="13" x2="262" y1="846.1211" y2="846.1211"/><ellipse cx="23" cy="860.9316" fill="#FFFFFF" rx="3" ry="3" style="stroke:#000000;stroke-width:1.0;"/><text fill="#000000" font-family="Malgun Gothic" font-size="14" lengthAdjust="spacing" textLength="181" x="30" y="865.3584">IMAGE_SEQ : NUMBER &#171;PK&#187;</text><line style="stroke:#000000;stroke-width:1.0;" x1="13" x2="262" y1="872.7422" y2="872.7422"/><ellipse cx="23" cy="887.5527" fill="#FFFFFF" rx="3" ry="3" style="stroke:#000000;stroke-width:1.0;"/><text fill="#000000" font-family="Malgun Gothic" font-size="14" lengthAdjust="spacing" textLength="227" x="30" y="891.9795">IMAGEBOARD_SEQ : NUMBER &#171;FK&#187;</text><ellipse cx="23" cy="906.1738" fill="#FFFFFF" rx="3" ry="3" style="stroke:#000000;stroke-width:1.0;"/><text fill="#000000" font-family="Malgun Gothic" font-size="14" lengthAdjust="spacing" textLength="200" x="30" y="910.6006">IMAGE_PATH : VARCHAR2(500)</text><ellipse cx="23" cy="924.7949" fill="#FFFFFF" rx="3" ry="3" style="stroke:#000000;stroke-width:1.0;"/><text fill="#000000" font-family="Malgun Gothic" font-size="14" lengthAdjust="spacing" textLength="156" x="30" y="929.2217">IS_MAIN : VARCHAR2(1)</text><ellipse cx="23" cy="943.416" fill="#FFFFFF" rx="3" ry="3" style="stroke:#000000;stroke-width:1.0;"/><text fill="#000000" font-family="Malgun Gothic" font-size="14" lengthAdjust="spacing" textLength="177" x="30" y="947.8428">DISPLAY_ORDER : NUMBER</text></g><!--class Bid--><g id="elem_Bid"><rect codeLine="54" fill="#FFFFFF" height="156.3477" id="Bid" rx="5" ry="5" style="stroke:#000000;stroke-width:1.0;" width="251" x="298" y="808.5"/><ellipse cx="404.75" cy="822.8105" fill="#FFFFFF" rx="9" ry="9" style="stroke:#000000;stroke-width:1.0;"/><path d="M400.4844,828.8105 L400.4844,816.6387 L409.5156,816.6387 L409.5156,818.7012 L402.9375,818.7012 L402.9375,821.4043 L409.0469,821.4043 L409.0469,823.4512 L402.9375,823.4512 L402.9375,826.7637 L409.75,826.7637 L409.75,828.8105 L400.4844,828.8105 Z " fill="#000000"/><text fill="#000000" font-family="Malgun Gothic" font-size="14" lengthAdjust="spacing" textLength="30" x="422.25" y="828.7373">BID1</text><line style="stroke:#000000;stroke-width:1.0;" x1="299" x2="548" y1="837.1211" y2="837.1211"/><ellipse cx="309" cy="851.9316" fill="#FFFFFF" rx="3" ry="3" style="stroke:#000000;stroke-width:1.0;"/><text fill="#000000" font-family="Malgun Gothic" font-size="14" lengthAdjust="spacing" textLength="160" x="316" y="856.3584">BID_SEQ : NUMBER &#171;PK&#187;</text><line style="stroke:#000000;stroke-width:1.0;" x1="299" x2="548" y1="863.7422" y2="863.7422"/><ellipse cx="309" cy="878.5527" fill="#FFFFFF" rx="3" ry="3" style="stroke:#000000;stroke-width:1.0;"/><text fill="#000000" font-family="Malgun Gothic" font-size="14" lengthAdjust="spacing" textLength="227" x="316" y="882.9795">IMAGEBOARD_SEQ : NUMBER &#171;FK&#187;</text><ellipse cx="309" cy="897.1738" fill="#FFFFFF" rx="3" ry="3" style="stroke:#000000;stroke-width:1.0;"/><text fill="#000000" font-family="Malgun Gothic" font-size="14" lengthAdjust="spacing" textLength="211" x="316" y="901.6006">BIDDER_ID : VARCHAR2(20) &#171;FK&#187;</text><ellipse cx="309" cy="915.7949" fill="#FFFFFF" rx="3" ry="3" style="stroke:#000000;stroke-width:1.0;"/><text fill="#000000" font-family="Malgun Gothic" font-size="14" lengthAdjust="spacing" textLength="160" x="316" y="920.2217">BID_AMOUNT : NUMBER</text><ellipse cx="309" cy="934.416" fill="#FFFFFF" rx="3" ry="3" style="stroke:#000000;stroke-width:1.0;"/><text fill="#000000" font-family="Malgun Gothic" font-size="14" lengthAdjust="spacing" textLength="148" x="316" y="938.8428">BID_TIME : TIMESTAMP</text><ellipse cx="309" cy="953.0371" fill="#FFFFFF" rx="3" ry="3" style="stroke:#000000;stroke-width:1.0;"/><text fill="#000000" font-family="Malgun Gothic" font-size="14" lengthAdjust="spacing" textLength="158" x="316" y="957.4639">STATUS : VARCHAR2(20)</text></g><!--class Board--><g id="elem_Board"><rect codeLine="64" fill="#FFFFFF" height="230.832" id="Board" rx="5" ry="5" style="stroke:#000000;stroke-width:1.0;" width="282" x="778.5" y="68"/><ellipse cx="888.25" cy="82.3105" fill="#FFFFFF" rx="9" ry="9" style="stroke:#000000;stroke-width:1.0;"/><path d="M883.9844,88.3105 L883.9844,76.1387 L893.0156,76.1387 L893.0156,78.2012 L886.4375,78.2012 L886.4375,80.9043 L892.5469,80.9043 L892.5469,82.9512 L886.4375,82.9512 L886.4375,86.2637 L893.25,86.2637 L893.25,88.3105 L883.9844,88.3105 Z " fill="#000000"/><text fill="#000000" font-family="Malgun Gothic" font-size="14" lengthAdjust="spacing" textLength="55" x="905.75" y="88.2373">BOARD1</text><line style="stroke:#000000;stroke-width:1.0;" x1="779.5" x2="1059.5" y1="96.6211" y2="96.6211"/><ellipse cx="789.5" cy="111.4316" fill="#FFFFFF" rx="3" ry="3" style="stroke:#000000;stroke-width:1.0;"/><text fill="#000000" font-family="Malgun Gothic" font-size="14" lengthAdjust="spacing" textLength="185" x="796.5" y="115.8584">BOARD_SEQ : NUMBER &#171;PK&#187;</text><line style="stroke:#000000;stroke-width:1.0;" x1="779.5" x2="1059.5" y1="123.2422" y2="123.2422"/><ellipse cx="789.5" cy="138.0527" fill="#FFFFFF" rx="3" ry="3" style="stroke:#000000;stroke-width:1.0;"/><text fill="#000000" font-family="Malgun Gothic" font-size="14" lengthAdjust="spacing" textLength="210" x="796.5" y="142.4795">BOARD_NAME : VARCHAR2(100)</text><ellipse cx="789.5" cy="156.6738" fill="#FFFFFF" rx="3" ry="3" style="stroke:#000000;stroke-width:1.0;"/><text fill="#000000" font-family="Malgun Gothic" font-size="14" lengthAdjust="spacing" textLength="258" x="796.5" y="161.1006">BOARD_DESCRIPTION : VARCHAR2(500)</text><ellipse cx="789.5" cy="175.2949" fill="#FFFFFF" rx="3" ry="3" style="stroke:#000000;stroke-width:1.0;"/><text fill="#000000" font-family="Malgun Gothic" font-size="14" lengthAdjust="spacing" textLength="192" x="796.5" y="179.7217">BOARD_TYPE : VARCHAR2(20)</text><ellipse cx="789.5" cy="193.916" fill="#FFFFFF" rx="3" ry="3" style="stroke:#000000;stroke-width:1.0;"/><text fill="#000000" font-family="Malgun Gothic" font-size="14" lengthAdjust="spacing" textLength="232" x="796.5" y="198.3428">BOARD_CATEGORY : VARCHAR2(50)</text><ellipse cx="789.5" cy="212.5371" fill="#FFFFFF" rx="3" ry="3" style="stroke:#000000;stroke-width:1.0;"/><text fill="#000000" font-family="Malgun Gothic" font-size="14" lengthAdjust="spacing" textLength="164" x="796.5" y="216.9639">IS_ACTIVE : VARCHAR2(1)</text><ellipse cx="789.5" cy="231.1582" fill="#FFFFFF" rx="3" ry="3" style="stroke:#000000;stroke-width:1.0;"/><text fill="#000000" font-family="Malgun Gothic" font-size="14" lengthAdjust="spacing" textLength="177" x="796.5" y="235.585">DISPLAY_ORDER : NUMBER</text><ellipse cx="789.5" cy="249.7793" fill="#FFFFFF" rx="3" ry="3" style="stroke:#000000;stroke-width:1.0;"/><text fill="#000000" font-family="Malgun Gothic" font-size="14" lengthAdjust="spacing" textLength="234" x="796.5" y="254.2061">NOTICE_DISPLAY_COUNT : NUMBER</text><ellipse cx="789.5" cy="268.4004" fill="#FFFFFF" rx="3" ry="3" style="stroke:#000000;stroke-width:1.0;"/><text fill="#000000" font-family="Malgun Gothic" font-size="14" lengthAdjust="spacing" textLength="143" x="796.5" y="272.8271">CREATED_DATE : DATE</text><ellipse cx="789.5" cy="287.0215" fill="#FFFFFF" rx="3" ry="3" style="stroke:#000000;stroke-width:1.0;"/><text fill="#000000" font-family="Malgun Gothic" font-size="14" lengthAdjust="spacing" textLength="146" x="796.5" y="291.4482">UPDATED_DATE : DATE</text></g><!--class BoardPost--><g id="elem_BoardPost"><rect codeLine="78" fill="#FFFFFF" height="286.6953" id="BoardPost" rx="5" ry="5" style="stroke:#000000;stroke-width:1.0;" width="244" x="625.5" y="433.5"/><ellipse cx="696.25" cy="447.8105" fill="#FFFFFF" rx="9" ry="9" style="stroke:#000000;stroke-width:1.0;"/><path d="M691.9844,453.8105 L691.9844,441.6387 L701.0156,441.6387 L701.0156,443.7012 L694.4375,443.7012 L694.4375,446.4043 L700.5469,446.4043 L700.5469,448.4512 L694.4375,448.4512 L694.4375,451.7637 L701.25,451.7637 L701.25,453.8105 L691.9844,453.8105 Z " fill="#000000"/><text fill="#000000" font-family="Malgun Gothic" font-size="14" lengthAdjust="spacing" textLength="95" x="713.75" y="453.7373">BOARD_POST1</text><line style="stroke:#000000;stroke-width:1.0;" x1="626.5" x2="868.5" y1="462.1211" y2="462.1211"/><ellipse cx="636.5" cy="476.9316" fill="#FFFFFF" rx="3" ry="3" style="stroke:#000000;stroke-width:1.0;"/><text fill="#000000" font-family="Malgun Gothic" font-size="14" lengthAdjust="spacing" textLength="172" x="643.5" y="481.3584">POST_SEQ : NUMBER &#171;PK&#187;</text><line style="stroke:#000000;stroke-width:1.0;" x1="626.5" x2="868.5" y1="488.7422" y2="488.7422"/><ellipse cx="636.5" cy="503.5527" fill="#FFFFFF" rx="3" ry="3" style="stroke:#000000;stroke-width:1.0;"/><text fill="#000000" font-family="Malgun Gothic" font-size="14" lengthAdjust="spacing" textLength="184" x="643.5" y="507.9795">BOARD_SEQ : NUMBER &#171;FK&#187;</text><ellipse cx="636.5" cy="522.1738" fill="#FFFFFF" rx="3" ry="3" style="stroke:#000000;stroke-width:1.0;"/><text fill="#000000" font-family="Malgun Gothic" font-size="14" lengthAdjust="spacing" textLength="220" x="643.5" y="526.6006">MEMBER_ID : VARCHAR2(20) &#171;FK&#187;</text><ellipse cx="636.5" cy="540.7949" fill="#FFFFFF" rx="3" ry="3" style="stroke:#000000;stroke-width:1.0;"/><text fill="#000000" font-family="Malgun Gothic" font-size="14" lengthAdjust="spacing" textLength="189" x="643.5" y="545.2217">POST_TITLE : VARCHAR2(200)</text><ellipse cx="636.5" cy="559.416" fill="#FFFFFF" rx="3" ry="3" style="stroke:#000000;stroke-width:1.0;"/><text fill="#000000" font-family="Malgun Gothic" font-size="14" lengthAdjust="spacing" textLength="151" x="643.5" y="563.8428">POST_CONTENT : CLOB</text><ellipse cx="636.5" cy="578.0371" fill="#FFFFFF" rx="3" ry="3" style="stroke:#000000;stroke-width:1.0;"/><text fill="#000000" font-family="Malgun Gothic" font-size="14" lengthAdjust="spacing" textLength="168" x="643.5" y="582.4639">IS_NOTICE : VARCHAR2(1)</text><ellipse cx="636.5" cy="596.6582" fill="#FFFFFF" rx="3" ry="3" style="stroke:#000000;stroke-width:1.0;"/><text fill="#000000" font-family="Malgun Gothic" font-size="14" lengthAdjust="spacing" textLength="172" x="643.5" y="601.085">NOTICE_ORDER : NUMBER</text><ellipse cx="636.5" cy="615.2793" fill="#FFFFFF" rx="3" ry="3" style="stroke:#000000;stroke-width:1.0;"/><text fill="#000000" font-family="Malgun Gothic" font-size="14" lengthAdjust="spacing" textLength="158" x="643.5" y="619.7061">VIEW_COUNT : NUMBER</text><ellipse cx="636.5" cy="633.9004" fill="#FFFFFF" rx="3" ry="3" style="stroke:#000000;stroke-width:1.0;"/><text fill="#000000" font-family="Malgun Gothic" font-size="14" lengthAdjust="spacing" textLength="151" x="643.5" y="638.3271">LIKE_COUNT : NUMBER</text><ellipse cx="636.5" cy="652.5215" fill="#FFFFFF" rx="3" ry="3" style="stroke:#000000;stroke-width:1.0;"/><text fill="#000000" font-family="Malgun Gothic" font-size="14" lengthAdjust="spacing" textLength="171" x="643.5" y="656.9482">IS_HIDDEN : VARCHAR2(1)</text><ellipse cx="636.5" cy="671.1426" fill="#FFFFFF" rx="3" ry="3" style="stroke:#000000;stroke-width:1.0;"/><text fill="#000000" font-family="Malgun Gothic" font-size="14" lengthAdjust="spacing" textLength="174" x="643.5" y="675.5693">IS_DELETED : VARCHAR2(1)</text><ellipse cx="636.5" cy="689.7637" fill="#FFFFFF" rx="3" ry="3" style="stroke:#000000;stroke-width:1.0;"/><text fill="#000000" font-family="Malgun Gothic" font-size="14" lengthAdjust="spacing" textLength="143" x="643.5" y="694.1904">CREATED_DATE : DATE</text><ellipse cx="636.5" cy="708.3848" fill="#FFFFFF" rx="3" ry="3" style="stroke:#000000;stroke-width:1.0;"/><text fill="#000000" font-family="Malgun Gothic" font-size="14" lengthAdjust="spacing" textLength="146" x="643.5" y="712.8115">UPDATED_DATE : DATE</text></g><!--class BoardComment--><g id="elem_BoardComment"><rect codeLine="95" fill="#FFFFFF" height="174.9688" id="BoardComment" rx="5" ry="5" style="stroke:#000000;stroke-width:1.0;" width="289" x="584" y="799"/><ellipse cx="658.75" cy="813.3105" fill="#FFFFFF" rx="9" ry="9" style="stroke:#000000;stroke-width:1.0;"/><path d="M654.4844,819.3105 L654.4844,807.1387 L663.5156,807.1387 L663.5156,809.2012 L656.9375,809.2012 L656.9375,811.9043 L663.0469,811.9043 L663.0469,813.9512 L656.9375,813.9512 L656.9375,817.2637 L663.75,817.2637 L663.75,819.3105 L654.4844,819.3105 Z " fill="#000000"/><text fill="#000000" font-family="Malgun Gothic" font-size="14" lengthAdjust="spacing" textLength="132" x="676.25" y="819.2373">BOARD_COMMENT1</text><line style="stroke:#000000;stroke-width:1.0;" x1="585" x2="872" y1="827.6211" y2="827.6211"/><ellipse cx="595" cy="842.4316" fill="#FFFFFF" rx="3" ry="3" style="stroke:#000000;stroke-width:1.0;"/><text fill="#000000" font-family="Malgun Gothic" font-size="14" lengthAdjust="spacing" textLength="209" x="602" y="846.8584">COMMENT_SEQ : NUMBER &#171;PK&#187;</text><line style="stroke:#000000;stroke-width:1.0;" x1="585" x2="872" y1="854.2422" y2="854.2422"/><ellipse cx="595" cy="869.0527" fill="#FFFFFF" rx="3" ry="3" style="stroke:#000000;stroke-width:1.0;"/><text fill="#000000" font-family="Malgun Gothic" font-size="14" lengthAdjust="spacing" textLength="171" x="602" y="873.4795">POST_SEQ : NUMBER &#171;FK&#187;</text><ellipse cx="595" cy="887.6738" fill="#FFFFFF" rx="3" ry="3" style="stroke:#000000;stroke-width:1.0;"/><text fill="#000000" font-family="Malgun Gothic" font-size="14" lengthAdjust="spacing" textLength="220" x="602" y="892.1006">MEMBER_ID : VARCHAR2(20) &#171;FK&#187;</text><ellipse cx="595" cy="906.2949" fill="#FFFFFF" rx="3" ry="3" style="stroke:#000000;stroke-width:1.0;"/><text fill="#000000" font-family="Malgun Gothic" font-size="14" lengthAdjust="spacing" textLength="265" x="602" y="910.7217">COMMENT_CONTENT : VARCHAR2(1000)</text><ellipse cx="595" cy="924.916" fill="#FFFFFF" rx="3" ry="3" style="stroke:#000000;stroke-width:1.0;"/><text fill="#000000" font-family="Malgun Gothic" font-size="14" lengthAdjust="spacing" textLength="174" x="602" y="929.3428">IS_DELETED : VARCHAR2(1)</text><ellipse cx="595" cy="943.5371" fill="#FFFFFF" rx="3" ry="3" style="stroke:#000000;stroke-width:1.0;"/><text fill="#000000" font-family="Malgun Gothic" font-size="14" lengthAdjust="spacing" textLength="143" x="602" y="947.9639">CREATED_DATE : DATE</text><ellipse cx="595" cy="962.1582" fill="#FFFFFF" rx="3" ry="3" style="stroke:#000000;stroke-width:1.0;"/><text fill="#000000" font-family="Malgun Gothic" font-size="14" lengthAdjust="spacing" textLength="146" x="602" y="966.585">UPDATED_DATE : DATE</text></g><!--class EventProduct--><g id="elem_EventProduct"><rect codeLine="106" fill="#FFFFFF" height="305.3164" id="EventProduct" rx="5" ry="5" style="stroke:#000000;stroke-width:1.0;" width="251" x="905" y="424.5"/><ellipse cx="967.25" cy="438.8105" fill="#FFFFFF" rx="9" ry="9" style="stroke:#000000;stroke-width:1.0;"/><path d="M962.9844,444.8105 L962.9844,432.6387 L972.0156,432.6387 L972.0156,434.7012 L965.4375,434.7012 L965.4375,437.4043 L971.5469,437.4043 L971.5469,439.4512 L965.4375,439.4512 L965.4375,442.7637 L972.25,442.7637 L972.25,444.8105 L962.9844,444.8105 Z " fill="#000000"/><text fill="#000000" font-family="Malgun Gothic" font-size="14" lengthAdjust="spacing" textLength="119" x="984.75" y="444.7373">EVENT_PRODUCT1</text><line style="stroke:#000000;stroke-width:1.0;" x1="906" x2="1155" y1="453.1211" y2="453.1211"/><ellipse cx="916" cy="467.9316" fill="#FFFFFF" rx="3" ry="3" style="stroke:#000000;stroke-width:1.0;"/><text fill="#000000" font-family="Malgun Gothic" font-size="14" lengthAdjust="spacing" textLength="202" x="923" y="472.3584">PRODUCT_SEQ : NUMBER &#171;PK&#187;</text><line style="stroke:#000000;stroke-width:1.0;" x1="906" x2="1155" y1="479.7422" y2="479.7422"/><ellipse cx="916" cy="494.5527" fill="#FFFFFF" rx="3" ry="3" style="stroke:#000000;stroke-width:1.0;"/><text fill="#000000" font-family="Malgun Gothic" font-size="14" lengthAdjust="spacing" textLength="184" x="923" y="498.9795">BOARD_SEQ : NUMBER &#171;FK&#187;</text><ellipse cx="916" cy="513.1738" fill="#FFFFFF" rx="3" ry="3" style="stroke:#000000;stroke-width:1.0;"/><text fill="#000000" font-family="Malgun Gothic" font-size="14" lengthAdjust="spacing" textLength="227" x="923" y="517.6006">PRODUCT_NAME : VARCHAR2(200)</text><ellipse cx="916" cy="531.7949" fill="#FFFFFF" rx="3" ry="3" style="stroke:#000000;stroke-width:1.0;"/><text fill="#000000" font-family="Malgun Gothic" font-size="14" lengthAdjust="spacing" textLength="206" x="923" y="536.2217">PRODUCT_DESCRIPTION : CLOB</text><ellipse cx="916" cy="550.416" fill="#FFFFFF" rx="3" ry="3" style="stroke:#000000;stroke-width:1.0;"/><text fill="#000000" font-family="Malgun Gothic" font-size="14" lengthAdjust="spacing" textLength="179" x="923" y="554.8428">ORIGINAL_PRICE : NUMBER</text><ellipse cx="916" cy="569.0371" fill="#FFFFFF" rx="3" ry="3" style="stroke:#000000;stroke-width:1.0;"/><text fill="#000000" font-family="Malgun Gothic" font-size="14" lengthAdjust="spacing" textLength="145" x="923" y="573.4639">SALE_PRICE : NUMBER</text><ellipse cx="916" cy="587.6582" fill="#FFFFFF" rx="3" ry="3" style="stroke:#000000;stroke-width:1.0;"/><text fill="#000000" font-family="Malgun Gothic" font-size="14" lengthAdjust="spacing" textLength="187" x="923" y="592.085">STOCK_QUANTITY : NUMBER</text><ellipse cx="916" cy="606.2793" fill="#FFFFFF" rx="3" ry="3" style="stroke:#000000;stroke-width:1.0;"/><text fill="#000000" font-family="Malgun Gothic" font-size="14" lengthAdjust="spacing" textLength="180" x="923" y="610.7061">SOLD_QUANTITY : NUMBER</text><ellipse cx="916" cy="624.9004" fill="#FFFFFF" rx="3" ry="3" style="stroke:#000000;stroke-width:1.0;"/><text fill="#000000" font-family="Malgun Gothic" font-size="14" lengthAdjust="spacing" textLength="113" x="923" y="629.3271">END_DATE : DATE</text><ellipse cx="916" cy="643.5215" fill="#FFFFFF" rx="3" ry="3" style="stroke:#000000;stroke-width:1.0;"/><text fill="#000000" font-family="Malgun Gothic" font-size="14" lengthAdjust="spacing" textLength="205" x="923" y="647.9482">EVENT_STATUS : VARCHAR2(20)</text><ellipse cx="916" cy="662.1426" fill="#FFFFFF" rx="3" ry="3" style="stroke:#000000;stroke-width:1.0;"/><text fill="#000000" font-family="Malgun Gothic" font-size="14" lengthAdjust="spacing" textLength="217" x="923" y="666.5693">DELIVERY_INFO : VARCHAR2(500)</text><ellipse cx="916" cy="680.7637" fill="#FFFFFF" rx="3" ry="3" style="stroke:#000000;stroke-width:1.0;"/><text fill="#000000" font-family="Malgun Gothic" font-size="14" lengthAdjust="spacing" textLength="174" x="923" y="685.1904">IS_DELETED : VARCHAR2(1)</text><ellipse cx="916" cy="699.3848" fill="#FFFFFF" rx="3" ry="3" style="stroke:#000000;stroke-width:1.0;"/><text fill="#000000" font-family="Malgun Gothic" font-size="14" lengthAdjust="spacing" textLength="143" x="923" y="703.8115">CREATED_DATE : DATE</text><ellipse cx="916" cy="718.0059" fill="#FFFFFF" rx="3" ry="3" style="stroke:#000000;stroke-width:1.0;"/><text fill="#000000" font-family="Malgun Gothic" font-size="14" lengthAdjust="spacing" textLength="146" x="923" y="722.4326">UPDATED_DATE : DATE</text></g><!--class EventOrder--><g id="elem_EventOrder"><rect codeLine="124" fill="#FFFFFF" height="174.9688" id="EventOrder" rx="5" ry="5" style="stroke:#000000;stroke-width:1.0;" width="244" x="908.5" y="799"/><ellipse cx="976.25" cy="813.3105" fill="#FFFFFF" rx="9" ry="9" style="stroke:#000000;stroke-width:1.0;"/><path d="M971.9844,819.3105 L971.9844,807.1387 L981.0156,807.1387 L981.0156,809.2012 L974.4375,809.2012 L974.4375,811.9043 L980.5469,811.9043 L980.5469,813.9512 L974.4375,813.9512 L974.4375,817.2637 L981.25,817.2637 L981.25,819.3105 L971.9844,819.3105 Z " fill="#000000"/><text fill="#000000" font-family="Malgun Gothic" font-size="14" lengthAdjust="spacing" textLength="101" x="993.75" y="819.2373">EVENT_ORDER1</text><line style="stroke:#000000;stroke-width:1.0;" x1="909.5" x2="1151.5" y1="827.6211" y2="827.6211"/><ellipse cx="919.5" cy="842.4316" fill="#FFFFFF" rx="3" ry="3" style="stroke:#000000;stroke-width:1.0;"/><text fill="#000000" font-family="Malgun Gothic" font-size="14" lengthAdjust="spacing" textLength="184" x="926.5" y="846.8584">ORDER_SEQ : NUMBER &#171;PK&#187;</text><line style="stroke:#000000;stroke-width:1.0;" x1="909.5" x2="1151.5" y1="854.2422" y2="854.2422"/><ellipse cx="919.5" cy="869.0527" fill="#FFFFFF" rx="3" ry="3" style="stroke:#000000;stroke-width:1.0;"/><text fill="#000000" font-family="Malgun Gothic" font-size="14" lengthAdjust="spacing" textLength="201" x="926.5" y="873.4795">PRODUCT_SEQ : NUMBER &#171;FK&#187;</text><ellipse cx="919.5" cy="887.6738" fill="#FFFFFF" rx="3" ry="3" style="stroke:#000000;stroke-width:1.0;"/><text fill="#000000" font-family="Malgun Gothic" font-size="14" lengthAdjust="spacing" textLength="220" x="926.5" y="892.1006">MEMBER_ID : VARCHAR2(20) &#171;FK&#187;</text><ellipse cx="919.5" cy="906.2949" fill="#FFFFFF" rx="3" ry="3" style="stroke:#000000;stroke-width:1.0;"/><text fill="#000000" font-family="Malgun Gothic" font-size="14" lengthAdjust="spacing" textLength="190" x="926.5" y="910.7217">ORDER_QUANTITY : NUMBER</text><ellipse cx="919.5" cy="924.916" fill="#FFFFFF" rx="3" ry="3" style="stroke:#000000;stroke-width:1.0;"/><text fill="#000000" font-family="Malgun Gothic" font-size="14" lengthAdjust="spacing" textLength="160" x="926.5" y="929.3428">ORDER_PRICE : NUMBER</text><ellipse cx="919.5" cy="943.5371" fill="#FFFFFF" rx="3" ry="3" style="stroke:#000000;stroke-width:1.0;"/><text fill="#000000" font-family="Malgun Gothic" font-size="14" lengthAdjust="spacing" textLength="210" x="926.5" y="947.9639">ORDER_STATUS : VARCHAR2(20)</text><ellipse cx="919.5" cy="962.1582" fill="#FFFFFF" rx="3" ry="3" style="stroke:#000000;stroke-width:1.0;"/><text fill="#000000" font-family="Malgun Gothic" font-size="14" lengthAdjust="spacing" textLength="143" x="926.5" y="966.585">CREATED_DATE : DATE</text></g><!--class Manager--><g id="elem_Manager"><rect codeLine="135" fill="#FFFFFF" height="193.5898" id="Manager" rx="5" ry="5" style="stroke:#000000;stroke-width:1.0;" width="256" x="1095.5" y="86.5"/><ellipse cx="1181.75" cy="100.8105" fill="#FFFFFF" rx="9" ry="9" style="stroke:#000000;stroke-width:1.0;"/><path d="M1177.4844,106.8105 L1177.4844,94.6387 L1186.5156,94.6387 L1186.5156,96.7012 L1179.9375,96.7012 L1179.9375,99.4043 L1186.0469,99.4043 L1186.0469,101.4512 L1179.9375,101.4512 L1179.9375,104.7637 L1186.75,104.7637 L1186.75,106.8105 L1177.4844,106.8105 Z " fill="#000000"/><text fill="#000000" font-family="Malgun Gothic" font-size="14" lengthAdjust="spacing" textLength="76" x="1199.25" y="106.7373">MANAGER1</text><line style="stroke:#000000;stroke-width:1.0;" x1="1096.5" x2="1350.5" y1="115.1211" y2="115.1211"/><ellipse cx="1106.5" cy="129.9316" fill="#FFFFFF" rx="3" ry="3" style="stroke:#000000;stroke-width:1.0;"/><text fill="#000000" font-family="Malgun Gothic" font-size="14" lengthAdjust="spacing" textLength="232" x="1113.5" y="134.3584">MANAGER_ID : VARCHAR2(20) &#171;PK&#187;</text><line style="stroke:#000000;stroke-width:1.0;" x1="1096.5" x2="1350.5" y1="141.7422" y2="141.7422"/><ellipse cx="1106.5" cy="156.5527" fill="#FFFFFF" rx="3" ry="3" style="stroke:#000000;stroke-width:1.0;"/><text fill="#000000" font-family="Malgun Gothic" font-size="14" lengthAdjust="spacing" textLength="223" x="1113.5" y="160.9795">MANAGER_NAME : VARCHAR2(20)</text><ellipse cx="1106.5" cy="175.1738" fill="#FFFFFF" rx="3" ry="3" style="stroke:#000000;stroke-width:1.0;"/><text fill="#000000" font-family="Malgun Gothic" font-size="14" lengthAdjust="spacing" textLength="214" x="1113.5" y="179.6006">MANAGER_PWD : VARCHAR2(20)</text><ellipse cx="1106.5" cy="193.7949" fill="#FFFFFF" rx="3" ry="3" style="stroke:#000000;stroke-width:1.0;"/><text fill="#000000" font-family="Malgun Gothic" font-size="14" lengthAdjust="spacing" textLength="223" x="1113.5" y="198.2217">MANAGER_EMAIL : VARCHAR2(50)</text><ellipse cx="1106.5" cy="212.416" fill="#FFFFFF" rx="3" ry="3" style="stroke:#000000;stroke-width:1.0;"/><text fill="#000000" font-family="Malgun Gothic" font-size="14" lengthAdjust="spacing" textLength="204" x="1113.5" y="216.8428">MANAGER_TEL : VARCHAR2(20)</text><ellipse cx="1106.5" cy="231.0371" fill="#FFFFFF" rx="3" ry="3" style="stroke:#000000;stroke-width:1.0;"/><text fill="#000000" font-family="Malgun Gothic" font-size="14" lengthAdjust="spacing" textLength="217" x="1113.5" y="235.4639">MANAGER_ROLE : VARCHAR2(20)</text><ellipse cx="1106.5" cy="249.6582" fill="#FFFFFF" rx="3" ry="3" style="stroke:#000000;stroke-width:1.0;"/><text fill="#000000" font-family="Malgun Gothic" font-size="14" lengthAdjust="spacing" textLength="105" x="1113.5" y="254.085">LOGTIME : DATE</text><ellipse cx="1106.5" cy="268.2793" fill="#FFFFFF" rx="3" ry="3" style="stroke:#000000;stroke-width:1.0;"/><text fill="#000000" font-family="Malgun Gothic" font-size="14" lengthAdjust="spacing" textLength="126" x="1113.5" y="272.7061">LAST_LOGIN : DATE</text></g><!--link Member to Imageboard--><g id="link_Member_Imageboard"><path codeLine="148" d="M373.5,363.24 C373.5,383 373.5,377.11 373.5,396.74 " fill="none" id="Member-Imageboard" style="stroke:#000000;stroke-width:1.0;"/><line style="stroke:#000000;stroke-width:1.0;" x1="369.5" x2="377.5" y1="359.24" y2="359.24"/><line style="stroke:#000000;stroke-width:1.0;" x1="369.5" x2="377.5" y1="362.24" y2="362.24"/><line style="stroke:#000000;stroke-width:1.0;" x1="373.5" x2="373.5" y1="363.24" y2="355.24"/><line style="stroke:#000000;stroke-width:1.0;" x1="373.5" x2="379.5" y1="406.74" y2="414.74"/><line style="stroke:#000000;stroke-width:1.0;" x1="373.5" x2="367.5" y1="406.74" y2="414.74"/><line style="stroke:#000000;stroke-width:1.0;" x1="373.5" x2="373.5" y1="406.74" y2="414.74"/><ellipse cx="373.5" cy="400.74" fill="none" rx="4" ry="4" style="stroke:#000000;stroke-width:1.0;"/><text fill="#000000" font-family="Malgun Gothic" font-size="13" lengthAdjust="spacing" textLength="26" x="346.5" y="381.1389">&#46321;&#47197;</text></g><!--link Member to Bid--><g id="link_Member_Bid"><path codeLine="149" d="M463.25,363.02 C463.25,507.52 463.25,681.58 463.25,790.39 " fill="none" id="Member-Bid" style="stroke:#000000;stroke-width:1.0;"/><line style="stroke:#000000;stroke-width:1.0;" x1="459.25" x2="467.25" y1="359.02" y2="359.02"/><line style="stroke:#000000;stroke-width:1.0;" x1="459.25" x2="467.25" y1="362.02" y2="362.02"/><line style="stroke:#000000;stroke-width:1.0;" x1="463.25" x2="463.25" y1="363.02" y2="355.02"/><line style="stroke:#000000;stroke-width:1.0;" x1="463.25" x2="469.25" y1="800.39" y2="808.39"/><line style="stroke:#000000;stroke-width:1.0;" x1="463.25" x2="457.25" y1="800.39" y2="808.39"/><line style="stroke:#000000;stroke-width:1.0;" x1="463.25" x2="463.25" y1="800.39" y2="808.39"/><ellipse cx="463.25" cy="794.39" fill="none" rx="4" ry="4" style="stroke:#000000;stroke-width:1.0;"/><text fill="#000000" font-family="Malgun Gothic" font-size="13" lengthAdjust="spacing" textLength="26" x="436.25" y="577.8589">&#51077;&#52272;</text></g><!--link Member to BoardPost--><g id="link_Member_BoardPost"><path codeLine="150" d="M629.5,363.24 C629.5,389.31 629.5,389.99 629.5,415.38 " fill="none" id="Member-BoardPost" style="stroke:#000000;stroke-width:1.0;"/><line style="stroke:#000000;stroke-width:1.0;" x1="625.5" x2="633.5" y1="359.24" y2="359.24"/><line style="stroke:#000000;stroke-width:1.0;" x1="625.5" x2="633.5" y1="362.24" y2="362.24"/><line style="stroke:#000000;stroke-width:1.0;" x1="629.5" x2="629.5" y1="363.24" y2="355.24"/><line style="stroke:#000000;stroke-width:1.0;" x1="629.5" x2="635.5" y1="425.38" y2="433.38"/><line style="stroke:#000000;stroke-width:1.0;" x1="629.5" x2="623.5" y1="425.38" y2="433.38"/><line style="stroke:#000000;stroke-width:1.0;" x1="629.5" x2="629.5" y1="425.38" y2="433.38"/><ellipse cx="629.5" cy="419.38" fill="none" rx="4" ry="4" style="stroke:#000000;stroke-width:1.0;"/><text fill="#000000" font-family="Malgun Gothic" font-size="13" lengthAdjust="spacing" textLength="26" x="602.5" y="390.4589">&#51089;&#49457;</text></g><!--link Member to BoardComment--><g id="link_Member_BoardComment"><path codeLine="151" d="M604.75,363.02 C604.75,503.45 604.75,670.37 604.75,780.99 " fill="none" id="Member-BoardComment" style="stroke:#000000;stroke-width:1.0;"/><line style="stroke:#000000;stroke-width:1.0;" x1="600.75" x2="608.75" y1="359.02" y2="359.02"/><line style="stroke:#000000;stroke-width:1.0;" x1="600.75" x2="608.75" y1="362.02" y2="362.02"/><line style="stroke:#000000;stroke-width:1.0;" x1="604.75" x2="604.75" y1="363.02" y2="355.02"/><line style="stroke:#000000;stroke-width:1.0;" x1="604.75" x2="610.75" y1="790.99" y2="798.99"/><line style="stroke:#000000;stroke-width:1.0;" x1="604.75" x2="598.75" y1="790.99" y2="798.99"/><line style="stroke:#000000;stroke-width:1.0;" x1="604.75" x2="604.75" y1="790.99" y2="798.99"/><ellipse cx="604.75" cy="784.99" fill="none" rx="4" ry="4" style="stroke:#000000;stroke-width:1.0;"/><text fill="#000000" font-family="Malgun Gothic" font-size="13" lengthAdjust="spacing" textLength="26" x="577.75" y="573.1589">&#51089;&#49457;</text></g><!--link Member to EventOrder--><g id="link_Member_EventOrder"><path codeLine="152" d="M641.5,327 C753.8,327 889,327 889,327 C889,327 889,887 889,887 C889,887 878.64,887 890.38,887 " fill="none" id="Member-EventOrder" style="stroke:#000000;stroke-width:1.0;"/><line style="stroke:#000000;stroke-width:1.0;" x1="637.5" x2="637.5" y1="331" y2="323"/><line style="stroke:#000000;stroke-width:1.0;" x1="640.5" x2="640.5" y1="331" y2="323"/><line style="stroke:#000000;stroke-width:1.0;" x1="641.5" x2="633.5" y1="327" y2="327"/><line style="stroke:#000000;stroke-width:1.0;" x1="900.38" x2="908.38" y1="887" y2="881"/><line style="stroke:#000000;stroke-width:1.0;" x1="900.38" x2="908.38" y1="887" y2="893"/><line style="stroke:#000000;stroke-width:1.0;" x1="900.38" x2="908.38" y1="887" y2="887"/><ellipse cx="894.38" cy="887" fill="none" rx="4" ry="4" style="stroke:#000000;stroke-width:1.0;"/><text fill="#000000" font-family="Malgun Gothic" font-size="13" lengthAdjust="spacing" textLength="26" x="876" y="504.0889">&#51452;&#47928;</text></g><!--link Imageboard to ImageboardImages--><g id="link_Imageboard_ImageboardImages"><path codeLine="154" d="M174.25,747 C174.25,774.64 174.25,775.98 174.25,799.46 " fill="none" id="Imageboard-ImageboardImages" style="stroke:#000000;stroke-width:1.0;"/><line style="stroke:#000000;stroke-width:1.0;" x1="170.25" x2="178.25" y1="743" y2="743"/><line style="stroke:#000000;stroke-width:1.0;" x1="170.25" x2="178.25" y1="746" y2="746"/><line style="stroke:#000000;stroke-width:1.0;" x1="174.25" x2="174.25" y1="747" y2="739"/><line style="stroke:#000000;stroke-width:1.0;" x1="174.25" x2="180.25" y1="809.46" y2="817.46"/><line style="stroke:#000000;stroke-width:1.0;" x1="174.25" x2="168.25" y1="809.46" y2="817.46"/><line style="stroke:#000000;stroke-width:1.0;" x1="174.25" x2="174.25" y1="809.46" y2="817.46"/><ellipse cx="174.25" cy="803.46" fill="none" rx="4" ry="4" style="stroke:#000000;stroke-width:1.0;"/><text fill="#000000" font-family="Malgun Gothic" font-size="13" lengthAdjust="spacing" textLength="39" x="134.25" y="774.3789">&#51060;&#48120;&#51648;</text></g><!--link Imageboard to Bid--><g id="link_Imageboard_Bid"><path codeLine="155" d="M337.75,747 C337.75,771.13 337.75,769.03 337.75,790.34 " fill="none" id="Imageboard-Bid" style="stroke:#000000;stroke-width:1.0;"/><line style="stroke:#000000;stroke-width:1.0;" x1="333.75" x2="341.75" y1="743" y2="743"/><line style="stroke:#000000;stroke-width:1.0;" x1="333.75" x2="341.75" y1="746" y2="746"/><line style="stroke:#000000;stroke-width:1.0;" x1="337.75" x2="337.75" y1="747" y2="739"/><line style="stroke:#000000;stroke-width:1.0;" x1="337.75" x2="343.75" y1="800.34" y2="808.34"/><line style="stroke:#000000;stroke-width:1.0;" x1="337.75" x2="331.75" y1="800.34" y2="808.34"/><line style="stroke:#000000;stroke-width:1.0;" x1="337.75" x2="337.75" y1="800.34" y2="808.34"/><ellipse cx="337.75" cy="794.34" fill="none" rx="4" ry="4" style="stroke:#000000;stroke-width:1.0;"/><text fill="#000000" font-family="Malgun Gothic" font-size="13" lengthAdjust="spacing" textLength="52" x="284.75" y="769.8189">&#51077;&#52272;&#45236;&#50669;</text></g><!--link Board to BoardPost--><g id="link_Board_BoardPost"><path codeLine="157" d="M824,307.17 C824,349.23 824,371.28 824,415.46 " fill="none" id="Board-BoardPost" style="stroke:#000000;stroke-width:1.0;"/><line style="stroke:#000000;stroke-width:1.0;" x1="820" x2="828" y1="303.17" y2="303.17"/><line style="stroke:#000000;stroke-width:1.0;" x1="820" x2="828" y1="306.17" y2="306.17"/><line style="stroke:#000000;stroke-width:1.0;" x1="824" x2="824" y1="307.17" y2="299.17"/><line style="stroke:#000000;stroke-width:1.0;" x1="824" x2="830" y1="425.46" y2="433.46"/><line style="stroke:#000000;stroke-width:1.0;" x1="824" x2="818" y1="425.46" y2="433.46"/><line style="stroke:#000000;stroke-width:1.0;" x1="824" x2="824" y1="425.46" y2="433.46"/><ellipse cx="824" cy="419.46" fill="none" rx="4" ry="4" style="stroke:#000000;stroke-width:1.0;"/><text fill="#000000" font-family="Malgun Gothic" font-size="13" lengthAdjust="spacing" textLength="39" x="784" y="362.4689">&#44172;&#49884;&#44544;</text></g><!--link Board to EventProduct--><g id="link_Board_EventProduct"><path codeLine="158" d="M982.75,307.17 C982.75,346.4 982.75,364.83 982.75,406.48 " fill="none" id="Board-EventProduct" style="stroke:#000000;stroke-width:1.0;"/><line style="stroke:#000000;stroke-width:1.0;" x1="978.75" x2="986.75" y1="303.17" y2="303.17"/><line style="stroke:#000000;stroke-width:1.0;" x1="978.75" x2="986.75" y1="306.17" y2="306.17"/><line style="stroke:#000000;stroke-width:1.0;" x1="982.75" x2="982.75" y1="307.17" y2="299.17"/><line style="stroke:#000000;stroke-width:1.0;" x1="982.75" x2="988.75" y1="416.48" y2="424.48"/><line style="stroke:#000000;stroke-width:1.0;" x1="982.75" x2="976.75" y1="416.48" y2="424.48"/><line style="stroke:#000000;stroke-width:1.0;" x1="982.75" x2="982.75" y1="416.48" y2="424.48"/><ellipse cx="982.75" cy="410.48" fill="none" rx="4" ry="4" style="stroke:#000000;stroke-width:1.0;"/><text fill="#000000" font-family="Malgun Gothic" font-size="13" lengthAdjust="spacing" textLength="26" x="955.75" y="357.9789">&#49345;&#54408;</text></g><!--link BoardPost to BoardComment--><g id="link_BoardPost_BoardComment"><path codeLine="160" d="M747.5,728.88 C747.5,755.4 747.5,756.35 747.5,780.59 " fill="none" id="BoardPost-BoardComment" style="stroke:#000000;stroke-width:1.0;"/><line style="stroke:#000000;stroke-width:1.0;" x1="743.5" x2="751.5" y1="724.88" y2="724.88"/><line style="stroke:#000000;stroke-width:1.0;" x1="743.5" x2="751.5" y1="727.88" y2="727.88"/><line style="stroke:#000000;stroke-width:1.0;" x1="747.5" x2="747.5" y1="728.88" y2="720.88"/><line style="stroke:#000000;stroke-width:1.0;" x1="747.5" x2="753.5" y1="790.59" y2="798.59"/><line style="stroke:#000000;stroke-width:1.0;" x1="747.5" x2="741.5" y1="790.59" y2="798.59"/><line style="stroke:#000000;stroke-width:1.0;" x1="747.5" x2="747.5" y1="790.59" y2="798.59"/><ellipse cx="747.5" cy="784.59" fill="none" rx="4" ry="4" style="stroke:#000000;stroke-width:1.0;"/><text fill="#000000" font-family="Malgun Gothic" font-size="13" lengthAdjust="spacing" textLength="26" x="720.5" y="755.8789">&#45843;&#44544;</text></g><!--link EventProduct to EventOrder--><g id="link_EventProduct_EventOrder"><path codeLine="162" d="M1030.5,737.94 C1030.5,761.54 1030.5,759.2 1030.5,780.72 " fill="none" id="EventProduct-EventOrder" style="stroke:#000000;stroke-width:1.0;"/><line style="stroke:#000000;stroke-width:1.0;" x1="1026.5" x2="1034.5" y1="733.94" y2="733.94"/><line style="stroke:#000000;stroke-width:1.0;" x1="1026.5" x2="1034.5" y1="736.94" y2="736.94"/><line style="stroke:#000000;stroke-width:1.0;" x1="1030.5" x2="1030.5" y1="737.94" y2="729.94"/><line style="stroke:#000000;stroke-width:1.0;" x1="1030.5" x2="1036.5" y1="790.72" y2="798.72"/><line style="stroke:#000000;stroke-width:1.0;" x1="1030.5" x2="1024.5" y1="790.72" y2="798.72"/><line style="stroke:#000000;stroke-width:1.0;" x1="1030.5" x2="1030.5" y1="790.72" y2="798.72"/><ellipse cx="1030.5" cy="784.72" fill="none" rx="4" ry="4" style="stroke:#000000;stroke-width:1.0;"/><text fill="#000000" font-family="Malgun Gothic" font-size="13" lengthAdjust="spacing" textLength="26" x="1003.5" y="760.4789">&#51452;&#47928;</text></g><!--SRC=[jLTDRzis6BxxLsY-x0C84AVhfIWAq1BZ4954XQBJ-aIeiTOOYwN0KGOKRO5kQu42wsKjYlRG52rws6N3sYs77FQBOky_ZAH4cx99nq7N04OCFmzVai_pldp9BuhzT9WwXmV986iSVJ_83fDHCdJwwNV9yK6ncMT5c72y6IG7TuupfvCN-uEzfiOy66HfSVSmTV9HiPzhm2W_plfx-IXBHqvhlT58is9GtEMHOD26fDLqaYCdI8UtENoluV2_RnpaETUSNK3SBK0sljfO_zgvVZtQld53mcjh5Ii40PpZLKXqqpC38NAtxSCwCFGWqR7M58C1G7xBF4vY6sQCmlgeAnfG6_Aj1bmn0i3pI7sIwIm-xb0aj-K12fMACOkxSIGsLPEZfKPLA8if89I9aVK02XSVEqeWY76uiB07CwTH03gmZG7nIhVHCBcJtiwJKN_gU0ntU8ImArB2QBQCOSgBJKMjEFFsjcOgIJmYo8NJkIea0BTO6tdC2CfXExHd_Dt58OKXvPZhuxQEj2nUkLp23YOzSxw0haiH3ba42SAMBAO4X34eUG6aMpQUYcNpL-4MVocWtTWSUIxVZ5up-JMUjrn-EvgLkY2nrUmlmyvnv_rd4Q1R-gglQWaGCrwgeR4OF1H7FkWnJCepeB9QsnfFa78pxS4iSKNM_3-hvv7upEo271VpWG1tPShLqb4WbIdY7xSlY9PQgMzjLfpjMbqQ5xsumPAsfFHAWWTZbw1899t5eP97Uv7bY2vnKmbTrLqMnR4BB-DprHymvGS0KnpNfBFB3pmAJHNJZRm5P5va5k6OQaf7-L4nLLjWgufjJwIoiLwKI78kYgWFBUUK99YFjvYLGXa5hZGqwhkBu4spgZxQXcQ4pxObIiDSjXpre0-ffSLzebak3WA-VSqlDnyEEMTgMSMus3MJjvSsJSqsiqKljlNFBGhS5PD717kySvIYm1yu68to_l6UbiSbuzDJMGLQlBFDqhIYrCyMBLinGHqK0j_St6FWGmj2iRlDTheWv5MoqFnZx7jMqDnGI_MMjLLk6Z-sI8-XS1FRUzXdz5PMhUOi7lMrUxb4LqXri_sNplPoEfl89Mgqhbhd4gLDCcbY123a7LizJfACNrbcAbGWM-sLejZsPuTYM5yjYY3V6UQUfoZyyR0y1i4-NEbEL_q8-Ad54NbfKYfzwPoVFZp_-v4pUVjYSlAgKRtUxjzVMyllwRVxQqvp_FpZ-Dr9SuuZRb0SdBnvFFdmOG6SzaL9-NNowAEHeevYAqlBOC5v_y_uzxDcew4jS679rUrKq4zEnt-UJNvxs3GCgAr__DFfvEKVF72xHj5tSVxNqyalhy_FUB0QgNPwYe0___ZlioSgb1njsV7uwNCPhb4BiNJZ_m40]--></g></svg>