<?xml version="1.0" encoding="us-ascii" standalone="no"?><svg xmlns="http://www.w3.org/2000/svg" xmlns:xlink="http://www.w3.org/1999/xlink" contentStyleType="text/css" height="1308px" preserveAspectRatio="none" style="width:1153px;height:1308px;background:#FFFFFF;" version="1.1" viewBox="0 0 1153 1308" width="1153px" zoomAndPan="magnify"><defs/><g><!--cluster Client Browser--><g id="cluster_Client Browser"><polygon fill="#ADD8E6" points="805,138,815,128,1011,128,1011,363,1001,373,805,373,805,138" style="stroke:#00008B;stroke-width:1.0;"/><line style="stroke:#00008B;stroke-width:1.0;" x1="1001" x2="1011" y1="138" y2="128"/><line style="stroke:#00008B;stroke-width:1.0;" x1="805" x2="1001" y1="138" y2="138"/><line style="stroke:#00008B;stroke-width:1.0;" x1="1001" x2="1001" y1="138" y2="373"/><text fill="#000000" font-family="Malgun Gothic" font-size="12" font-weight="bold" lengthAdjust="spacing" textLength="85" x="861.5" y="154.0605">Client Browser</text></g><!--cluster Web Server--><g id="cluster_Web Server"><polygon fill="#ADD8E6" points="763,450,773,440,1068,440,1068,550,1058,560,763,560,763,450" style="stroke:#00008B;stroke-width:1.0;"/><line style="stroke:#00008B;stroke-width:1.0;" x1="1058" x2="1068" y1="450" y2="440"/><line style="stroke:#00008B;stroke-width:1.0;" x1="763" x2="1058" y1="450" y2="450"/><line style="stroke:#00008B;stroke-width:1.0;" x1="1058" x2="1058" y1="450" y2="560"/><text fill="#000000" font-family="Malgun Gothic" font-size="12" font-weight="bold" lengthAdjust="spacing" textLength="68" x="877.5" y="466.0605">Web Server</text></g><!--cluster Application Server--><g id="cluster_Application Server"><polygon fill="#ADD8E6" points="407,637,417,627,662,627,662,1002,652,1012,407,1012,407,637" style="stroke:#00008B;stroke-width:1.0;"/><line style="stroke:#00008B;stroke-width:1.0;" x1="652" x2="662" y1="637" y2="627"/><line style="stroke:#00008B;stroke-width:1.0;" x1="407" x2="652" y1="637" y2="637"/><line style="stroke:#00008B;stroke-width:1.0;" x1="652" x2="652" y1="637" y2="1012"/><text fill="#000000" font-family="Malgun Gothic" font-size="12" font-weight="bold" lengthAdjust="spacing" textLength="106" x="477.5" y="653.0605">Application Server</text></g><!--cluster Database Server--><g id="cluster_Database Server"><polygon fill="#ADD8E6" points="21,1081,31,1071,1136,1071,1136,1281,1126,1291,21,1291,21,1081" style="stroke:#00008B;stroke-width:1.0;"/><line style="stroke:#00008B;stroke-width:1.0;" x1="1126" x2="1136" y1="1081" y2="1071"/><line style="stroke:#00008B;stroke-width:1.0;" x1="21" x2="1126" y1="1081" y2="1081"/><line style="stroke:#00008B;stroke-width:1.0;" x1="1126" x2="1126" y1="1081" y2="1291"/><text fill="#000000" font-family="Malgun Gothic" font-size="12" font-weight="bold" lengthAdjust="spacing" textLength="97" x="526" y="1097.0605">Database Server</text></g><!--cluster Oracle Database--><g id="cluster_Oracle Database"><path d="M178,1136 C178,1126 641,1126 641,1126 C641,1126 1104,1126 1104,1136 L1104,1249 C1104,1259 641,1259 641,1259 C641,1259 178,1259 178,1249 L178,1136 " fill="#FFFFFF" style="stroke:#000000;stroke-width:1.0;"/><path d="M178,1136 C178,1146 641,1146 641,1146 C641,1146 1104,1146 1104,1136 " fill="none" style="stroke:#000000;stroke-width:1.0;"/><text fill="#000000" font-family="Malgun Gothic" font-size="14" font-weight="bold" lengthAdjust="spacing" textLength="111" x="585.5" y="1163.2373">Oracle Database</text></g><!--cluster File Storage--><g id="cluster_File Storage"><polygon fill="#ADD8E6" points="694,798,704,788,1133,788,1133,882,1123,892,694,892,694,798" style="stroke:#00008B;stroke-width:1.0;"/><line style="stroke:#00008B;stroke-width:1.0;" x1="1123" x2="1133" y1="798" y2="788"/><line style="stroke:#00008B;stroke-width:1.0;" x1="694" x2="1123" y1="798" y2="798"/><line style="stroke:#00008B;stroke-width:1.0;" x1="1123" x2="1123" y1="798" y2="892"/><text fill="#000000" font-family="Malgun Gothic" font-size="12" font-weight="bold" lengthAdjust="spacing" textLength="69" x="875" y="814.0605">File Storage</text></g><!--entity ReactApp--><g id="elem_ReactApp"><rect fill="#FFFFFF" height="48.6211" rx="2.5" ry="2.5" style="stroke:#000000;stroke-width:1.0;" width="150" x="837" y="300"/><rect fill="#FFFFFF" height="10" style="stroke:#000000;stroke-width:1.0;" width="15" x="967" y="305"/><rect fill="#FFFFFF" height="2" style="stroke:#000000;stroke-width:1.0;" width="4" x="965" y="307"/><rect fill="#FFFFFF" height="2" style="stroke:#000000;stroke-width:1.0;" width="4" x="965" y="311"/><text fill="#000000" font-family="Malgun Gothic" font-size="14" lengthAdjust="spacing" textLength="110" x="852" y="335.2373">React Application</text></g><!--entity UI--><g id="elem_UI"><rect fill="#FFFFFF" height="48.6211" rx="2.5" ry="2.5" style="stroke:#000000;stroke-width:1.0;" width="130" x="848" y="175"/><rect fill="#FFFFFF" height="10" style="stroke:#000000;stroke-width:1.0;" width="15" x="958" y="180"/><rect fill="#FFFFFF" height="2" style="stroke:#000000;stroke-width:1.0;" width="4" x="956" y="182"/><rect fill="#FFFFFF" height="2" style="stroke:#000000;stroke-width:1.0;" width="4" x="956" y="186"/><text fill="#000000" font-family="Malgun Gothic" font-size="14" lengthAdjust="spacing" textLength="90" x="863" y="210.2373">User Interface</text></g><!--entity Nginx--><g id="elem_Nginx"><rect fill="#FFFFFF" height="48.6211" rx="2.5" ry="2.5" style="stroke:#000000;stroke-width:1.0;" width="77" x="806.5" y="487"/><rect fill="#FFFFFF" height="10" style="stroke:#000000;stroke-width:1.0;" width="15" x="863.5" y="492"/><rect fill="#FFFFFF" height="2" style="stroke:#000000;stroke-width:1.0;" width="4" x="861.5" y="494"/><rect fill="#FFFFFF" height="2" style="stroke:#000000;stroke-width:1.0;" width="4" x="861.5" y="498"/><text fill="#000000" font-family="Malgun Gothic" font-size="14" lengthAdjust="spacing" textLength="37" x="821.5" y="522.2373">Nginx</text></g><g id="elem_GMN7"><path d="M918.5,489 L918.5,507.5 L883.52,511.5 L918.5,515.5 L918.5,533.582 A0,0 0 0 0 918.5,533.582 L1043.5,533.582 A0,0 0 0 0 1043.5,533.582 L1043.5,499 L1033.5,489 L918.5,489 A0,0 0 0 0 918.5,489 " fill="#FFFFFF" style="stroke:#000000;stroke-width:1.0;"/><path d="M1033.5,489 L1033.5,499 L1043.5,499 L1033.5,489 " fill="#FFFFFF" style="stroke:#000000;stroke-width:1.0;"/><text fill="#000000" font-family="Malgun Gothic" font-size="13" lengthAdjust="spacing" textLength="83" x="924.5" y="508.1489">Reverse Proxy</text><text fill="#000000" font-family="Malgun Gothic" font-size="13" lengthAdjust="spacing" textLength="104" x="924.5" y="525.4399">Static File Serving</text></g><!--entity SpringApp--><g id="elem_SpringApp"><rect fill="#FFFFFF" height="48.6211" rx="2.5" ry="2.5" style="stroke:#000000;stroke-width:1.0;" width="188" x="450" y="674"/><rect fill="#FFFFFF" height="10" style="stroke:#000000;stroke-width:1.0;" width="15" x="618" y="679"/><rect fill="#FFFFFF" height="2" style="stroke:#000000;stroke-width:1.0;" width="4" x="616" y="681"/><rect fill="#FFFFFF" height="2" style="stroke:#000000;stroke-width:1.0;" width="4" x="616" y="685"/><text fill="#000000" font-family="Malgun Gothic" font-size="14" lengthAdjust="spacing" textLength="148" x="465" y="709.2373">Spring Boot Application</text></g><!--entity RESTAPI--><g id="elem_RESTAPI"><rect fill="#FFFFFF" height="48.6211" rx="2.5" ry="2.5" style="stroke:#000000;stroke-width:1.0;" width="97" x="451.5" y="827"/><rect fill="#FFFFFF" height="10" style="stroke:#000000;stroke-width:1.0;" width="15" x="528.5" y="832"/><rect fill="#FFFFFF" height="2" style="stroke:#000000;stroke-width:1.0;" width="4" x="526.5" y="834"/><rect fill="#FFFFFF" height="2" style="stroke:#000000;stroke-width:1.0;" width="4" x="526.5" y="838"/><text fill="#000000" font-family="Malgun Gothic" font-size="14" lengthAdjust="spacing" textLength="57" x="466.5" y="862.2373">REST API</text></g><!--entity BusinessLogic--><g id="elem_BusinessLogic"><rect fill="#FFFFFF" height="48.6211" rx="2.5" ry="2.5" style="stroke:#000000;stroke-width:1.0;" width="131" x="495.5" y="939"/><rect fill="#FFFFFF" height="10" style="stroke:#000000;stroke-width:1.0;" width="15" x="606.5" y="944"/><rect fill="#FFFFFF" height="2" style="stroke:#000000;stroke-width:1.0;" width="4" x="604.5" y="946"/><rect fill="#FFFFFF" height="2" style="stroke:#000000;stroke-width:1.0;" width="4" x="604.5" y="950"/><text fill="#000000" font-family="Malgun Gothic" font-size="14" lengthAdjust="spacing" textLength="91" x="510.5" y="974.2373">Business Logic</text></g><g id="elem_GMN22"><path d="M37,1171 L37,1250.1641 L151,1250.1641 L151,1181 L141,1171 L37,1171 " fill="#FFFFFF" style="stroke:#000000;stroke-width:1.0;"/><path d="M141,1171 L141,1181 L151,1181 L141,1171 " fill="#FFFFFF" style="stroke:#000000;stroke-width:1.0;"/><text fill="#000000" font-family="Malgun Gothic" font-size="13" lengthAdjust="spacing" textLength="85" x="43" y="1190.1489">Oracle DB 19c</text><text fill="#000000" font-family="Malgun Gothic" font-size="13" lengthAdjust="spacing" textLength="81" x="43" y="1207.4399">- 19&#44060; &#53580;&#51060;&#48660;</text><text fill="#000000" font-family="Malgun Gothic" font-size="13" lengthAdjust="spacing" textLength="93" x="43" y="1224.731">- &#51064;&#45937;&#49828; &#52572;&#51201;&#54868;</text><text fill="#000000" font-family="Malgun Gothic" font-size="13" lengthAdjust="spacing" textLength="93" x="43" y="1242.022">- &#53944;&#47004;&#51117;&#49496; &#44288;&#47532;</text></g><!--entity ImageboardDB--><g id="elem_ImageboardDB"><rect fill="#FFFFFF" height="48.6211" rx="2.5" ry="2.5" style="stroke:#000000;stroke-width:1.0;" width="138" x="221" y="1186"/><rect fill="#FFFFFF" height="10" style="stroke:#000000;stroke-width:1.0;" width="15" x="339" y="1191"/><rect fill="#FFFFFF" height="2" style="stroke:#000000;stroke-width:1.0;" width="4" x="337" y="1193"/><rect fill="#FFFFFF" height="2" style="stroke:#000000;stroke-width:1.0;" width="4" x="337" y="1197"/><text fill="#000000" font-family="Malgun Gothic" font-size="14" lengthAdjust="spacing" textLength="98" x="236" y="1221.2373">IMAGEBOARD1</text></g><!--entity BidDB--><g id="elem_BidDB"><rect fill="#FFFFFF" height="48.6211" rx="2.5" ry="2.5" style="stroke:#000000;stroke-width:1.0;" width="70" x="394" y="1186"/><rect fill="#FFFFFF" height="10" style="stroke:#000000;stroke-width:1.0;" width="15" x="444" y="1191"/><rect fill="#FFFFFF" height="2" style="stroke:#000000;stroke-width:1.0;" width="4" x="442" y="1193"/><rect fill="#FFFFFF" height="2" style="stroke:#000000;stroke-width:1.0;" width="4" x="442" y="1197"/><text fill="#000000" font-family="Malgun Gothic" font-size="14" lengthAdjust="spacing" textLength="30" x="409" y="1221.2373">BID1</text></g><!--entity MemberDB--><g id="elem_MemberDB"><rect fill="#FFFFFF" height="48.6211" rx="2.5" ry="2.5" style="stroke:#000000;stroke-width:1.0;" width="105" x="499.5" y="1186"/><rect fill="#FFFFFF" height="10" style="stroke:#000000;stroke-width:1.0;" width="15" x="584.5" y="1191"/><rect fill="#FFFFFF" height="2" style="stroke:#000000;stroke-width:1.0;" width="4" x="582.5" y="1193"/><rect fill="#FFFFFF" height="2" style="stroke:#000000;stroke-width:1.0;" width="4" x="582.5" y="1197"/><text fill="#000000" font-family="Malgun Gothic" font-size="14" lengthAdjust="spacing" textLength="65" x="514.5" y="1221.2373">MEMBER1</text></g><!--entity BoardDB--><g id="elem_BoardDB"><rect fill="#FFFFFF" height="48.6211" rx="2.5" ry="2.5" style="stroke:#000000;stroke-width:1.0;" width="95" x="639.5" y="1186"/><rect fill="#FFFFFF" height="10" style="stroke:#000000;stroke-width:1.0;" width="15" x="714.5" y="1191"/><rect fill="#FFFFFF" height="2" style="stroke:#000000;stroke-width:1.0;" width="4" x="712.5" y="1193"/><rect fill="#FFFFFF" height="2" style="stroke:#000000;stroke-width:1.0;" width="4" x="712.5" y="1197"/><text fill="#000000" font-family="Malgun Gothic" font-size="14" lengthAdjust="spacing" textLength="55" x="654.5" y="1221.2373">BOARD1</text></g><!--entity EventProductDB--><g id="elem_EventProductDB"><rect fill="#FFFFFF" height="48.6211" rx="2.5" ry="2.5" style="stroke:#000000;stroke-width:1.0;" width="159" x="769.5" y="1186"/><rect fill="#FFFFFF" height="10" style="stroke:#000000;stroke-width:1.0;" width="15" x="908.5" y="1191"/><rect fill="#FFFFFF" height="2" style="stroke:#000000;stroke-width:1.0;" width="4" x="906.5" y="1193"/><rect fill="#FFFFFF" height="2" style="stroke:#000000;stroke-width:1.0;" width="4" x="906.5" y="1197"/><text fill="#000000" font-family="Malgun Gothic" font-size="14" lengthAdjust="spacing" textLength="119" x="784.5" y="1221.2373">EVENT_PRODUCT1</text></g><!--entity ManagerDB--><g id="elem_ManagerDB"><rect fill="#FFFFFF" height="48.6211" rx="2.5" ry="2.5" style="stroke:#000000;stroke-width:1.0;" width="116" x="964" y="1186"/><rect fill="#FFFFFF" height="10" style="stroke:#000000;stroke-width:1.0;" width="15" x="1060" y="1191"/><rect fill="#FFFFFF" height="2" style="stroke:#000000;stroke-width:1.0;" width="4" x="1058" y="1193"/><rect fill="#FFFFFF" height="2" style="stroke:#000000;stroke-width:1.0;" width="4" x="1058" y="1197"/><text fill="#000000" font-family="Malgun Gothic" font-size="14" lengthAdjust="spacing" textLength="76" x="979" y="1221.2373">MANAGER1</text></g><!--entity ImageStorage--><g id="elem_ImageStorage"><rect fill="#FFFFFF" height="48.6211" rx="2.5" ry="2.5" style="stroke:#000000;stroke-width:1.0;" width="133" x="710.5" y="827"/><rect fill="#FFFFFF" height="10" style="stroke:#000000;stroke-width:1.0;" width="15" x="823.5" y="832"/><rect fill="#FFFFFF" height="2" style="stroke:#000000;stroke-width:1.0;" width="4" x="821.5" y="834"/><rect fill="#FFFFFF" height="2" style="stroke:#000000;stroke-width:1.0;" width="4" x="821.5" y="838"/><text fill="#000000" font-family="Malgun Gothic" font-size="14" lengthAdjust="spacing" textLength="93" x="725.5" y="862.2373">Image Storage</text></g><!--entity CSSFiles--><g id="elem_CSSFiles"><rect fill="#FFFFFF" height="48.6211" rx="2.5" ry="2.5" style="stroke:#000000;stroke-width:1.0;" width="97" x="878.5" y="827"/><rect fill="#FFFFFF" height="10" style="stroke:#000000;stroke-width:1.0;" width="15" x="955.5" y="832"/><rect fill="#FFFFFF" height="2" style="stroke:#000000;stroke-width:1.0;" width="4" x="953.5" y="834"/><rect fill="#FFFFFF" height="2" style="stroke:#000000;stroke-width:1.0;" width="4" x="953.5" y="838"/><text fill="#000000" font-family="Malgun Gothic" font-size="14" lengthAdjust="spacing" textLength="57" x="893.5" y="862.2373">CSS Files</text></g><!--entity ChartFiles--><g id="elem_ChartFiles"><rect fill="#FFFFFF" height="48.6211" rx="2.5" ry="2.5" style="stroke:#000000;stroke-width:1.0;" width="106" x="1011" y="827"/><rect fill="#FFFFFF" height="10" style="stroke:#000000;stroke-width:1.0;" width="15" x="1097" y="832"/><rect fill="#FFFFFF" height="2" style="stroke:#000000;stroke-width:1.0;" width="4" x="1095" y="834"/><rect fill="#FFFFFF" height="2" style="stroke:#000000;stroke-width:1.0;" width="4" x="1095" y="838"/><text fill="#000000" font-family="Malgun Gothic" font-size="14" lengthAdjust="spacing" textLength="66" x="1026" y="862.2373">Chart Files</text></g><g id="elem_GMN45"><path d="M730,11 L730,72.873 L896,72.873 L896,21 L886,11 L730,11 " fill="#FFFFFF" style="stroke:#000000;stroke-width:1.0;"/><path d="M886,11 L886,21 L896,21 L886,11 " fill="#FFFFFF" style="stroke:#000000;stroke-width:1.0;"/><text fill="#000000" font-family="Malgun Gothic" font-size="13" lengthAdjust="spacing" textLength="96" x="736" y="30.1489">&#49324;&#50857;&#51088; &#48652;&#46972;&#50864;&#51200;</text><text fill="#000000" font-family="Malgun Gothic" font-size="13" lengthAdjust="spacing" textLength="145" x="736" y="47.4399">- Chrome, Firefox, Safari</text><text fill="#000000" font-family="Malgun Gothic" font-size="13" lengthAdjust="spacing" textLength="144" x="736" y="64.731">- &#47784;&#48148;&#51068;/&#53468;&#48660;&#47551;/PC &#51648;&#50896;</text></g><g id="elem_GMN48"><path d="M627,285 L627,364.1641 L781,364.1641 L781,295 L771,285 L627,285 " fill="#FFFFFF" style="stroke:#000000;stroke-width:1.0;"/><path d="M771,285 L771,295 L781,295 L771,285 " fill="#FFFFFF" style="stroke:#000000;stroke-width:1.0;"/><text fill="#000000" font-family="Malgun Gothic" font-size="13" lengthAdjust="spacing" textLength="44" x="633" y="304.1489">&#50937; &#49436;&#48260;</text><text fill="#000000" font-family="Malgun Gothic" font-size="13" lengthAdjust="spacing" textLength="133" x="633" y="321.4399">- Nginx Reverse Proxy</text><text fill="#000000" font-family="Malgun Gothic" font-size="13" lengthAdjust="spacing" textLength="98" x="633" y="338.731">- &#51221;&#51201; &#54028;&#51068; &#49436;&#48729;</text><text fill="#000000" font-family="Malgun Gothic" font-size="13" lengthAdjust="spacing" textLength="80" x="633" y="356.022">- &#47196;&#46300; &#48184;&#47088;&#49905;</text></g><g id="elem_GMN51"><path d="M350,472 L350,551.1641 L480,551.1641 L480,482 L470,472 L350,472 " fill="#FFFFFF" style="stroke:#000000;stroke-width:1.0;"/><path d="M470,472 L470,482 L480,482 L470,472 " fill="#FFFFFF" style="stroke:#000000;stroke-width:1.0;"/><text fill="#000000" font-family="Malgun Gothic" font-size="13" lengthAdjust="spacing" textLength="109" x="356" y="491.1489">&#50528;&#54540;&#47532;&#52992;&#51060;&#49496; &#49436;&#48260;</text><text fill="#000000" font-family="Malgun Gothic" font-size="13" lengthAdjust="spacing" textLength="94" x="356" y="508.4399">- Spring Boot 3</text><text fill="#000000" font-family="Malgun Gothic" font-size="13" lengthAdjust="spacing" textLength="63" x="356" y="525.731">- Java 17+</text><text fill="#000000" font-family="Malgun Gothic" font-size="13" lengthAdjust="spacing" textLength="79" x="356" y="543.022">- RESTful API</text></g><!--link Oracle Database to GMN22--><g id="link_Oracle Database_GMN22"><path d="M177.9525,1210.5 C177.595,1210.5 177.2375,1210.5 176.88,1210.5 C174.02,1210.5 171.16,1210.5 168.3,1210.5 C162.58,1210.5 156.86,1210.5 151.14,1210.5 " fill="none" id="Oracle Database-GMN22" style="stroke:#000000;stroke-width:1.0;stroke-dasharray:7.0,7.0;"/></g><!--link ReactApp to Nginx--><g id="link_ReactApp_Nginx"><path d="M903.38,349.31 C890.51,384.83 868.4728,445.6785 855.6328,481.1385 " fill="none" id="ReactApp-to-Nginx" style="stroke:#000000;stroke-width:1.0;"/><polygon fill="#000000" points="853.59,486.78,860.4152,479.6795,855.2923,482.0787,852.8932,476.9558,853.59,486.78" style="stroke:#000000;stroke-width:1.0;"/><text fill="#000000" font-family="Malgun Gothic" font-size="13" lengthAdjust="spacing" textLength="72" x="885" y="412.1489">HTTP/HTTPS</text></g><!--link UI to ReactApp--><g id="link_UI_ReactApp"><path d="M912.81,224.22 C912.63,246 912.4196,272.1002 912.2396,293.8602 " fill="none" id="UI-to-ReactApp" style="stroke:#000000;stroke-width:1.0;"/><polygon fill="#000000" points="912.19,299.86,916.2643,290.8934,912.2314,294.8602,908.2646,290.8272,912.19,299.86" style="stroke:#000000;stroke-width:1.0;"/></g><!--link Nginx to SpringApp--><g id="link_Nginx_SpringApp"><path d="M835.73,536.23 C828.91,550.32 818.17,567.11 803,576 C782.24,588.17 717.53,575.54 695,584 C643.11,603.49 598.1967,642.4915 570.7567,669.6215 " fill="none" id="Nginx-to-SpringApp" style="stroke:#000000;stroke-width:1.0;"/><polygon fill="#000000" points="566.49,673.84,575.7023,670.3567,570.0456,670.3246,570.0777,664.6678,566.49,673.84" style="stroke:#000000;stroke-width:1.0;"/><text fill="#000000" font-family="Malgun Gothic" font-size="13" lengthAdjust="spacing" textLength="64" x="696" y="599.1489">HTTP/REST</text></g><!--link Nginx to ImageStorage--><g id="link_Nginx_ImageStorage"><path d="M838.13,536.25 C832.53,556.11 824.64,585.26 819,611 C801.78,689.55 787.8209,777.8865 781.3509,820.9765 " fill="none" id="Nginx-to-ImageStorage" style="stroke:#000000;stroke-width:1.0;"/><polygon fill="#000000" points="780.46,826.91,785.752,818.6037,781.2024,821.9654,777.8407,817.4158,780.46,826.91" style="stroke:#000000;stroke-width:1.0;"/><text fill="#000000" font-family="Malgun Gothic" font-size="13" lengthAdjust="spacing" textLength="61" x="820" y="704.1489">Static Files</text></g><!--link Nginx to CSSFiles--><g id="link_Nginx_CSSFiles"><path d="M856.66,536.24 C865.86,555.86 878.37,584.67 886,611 C908.42,688.39 919.5853,777.6526 924.1253,821.0226 " fill="none" id="Nginx-to-CSSFiles" style="stroke:#000000;stroke-width:1.0;"/><polygon fill="#000000" points="924.75,826.99,927.7913,817.6225,924.2294,822.0172,919.8347,818.4554,924.75,826.99" style="stroke:#000000;stroke-width:1.0;"/><text fill="#000000" font-family="Malgun Gothic" font-size="13" lengthAdjust="spacing" textLength="61" x="911" y="704.1489">Static Files</text></g><!--link Nginx to ChartFiles--><g id="link_Nginx_ChartFiles"><path d="M861.84,536.24 C872.02,549.28 885.92,565 901,576 C932.35,598.87 954.66,582.5 981,611 C1039.24,674.02 1056.2591,774.0354 1061.3791,820.9554 " fill="none" id="Nginx-to-ChartFiles" style="stroke:#000000;stroke-width:1.0;"/><polygon fill="#000000" points="1062.03,826.92,1065.0301,817.5392,1061.4876,821.9495,1057.0773,818.407,1062.03,826.92" style="stroke:#000000;stroke-width:1.0;"/><text fill="#000000" font-family="Malgun Gothic" font-size="13" lengthAdjust="spacing" textLength="61" x="1041" y="704.1489">Static Files</text></g><!--link SpringApp to RESTAPI--><g id="link_SpringApp_RESTAPI"><path d="M537.12,723.09 C528.91,751.3 516.9089,792.4697 508.6489,820.8097 " fill="none" id="SpringApp-to-RESTAPI" style="stroke:#000000;stroke-width:1.0;"/><polygon fill="#000000" points="506.97,826.57,513.3286,819.0488,508.3691,821.7697,505.6481,816.8103,506.97,826.57" style="stroke:#000000;stroke-width:1.0;"/></g><!--link SpringApp to BusinessLogic--><g id="link_SpringApp_BusinessLogic"><path d="M552.24,723.11 C557.33,738.97 563.38,760.47 566,780 C573.09,832.86 568.13,846.71 566,900 C565.49,912.83 564.923,921.1437 563.883,932.8037 " fill="none" id="SpringApp-to-BusinessLogic" style="stroke:#000000;stroke-width:1.0;"/><polygon fill="#000000" points="563.35,938.78,568.1338,930.171,563.7942,933.7998,560.1654,929.4602,563.35,938.78" style="stroke:#000000;stroke-width:1.0;"/></g><!--link RESTAPI to BusinessLogic--><g id="link_RESTAPI_BusinessLogic"><path d="M513.09,876.1 C523.38,894.66 534.7395,915.1432 545.0295,933.6932 " fill="none" id="RESTAPI-to-BusinessLogic" style="stroke:#000000;stroke-width:1.0;"/><polygon fill="#000000" points="547.94,938.94,547.0721,929.1295,545.5146,934.5677,540.0764,933.0101,547.94,938.94" style="stroke:#000000;stroke-width:1.0;"/></g><!--link BusinessLogic to ImageboardDB--><g id="link_BusinessLogic_ImageboardDB"><path d="M495.24,987.05 C456.59,1003.12 409.16,1028.09 377,1063 C342.02,1100.96 316.815,1149.7879 302.705,1180.4979 " fill="none" id="BusinessLogic-to-ImageboardDB" style="stroke:#000000;stroke-width:1.0;"/><polygon fill="#000000" points="300.2,1185.95,307.5922,1179.4419,302.2875,1181.4066,300.3228,1176.1019,300.2,1185.95" style="stroke:#000000;stroke-width:1.0;"/><text fill="#000000" font-family="Malgun Gothic" font-size="13" lengthAdjust="spacing" textLength="56" x="407" y="1051.1489">JDBC/JPA</text></g><!--link BusinessLogic to BidDB--><g id="link_BusinessLogic_BidDB"><path d="M532.43,988.31 C518.4,1001.23 502.15,1018.18 491,1036 C460.38,1084.95 443.4825,1145.2768 435.3725,1180.0568 " fill="none" id="BusinessLogic-to-BidDB" style="stroke:#000000;stroke-width:1.0;"/><polygon fill="#000000" points="434.01,1185.9,439.9493,1178.0435,435.1454,1181.0306,432.1583,1176.2268,434.01,1185.9" style="stroke:#000000;stroke-width:1.0;"/><text fill="#000000" font-family="Malgun Gothic" font-size="13" lengthAdjust="spacing" textLength="56" x="492" y="1051.1489">JDBC/JPA</text></g><!--link BusinessLogic to MemberDB--><g id="link_BusinessLogic_MemberDB"><path d="M560.12,988.44 C558.4,1035.4 554.8106,1133.0841 553.0906,1179.8341 " fill="none" id="BusinessLogic-to-MemberDB" style="stroke:#000000;stroke-width:1.0;"/><polygon fill="#000000" points="552.87,1185.83,557.1982,1176.9832,553.0538,1180.8334,549.2036,1176.689,552.87,1185.83" style="stroke:#000000;stroke-width:1.0;"/><text fill="#000000" font-family="Malgun Gothic" font-size="13" lengthAdjust="spacing" textLength="56" x="559" y="1051.1489">JDBC/JPA</text></g><!--link BusinessLogic to BoardDB--><g id="link_BusinessLogic_BoardDB"><path d="M585.94,988.17 C598.67,1001.31 613.62,1018.5 624,1036 C653.42,1085.61 671.1407,1145.4152 679.9407,1180.0052 " fill="none" id="BusinessLogic-to-BoardDB" style="stroke:#000000;stroke-width:1.0;"/><polygon fill="#000000" points="681.42,1185.82,683.0775,1176.1116,680.1872,1180.9744,675.3245,1178.0841,681.42,1185.82" style="stroke:#000000;stroke-width:1.0;"/><text fill="#000000" font-family="Malgun Gothic" font-size="13" lengthAdjust="spacing" textLength="56" x="634" y="1051.1489">JDBC/JPA</text></g><!--link BusinessLogic to EventProductDB--><g id="link_BusinessLogic_EventProductDB"><path d="M625.77,988.11 C665.32,1004.77 715.2,1029.99 752,1063 C791.86,1098.74 820.0052,1148.9444 835.4352,1180.3644 " fill="none" id="BusinessLogic-to-EventProductDB" style="stroke:#000000;stroke-width:1.0;"/><polygon fill="#000000" points="838.08,1185.75,837.7032,1175.9084,835.876,1181.262,830.5224,1179.4348,838.08,1185.75" style="stroke:#000000;stroke-width:1.0;"/><text fill="#000000" font-family="Malgun Gothic" font-size="13" lengthAdjust="spacing" textLength="56" x="739" y="1051.1489">JDBC/JPA</text></g><!--link BusinessLogic to ManagerDB--><g id="link_BusinessLogic_ManagerDB"><path d="M626.7,965.43 C709.58,969.87 852.55,988.75 946,1063 C985.93,1094.73 1005.4581,1147.3834 1014.6281,1180.0434 " fill="none" id="BusinessLogic-to-ManagerDB" style="stroke:#000000;stroke-width:1.0;"/><polygon fill="#000000" points="1016.25,1185.82,1017.6682,1176.0738,1014.8984,1181.0061,1009.966,1178.2363,1016.25,1185.82" style="stroke:#000000;stroke-width:1.0;"/><text fill="#000000" font-family="Malgun Gothic" font-size="13" lengthAdjust="spacing" textLength="56" x="929" y="1051.1489">JDBC/JPA</text></g><!--link SpringApp to ImageStorage--><g id="link_SpringApp_ImageStorage"><path d="M565.21,723.14 C580.65,739.03 602.83,759.31 626,772 C637.35,778.22 642.08,774.97 654,780 C684.73,792.97 712.2956,808.7743 736.2356,823.7743 " fill="none" id="SpringApp-to-ImageStorage" style="stroke:#000000;stroke-width:1.0;"/><polygon fill="#000000" points="741.32,826.96,735.8172,818.7918,737.083,824.3052,731.5696,825.571,741.32,826.96" style="stroke:#000000;stroke-width:1.0;"/><text fill="#000000" font-family="Malgun Gothic" font-size="13" lengthAdjust="spacing" textLength="133" x="627" y="768.1489">File Upload/Download</text></g><!--link GMN45 to Client Browser--><g id="link_GMN45_Client Browser"><path d="M813,73.35 C813,84.4875 813,97.7225 813,111.3481 C813,114.7545 813,118.1854 813,121.6139 C813,123.3282 813,125.0419 813,126.7517 C813,126.9655 813,127.1791 813,127.3927 " fill="none" id="GMN45-Client Browser" style="stroke:#000000;stroke-width:1.0;stroke-dasharray:7.0,7.0;"/></g><!--link GMN48 to Web Server--><g id="link_GMN48_Web Server"><path d="M718.05,364.28 C727.715,390.98 740.6925,426.82 751.3813,456.3337 C754.0534,463.7122 756.5826,470.6952 758.8812,477.0412 C760.0304,480.2142 761.1221,483.228 762.1451,486.0522 C762.4009,486.7583 762.6524,487.4525 762.8994,488.1344 " fill="none" id="GMN48-Web Server" style="stroke:#000000;stroke-width:1.0;stroke-dasharray:7.0,7.0;"/></g><!--link GMN51 to Application Server--><g id="link_GMN51_Application Server"><path d="M415,551.28 C415,564.63 415,580.265 415,596.2517 C415,604.2451 415,612.3264 415,620.2539 C415,622.2358 415,624.2081 415,626.167 C415,626.4119 415,626.6565 415,626.9009 " fill="none" id="GMN51-Application Server" style="stroke:#000000;stroke-width:1.0;stroke-dasharray:7.0,7.0;"/></g><!--SRC=[ZLJVJzDG67tlN_6v5n-4BEY3qGUJTHiumiQoRlfWZBcqTrj3rxlSTe0QagdmWfYG255Wu4mC_WWcWs0oaYN-F_JkV_3sjbsxCS0zBBtddFkTxxRVkRViAgvXg1j8DoLhKJVhYA8QQBYC6eOzJKmxXpWVooAZqZ1XXjXLNOr5b2RHCBoMWFzaf2vMA6cOMf8OXCASNgdQij707akeXgd7f11T712kYQA_mZ1rLrgL954mbZHqRDeWKx9iOHhp7PuLC59jIDJhXguYMoVcSq0M29I3dgR4Dq36j34j8nKBGIaJLdwA5q31T2bIDLVHpHKX54y2D8cDWRed05AEuC3T-5uBGvwIbPS-fjYy6nMcTGEBuhfP4GmsDL4fj8_qFjg6KgTy7tzHvF8HFMvmna9QAK8Yd_6EpnVysMFaXgMRsB9WZbHqLV01992manIoqGAoy4WRMW37vYbI-Na2NI0GDfbiOYOjpoSAgIdXaQcX2buWY6efELJ96P-MzI4ycyxAwO97PN5j0TEXNM5PURHY-aawLtoHByodIicYfqalyKdX7qDhgFQGIIB7UmnSaCaR36nMntpYIyVrAmMm35CFL1-RvCyNdHRqrpVPmPdJtHxWxA3hV3XX6z-0_Mcnzfl-RiZrDxhEOOiT_cRhd-7YhEaS7Lyn9DuSsOJodWVZ8LvnW8OltGSyJL9Hn11QWkShiV2vAg9sb7NN7i-DRmFxrBauxKX1c61oyf4tz_0G7XUB-RZxfqYbZ606cPCyZOiDXZJOuKvcX8_sooMHq5WHLT3rDOf1vwCQAMn1DEadOnWTpeEl6SD8Gylm1FwOS-_Pb9oCp-OJOvHYug-N19D_Gw7_SHlEm0ssGHIYif5NDFAbn3oMwWP1MZn5battmPrLdX-Rr4LwHYviFdBixJ7R-yaEjy3fRZe7FRRNOUscv2OXMQMaXYTuNOhBP6K255H6L1USy-k7qzbc1xru_rsBHyiv-XlF9u5zRxBzBMcGbM7toANkEk-V0rjhEQTheg8tEAFNDizgUuSd5FgRFCGziU5yrslXQylvs0AdqtM-TDZxawjSnzpbhljEkx-zoSFDUar-ExXXZpGJlUJl2MGMBI6Okdz7BDnfB3SCzsuFNVy1]--></g></svg>