<?xml version="1.0" encoding="us-ascii" standalone="no"?><svg xmlns="http://www.w3.org/2000/svg" xmlns:xlink="http://www.w3.org/1999/xlink" contentStyleType="text/css" height="1047px" preserveAspectRatio="none" style="width:661px;height:1047px;background:#FFFFFF;" version="1.1" viewBox="0 0 661 1047" width="661px" zoomAndPan="magnify"><defs/><g><!--cluster Client Browser--><g id="cluster_Client Browser"><polygon fill="#ADD8E6" points="316,21,326,11,498,11,498,123,488,133,316,133,316,21" style="stroke:#00008B;stroke-width:1.0;"/><line style="stroke:#00008B;stroke-width:1.0;" x1="488" x2="498" y1="21" y2="11"/><line style="stroke:#00008B;stroke-width:1.0;" x1="316" x2="488" y1="21" y2="21"/><line style="stroke:#00008B;stroke-width:1.0;" x1="488" x2="488" y1="21" y2="133"/><text fill="#000000" font-family="Malgun Gothic" font-size="12" font-weight="bold" lengthAdjust="spacing" textLength="85" x="360.5" y="37.0605">Client Browser</text></g><!--cluster Web Server--><g id="cluster_Web Server"><polygon fill="#ADD8E6" points="325,206.5,335,196.5,489,196.5,489,308.5,479,318.5,325,318.5,325,206.5" style="stroke:#00008B;stroke-width:1.0;"/><line style="stroke:#00008B;stroke-width:1.0;" x1="479" x2="489" y1="206.5" y2="196.5"/><line style="stroke:#00008B;stroke-width:1.0;" x1="325" x2="479" y1="206.5" y2="206.5"/><line style="stroke:#00008B;stroke-width:1.0;" x1="479" x2="479" y1="206.5" y2="318.5"/><text fill="#000000" font-family="Malgun Gothic" font-size="12" font-weight="bold" lengthAdjust="spacing" textLength="68" x="369" y="222.5605">Web Server</text></g><!--cluster Application Server--><g id="cluster_Application Server"><polygon fill="#ADD8E6" points="21,392,31,382,203,382,203,767.5,193,777.5,21,777.5,21,392" style="stroke:#00008B;stroke-width:1.0;"/><line style="stroke:#00008B;stroke-width:1.0;" x1="193" x2="203" y1="392" y2="382"/><line style="stroke:#00008B;stroke-width:1.0;" x1="21" x2="193" y1="392" y2="392"/><line style="stroke:#00008B;stroke-width:1.0;" x1="193" x2="193" y1="392" y2="777.5"/><text fill="#000000" font-family="Malgun Gothic" font-size="12" font-weight="bold" lengthAdjust="spacing" textLength="106" x="55" y="408.0605">Application Server</text></g><!--cluster Database Server--><g id="cluster_Database Server"><polygon fill="#ADD8E6" points="227,586.5,237,576.5,435,576.5,435,828.5,425,838.5,227,838.5,227,586.5" style="stroke:#00008B;stroke-width:1.0;"/><line style="stroke:#00008B;stroke-width:1.0;" x1="425" x2="435" y1="586.5" y2="576.5"/><line style="stroke:#00008B;stroke-width:1.0;" x1="227" x2="425" y1="586.5" y2="586.5"/><line style="stroke:#00008B;stroke-width:1.0;" x1="425" x2="425" y1="586.5" y2="838.5"/><text fill="#000000" font-family="Malgun Gothic" font-size="12" font-weight="bold" lengthAdjust="spacing" textLength="97" x="278.5" y="602.5605">Database Server</text></g><!--cluster Oracle Database 19c--><g id="cluster_Oracle Database 19c"><path d="M251,633.5 C251,623.5 331,623.5 331,623.5 C331,623.5 411,623.5 411,633.5 L411,804.5 C411,814.5 331,814.5 331,814.5 C331,814.5 251,814.5 251,804.5 L251,633.5 " fill="#FFFFFF" style="stroke:#000000;stroke-width:1.0;"/><path d="M251,633.5 C251,643.5 331,643.5 331,643.5 C331,643.5 411,643.5 411,633.5 " fill="none" style="stroke:#000000;stroke-width:1.0;"/><text fill="#000000" font-family="Malgun Gothic" font-size="14" font-weight="bold" lengthAdjust="spacing" textLength="139" x="261.5" y="660.7373">Oracle Database 19c</text></g><!--cluster File Storage--><g id="cluster_File Storage"><polygon fill="#ADD8E6" points="209,899.5,219,889.5,385,889.5,385,1020.5,375,1030.5,209,1030.5,209,899.5" style="stroke:#00008B;stroke-width:1.0;"/><line style="stroke:#00008B;stroke-width:1.0;" x1="375" x2="385" y1="899.5" y2="889.5"/><line style="stroke:#00008B;stroke-width:1.0;" x1="209" x2="375" y1="899.5" y2="899.5"/><line style="stroke:#00008B;stroke-width:1.0;" x1="375" x2="375" y1="899.5" y2="1030.5"/><text fill="#000000" font-family="Malgun Gothic" font-size="12" font-weight="bold" lengthAdjust="spacing" textLength="69" x="258.5" y="915.5605">File Storage</text></g><!--entity ReactApp--><g id="elem_ReactApp"><rect fill="#FFFFFF" height="67.2422" rx="2.5" ry="2.5" style="stroke:#000000;stroke-width:1.0;" width="150" x="332" y="50"/><rect fill="#FFFFFF" height="10" style="stroke:#000000;stroke-width:1.0;" width="15" x="462" y="55"/><rect fill="#FFFFFF" height="2" style="stroke:#000000;stroke-width:1.0;" width="4" x="460" y="57"/><rect fill="#FFFFFF" height="2" style="stroke:#000000;stroke-width:1.0;" width="4" x="460" y="61"/><text fill="#000000" font-family="Malgun Gothic" font-size="14" lengthAdjust="spacing" textLength="110" x="347" y="85.2373">React Application</text><text fill="#000000" font-family="Malgun Gothic" font-size="14" lengthAdjust="spacing" textLength="81" x="347" y="103.8584">React + Vite</text></g><!--entity Nginx--><g id="elem_Nginx"><rect fill="#FFFFFF" height="67.2422" rx="2.5" ry="2.5" style="stroke:#000000;stroke-width:1.0;" width="131" x="341.5" y="235.5"/><rect fill="#FFFFFF" height="10" style="stroke:#000000;stroke-width:1.0;" width="15" x="452.5" y="240.5"/><rect fill="#FFFFFF" height="2" style="stroke:#000000;stroke-width:1.0;" width="4" x="450.5" y="242.5"/><rect fill="#FFFFFF" height="2" style="stroke:#000000;stroke-width:1.0;" width="4" x="450.5" y="246.5"/><text fill="#000000" font-family="Malgun Gothic" font-size="14" lengthAdjust="spacing" textLength="37" x="356.5" y="270.7373">Nginx</text><text fill="#000000" font-family="Malgun Gothic" font-size="14" lengthAdjust="spacing" textLength="91" x="356.5" y="289.3584">Reverse Proxy</text></g><!--entity SpringApp--><g id="elem_SpringApp"><rect fill="#FFFFFF" height="67.2422" rx="2.5" ry="2.5" style="stroke:#000000;stroke-width:1.0;" width="138" x="49" y="421"/><rect fill="#FFFFFF" height="10" style="stroke:#000000;stroke-width:1.0;" width="15" x="167" y="426"/><rect fill="#FFFFFF" height="2" style="stroke:#000000;stroke-width:1.0;" width="4" x="165" y="428"/><rect fill="#FFFFFF" height="2" style="stroke:#000000;stroke-width:1.0;" width="4" x="165" y="432"/><text fill="#000000" font-family="Malgun Gothic" font-size="14" lengthAdjust="spacing" textLength="98" x="64" y="456.2373">Spring Boot 4.0</text><text fill="#000000" font-family="Malgun Gothic" font-size="14" lengthAdjust="spacing" textLength="57" x="64" y="474.8584">REST API</text></g><!--entity FileHandler--><g id="elem_FileHandler"><rect fill="#FFFFFF" height="48.6211" rx="2.5" ry="2.5" style="stroke:#000000;stroke-width:1.0;" width="115" x="66.5" y="712.5"/><rect fill="#FFFFFF" height="10" style="stroke:#000000;stroke-width:1.0;" width="15" x="161.5" y="717.5"/><rect fill="#FFFFFF" height="2" style="stroke:#000000;stroke-width:1.0;" width="4" x="159.5" y="719.5"/><rect fill="#FFFFFF" height="2" style="stroke:#000000;stroke-width:1.0;" width="4" x="159.5" y="723.5"/><text fill="#000000" font-family="Malgun Gothic" font-size="14" lengthAdjust="spacing" textLength="75" x="81.5" y="747.7373">File Handler</text></g><!--entity OracleDB--><g id="elem_OracleDB"><rect fill="#FFFFFF" height="123.1055" rx="2.5" ry="2.5" style="stroke:#000000;stroke-width:1.0;" width="127" x="267.5" y="675.5"/><rect fill="#FFFFFF" height="10" style="stroke:#000000;stroke-width:1.0;" width="15" x="374.5" y="680.5"/><rect fill="#FFFFFF" height="2" style="stroke:#000000;stroke-width:1.0;" width="4" x="372.5" y="682.5"/><rect fill="#FFFFFF" height="2" style="stroke:#000000;stroke-width:1.0;" width="4" x="372.5" y="686.5"/><text fill="#000000" font-family="Malgun Gothic" font-size="14" lengthAdjust="spacing" textLength="77" x="282.5" y="710.7373">19&#44060; &#53580;&#51060;&#48660;</text><text fill="#000000" font-family="Malgun Gothic" font-size="14" lengthAdjust="spacing" textLength="73" x="282.5" y="729.3584">- &#44221;&#47588;/&#51077;&#52272;</text><text fill="#000000" font-family="Malgun Gothic" font-size="14" lengthAdjust="spacing" textLength="87" x="282.5" y="747.9795">- &#54924;&#50896;/&#44172;&#49884;&#54032;</text><text fill="#000000" font-family="Malgun Gothic" font-size="14" lengthAdjust="spacing" textLength="87" x="282.5" y="766.6006">- &#51060;&#48292;&#53944;/&#51452;&#47928;</text><text fill="#000000" font-family="Malgun Gothic" font-size="14" lengthAdjust="spacing" textLength="87" x="282.5" y="785.2217">- &#44288;&#47532;&#51088;/&#49444;&#51221;</text></g><!--entity FileStorage--><g id="elem_FileStorage"><rect fill="#FFFFFF" height="85.8633" rx="2.5" ry="2.5" style="stroke:#000000;stroke-width:1.0;" width="143" x="225.5" y="928.5"/><rect fill="#FFFFFF" height="10" style="stroke:#000000;stroke-width:1.0;" width="15" x="348.5" y="933.5"/><rect fill="#FFFFFF" height="2" style="stroke:#000000;stroke-width:1.0;" width="4" x="346.5" y="935.5"/><rect fill="#FFFFFF" height="2" style="stroke:#000000;stroke-width:1.0;" width="4" x="346.5" y="939.5"/><text fill="#000000" font-family="Malgun Gothic" font-size="14" lengthAdjust="spacing" textLength="75" x="240.5" y="963.7373">File Storage</text><text fill="#000000" font-family="Malgun Gothic" font-size="14" lengthAdjust="spacing" textLength="101" x="240.5" y="982.3584">- &#51060;&#48120;&#51648;/&#50040;&#45348;&#51068;</text><text fill="#000000" font-family="Malgun Gothic" font-size="14" lengthAdjust="spacing" textLength="103" x="240.5" y="1000.9795">- CSS/&#52264;&#53944; &#54028;&#51068;</text></g><g id="elem_GMN20"><path d="M517,35.5 L517,79.5 L482.28,83.5 L517,87.5 L517,131.9551 A0,0 0 0 0 517,131.9551 L649,131.9551 A0,0 0 0 0 649,131.9551 L649,45.5 L639,35.5 L517,35.5 A0,0 0 0 0 517,35.5 " fill="#FFFFFF" style="stroke:#000000;stroke-width:1.0;"/><path d="M639,35.5 L639,45.5 L649,45.5 L639,35.5 " fill="#FFFFFF" style="stroke:#000000;stroke-width:1.0;"/><text fill="#000000" font-family="Malgun Gothic" font-size="13" font-weight="bold" lengthAdjust="spacing" textLength="65" x="523" y="54.6489">&#54532;&#47200;&#53944;&#50644;&#46300;</text><text fill="#000000" font-family="Malgun Gothic" font-size="13" lengthAdjust="spacing" textLength="83" x="523" y="71.9399">- React + Vite</text><text fill="#000000" font-family="Malgun Gothic" font-size="13" lengthAdjust="spacing" textLength="87" x="523" y="89.231">- React Router</text><text fill="#000000" font-family="Malgun Gothic" font-size="13" lengthAdjust="spacing" textLength="68" x="523" y="106.522">- Bootstrap</text><text fill="#000000" font-family="Malgun Gothic" font-size="13" lengthAdjust="spacing" textLength="111" x="523" y="123.813">- &#52980;&#54252;&#45324;&#53944; &#44592;&#48152; UI</text></g><g id="elem_GMN23"><path d="M507.5,221 L507.5,265 L472.62,269 L507.5,273 L507.5,317.4551 A0,0 0 0 0 507.5,317.4551 L626.5,317.4551 A0,0 0 0 0 626.5,317.4551 L626.5,231 L616.5,221 L507.5,221 A0,0 0 0 0 507.5,221 " fill="#FFFFFF" style="stroke:#000000;stroke-width:1.0;"/><path d="M616.5,221 L616.5,231 L626.5,231 L616.5,221 " fill="#FFFFFF" style="stroke:#000000;stroke-width:1.0;"/><text fill="#000000" font-family="Malgun Gothic" font-size="13" font-weight="bold" lengthAdjust="spacing" textLength="44" x="513.5" y="240.1489">&#50937; &#49436;&#48260;</text><text fill="#000000" font-family="Malgun Gothic" font-size="13" lengthAdjust="spacing" textLength="93" x="513.5" y="257.4399">- Reverse Proxy</text><text fill="#000000" font-family="Malgun Gothic" font-size="13" lengthAdjust="spacing" textLength="98" x="513.5" y="274.731">- &#51221;&#51201; &#54028;&#51068; &#49436;&#48729;</text><text fill="#000000" font-family="Malgun Gothic" font-size="13" lengthAdjust="spacing" textLength="80" x="513.5" y="292.022">- &#47196;&#46300; &#48184;&#47088;&#49905;</text><text fill="#000000" font-family="Malgun Gothic" font-size="13" lengthAdjust="spacing" textLength="55" x="513.5" y="309.313">- SSL/TLS</text></g><g id="elem_GMN26"><path d="M522,397.5 L522,450.5 L187.31,454.5 L522,458.5 L522,511.2461 A0,0 0 0 0 522,511.2461 L654,511.2461 A0,0 0 0 0 654,511.2461 L654,407.5 L644,397.5 L522,397.5 A0,0 0 0 0 522,397.5 " fill="#FFFFFF" style="stroke:#000000;stroke-width:1.0;"/><path d="M644,397.5 L644,407.5 L654,407.5 L644,397.5 " fill="#FFFFFF" style="stroke:#000000;stroke-width:1.0;"/><text fill="#000000" font-family="Malgun Gothic" font-size="13" font-weight="bold" lengthAdjust="spacing" textLength="39" x="528" y="416.6489">&#48177;&#50644;&#46300;</text><text fill="#000000" font-family="Malgun Gothic" font-size="13" lengthAdjust="spacing" textLength="104" x="528" y="433.9399">- Spring Boot 4.0</text><text fill="#000000" font-family="Malgun Gothic" font-size="13" lengthAdjust="spacing" textLength="63" x="528" y="451.231">- Java 17+</text><text fill="#000000" font-family="Malgun Gothic" font-size="13" lengthAdjust="spacing" textLength="79" x="528" y="468.522">- RESTful API</text><text fill="#000000" font-family="Malgun Gothic" font-size="13" lengthAdjust="spacing" textLength="94" x="528" y="485.813">- JPA/Hibernate</text><text fill="#000000" font-family="Malgun Gothic" font-size="13" lengthAdjust="spacing" textLength="111" x="528" y="503.104">- &#54028;&#51068; &#50629;&#47196;&#46300; &#52376;&#47532;</text></g><g id="elem_GMN29"><path d="M522.5,689 L522.5,733 L394.98,737 L522.5,741 L522.5,785.4551 A0,0 0 0 0 522.5,785.4551 L643.5,785.4551 A0,0 0 0 0 643.5,785.4551 L643.5,699 L633.5,689 L522.5,689 A0,0 0 0 0 522.5,689 " fill="#FFFFFF" style="stroke:#000000;stroke-width:1.0;"/><path d="M633.5,689 L633.5,699 L643.5,699 L633.5,689 " fill="#FFFFFF" style="stroke:#000000;stroke-width:1.0;"/><text fill="#000000" font-family="Malgun Gothic" font-size="13" font-weight="bold" lengthAdjust="spacing" textLength="78" x="528.5" y="708.1489">&#45936;&#51060;&#53552;&#48288;&#51060;&#49828;</text><text fill="#000000" font-family="Malgun Gothic" font-size="13" lengthAdjust="spacing" textLength="95" x="528.5" y="725.4399">- Oracle DB 19c</text><text fill="#000000" font-family="Malgun Gothic" font-size="13" lengthAdjust="spacing" textLength="81" x="528.5" y="742.731">- 19&#44060; &#53580;&#51060;&#48660;</text><text fill="#000000" font-family="Malgun Gothic" font-size="13" lengthAdjust="spacing" textLength="100" x="528.5" y="760.022">- &#49884;&#53248;&#49828; &#44592;&#48152; PK</text><text fill="#000000" font-family="Malgun Gothic" font-size="13" lengthAdjust="spacing" textLength="93" x="528.5" y="777.313">- &#51064;&#45937;&#49828; &#52572;&#51201;&#54868;</text></g><!--link ReactApp to Nginx--><g id="link_ReactApp_Nginx"><path d="M407,117.31 C407,150.71 407,196.18 407,229.48 " fill="none" id="ReactApp-to-Nginx" style="stroke:#000000;stroke-width:1.0;"/><polygon fill="#000000" points="407,235.48,411,226.48,407,230.48,403,226.48,407,235.48" style="stroke:#000000;stroke-width:1.0;"/><text fill="#000000" font-family="Malgun Gothic" font-size="13" lengthAdjust="spacing" textLength="72" x="408" y="176.6489">HTTP/HTTPS</text></g><!--link Nginx to SpringApp--><g id="link_Nginx_SpringApp"><path d="M355.67,302.59 C303.11,335.96 226.9653,384.314 174.4053,417.684 " fill="none" id="Nginx-to-SpringApp" style="stroke:#000000;stroke-width:1.0;"/><polygon fill="#000000" points="169.34,420.9,179.082,419.453,173.5611,418.22,174.794,412.6992,169.34,420.9" style="stroke:#000000;stroke-width:1.0;"/><text fill="#000000" font-family="Malgun Gothic" font-size="13" lengthAdjust="spacing" textLength="64" x="280" y="362.1489">HTTP/REST</text></g><!--link Nginx to FileStorage--><g id="link_Nginx_FileStorage"><path d="M415.34,302.74 C436.71,393.18 486.61,652.53 411,846.5 C398.63,878.24 378.3009,902.681 355.0309,924.351 " fill="none" id="Nginx-to-FileStorage" style="stroke:#000000;stroke-width:1.0;"/><polygon fill="#000000" points="350.64,928.44,359.9524,925.2338,354.2991,925.0325,354.5004,919.3792,350.64,928.44" style="stroke:#000000;stroke-width:1.0;"/><text fill="#000000" font-family="Malgun Gothic" font-size="13" lengthAdjust="spacing" textLength="61" x="451" y="556.6489">Static Files</text></g><!--link SpringApp to OracleDB--><g id="link_SpringApp_OracleDB"><path d="M142.85,488.23 C177.64,534.04 237.8414,613.3216 281.4214,670.7116 " fill="none" id="SpringApp-to-OracleDB" style="stroke:#000000;stroke-width:1.0;"/><polygon fill="#000000" points="285.05,675.49,282.7928,665.9033,282.0262,671.508,276.4215,670.7414,285.05,675.49" style="stroke:#000000;stroke-width:1.0;"/><text fill="#000000" font-family="Malgun Gothic" font-size="13" lengthAdjust="spacing" textLength="56" x="193" y="556.6489">JDBC/JPA</text></g><!--link SpringApp to FileHandler--><g id="link_SpringApp_FileHandler"><path d="M118.7,488.23 C119.92,545.45 122.3017,656.3814 123.3717,706.4214 " fill="none" id="SpringApp-to-FileHandler" style="stroke:#000000;stroke-width:1.0;"/><polygon fill="#000000" points="123.5,712.42,127.3067,703.3365,123.3931,707.4211,119.3085,703.5076,123.5,712.42" style="stroke:#000000;stroke-width:1.0;"/></g><!--link FileHandler to FileStorage--><g id="link_FileHandler_FileStorage"><path d="M141.54,761.57 C170.66,800.71 225.7882,874.7964 262.1382,923.6464 " fill="none" id="FileHandler-to-FileStorage" style="stroke:#000000;stroke-width:1.0;"/><polygon fill="#000000" points="265.72,928.46,263.5563,918.8518,262.7351,924.4487,257.1382,923.6275,265.72,928.46" style="stroke:#000000;stroke-width:1.0;"/><text fill="#000000" font-family="Malgun Gothic" font-size="13" lengthAdjust="spacing" textLength="109" x="221" y="869.6489">Upload/Download</text></g><!--SRC=[TLDTJnD157tVNt7jYqb9NMjC33wOz4C4H6pOeW_Ymz0ToePbffbk0JKaDIalK2A99O0KBB4H7qXS6anAn3_KdVqFpinsswNHFZIpvvvxpvbxvzvnbl4gXfADBAALLonIGWojWecNKCLs9YXnPf68nruWkrWXy8mworOX5c4IQcBue87ufL5XfSXeXPWPQbC6CrPnsKdR5Hn4AJCn2o9Pn5O60IbYMEyn91zecvgc2iOojeM90sb6rykOnVeAR-OmAZYGAfLigu0SYv854a1ZyCfoy5j0PL20e0oBlSQBO62s5YaqMxJ8XamMO1b3Zj6DTofR1OQf4QdH4aQ9MQGexaKTU7ZllYZsrCX3AZUbwWHHQKEH9omRmoGYfesPYakW_prKoo87BIBXvxQK6SAnbmmLHA41BpbU24bA9ZdUSvlWRzNvoPNNRIoG1FGwVxppjivFjxZhIi3_KkV7UtglK-SxJR- -9p59xxJzxQxElzru5rsLU5Nrlb_mqpsTrzgyjQzi1mQoQIMvENIkxcSubA4Y7dGe2eOgFxlylAhptQudYfxSI3XZ63ftVmXryEl2-SsWGVrSANCN-87RwxXQE5v899u4quB7C9dFvtJvPsW198E34OG4EQ18FA8W68OZfbnGO5aRfafYU6d1ciwcC_fqBZN2Y4upSlw7p7p9fiZKitITo8FiduE1oLK1kZHyl03nkD-eUMSjqHT-qF0-D-DnWIOW-k0Zm1ojE49T0l99bXs6IkgB_xxoFrrujRfiSA_hUkuXp4zfc9WWjKST10iWvVdnDV1Qq-lK1igHRGbgj_PvwsD_R8fyVQG2tbbJE0RFxNfVNRvpgK33cD7pCyP_fQCx4uzxxkMjUu_icyAcqHg2vAEnm9uOxrB5bYiO17CfVT9Qn8oWVgT2dmTRVN-ySoZU-7yDHLwxyBFhYWVirrolqn87ljtk6mkNCYtNKI4ZQnYqIYnRjIgomXdadWVuITVRlPGu_zKKpVIF6aC_Vm40]--></g></svg>