<?xml version="1.0" encoding="us-ascii" standalone="no"?><svg xmlns="http://www.w3.org/2000/svg" xmlns:xlink="http://www.w3.org/1999/xlink" contentStyleType="text/css" height="583px" preserveAspectRatio="none" style="width:765px;height:583px;background:#FFFFFF;" version="1.1" viewBox="0 0 765 583" width="765px" zoomAndPan="magnify"><defs/><g><ellipse cx="362" cy="21" fill="#FFFFFF" rx="10" ry="10" style="stroke:#000000;stroke-width:1.0;"/><g id="&#46321;&#47197;&#45824;&#44592;"><rect fill="#90EE90" height="50" rx="12.5" ry="12.5" style="stroke:#006400;stroke-width:1.0;" width="68" x="328" y="110"/><line style="stroke:#006400;stroke-width:1.0;" x1="328" x2="396" y1="135.9609" y2="135.9609"/><text fill="#000000" font-family="Malgun Gothic" font-size="12" lengthAdjust="spacing" textLength="48" x="338" y="128.0605">&#46321;&#47197;&#45824;&#44592;</text></g><g id="&#51652;&#54665;&#51473;"><rect fill="#90EE90" height="50" rx="12.5" ry="12.5" style="stroke:#006400;stroke-width:1.0;" width="56" x="334" y="245"/><line style="stroke:#006400;stroke-width:1.0;" x1="334" x2="390" y1="270.9609" y2="270.9609"/><text fill="#000000" font-family="Malgun Gothic" font-size="12" lengthAdjust="spacing" textLength="36" x="344" y="263.0605">&#51652;&#54665;&#51473;</text></g><g id="&#54032;&#47588;&#50756;&#47308;"><rect fill="#90EE90" height="50" rx="12.5" ry="12.5" style="stroke:#006400;stroke-width:1.0;" width="68" x="12" y="420"/><line style="stroke:#006400;stroke-width:1.0;" x1="12" x2="80" y1="445.9609" y2="445.9609"/><text fill="#000000" font-family="Malgun Gothic" font-size="12" lengthAdjust="spacing" textLength="48" x="22" y="438.0605">&#54032;&#47588;&#50756;&#47308;</text></g><g id="&#51333;&#47308;"><rect fill="#90EE90" height="50" rx="12.5" ry="12.5" style="stroke:#006400;stroke-width:1.0;" width="50" x="270" y="420"/><line style="stroke:#006400;stroke-width:1.0;" x1="270" x2="320" y1="445.9609" y2="445.9609"/><text fill="#000000" font-family="Malgun Gothic" font-size="12" lengthAdjust="spacing" textLength="24" x="283" y="438.0605">&#51333;&#47308;</text></g><g id="&#54032;&#47588;&#51473;&#51648;"><rect fill="#90EE90" height="50" rx="12.5" ry="12.5" style="stroke:#006400;stroke-width:1.0;" width="68" x="510" y="420"/><line style="stroke:#006400;stroke-width:1.0;" x1="510" x2="578" y1="445.9609" y2="445.9609"/><text fill="#000000" font-family="Malgun Gothic" font-size="12" lengthAdjust="spacing" textLength="48" x="520" y="438.0605">&#54032;&#47588;&#51473;&#51648;</text></g><ellipse cx="170" cy="566" fill="none" rx="11" ry="11" style="stroke:#000000;stroke-width:1.0;"/><ellipse cx="170" cy="566" fill="#FFFFFF" rx="6" ry="6" style="stroke:#000000;stroke-width:1.0;"/><g id="elem_GMN17"><path d="M425,239 L425,266 L390.03,270 L425,274 L425,300.873 A0,0 0 0 0 425,300.873 L575,300.873 A0,0 0 0 0 575,300.873 L575,249 L565,239 L425,239 A0,0 0 0 0 425,239 " fill="#FFFFFF" style="stroke:#000000;stroke-width:1.0;"/><path d="M565,239 L565,249 L575,249 L565,239 " fill="#FFFFFF" style="stroke:#000000;stroke-width:1.0;"/><text fill="#000000" font-family="Malgun Gothic" font-size="13" lengthAdjust="spacing" textLength="67" x="431" y="258.1489">- &#51077;&#52272; &#44032;&#45733;</text><text fill="#000000" font-family="Malgun Gothic" font-size="13" lengthAdjust="spacing" textLength="129" x="431" y="275.4399">- &#51077;&#52272; &#45236;&#50669; &#51312;&#54924; &#44032;&#45733;</text><text fill="#000000" font-family="Malgun Gothic" font-size="13" lengthAdjust="spacing" textLength="129" x="431" y="292.731">- &#49345;&#54408; &#51221;&#48372; &#49688;&#51221; &#44032;&#45733;</text></g><g id="elem_GMN20"><path d="M115.5,414 L115.5,441 L80.01,445 L115.5,449 L115.5,475.873 A0,0 0 0 0 115.5,475.873 L234.5,475.873 A0,0 0 0 0 234.5,475.873 L234.5,424 L224.5,414 L115.5,414 A0,0 0 0 0 115.5,414 " fill="#FFFFFF" style="stroke:#000000;stroke-width:1.0;"/><path d="M224.5,414 L224.5,424 L234.5,424 L224.5,414 " fill="#FFFFFF" style="stroke:#000000;stroke-width:1.0;"/><text fill="#000000" font-family="Malgun Gothic" font-size="13" lengthAdjust="spacing" textLength="67" x="121.5" y="433.1489">- &#51077;&#52272; &#48520;&#44032;</text><text fill="#000000" font-family="Malgun Gothic" font-size="13" lengthAdjust="spacing" textLength="98" x="121.5" y="450.4399">- &#44144;&#47000; &#50756;&#47308; &#49345;&#53468;</text><text fill="#000000" font-family="Malgun Gothic" font-size="13" lengthAdjust="spacing" textLength="98" x="121.5" y="467.731">- &#49688;&#51221;/&#49325;&#51228; &#48520;&#44032;</text></g><g id="elem_GMN23"><path d="M355.5,414 L355.5,441 L320.31,445 L355.5,449 L355.5,475.873 A0,0 0 0 0 355.5,475.873 L474.5,475.873 A0,0 0 0 0 474.5,475.873 L474.5,424 L464.5,414 L355.5,414 A0,0 0 0 0 355.5,414 " fill="#FFFFFF" style="stroke:#000000;stroke-width:1.0;"/><path d="M464.5,414 L464.5,424 L474.5,424 L464.5,414 " fill="#FFFFFF" style="stroke:#000000;stroke-width:1.0;"/><text fill="#000000" font-family="Malgun Gothic" font-size="13" lengthAdjust="spacing" textLength="67" x="361.5" y="433.1489">- &#51077;&#52272; &#48520;&#44032;</text><text fill="#000000" font-family="Malgun Gothic" font-size="13" lengthAdjust="spacing" textLength="98" x="361.5" y="450.4399">- &#44221;&#47588; &#51333;&#47308; &#49345;&#53468;</text><text fill="#000000" font-family="Malgun Gothic" font-size="13" lengthAdjust="spacing" textLength="98" x="361.5" y="467.731">- &#49688;&#51221;/&#49325;&#51228; &#48520;&#44032;</text></g><g id="elem_GMN26"><path d="M613.5,414 L613.5,441 L578.11,445 L613.5,449 L613.5,475.873 A0,0 0 0 0 613.5,475.873 L758.5,475.873 A0,0 0 0 0 758.5,475.873 L758.5,424 L748.5,414 L613.5,414 A0,0 0 0 0 613.5,414 " fill="#FFFFFF" style="stroke:#000000;stroke-width:1.0;"/><path d="M748.5,414 L748.5,424 L758.5,424 L748.5,414 " fill="#FFFFFF" style="stroke:#000000;stroke-width:1.0;"/><text fill="#000000" font-family="Malgun Gothic" font-size="13" lengthAdjust="spacing" textLength="67" x="619.5" y="433.1489">- &#51077;&#52272; &#48520;&#44032;</text><text fill="#000000" font-family="Malgun Gothic" font-size="13" lengthAdjust="spacing" textLength="98" x="619.5" y="450.4399">- &#54032;&#47588; &#51473;&#51648; &#49345;&#53468;</text><text fill="#000000" font-family="Malgun Gothic" font-size="13" lengthAdjust="spacing" textLength="124" x="619.5" y="467.731">- &#44288;&#47532;&#51088;&#47564; &#51116;&#44060; &#44032;&#45733;</text></g><!--link *start* to ????--><g id="link_*start*_&#46321;&#47197;&#45824;&#44592;"><path d="M362,31.17 C362,48.2 362,79.23 362,103.89 " fill="none" id="*start*-to-&#46321;&#47197;&#45824;&#44592;" style="stroke:#000000;stroke-width:1.0;"/><polygon fill="#000000" points="362,109.89,366,100.89,362,104.89,358,100.89,362,109.89" style="stroke:#000000;stroke-width:1.0;"/><text fill="#000000" font-family="Malgun Gothic" font-size="13" lengthAdjust="spacing" textLength="57" x="363" y="76.1489">&#49345;&#54408; &#46321;&#47197;</text></g><!--link ???? to ???--><g id="link_&#46321;&#47197;&#45824;&#44592;_&#51652;&#54665;&#51473;"><path d="M362,160.09 C362,184.04 362,214.6 362,238.64 " fill="none" id="&#46321;&#47197;&#45824;&#44592;-to-&#51652;&#54665;&#51473;" style="stroke:#000000;stroke-width:1.0;"/><polygon fill="#000000" points="362,244.64,366,235.64,362,239.64,358,235.64,362,244.64" style="stroke:#000000;stroke-width:1.0;"/><text fill="#000000" font-family="Malgun Gothic" font-size="13" lengthAdjust="spacing" textLength="57" x="363" y="205.1489">&#44221;&#47588; &#49884;&#51089;</text></g><!--link ??? to ????--><g id="link_&#51652;&#54665;&#51473;_&#54032;&#47588;&#50756;&#47308;"><path d="M333.77,276.39 C296.03,284.4 227.86,301.73 176,331 C133.55,354.96 96.5967,389.8835 72.3467,415.2435 " fill="none" id="&#51652;&#54665;&#51473;-to-&#54032;&#47588;&#50756;&#47308;" style="stroke:#000000;stroke-width:1.0;"/><polygon fill="#000000" points="68.2,419.58,77.311,415.8397,71.6556,415.9663,71.529,410.3108,68.2,419.58" style="stroke:#000000;stroke-width:1.0;"/><text fill="#000000" font-family="Malgun Gothic" font-size="13" lengthAdjust="spacing" textLength="57" x="199" y="346.1489">&#51593;&#49884; &#44396;&#47588;</text><text fill="#000000" font-family="Malgun Gothic" font-size="13" lengthAdjust="spacing" textLength="26" x="214.5" y="363.4399">&#46608;&#45716;</text><text fill="#000000" font-family="Malgun Gothic" font-size="13" lengthAdjust="spacing" textLength="101" x="177" y="380.731">&#52572;&#44256; &#51077;&#52272;&#51088; &#45209;&#52272;</text></g><!--link ??? to ??--><g id="link_&#51652;&#54665;&#51473;_&#51333;&#47308;"><path d="M333.71,288.43 C319.58,298.85 303.85,313.47 296,331 C283.25,359.47 284.9939,390.2483 288.8639,413.9683 " fill="none" id="&#51652;&#54665;&#51473;-to-&#51333;&#47308;" style="stroke:#000000;stroke-width:1.0;"/><polygon fill="#000000" points="289.83,419.89,292.3286,410.3633,289.0249,414.9552,284.433,411.6515,289.83,419.89" style="stroke:#000000;stroke-width:1.0;"/><text fill="#000000" font-family="Malgun Gothic" font-size="13" lengthAdjust="spacing" textLength="88" x="297" y="354.6489">&#44221;&#47588; &#44592;&#44036; &#51333;&#47308;</text><text fill="#000000" font-family="Malgun Gothic" font-size="13" lengthAdjust="spacing" textLength="65" x="308.5" y="371.9399">(&#51077;&#52272; &#51080;&#51020;)</text></g><!--link ??? to ????--><g id="link_&#51652;&#54665;&#51473;_&#54032;&#47588;&#51473;&#51648;"><path d="M373.87,295 C388.6,324.07 413.53,370.78 428,384 C451.19,405.19 464.15,399.47 492,414 C497.82,417.04 498.707,417.4471 504.597,420.7771 " fill="none" id="&#51652;&#54665;&#51473;-to-&#54032;&#47588;&#51473;&#51648;" style="stroke:#000000;stroke-width:1.0;"/><polygon fill="#000000" points="509.82,423.73,503.954,415.8186,505.4675,421.2692,500.0168,422.7826,509.82,423.73" style="stroke:#000000;stroke-width:1.0;"/><text fill="#000000" font-family="Malgun Gothic" font-size="13" lengthAdjust="spacing" textLength="70" x="429" y="346.1489">&#54032;&#47588;&#51088; &#54252;&#44592;</text><text fill="#000000" font-family="Malgun Gothic" font-size="13" lengthAdjust="spacing" textLength="26" x="451" y="363.4399">&#46608;&#45716;</text><text fill="#000000" font-family="Malgun Gothic" font-size="13" lengthAdjust="spacing" textLength="70" x="429" y="380.731">&#44288;&#47532;&#51088; &#51473;&#51648;</text></g><!--link ???? to ???--><g id="link_&#54032;&#47588;&#51473;&#51648;_&#51652;&#54665;&#51473;"><path d="M541.75,419.87 C538.11,394.37 528.61,354.64 504,331 C471.46,299.74 447.75,320.38 407,301 C401.4,298.34 400.772,298.2554 395.392,294.8554 " fill="none" id="&#54032;&#47588;&#51473;&#51648;-to-&#51652;&#54665;&#51473;" style="stroke:#000000;stroke-width:1.0;"/><polygon fill="#000000" points="390.32,291.65,395.7911,299.8394,394.5467,294.3211,400.065,293.0767,390.32,291.65" style="stroke:#000000;stroke-width:1.0;"/><text fill="#000000" font-family="Malgun Gothic" font-size="13" lengthAdjust="spacing" textLength="57" x="535" y="363.1489">&#54032;&#47588; &#51116;&#44060;</text></g><!--link ???? to *end*--><g id="link_&#54032;&#47588;&#50756;&#47308;_*end*"><path d="M71.09,470.08 C99.68,497.52 140.4116,536.5949 158.1416,553.6149 " fill="none" id="&#54032;&#47588;&#50756;&#47308;-to-*end*" style="stroke:#000000;stroke-width:1.0;"/><polygon fill="#000000" points="162.47,557.77,158.7474,548.6518,158.863,554.3074,153.2073,554.423,162.47,557.77" style="stroke:#000000;stroke-width:1.0;"/><text fill="#000000" font-family="Malgun Gothic" font-size="13" lengthAdjust="spacing" textLength="57" x="128" y="521.1489">&#44144;&#47000; &#50756;&#47308;</text></g><!--link ?? to *end*--><g id="link_&#51333;&#47308;_*end*"><path d="M269.7,470.08 C240.88,497.52 199.8159,536.6132 181.9359,553.6332 " fill="none" id="&#51333;&#47308;-to-*end*" style="stroke:#000000;stroke-width:1.0;"/><polygon fill="#000000" points="177.59,557.77,186.8667,554.462,181.2116,554.3226,181.3509,548.6675,177.59,557.77" style="stroke:#000000;stroke-width:1.0;"/><text fill="#000000" font-family="Malgun Gothic" font-size="13" lengthAdjust="spacing" textLength="57" x="230" y="521.1489">&#44221;&#47588; &#51333;&#47308;</text></g><!--SRC=[dL9DJzj05BplhtZbr5QAAdhieOSMmONsmh7fOKMMn4fO8-DSg93I4AH0BJNf5m6PA40Wbo2P4X2N_Y7lyt_es-ociTFcKf_icTcPj_Fyo2-9JG5R5Uv8jbrsv1Rt-2OKn0QlLlnbL_flEV4BRtYbM9MmulebPtqXfTpskI_W0mDwNl7rSj5pgxBmsgsu7gmwnPA_uWaX3Urw1U4PQebxvIcZSzQS7G6BpzakO- -UleTSxYMehpVgx5G5jVWXWXU0Un-JBqsBCfPXjHm7ZUJ70VRRf8r__bA3Fk2d4BjjngQK5YP1YqWyRgYBGFjU7P0EuhiXeNcfEYrr-2qlyIwCRtk0tNsC8kosGDMFwMt62y_tZOjDf67Yg67Xl7niZfDB4q-39_yUfD_6GOqix2T59P-7P3IT9HxLrDLGCqRCMEOEsakNHbFSHAhR0OCpEroAjhMCSPQ9dstGa3JuC8v2ngHBQ_RqGi7Tc0ffVJbR4SHHJHrUfX5L7-7HDU1Pb9m46Twi4dlVrUq8iDcXjmalP05qscnc-iQPaFicdHmZcTkFG_P28nqdFCFwDVR2oObvGRQTEH7f1lyx8jtydA19_sOxgQ0__u8Q17OzVrNt6m00]--></g></svg>