<?xml version="1.0" encoding="us-ascii" standalone="no"?><svg xmlns="http://www.w3.org/2000/svg" xmlns:xlink="http://www.w3.org/1999/xlink" contentStyleType="text/css" height="838px" preserveAspectRatio="none" style="width:719px;height:838px;background:#FFFFFF;" version="1.1" viewBox="0 0 719 838" width="719px" zoomAndPan="magnify"><defs/><g><ellipse cx="281" cy="21" fill="#FFFFFF" rx="10" ry="10" style="stroke:#000000;stroke-width:1.0;"/><g id="&#46321;&#47197;&#45824;&#44592;"><rect fill="#90EE90" height="50" rx="12.5" ry="12.5" style="stroke:#006400;stroke-width:1.0;" width="68" x="247" y="116"/><line style="stroke:#006400;stroke-width:1.0;" x1="247" x2="315" y1="141.9609" y2="141.9609"/><text fill="#000000" font-family="Malgun Gothic" font-size="12" lengthAdjust="spacing" textLength="48" x="257" y="134.0605">&#46321;&#47197;&#45824;&#44592;</text></g><g id="&#51652;&#54665;&#51473;"><rect fill="#90EE90" height="50" rx="12.5" ry="12.5" style="stroke:#006400;stroke-width:1.0;" width="56" x="253" y="291"/><line style="stroke:#006400;stroke-width:1.0;" x1="253" x2="309" y1="316.9609" y2="316.9609"/><text fill="#000000" font-family="Malgun Gothic" font-size="12" lengthAdjust="spacing" textLength="36" x="263" y="309.0605">&#51652;&#54665;&#51473;</text></g><g id="&#54032;&#47588;&#50756;&#47308;"><rect fill="#90EE90" height="50" rx="12.5" ry="12.5" style="stroke:#006400;stroke-width:1.0;" width="68" x="12" y="666.5"/><line style="stroke:#006400;stroke-width:1.0;" x1="12" x2="80" y1="692.4609" y2="692.4609"/><text fill="#000000" font-family="Malgun Gothic" font-size="12" lengthAdjust="spacing" textLength="48" x="22" y="684.5605">&#54032;&#47588;&#50756;&#47308;</text></g><g id="&#51333;&#47308;"><rect fill="#90EE90" height="50" rx="12.5" ry="12.5" style="stroke:#006400;stroke-width:1.0;" width="50" x="181" y="500"/><line style="stroke:#006400;stroke-width:1.0;" x1="181" x2="231" y1="525.9609" y2="525.9609"/><text fill="#000000" font-family="Malgun Gothic" font-size="12" lengthAdjust="spacing" textLength="24" x="194" y="518.0605">&#51333;&#47308;</text></g><g id="&#54252;&#44592;"><rect fill="#90EE90" height="50" rx="12.5" ry="12.5" style="stroke:#006400;stroke-width:1.0;" width="50" x="451" y="500"/><line style="stroke:#006400;stroke-width:1.0;" x1="451" x2="501" y1="525.9609" y2="525.9609"/><text fill="#000000" font-family="Malgun Gothic" font-size="12" lengthAdjust="spacing" textLength="24" x="464" y="518.0605">&#54252;&#44592;</text></g><ellipse cx="335" cy="821" fill="none" rx="11" ry="11" style="stroke:#000000;stroke-width:1.0;"/><ellipse cx="335" cy="821" fill="#FFFFFF" rx="6" ry="6" style="stroke:#000000;stroke-width:1.0;"/><g id="elem_GMN19"><path d="M350.5,110 L350.5,137 L315.11,141 L350.5,145 L350.5,171.873 A0,0 0 0 0 350.5,171.873 L495.5,171.873 A0,0 0 0 0 495.5,171.873 L495.5,120 L485.5,110 L350.5,110 A0,0 0 0 0 350.5,110 " fill="#FFFFFF" style="stroke:#000000;stroke-width:1.0;"/><path d="M485.5,110 L485.5,120 L495.5,120 L485.5,110 " fill="#FFFFFF" style="stroke:#000000;stroke-width:1.0;"/><text fill="#000000" font-family="Malgun Gothic" font-size="13" lengthAdjust="spacing" textLength="123" x="356.5" y="129.1489">- &#46321;&#47197; &#51649;&#54980; 1&#48516; &#48372;&#54840;</text><text fill="#000000" font-family="Malgun Gothic" font-size="13" lengthAdjust="spacing" textLength="124" x="356.5" y="146.4399">- &#49345;&#53468; &#52404;&#53356; &#44148;&#45320;&#46832;&#44592;</text><text fill="#000000" font-family="Malgun Gothic" font-size="13" lengthAdjust="spacing" textLength="67" x="356.5" y="163.731">- &#51077;&#52272; &#48520;&#44032;</text></g><g id="elem_GMN22"><path d="M344,268 L344,312 L309.19,316 L344,320 L344,364.4551 A0,0 0 0 0 344,364.4551 L546,364.4551 A0,0 0 0 0 546,364.4551 L546,278 L536,268 L344,268 A0,0 0 0 0 344,268 " fill="#FFFFFF" style="stroke:#000000;stroke-width:1.0;"/><path d="M536,268 L536,278 L546,278 L536,268 " fill="#FFFFFF" style="stroke:#000000;stroke-width:1.0;"/><text fill="#000000" font-family="Malgun Gothic" font-size="13" lengthAdjust="spacing" textLength="67" x="350" y="287.1489">- &#51077;&#52272; &#44032;&#45733;</text><text fill="#000000" font-family="Malgun Gothic" font-size="13" lengthAdjust="spacing" textLength="129" x="350" y="304.4399">- &#51077;&#52272; &#45236;&#50669; &#51312;&#54924; &#44032;&#45733;</text><text fill="#000000" font-family="Malgun Gothic" font-size="13" lengthAdjust="spacing" textLength="129" x="350" y="321.731">- &#49345;&#54408; &#51221;&#48372; &#49688;&#51221; &#44032;&#45733;</text><text fill="#000000" font-family="Malgun Gothic" font-size="13" lengthAdjust="spacing" textLength="181" x="350" y="339.022">- &#49892;&#49884;&#44036; &#52572;&#44256; &#51077;&#52272;&#44032; &#50629;&#45936;&#51060;&#53944;</text><text fill="#000000" font-family="Malgun Gothic" font-size="13" lengthAdjust="spacing" textLength="111" x="350" y="356.313">- &#44221;&#47588; &#51333;&#47308;&#51068; &#52404;&#53356;</text></g><g id="elem_GMN25"><path d="M115,652 L115,687.5 L80.03,691.5 L115,695.5 L115,731.1641 A0,0 0 0 0 115,731.1641 L265,731.1641 A0,0 0 0 0 265,731.1641 L265,662 L255,652 L115,652 A0,0 0 0 0 115,652 " fill="#FFFFFF" style="stroke:#000000;stroke-width:1.0;"/><path d="M255,652 L255,662 L265,662 L255,652 " fill="#FFFFFF" style="stroke:#000000;stroke-width:1.0;"/><text fill="#000000" font-family="Malgun Gothic" font-size="13" lengthAdjust="spacing" textLength="67" x="121" y="671.1489">- &#51077;&#52272; &#48520;&#44032;</text><text fill="#000000" font-family="Malgun Gothic" font-size="13" lengthAdjust="spacing" textLength="98" x="121" y="688.4399">- &#44144;&#47000; &#50756;&#47308; &#49345;&#53468;</text><text fill="#000000" font-family="Malgun Gothic" font-size="13" lengthAdjust="spacing" textLength="98" x="121" y="705.731">- &#49688;&#51221;/&#49325;&#51228; &#48520;&#44032;</text><text fill="#000000" font-family="Malgun Gothic" font-size="13" lengthAdjust="spacing" textLength="129" x="121" y="723.022">- &#44144;&#47000; &#51221;&#48372; &#54869;&#51064; &#44032;&#45733;</text></g><g id="elem_GMN28"><path d="M266,477 L266,521 L231.05,525 L266,529 L266,573.4551 A0,0 0 0 0 266,573.4551 L416,573.4551 A0,0 0 0 0 416,573.4551 L416,487 L406,477 L266,477 A0,0 0 0 0 266,477 " fill="#FFFFFF" style="stroke:#000000;stroke-width:1.0;"/><path d="M406,477 L406,487 L416,487 L406,477 " fill="#FFFFFF" style="stroke:#000000;stroke-width:1.0;"/><text fill="#000000" font-family="Malgun Gothic" font-size="13" lengthAdjust="spacing" textLength="67" x="272" y="496.1489">- &#51077;&#52272; &#48520;&#44032;</text><text fill="#000000" font-family="Malgun Gothic" font-size="13" lengthAdjust="spacing" textLength="98" x="272" y="513.4399">- &#44221;&#47588; &#51333;&#47308; &#49345;&#53468;</text><text fill="#000000" font-family="Malgun Gothic" font-size="13" lengthAdjust="spacing" textLength="98" x="272" y="530.731">- &#49688;&#51221;/&#49325;&#51228; &#48520;&#44032;</text><text fill="#000000" font-family="Malgun Gothic" font-size="13" lengthAdjust="spacing" textLength="129" x="272" y="548.022">- &#51077;&#52272; &#45236;&#50669; &#51312;&#54924; &#44032;&#45733;</text><text fill="#000000" font-family="Malgun Gothic" font-size="13" lengthAdjust="spacing" textLength="98" x="272" y="565.313">- &#45209;&#52272; &#54869;&#51221; &#45824;&#44592;</text></g><g id="elem_GMN31"><path d="M536,485.5 L536,521 L501.15,525 L536,529 L536,564.6641 A0,0 0 0 0 536,564.6641 L712,564.6641 A0,0 0 0 0 712,564.6641 L712,495.5 L702,485.5 L536,485.5 A0,0 0 0 0 536,485.5 " fill="#FFFFFF" style="stroke:#000000;stroke-width:1.0;"/><path d="M702,485.5 L702,495.5 L712,495.5 L702,485.5 " fill="#FFFFFF" style="stroke:#000000;stroke-width:1.0;"/><text fill="#000000" font-family="Malgun Gothic" font-size="13" lengthAdjust="spacing" textLength="67" x="542" y="504.6489">- &#51077;&#52272; &#48520;&#44032;</text><text fill="#000000" font-family="Malgun Gothic" font-size="13" lengthAdjust="spacing" textLength="98" x="542" y="521.9399">- &#54032;&#47588; &#51473;&#51648; &#49345;&#53468;</text><text fill="#000000" font-family="Malgun Gothic" font-size="13" lengthAdjust="spacing" textLength="124" x="542" y="539.231">- &#44288;&#47532;&#51088;&#47564; &#51116;&#44060; &#44032;&#45733;</text><text fill="#000000" font-family="Malgun Gothic" font-size="13" lengthAdjust="spacing" textLength="155" x="542" y="556.522">- &#54032;&#47588;&#51088; &#48376;&#51064;&#46020; &#51116;&#44060; &#48520;&#44032;</text></g><!--link *start* to ????--><g id="link_*start*_&#46321;&#47197;&#45824;&#44592;"><path d="M281,31.26 C281,49.3 281,83.66 281,109.82 " fill="none" id="*start*-to-&#46321;&#47197;&#45824;&#44592;" style="stroke:#000000;stroke-width:1.0;"/><polygon fill="#000000" points="281,115.82,285,106.82,281,110.82,277,106.82,281,115.82" style="stroke:#000000;stroke-width:1.0;"/><text fill="#000000" font-family="Malgun Gothic" font-size="13" lengthAdjust="spacing" textLength="57" x="282" y="76.1489">&#49345;&#54408; &#46321;&#47197;</text></g><!--link ???? to ???--><g id="link_&#46321;&#47197;&#45824;&#44592;_&#51652;&#54665;&#51473;"><path d="M281,166.05 C281,199.01 281,251.87 281,284.87 " fill="none" id="&#46321;&#47197;&#45824;&#44592;-to-&#51652;&#54665;&#51473;" style="stroke:#000000;stroke-width:1.0;"/><polygon fill="#000000" points="281,290.87,285,281.87,281,285.87,277,281.87,281,290.87" style="stroke:#000000;stroke-width:1.0;"/><text fill="#000000" font-family="Malgun Gothic" font-size="13" lengthAdjust="spacing" textLength="57" x="307.5" y="217.1489">&#44221;&#47588; &#49884;&#51089;</text><text fill="#000000" font-family="Malgun Gothic" font-size="13" lengthAdjust="spacing" textLength="108" x="282" y="234.4399">(&#46321;&#47197; &#54980; 1&#48516; &#44221;&#44284;)</text></g><!--link ??? to ????--><g id="link_&#51652;&#54665;&#51473;_&#54032;&#47588;&#50756;&#47308;"><path d="M252.8,327.88 C203.65,348.51 103.41,398.43 60,477 C26.23,538.12 33.5458,618.688 40.3258,660.328 " fill="none" id="&#51652;&#54665;&#51473;-to-&#54032;&#47588;&#50756;&#47308;" style="stroke:#000000;stroke-width:1.0;"/><polygon fill="#000000" points="41.29,666.25,43.7916,656.7242,40.4865,661.315,35.8956,658.0098,41.29,666.25" style="stroke:#000000;stroke-width:1.0;"/><text fill="#000000" font-family="Malgun Gothic" font-size="13" lengthAdjust="spacing" textLength="57" x="83" y="513.6489">&#51593;&#49884; &#44396;&#47588;</text><text fill="#000000" font-family="Malgun Gothic" font-size="13" lengthAdjust="spacing" textLength="26" x="98.5" y="530.9399">&#46608;&#45716;</text><text fill="#000000" font-family="Malgun Gothic" font-size="13" lengthAdjust="spacing" textLength="101" x="61" y="548.231">&#52572;&#44256; &#51077;&#52272;&#51088; &#45209;&#52272;</text></g><!--link ??? to ??--><g id="link_&#51652;&#54665;&#51473;_&#51333;&#47308;"><path d="M256.08,341.02 C243.05,355.15 228.14,374.11 220,394 C205.81,428.66 203.9606,466.6514 204.5406,493.5414 " fill="none" id="&#51652;&#54665;&#51473;-to-&#51333;&#47308;" style="stroke:#000000;stroke-width:1.0;"/><polygon fill="#000000" points="204.67,499.54,208.475,490.4558,204.5622,494.5412,200.4769,490.6284,204.67,499.54" style="stroke:#000000;stroke-width:1.0;"/><text fill="#000000" font-family="Malgun Gothic" font-size="13" lengthAdjust="spacing" textLength="88" x="221" y="417.6489">&#44221;&#47588; &#44592;&#44036; &#51333;&#47308;</text><text fill="#000000" font-family="Malgun Gothic" font-size="13" lengthAdjust="spacing" textLength="65" x="232.5" y="434.9399">(&#51077;&#52272; &#51080;&#51020;)</text></g><!--link ??? to ??--><g id="link_&#51652;&#54665;&#51473;_&#54252;&#44592;"><path d="M289.45,341.11 C300.69,369.95 323.16,417.98 357,447 C384.57,470.64 403.09,456.41 433,477 C442.11,483.27 446.7181,487.2866 453.7681,495.3766 " fill="none" id="&#51652;&#54665;&#51473;-to-&#54252;&#44592;" style="stroke:#000000;stroke-width:1.0;"/><polygon fill="#000000" points="457.71,499.9,454.8127,490.4869,454.4251,496.1305,448.7815,495.7428,457.71,499.9" style="stroke:#000000;stroke-width:1.0;"/><text fill="#000000" font-family="Malgun Gothic" font-size="13" lengthAdjust="spacing" textLength="70" x="358" y="409.1489">&#54032;&#47588;&#51088; &#54252;&#44592;</text><text fill="#000000" font-family="Malgun Gothic" font-size="13" lengthAdjust="spacing" textLength="26" x="380" y="426.4399">&#46608;&#45716;</text><text fill="#000000" font-family="Malgun Gothic" font-size="13" lengthAdjust="spacing" textLength="70" x="358" y="443.731">&#44288;&#47532;&#51088; &#51473;&#51648;</text></g><!--link ?? to ???--><g id="link_&#54252;&#44592;_&#51652;&#54665;&#51473;"><path d="M474.65,499.81 C471.71,470.65 462.4,422.07 433,394 C397.28,359.89 368.36,389.4 326,364 C316.12,358.07 310.9802,353.873 303.5402,345.593 " fill="none" id="&#54252;&#44592;-to-&#51652;&#54665;&#51473;" style="stroke:#000000;stroke-width:1.0;"/><polygon fill="#000000" points="299.53,341.13,302.57,350.4979,302.8718,344.8491,308.5206,345.151,299.53,341.13" style="stroke:#000000;stroke-width:1.0;"/><text fill="#000000" font-family="Malgun Gothic" font-size="13" lengthAdjust="spacing" textLength="57" x="481" y="417.6489">&#54032;&#47588; &#51116;&#44060;</text><text fill="#000000" font-family="Malgun Gothic" font-size="13" lengthAdjust="spacing" textLength="91" x="464" y="434.9399">(&#44288;&#47532;&#51088;&#47564; &#44032;&#45733;)</text></g><!--link ?? to ????--><g id="link_&#51333;&#47308;_&#54032;&#47588;&#50756;&#47308;"><path d="M182.39,550.27 C152.05,581.46 103.8835,630.989 73.6235,662.099 " fill="none" id="&#51333;&#47308;-to-&#54032;&#47588;&#50756;&#47308;" style="stroke:#000000;stroke-width:1.0;"/><polygon fill="#000000" points="69.44,666.4,78.5825,662.7375,72.9262,662.8158,72.8479,657.1595,69.44,666.4" style="stroke:#000000;stroke-width:1.0;"/><text fill="#000000" font-family="Malgun Gothic" font-size="13" lengthAdjust="spacing" textLength="57" x="132" y="618.1489">&#45209;&#52272; &#54869;&#51221;</text></g><!--link ?? to *end*--><g id="link_&#51333;&#47308;_*end*"><path d="M222.95,550.15 C239.7,574.84 265.18,614.75 282,652 C307.93,709.42 325.0816,777.3681 331.3216,804.0081 " fill="none" id="&#51333;&#47308;-to-*end*" style="stroke:#000000;stroke-width:1.0;"/><polygon fill="#000000" points="332.69,809.85,334.532,800.1749,331.5497,804.9818,326.7429,801.9994,332.69,809.85" style="stroke:#000000;stroke-width:1.0;"/><text fill="#000000" font-family="Malgun Gothic" font-size="13" lengthAdjust="spacing" textLength="57" x="316" y="688.6489">&#44221;&#47588; &#51333;&#47308;</text><text fill="#000000" font-family="Malgun Gothic" font-size="13" lengthAdjust="spacing" textLength="65" x="312" y="705.9399">(&#51077;&#52272; &#50630;&#51020;)</text></g><!--link ???? to *end*--><g id="link_&#54032;&#47588;&#50756;&#47308;_*end*"><path d="M74.95,716.61 C81.92,721.77 89.51,726.89 97,731 C179.75,776.45 284.6657,806.5423 318.7757,815.7123 " fill="none" id="&#54032;&#47588;&#50756;&#47308;-to-*end*" style="stroke:#000000;stroke-width:1.0;"/><polygon fill="#000000" points="324.57,817.27,316.9171,811.0706,319.7414,815.9719,314.8401,818.7963,324.57,817.27" style="stroke:#000000;stroke-width:1.0;"/><text fill="#000000" font-family="Malgun Gothic" font-size="13" lengthAdjust="spacing" textLength="57" x="206" y="776.1489">&#44144;&#47000; &#50756;&#47308;</text></g><!--link ?? to *end*--><g id="link_&#54252;&#44592;_*end*"><path d="M466.42,550.06 C450.78,588.75 418.29,666.97 386,731 C370.77,761.21 353.1922,790.4886 343.5222,806.2186 " fill="none" id="&#54252;&#44592;-to-*end*" style="stroke:#000000;stroke-width:1.0;"/><polygon fill="#000000" points="340.38,811.33,348.5009,805.7577,342.9985,807.0705,341.6857,801.5681,340.38,811.33" style="stroke:#000000;stroke-width:1.0;"/><text fill="#000000" font-family="Malgun Gothic" font-size="13" lengthAdjust="spacing" textLength="57" x="424" y="697.1489">&#50689;&#44396; &#49325;&#51228;</text></g><!--SRC=[ZPFFRX9H5CRtzocENOa9CNNfmeKQkr4tBiN5f4o1G6UQwR3Hc00T3ALZIjLQi41eYsL3ascPDYpg2yqzymwUcJl0dGb4MKtk-VVxplbuOERLRHLsIaf1Oxl5WhQZ6CesPDKjfLmoN-cQ-LQX-DeRfPGhQx2Xc_d2vfgKkMigfWgV6D3lkR9Pp1bwMSk-q4kw0QyBkRovOQYg9iAwaLKD4Ngf6CL599Zphl1HXVKdx3DZxnzzW7Jw6V3lr_oin-sADtNWAU1UrV_MY5uPYqM3T1nP_izz71vHhdVpXu-6W0TTx1zbj8SY6VnJ2zRvdHN4lSbzYh55KT32jrjKXXsBNzZ1nCjzwW3UxPXUCnfljtZpHqR3swut6G3sw-Wus6y1htNeAz4Bp-kYIyH2c9vZHS-49CgfImDxTYe9SZWMeYCY6YAU5XIUM-6Nuo12HJYga1OnSOaG0GX-vnW7nt9UiEh5jf9e9rz2D1Rh9fLTExpV1l5EMO8vUGfHJ3h7djEbvdDkFhB1Sogy-JibruhUsAxIsW5hLpZeCgRfv38Zy1FeMp5Za87IqGEDhSulp2Uktvw6qS0uUrt06zUlZedQvLQ3dpgpuaWjlsiG3LErB0JJaZFdakGQWH_hKdFnv0hmpF5_sR6uS2_jdyW06stwYiKFXkIrq26olIY3xb3dNntikNvJ28hT2tltaRILxFBzbaWEMygtZ3OcKaFIn-8Goog4eC1QlUbCqCebXiIh46HL_uNmhvt7R0-HNrOkARJW2hQPYSD_cimMSxFmk4om-FlooPGMn0-jMLRIRty1]--></g></svg>