<?xml version="1.0" encoding="us-ascii" standalone="no"?><svg xmlns="http://www.w3.org/2000/svg" xmlns:xlink="http://www.w3.org/1999/xlink" contentStyleType="text/css" height="1842px" preserveAspectRatio="none" style="width:1101px;height:1842px;background:#FFFFFF;" version="1.1" viewBox="0 0 1101 1842" width="1101px" zoomAndPan="magnify"><defs/><g><rect fill="#FFFFFF" height="325.9102" style="stroke:#000000;stroke-width:1.0;" width="10" x="146" y="163.2031"/><rect fill="#FFFFFF" height="219.0371" style="stroke:#000000;stroke-width:1.0;" width="10" x="146" y="565.6953"/><rect fill="#FFFFFF" height="583.9473" style="stroke:#000000;stroke-width:1.0;" width="10" x="146" y="861.3145"/><rect fill="#FFFFFF" height="219.0371" style="stroke:#000000;stroke-width:1.0;" width="10" x="146" y="1521.8438"/><rect fill="#FFFFFF" height="219.0371" style="stroke:#000000;stroke-width:1.0;" width="10" x="396" y="238.7852"/><rect fill="#FFFFFF" height="156.4551" style="stroke:#000000;stroke-width:1.0;" width="10" x="396" y="596.9863"/><rect fill="#FFFFFF" height="477.0742" style="stroke:#000000;stroke-width:1.0;" width="10" x="396" y="936.8965"/><rect fill="#FFFFFF" height="156.4551" style="stroke:#000000;stroke-width:1.0;" width="10" x="396" y="1553.1348"/><rect fill="#FFFFFF" height="156.4551" style="stroke:#000000;stroke-width:1.0;" width="10" x="569" y="270.0762"/><rect fill="#FFFFFF" height="93.873" style="stroke:#000000;stroke-width:1.0;" width="10" x="569" y="628.2773"/><rect fill="#FFFFFF" height="93.873" style="stroke:#000000;stroke-width:1.0;" width="10" x="569" y="968.1875"/><rect fill="#FFFFFF" height="289.3281" style="stroke:#000000;stroke-width:1.0;" width="10" x="706" y="1093.3516"/><rect fill="#FFFFFF" height="93.873" style="stroke:#000000;stroke-width:1.0;" width="10" x="706" y="1584.4258"/><rect fill="#FFFFFF" height="31.291" style="stroke:#000000;stroke-width:1.0;" width="10" x="1035" y="301.3672"/><rect fill="#FFFFFF" height="31.291" style="stroke:#000000;stroke-width:1.0;" width="10" x="1035" y="363.9492"/><rect fill="#FFFFFF" height="31.291" style="stroke:#000000;stroke-width:1.0;" width="10" x="1035" y="659.5684"/><rect fill="#FFFFFF" height="31.291" style="stroke:#000000;stroke-width:1.0;" width="10" x="1035" y="999.4785"/><rect fill="#FFFFFF" height="31.291" style="stroke:#000000;stroke-width:1.0;" width="10" x="1035" y="1213.2246"/><rect fill="#FFFFFF" height="31.291" style="stroke:#000000;stroke-width:1.0;" width="10" x="1035" y="1320.0977"/><rect fill="#FFFFFF" height="31.291" style="stroke:#000000;stroke-width:1.0;" width="10" x="1035" y="1615.7168"/><line style="stroke:#000000;stroke-width:1.0;" x1="34" x2="34" y1="84.6211" y2="1758.8809"/><line style="stroke:#000000;stroke-width:1.0;" x1="150.5" x2="150.5" y1="84.6211" y2="1758.8809"/><line style="stroke:#000000;stroke-width:1.0;" x1="400.5" x2="400.5" y1="84.6211" y2="1758.8809"/><line style="stroke:#000000;stroke-width:1.0;" x1="573.5" x2="573.5" y1="84.6211" y2="1758.8809"/><line style="stroke:#000000;stroke-width:1.0;" x1="710.5" x2="710.5" y1="84.6211" y2="1758.8809"/><line style="stroke:#000000;stroke-width:1.0;" x1="1040" x2="1040" y1="84.6211" y2="1758.8809"/><text fill="#000000" font-family="Malgun Gothic" font-size="14" lengthAdjust="spacing" textLength="42" x="10" y="81.2373">&#49324;&#50857;&#51088;</text><ellipse cx="34" cy="14" fill="#FFFFFF" rx="8" ry="8" style="stroke:#000000;stroke-width:1.0;"/><path d="M34,22 L34,49 M21,30 L47,30 M34,49 L21,64 M34,49 L47,64 " fill="none" style="stroke:#000000;stroke-width:1.0;"/><text fill="#000000" font-family="Malgun Gothic" font-size="14" lengthAdjust="spacing" textLength="42" x="10" y="1773.1182">&#49324;&#50857;&#51088;</text><ellipse cx="34" cy="1785.502" fill="#FFFFFF" rx="8" ry="8" style="stroke:#000000;stroke-width:1.0;"/><path d="M34,1793.502 L34,1820.502 M21,1801.502 L47,1801.502 M34,1820.502 L21,1835.502 M34,1820.502 L47,1835.502 " fill="none" style="stroke:#000000;stroke-width:1.0;"/><rect fill="#FFFFFF" height="51.2422" rx="2.5" ry="2.5" style="stroke:#000000;stroke-width:1.0;" width="71" x="115.5" y="32.3789"/><text fill="#000000" font-family="Malgun Gothic" font-size="14" lengthAdjust="spacing" textLength="57" x="122.5" y="54.6162">Frontend</text><text fill="#000000" font-family="Malgun Gothic" font-size="14" lengthAdjust="spacing" textLength="44" x="129" y="73.2373">(React)</text><rect fill="#FFFFFF" height="51.2422" rx="2.5" ry="2.5" style="stroke:#000000;stroke-width:1.0;" width="71" x="115.5" y="1757.8809"/><text fill="#000000" font-family="Malgun Gothic" font-size="14" lengthAdjust="spacing" textLength="57" x="122.5" y="1780.1182">Frontend</text><text fill="#000000" font-family="Malgun Gothic" font-size="14" lengthAdjust="spacing" textLength="44" x="129" y="1798.7393">(React)</text><rect fill="#FFFFFF" height="32.6211" rx="2.5" ry="2.5" style="stroke:#000000;stroke-width:1.0;" width="151" x="325.5" y="51"/><text fill="#000000" font-family="Malgun Gothic" font-size="14" lengthAdjust="spacing" textLength="137" x="332.5" y="73.2373">ImageboardController</text><rect fill="#FFFFFF" height="32.6211" rx="2.5" ry="2.5" style="stroke:#000000;stroke-width:1.0;" width="151" x="325.5" y="1757.8809"/><text fill="#000000" font-family="Malgun Gothic" font-size="14" lengthAdjust="spacing" textLength="137" x="332.5" y="1780.1182">ImageboardController</text><rect fill="#FFFFFF" height="32.6211" rx="2.5" ry="2.5" style="stroke:#000000;stroke-width:1.0;" width="135" x="506.5" y="51"/><text fill="#000000" font-family="Malgun Gothic" font-size="14" lengthAdjust="spacing" textLength="121" x="513.5" y="73.2373">ImageboardService</text><rect fill="#FFFFFF" height="32.6211" rx="2.5" ry="2.5" style="stroke:#000000;stroke-width:1.0;" width="135" x="506.5" y="1757.8809"/><text fill="#000000" font-family="Malgun Gothic" font-size="14" lengthAdjust="spacing" textLength="121" x="513.5" y="1780.1182">ImageboardService</text><rect fill="#FFFFFF" height="32.6211" rx="2.5" ry="2.5" style="stroke:#000000;stroke-width:1.0;" width="79" x="671.5" y="51"/><text fill="#000000" font-family="Malgun Gothic" font-size="14" lengthAdjust="spacing" textLength="65" x="678.5" y="73.2373">BidService</text><rect fill="#FFFFFF" height="32.6211" rx="2.5" ry="2.5" style="stroke:#000000;stroke-width:1.0;" width="79" x="671.5" y="1757.8809"/><text fill="#000000" font-family="Malgun Gothic" font-size="14" lengthAdjust="spacing" textLength="65" x="678.5" y="1780.1182">BidService</text><rect fill="#FFFFFF" height="32.6211" rx="2.5" ry="2.5" style="stroke:#000000;stroke-width:1.0;" width="78" x="1001" y="51"/><text fill="#000000" font-family="Malgun Gothic" font-size="14" lengthAdjust="spacing" textLength="64" x="1008" y="73.2373">Oracle DB</text><rect fill="#FFFFFF" height="32.6211" rx="2.5" ry="2.5" style="stroke:#000000;stroke-width:1.0;" width="78" x="1001" y="1757.8809"/><text fill="#000000" font-family="Malgun Gothic" font-size="14" lengthAdjust="spacing" textLength="64" x="1008" y="1780.1182">Oracle DB</text><rect fill="#FFFFFF" height="325.9102" style="stroke:#000000;stroke-width:1.0;" width="10" x="146" y="163.2031"/><rect fill="#FFFFFF" height="219.0371" style="stroke:#000000;stroke-width:1.0;" width="10" x="146" y="565.6953"/><rect fill="#FFFFFF" height="583.9473" style="stroke:#000000;stroke-width:1.0;" width="10" x="146" y="861.3145"/><rect fill="#FFFFFF" height="219.0371" style="stroke:#000000;stroke-width:1.0;" width="10" x="146" y="1521.8438"/><rect fill="#FFFFFF" height="219.0371" style="stroke:#000000;stroke-width:1.0;" width="10" x="396" y="238.7852"/><rect fill="#FFFFFF" height="156.4551" style="stroke:#000000;stroke-width:1.0;" width="10" x="396" y="596.9863"/><rect fill="#FFFFFF" height="477.0742" style="stroke:#000000;stroke-width:1.0;" width="10" x="396" y="936.8965"/><rect fill="#FFFFFF" height="156.4551" style="stroke:#000000;stroke-width:1.0;" width="10" x="396" y="1553.1348"/><rect fill="#FFFFFF" height="156.4551" style="stroke:#000000;stroke-width:1.0;" width="10" x="569" y="270.0762"/><rect fill="#FFFFFF" height="93.873" style="stroke:#000000;stroke-width:1.0;" width="10" x="569" y="628.2773"/><rect fill="#FFFFFF" height="93.873" style="stroke:#000000;stroke-width:1.0;" width="10" x="569" y="968.1875"/><rect fill="#FFFFFF" height="289.3281" style="stroke:#000000;stroke-width:1.0;" width="10" x="706" y="1093.3516"/><rect fill="#FFFFFF" height="93.873" style="stroke:#000000;stroke-width:1.0;" width="10" x="706" y="1584.4258"/><rect fill="#FFFFFF" height="31.291" style="stroke:#000000;stroke-width:1.0;" width="10" x="1035" y="301.3672"/><rect fill="#FFFFFF" height="31.291" style="stroke:#000000;stroke-width:1.0;" width="10" x="1035" y="363.9492"/><rect fill="#FFFFFF" height="31.291" style="stroke:#000000;stroke-width:1.0;" width="10" x="1035" y="659.5684"/><rect fill="#FFFFFF" height="31.291" style="stroke:#000000;stroke-width:1.0;" width="10" x="1035" y="999.4785"/><rect fill="#FFFFFF" height="31.291" style="stroke:#000000;stroke-width:1.0;" width="10" x="1035" y="1213.2246"/><rect fill="#FFFFFF" height="31.291" style="stroke:#000000;stroke-width:1.0;" width="10" x="1035" y="1320.0977"/><rect fill="#FFFFFF" height="31.291" style="stroke:#000000;stroke-width:1.0;" width="10" x="1035" y="1615.7168"/><rect fill="#FFFFFF" height="3" style="stroke:#FFFFFF;stroke-width:1.0;" width="1089" x="5" y="116.2666"/><line style="stroke:#000000;stroke-width:0.5;" x1="5" x2="1094" y1="116.2666" y2="116.2666"/><line style="stroke:#000000;stroke-width:0.5;" x1="5" x2="1094" y1="119.2666" y2="119.2666"/><rect fill="#FFFFFF" height="25.291" style="stroke:#000000;stroke-width:1.0;" width="107" x="496" y="104.6211"/><text fill="#000000" font-family="Malgun Gothic" font-size="13" font-weight="bold" lengthAdjust="spacing" textLength="88" x="502" y="122.77">&#44221;&#47588; &#49345;&#54408; &#46321;&#47197;</text><polygon fill="#000000" points="134,159.2031,144,163.2031,134,167.2031,138,163.2031" style="stroke:#000000;stroke-width:1.0;"/><line style="stroke:#000000;stroke-width:2.0;" x1="34" x2="140" y1="163.2031" y2="163.2031"/><text fill="#000000" font-family="Malgun Gothic" font-size="13" lengthAdjust="spacing" textLength="88" x="46" y="158.061">&#49345;&#54408; &#46321;&#47197; &#50836;&#52397;</text><line style="stroke:#000000;stroke-width:2.0;" x1="156" x2="198" y1="194.4941" y2="194.4941"/><line style="stroke:#000000;stroke-width:2.0;" x1="198" x2="198" y1="194.4941" y2="207.4941"/><line style="stroke:#000000;stroke-width:2.0;" x1="157" x2="198" y1="207.4941" y2="207.4941"/><polygon fill="#000000" points="167,203.4941,157,207.4941,167,211.4941,163,207.4941" style="stroke:#000000;stroke-width:1.0;"/><text fill="#000000" font-family="Malgun Gothic" font-size="13" lengthAdjust="spacing" textLength="57" x="163" y="189.3521">&#51077;&#47141; &#44160;&#51613;</text><polygon fill="#000000" points="384,234.7852,394,238.7852,384,242.7852,388,238.7852" style="stroke:#000000;stroke-width:1.0;"/><line style="stroke:#000000;stroke-width:2.0;" x1="156" x2="390" y1="238.7852" y2="238.7852"/><text fill="#000000" font-family="Malgun Gothic" font-size="13" lengthAdjust="spacing" textLength="221" x="165.5" y="233.6431">POST /imageboard/imageboardWrite</text><polygon fill="#000000" points="557,266.0762,567,270.0762,557,274.0762,561,270.0762" style="stroke:#000000;stroke-width:1.0;"/><line style="stroke:#000000;stroke-width:2.0;" x1="406" x2="563" y1="270.0762" y2="270.0762"/><text fill="#000000" font-family="Malgun Gothic" font-size="13" lengthAdjust="spacing" textLength="111" x="432" y="264.9341">imageboardWrite()</text><polygon fill="#000000" points="1023,297.3672,1033,301.3672,1023,305.3672,1027,301.3672" style="stroke:#000000;stroke-width:1.0;"/><line style="stroke:#000000;stroke-width:2.0;" x1="579" x2="1029" y1="301.3672" y2="301.3672"/><text fill="#000000" font-family="Malgun Gothic" font-size="13" lengthAdjust="spacing" textLength="176" x="719" y="296.2251">INSERT INTO IMAGEBOARD1</text><polygon fill="#000000" points="590,328.6582,580,332.6582,590,336.6582,586,332.6582" style="stroke:#000000;stroke-width:1.0;"/><line style="stroke:#000000;stroke-width:2.0;stroke-dasharray:2.0,2.0;" x1="584" x2="1039" y1="332.6582" y2="332.6582"/><text fill="#000000" font-family="Malgun Gothic" font-size="13" lengthAdjust="spacing" textLength="26" x="796.5" y="327.5161">&#49457;&#44277;</text><polygon fill="#000000" points="1023,359.9492,1033,363.9492,1023,367.9492,1027,363.9492" style="stroke:#000000;stroke-width:1.0;"/><line style="stroke:#000000;stroke-width:2.0;" x1="579" x2="1029" y1="363.9492" y2="363.9492"/><text fill="#000000" font-family="Malgun Gothic" font-size="13" lengthAdjust="spacing" textLength="313" x="650.5" y="358.8071">INSERT INTO IMAGEBOARD_IMAGES1 (&#45796;&#51473; &#51060;&#48120;&#51648;)</text><polygon fill="#000000" points="590,391.2402,580,395.2402,590,399.2402,586,395.2402" style="stroke:#000000;stroke-width:1.0;"/><line style="stroke:#000000;stroke-width:2.0;stroke-dasharray:2.0,2.0;" x1="584" x2="1039" y1="395.2402" y2="395.2402"/><text fill="#000000" font-family="Malgun Gothic" font-size="13" lengthAdjust="spacing" textLength="26" x="796.5" y="390.0981">&#49457;&#44277;</text><polygon fill="#000000" points="417,422.5313,407,426.5313,417,430.5313,413,426.5313" style="stroke:#000000;stroke-width:1.0;"/><line style="stroke:#000000;stroke-width:2.0;stroke-dasharray:2.0,2.0;" x1="411" x2="573" y1="426.5313" y2="426.5313"/><text fill="#000000" font-family="Malgun Gothic" font-size="13" lengthAdjust="spacing" textLength="57" x="461.5" y="421.3892">&#44208;&#44284; &#48152;&#54872;</text><polygon fill="#000000" points="167,453.8223,157,457.8223,167,461.8223,163,457.8223" style="stroke:#000000;stroke-width:1.0;"/><line style="stroke:#000000;stroke-width:2.0;stroke-dasharray:2.0,2.0;" x1="161" x2="400" y1="457.8223" y2="457.8223"/><text fill="#000000" font-family="Malgun Gothic" font-size="13" lengthAdjust="spacing" textLength="63" x="247" y="452.6802">JSON &#51025;&#45813;</text><polygon fill="#000000" points="45,485.1133,35,489.1133,45,493.1133,41,489.1133" style="stroke:#000000;stroke-width:1.0;"/><line style="stroke:#000000;stroke-width:2.0;stroke-dasharray:2.0,2.0;" x1="39" x2="150" y1="489.1133" y2="489.1133"/><text fill="#000000" font-family="Malgun Gothic" font-size="13" lengthAdjust="spacing" textLength="57" x="64" y="483.9712">&#46321;&#47197; &#50756;&#47308;</text><rect fill="#FFFFFF" height="3" style="stroke:#FFFFFF;stroke-width:1.0;" width="1089" x="5" y="518.7588"/><line style="stroke:#000000;stroke-width:0.5;" x1="5" x2="1094" y1="518.7588" y2="518.7588"/><line style="stroke:#000000;stroke-width:0.5;" x1="5" x2="1094" y1="521.7588" y2="521.7588"/><rect fill="#FFFFFF" height="25.291" style="stroke:#000000;stroke-width:1.0;" width="107" x="496" y="507.1133"/><text fill="#000000" font-family="Malgun Gothic" font-size="13" font-weight="bold" lengthAdjust="spacing" textLength="88" x="502" y="525.2622">&#44221;&#47588; &#49345;&#54408; &#51312;&#54924;</text><polygon fill="#000000" points="134,561.6953,144,565.6953,134,569.6953,138,565.6953" style="stroke:#000000;stroke-width:1.0;"/><line style="stroke:#000000;stroke-width:2.0;" x1="34" x2="140" y1="565.6953" y2="565.6953"/><text fill="#000000" font-family="Malgun Gothic" font-size="13" lengthAdjust="spacing" textLength="88" x="46" y="560.5532">&#49345;&#54408; &#47785;&#47197; &#51312;&#54924;</text><polygon fill="#000000" points="384,592.9863,394,596.9863,384,600.9863,388,596.9863" style="stroke:#000000;stroke-width:1.0;"/><line style="stroke:#000000;stroke-width:2.0;" x1="156" x2="390" y1="596.9863" y2="596.9863"/><text fill="#000000" font-family="Malgun Gothic" font-size="13" lengthAdjust="spacing" textLength="201" x="175.5" y="591.8442">GET /imageboard/imageboardList</text><polygon fill="#000000" points="557,624.2773,567,628.2773,557,632.2773,561,628.2773" style="stroke:#000000;stroke-width:1.0;"/><line style="stroke:#000000;stroke-width:2.0;" x1="406" x2="563" y1="628.2773" y2="628.2773"/><text fill="#000000" font-family="Malgun Gothic" font-size="13" lengthAdjust="spacing" textLength="99" x="438" y="623.1353">imageboardList()</text><polygon fill="#000000" points="1023,655.5684,1033,659.5684,1023,663.5684,1027,659.5684" style="stroke:#000000;stroke-width:1.0;"/><line style="stroke:#000000;stroke-width:2.0;" x1="579" x2="1029" y1="659.5684" y2="659.5684"/><text fill="#000000" font-family="Malgun Gothic" font-size="13" lengthAdjust="spacing" textLength="180" x="717" y="654.4263">SELECT FROM IMAGEBOARD1</text><polygon fill="#000000" points="590,686.8594,580,690.8594,590,694.8594,586,690.8594" style="stroke:#000000;stroke-width:1.0;"/><line style="stroke:#000000;stroke-width:2.0;stroke-dasharray:2.0,2.0;" x1="584" x2="1039" y1="690.8594" y2="690.8594"/><text fill="#000000" font-family="Malgun Gothic" font-size="13" lengthAdjust="spacing" textLength="57" x="781" y="685.7173">&#49345;&#54408; &#47785;&#47197;</text><polygon fill="#000000" points="417,718.1504,407,722.1504,417,726.1504,413,722.1504" style="stroke:#000000;stroke-width:1.0;"/><line style="stroke:#000000;stroke-width:2.0;stroke-dasharray:2.0,2.0;" x1="411" x2="573" y1="722.1504" y2="722.1504"/><text fill="#000000" font-family="Malgun Gothic" font-size="13" lengthAdjust="spacing" textLength="57" x="461.5" y="717.0083">&#49345;&#54408; &#47785;&#47197;</text><polygon fill="#000000" points="167,749.4414,157,753.4414,167,757.4414,163,753.4414" style="stroke:#000000;stroke-width:1.0;"/><line style="stroke:#000000;stroke-width:2.0;stroke-dasharray:2.0,2.0;" x1="161" x2="400" y1="753.4414" y2="753.4414"/><text fill="#000000" font-family="Malgun Gothic" font-size="13" lengthAdjust="spacing" textLength="63" x="247" y="748.2993">JSON &#51025;&#45813;</text><polygon fill="#000000" points="45,780.7324,35,784.7324,45,788.7324,41,784.7324" style="stroke:#000000;stroke-width:1.0;"/><line style="stroke:#000000;stroke-width:2.0;stroke-dasharray:2.0,2.0;" x1="39" x2="150" y1="784.7324" y2="784.7324"/><text fill="#000000" font-family="Malgun Gothic" font-size="13" lengthAdjust="spacing" textLength="88" x="48.5" y="779.5903">&#49345;&#54408; &#47785;&#47197; &#54364;&#49884;</text><rect fill="#FFFFFF" height="3" style="stroke:#FFFFFF;stroke-width:1.0;" width="1089" x="5" y="814.3779"/><line style="stroke:#000000;stroke-width:0.5;" x1="5" x2="1094" y1="814.3779" y2="814.3779"/><line style="stroke:#000000;stroke-width:0.5;" x1="5" x2="1094" y1="817.3779" y2="817.3779"/><rect fill="#FFFFFF" height="25.291" style="stroke:#000000;stroke-width:1.0;" width="76" x="511.5" y="802.7324"/><text fill="#000000" font-family="Malgun Gothic" font-size="13" font-weight="bold" lengthAdjust="spacing" textLength="57" x="517.5" y="820.8813">&#51077;&#52272; &#46321;&#47197;</text><polygon fill="#000000" points="134,857.3145,144,861.3145,134,865.3145,138,861.3145" style="stroke:#000000;stroke-width:1.0;"/><line style="stroke:#000000;stroke-width:2.0;" x1="34" x2="140" y1="861.3145" y2="861.3145"/><text fill="#000000" font-family="Malgun Gothic" font-size="13" lengthAdjust="spacing" textLength="52" x="64" y="856.1724">&#51077;&#52272;&#54616;&#44592;</text><line style="stroke:#000000;stroke-width:2.0;" x1="156" x2="198" y1="892.6055" y2="892.6055"/><line style="stroke:#000000;stroke-width:2.0;" x1="198" x2="198" y1="892.6055" y2="905.6055"/><line style="stroke:#000000;stroke-width:2.0;" x1="157" x2="198" y1="905.6055" y2="905.6055"/><polygon fill="#000000" points="167,901.6055,157,905.6055,167,909.6055,163,905.6055" style="stroke:#000000;stroke-width:1.0;"/><text fill="#000000" font-family="Malgun Gothic" font-size="13" lengthAdjust="spacing" textLength="88" x="163" y="887.4634">&#51077;&#52272; &#44552;&#50529; &#44160;&#51613;</text><polygon fill="#000000" points="384,932.8965,394,936.8965,384,940.8965,388,936.8965" style="stroke:#000000;stroke-width:1.0;"/><line style="stroke:#000000;stroke-width:2.0;" x1="156" x2="390" y1="936.8965" y2="936.8965"/><text fill="#000000" font-family="Malgun Gothic" font-size="13" lengthAdjust="spacing" textLength="94" x="229" y="931.7544">POST /bid/write</text><polygon fill="#000000" points="557,964.1875,567,968.1875,557,972.1875,561,968.1875" style="stroke:#000000;stroke-width:1.0;"/><line style="stroke:#000000;stroke-width:2.0;" x1="406" x2="563" y1="968.1875" y2="968.1875"/><text fill="#000000" font-family="Malgun Gothic" font-size="13" lengthAdjust="spacing" textLength="108" x="433.5" y="963.0454">imageboardView()</text><polygon fill="#000000" points="1023,995.4785,1033,999.4785,1023,1003.4785,1027,999.4785" style="stroke:#000000;stroke-width:1.0;"/><line style="stroke:#000000;stroke-width:2.0;" x1="579" x2="1029" y1="999.4785" y2="999.4785"/><text fill="#000000" font-family="Malgun Gothic" font-size="13" lengthAdjust="spacing" textLength="180" x="717" y="994.3364">SELECT FROM IMAGEBOARD1</text><polygon fill="#000000" points="590,1026.7695,580,1030.7695,590,1034.7695,586,1030.7695" style="stroke:#000000;stroke-width:1.0;"/><line style="stroke:#000000;stroke-width:2.0;stroke-dasharray:2.0,2.0;" x1="584" x2="1039" y1="1030.7695" y2="1030.7695"/><text fill="#000000" font-family="Malgun Gothic" font-size="13" lengthAdjust="spacing" textLength="57" x="781" y="1025.6274">&#44221;&#47588; &#51221;&#48372;</text><polygon fill="#000000" points="417,1058.0605,407,1062.0605,417,1066.0605,413,1062.0605" style="stroke:#000000;stroke-width:1.0;"/><line style="stroke:#000000;stroke-width:2.0;stroke-dasharray:2.0,2.0;" x1="411" x2="573" y1="1062.0605" y2="1062.0605"/><text fill="#000000" font-family="Malgun Gothic" font-size="13" lengthAdjust="spacing" textLength="57" x="461.5" y="1056.9185">&#44221;&#47588; &#51221;&#48372;</text><polygon fill="#000000" points="694,1089.3516,704,1093.3516,694,1097.3516,698,1093.3516" style="stroke:#000000;stroke-width:1.0;"/><line style="stroke:#000000;stroke-width:2.0;" x1="406" x2="700" y1="1093.3516" y2="1093.3516"/><text fill="#000000" font-family="Malgun Gothic" font-size="13" lengthAdjust="spacing" textLength="58" x="527" y="1088.2095">bidWrite()</text><line style="stroke:#000000;stroke-width:2.0;" x1="716" x2="758" y1="1124.6426" y2="1124.6426"/><line style="stroke:#000000;stroke-width:2.0;" x1="758" x2="758" y1="1124.6426" y2="1137.6426"/><line style="stroke:#000000;stroke-width:2.0;" x1="717" x2="758" y1="1137.6426" y2="1137.6426"/><polygon fill="#000000" points="727,1133.6426,717,1137.6426,727,1141.6426,723,1137.6426" style="stroke:#000000;stroke-width:1.0;"/><text fill="#000000" font-family="Malgun Gothic" font-size="13" lengthAdjust="spacing" textLength="132" x="723" y="1119.5005">&#51089;&#49457;&#51088; &#48376;&#51064; &#51077;&#52272; &#48169;&#51648;</text><line style="stroke:#000000;stroke-width:2.0;" x1="716" x2="758" y1="1168.9336" y2="1168.9336"/><line style="stroke:#000000;stroke-width:2.0;" x1="758" x2="758" y1="1168.9336" y2="1181.9336"/><line style="stroke:#000000;stroke-width:2.0;" x1="717" x2="758" y1="1181.9336" y2="1181.9336"/><polygon fill="#000000" points="727,1177.9336,717,1181.9336,727,1185.9336,723,1181.9336" style="stroke:#000000;stroke-width:1.0;"/><text fill="#000000" font-family="Malgun Gothic" font-size="13" lengthAdjust="spacing" textLength="119" x="723" y="1163.7915">&#52572;&#49548; &#51077;&#52272; &#44552;&#50529; &#44160;&#51613;</text><polygon fill="#000000" points="1023,1209.2246,1033,1213.2246,1023,1217.2246,1027,1213.2246" style="stroke:#000000;stroke-width:1.0;"/><line style="stroke:#000000;stroke-width:2.0;" x1="716" x2="1029" y1="1213.2246" y2="1213.2246"/><text fill="#000000" font-family="Malgun Gothic" font-size="13" lengthAdjust="spacing" textLength="242" x="754.5" y="1208.0825">SELECT MAX(BID_AMOUNT) FROM BID1</text><polygon fill="#000000" points="727,1240.5156,717,1244.5156,727,1248.5156,723,1244.5156" style="stroke:#000000;stroke-width:1.0;"/><line style="stroke:#000000;stroke-width:2.0;stroke-dasharray:2.0,2.0;" x1="721" x2="1039" y1="1244.5156" y2="1244.5156"/><text fill="#000000" font-family="Malgun Gothic" font-size="13" lengthAdjust="spacing" textLength="88" x="834" y="1239.3735">&#52572;&#44256; &#51077;&#52272; &#44552;&#50529;</text><line style="stroke:#000000;stroke-width:2.0;" x1="716" x2="758" y1="1275.8066" y2="1275.8066"/><line style="stroke:#000000;stroke-width:2.0;" x1="758" x2="758" y1="1275.8066" y2="1288.8066"/><line style="stroke:#000000;stroke-width:2.0;" x1="717" x2="758" y1="1288.8066" y2="1288.8066"/><polygon fill="#000000" points="727,1284.8066,717,1288.8066,727,1292.8066,723,1288.8066" style="stroke:#000000;stroke-width:1.0;"/><text fill="#000000" font-family="Malgun Gothic" font-size="13" lengthAdjust="spacing" textLength="88" x="723" y="1270.6646">&#51077;&#52272; &#44552;&#50529; &#44160;&#51613;</text><polygon fill="#000000" points="1023,1316.0977,1033,1320.0977,1023,1324.0977,1027,1320.0977" style="stroke:#000000;stroke-width:1.0;"/><line style="stroke:#000000;stroke-width:2.0;" x1="716" x2="1029" y1="1320.0977" y2="1320.0977"/><text fill="#000000" font-family="Malgun Gothic" font-size="13" lengthAdjust="spacing" textLength="112" x="819.5" y="1314.9556">INSERT INTO BID1</text><polygon fill="#000000" points="727,1347.3887,717,1351.3887,727,1355.3887,723,1351.3887" style="stroke:#000000;stroke-width:1.0;"/><line style="stroke:#000000;stroke-width:2.0;stroke-dasharray:2.0,2.0;" x1="721" x2="1039" y1="1351.3887" y2="1351.3887"/><text fill="#000000" font-family="Malgun Gothic" font-size="13" lengthAdjust="spacing" textLength="26" x="865" y="1346.2466">&#49457;&#44277;</text><polygon fill="#000000" points="417,1378.6797,407,1382.6797,417,1386.6797,413,1382.6797" style="stroke:#000000;stroke-width:1.0;"/><line style="stroke:#000000;stroke-width:2.0;stroke-dasharray:2.0,2.0;" x1="411" x2="710" y1="1382.6797" y2="1382.6797"/><text fill="#000000" font-family="Malgun Gothic" font-size="13" lengthAdjust="spacing" textLength="57" x="530" y="1377.5376">&#44208;&#44284; &#48152;&#54872;</text><polygon fill="#000000" points="167,1409.9707,157,1413.9707,167,1417.9707,163,1413.9707" style="stroke:#000000;stroke-width:1.0;"/><line style="stroke:#000000;stroke-width:2.0;stroke-dasharray:2.0,2.0;" x1="161" x2="400" y1="1413.9707" y2="1413.9707"/><text fill="#000000" font-family="Malgun Gothic" font-size="13" lengthAdjust="spacing" textLength="63" x="247" y="1408.8286">JSON &#51025;&#45813;</text><polygon fill="#000000" points="45,1441.2617,35,1445.2617,45,1449.2617,41,1445.2617" style="stroke:#000000;stroke-width:1.0;"/><line style="stroke:#000000;stroke-width:2.0;stroke-dasharray:2.0,2.0;" x1="39" x2="150" y1="1445.2617" y2="1445.2617"/><text fill="#000000" font-family="Malgun Gothic" font-size="13" lengthAdjust="spacing" textLength="57" x="64" y="1440.1196">&#51077;&#52272; &#50756;&#47308;</text><rect fill="#FFFFFF" height="3" style="stroke:#FFFFFF;stroke-width:1.0;" width="1089" x="5" y="1474.9072"/><line style="stroke:#000000;stroke-width:0.5;" x1="5" x2="1094" y1="1474.9072" y2="1474.9072"/><line style="stroke:#000000;stroke-width:0.5;" x1="5" x2="1094" y1="1477.9072" y2="1477.9072"/><rect fill="#FFFFFF" height="25.291" style="stroke:#000000;stroke-width:1.0;" width="107" x="496" y="1463.2617"/><text fill="#000000" font-family="Malgun Gothic" font-size="13" font-weight="bold" lengthAdjust="spacing" textLength="88" x="502" y="1481.4106">&#51077;&#52272; &#45236;&#50669; &#51312;&#54924;</text><polygon fill="#000000" points="134,1517.8438,144,1521.8438,134,1525.8438,138,1521.8438" style="stroke:#000000;stroke-width:1.0;"/><line style="stroke:#000000;stroke-width:2.0;" x1="34" x2="140" y1="1521.8438" y2="1521.8438"/><text fill="#000000" font-family="Malgun Gothic" font-size="13" lengthAdjust="spacing" textLength="88" x="46" y="1516.7017">&#51077;&#52272; &#45236;&#50669; &#51312;&#54924;</text><polygon fill="#000000" points="384,1549.1348,394,1553.1348,384,1557.1348,388,1553.1348" style="stroke:#000000;stroke-width:1.0;"/><line style="stroke:#000000;stroke-width:2.0;" x1="156" x2="390" y1="1553.1348" y2="1553.1348"/><text fill="#000000" font-family="Malgun Gothic" font-size="13" lengthAdjust="spacing" textLength="189" x="181.5" y="1547.9927">GET /bid/list?imageboardSeq=1</text><polygon fill="#000000" points="694,1580.4258,704,1584.4258,694,1588.4258,698,1584.4258" style="stroke:#000000;stroke-width:1.0;"/><line style="stroke:#000000;stroke-width:2.0;" x1="406" x2="700" y1="1584.4258" y2="1584.4258"/><text fill="#000000" font-family="Malgun Gothic" font-size="13" lengthAdjust="spacing" textLength="46" x="533" y="1579.2837">bidList()</text><polygon fill="#000000" points="1023,1611.7168,1033,1615.7168,1023,1619.7168,1027,1615.7168" style="stroke:#000000;stroke-width:1.0;"/><line style="stroke:#000000;stroke-width:2.0;" x1="716" x2="1029" y1="1615.7168" y2="1615.7168"/><text fill="#000000" font-family="Malgun Gothic" font-size="13" lengthAdjust="spacing" textLength="300" x="725.5" y="1610.5747">SELECT FROM BID1 WHERE IMAGEBOARD_SEQ=1</text><polygon fill="#000000" points="727,1643.0078,717,1647.0078,727,1651.0078,723,1647.0078" style="stroke:#000000;stroke-width:1.0;"/><line style="stroke:#000000;stroke-width:2.0;stroke-dasharray:2.0,2.0;" x1="721" x2="1039" y1="1647.0078" y2="1647.0078"/><text fill="#000000" font-family="Malgun Gothic" font-size="13" lengthAdjust="spacing" textLength="57" x="849.5" y="1641.8657">&#51077;&#52272; &#45236;&#50669;</text><polygon fill="#000000" points="417,1674.2988,407,1678.2988,417,1682.2988,413,1678.2988" style="stroke:#000000;stroke-width:1.0;"/><line style="stroke:#000000;stroke-width:2.0;stroke-dasharray:2.0,2.0;" x1="411" x2="710" y1="1678.2988" y2="1678.2988"/><text fill="#000000" font-family="Malgun Gothic" font-size="13" lengthAdjust="spacing" textLength="57" x="530" y="1673.1567">&#51077;&#52272; &#45236;&#50669;</text><polygon fill="#000000" points="167,1705.5898,157,1709.5898,167,1713.5898,163,1709.5898" style="stroke:#000000;stroke-width:1.0;"/><line style="stroke:#000000;stroke-width:2.0;stroke-dasharray:2.0,2.0;" x1="161" x2="400" y1="1709.5898" y2="1709.5898"/><text fill="#000000" font-family="Malgun Gothic" font-size="13" lengthAdjust="spacing" textLength="63" x="247" y="1704.4478">JSON &#51025;&#45813;</text><polygon fill="#000000" points="45,1736.8809,35,1740.8809,45,1744.8809,41,1740.8809" style="stroke:#000000;stroke-width:1.0;"/><line style="stroke:#000000;stroke-width:2.0;stroke-dasharray:2.0,2.0;" x1="39" x2="150" y1="1740.8809" y2="1740.8809"/><text fill="#000000" font-family="Malgun Gothic" font-size="13" lengthAdjust="spacing" textLength="88" x="48.5" y="1735.7388">&#51077;&#52272; &#45236;&#50669; &#54364;&#49884;</text><!--SRC=[jLPHJzDG57xlhpZkQNiW11-N3BEoWZDirNM83oQaT5UueNJG5dXLH4C23qub0c448aem4Wk3P0_wXzgx_-1jsTRRiew2yjIxzllkkUTyvtnt3ynPD8zWGPMnnXbpM5kGTNaUAkYLlAIQerNDBChqUw8WgpDB6enLpLci91YaWHQNaAQW0Z8CUGPbLJoZWO8q4-azK5bThwwKwHPp6iN3GuwJ5REg0rdzINPFoFu7a0sOC2YNyaoiu0LPCo4ngjE38AtoKakM46Ma4YwkypQ8pS_JOqnNPRqoGZ_hLLL5kWVtVqOH9AGlOmLvwFOw2ELn0EF_3C94NLPK13dUG-LuZijam3x_unmV0NdxflLn7PnFPyvX7J8PpiqM1eQxsQH34BBxcPoVkdN2oxA9_AmxYn1v_vrpy8r6Uqs-rmCOF_yqF1MbCWpYRkRCSbB79lB3CLNpb-vsxSpJ4A8cKpwvKvtsqwNb-3JaYv9GAjD7MOHy8Jicy6Asb1loURHaEHu6s2XaxSnkN78Ln89YxJlbBQKXI3eRH-Ie1gH-uVngakFNgN-862geVMxPZT_WMDkjdMsMqoa1Mxo0O4yaiKYFL7Cs0h6OkliYKgBRBkbkR-oiELytMLgtEwwt73cqMhkR_LlknucthOUyeUNOxCU4g6uQnuPvjsPocJ5wIHB6XP4oZ9R4GlnUOhEDAN0avtu43WhIgksHZRr8dUdC4ylgxoaUfBMrRJUjstY9kw_TN2TRX_4iPHfN1bVkxY3FCLgv9z4xmt2mvJGkOazr1AUNwCFCVP06MeXhTiZS5_uoJ2JxDUeyxbNeD9gatkogQvrGo-f7lDmZxpTxYnPaCIKiP5ya-NnkAbiG9uhbr5L9wOkUjGn5ini7mMYXglRBCTOPMJ-FTQPUZirk6zUq6Q7-yrXV9Nw3RtSKNxqWNqxx-tOFv6rzsnrPbPhj8ypy4LhC3CMOu533Xoqxij_3C-oA2vEFXPB0tjkIy2npi-Pi1U9B7qcxR-dRKlLnzBy0]--></g></svg>