<?xml version="1.0" encoding="us-ascii" standalone="no"?><svg xmlns="http://www.w3.org/2000/svg" xmlns:xlink="http://www.w3.org/1999/xlink" contentStyleType="text/css" height="1811px" preserveAspectRatio="none" style="width:773px;height:1811px;background:#FFFFFF;" version="1.1" viewBox="0 0 773 1811" width="773px" zoomAndPan="magnify"><defs/><g><line style="stroke:#000000;stroke-width:1.0;" x1="34" x2="34" y1="84.6211" y2="1727.5898"/><line style="stroke:#000000;stroke-width:1.0;" x1="145.5" x2="145.5" y1="84.6211" y2="1727.5898"/><line style="stroke:#000000;stroke-width:1.0;" x1="391" x2="391" y1="84.6211" y2="1727.5898"/><line style="stroke:#000000;stroke-width:1.0;" x1="526" x2="526" y1="84.6211" y2="1727.5898"/><line style="stroke:#000000;stroke-width:1.0;" x1="712" x2="712" y1="84.6211" y2="1727.5898"/><text fill="#000000" font-family="Malgun Gothic" font-size="14" lengthAdjust="spacing" textLength="42" x="10" y="81.2373">&#49324;&#50857;&#51088;</text><ellipse cx="34" cy="14" fill="#FFFFFF" rx="8" ry="8" style="stroke:#000000;stroke-width:1.0;"/><path d="M34,22 L34,49 M21,30 L47,30 M34,49 L21,64 M34,49 L47,64 " fill="none" style="stroke:#000000;stroke-width:1.0;"/><text fill="#000000" font-family="Malgun Gothic" font-size="14" lengthAdjust="spacing" textLength="42" x="10" y="1741.8271">&#49324;&#50857;&#51088;</text><ellipse cx="34" cy="1754.2109" fill="#FFFFFF" rx="8" ry="8" style="stroke:#000000;stroke-width:1.0;"/><path d="M34,1762.2109 L34,1789.2109 M21,1770.2109 L47,1770.2109 M34,1789.2109 L21,1804.2109 M34,1789.2109 L47,1804.2109 " fill="none" style="stroke:#000000;stroke-width:1.0;"/><rect fill="#FFFFFF" height="51.2422" rx="2.5" ry="2.5" style="stroke:#000000;stroke-width:1.0;" width="71" x="110.5" y="32.3789"/><text fill="#000000" font-family="Malgun Gothic" font-size="14" lengthAdjust="spacing" textLength="57" x="117.5" y="54.6162">Frontend</text><text fill="#000000" font-family="Malgun Gothic" font-size="14" lengthAdjust="spacing" textLength="44" x="124" y="73.2373">(React)</text><rect fill="#FFFFFF" height="51.2422" rx="2.5" ry="2.5" style="stroke:#000000;stroke-width:1.0;" width="71" x="110.5" y="1726.5898"/><text fill="#000000" font-family="Malgun Gothic" font-size="14" lengthAdjust="spacing" textLength="57" x="117.5" y="1748.8271">Frontend</text><text fill="#000000" font-family="Malgun Gothic" font-size="14" lengthAdjust="spacing" textLength="44" x="124" y="1767.4482">(React)</text><rect fill="#FFFFFF" height="32.6211" rx="2.5" ry="2.5" style="stroke:#000000;stroke-width:1.0;" width="76" x="353" y="51"/><text fill="#000000" font-family="Malgun Gothic" font-size="14" lengthAdjust="spacing" textLength="62" x="360" y="73.2373">Controller</text><rect fill="#FFFFFF" height="32.6211" rx="2.5" ry="2.5" style="stroke:#000000;stroke-width:1.0;" width="76" x="353" y="1726.5898"/><text fill="#000000" font-family="Malgun Gothic" font-size="14" lengthAdjust="spacing" textLength="62" x="360" y="1748.8271">Controller</text><rect fill="#FFFFFF" height="32.6211" rx="2.5" ry="2.5" style="stroke:#000000;stroke-width:1.0;" width="60" x="496" y="51"/><text fill="#000000" font-family="Malgun Gothic" font-size="14" lengthAdjust="spacing" textLength="46" x="503" y="73.2373">Service</text><rect fill="#FFFFFF" height="32.6211" rx="2.5" ry="2.5" style="stroke:#000000;stroke-width:1.0;" width="60" x="496" y="1726.5898"/><text fill="#000000" font-family="Malgun Gothic" font-size="14" lengthAdjust="spacing" textLength="46" x="503" y="1748.8271">Service</text><rect fill="#FFFFFF" height="32.6211" rx="2.5" ry="2.5" style="stroke:#000000;stroke-width:1.0;" width="78" x="673" y="51"/><text fill="#000000" font-family="Malgun Gothic" font-size="14" lengthAdjust="spacing" textLength="64" x="680" y="73.2373">Oracle DB</text><rect fill="#FFFFFF" height="32.6211" rx="2.5" ry="2.5" style="stroke:#000000;stroke-width:1.0;" width="78" x="673" y="1726.5898"/><text fill="#000000" font-family="Malgun Gothic" font-size="14" lengthAdjust="spacing" textLength="64" x="680" y="1748.8271">Oracle DB</text><rect fill="#FFFFFF" height="3" style="stroke:#FFFFFF;stroke-width:1.0;" width="761" x="5" y="116.2666"/><line style="stroke:#000000;stroke-width:0.5;" x1="5" x2="766" y1="116.2666" y2="116.2666"/><line style="stroke:#000000;stroke-width:0.5;" x1="5" x2="766" y1="119.2666" y2="119.2666"/><rect fill="#FFFFFF" height="25.291" style="stroke:#000000;stroke-width:1.0;" width="107" x="332" y="104.6211"/><text fill="#000000" font-family="Malgun Gothic" font-size="13" font-weight="bold" lengthAdjust="spacing" textLength="88" x="338" y="122.77">&#44221;&#47588; &#49345;&#54408; &#46321;&#47197;</text><polygon fill="#000000" points="134,159.2031,144,163.2031,134,167.2031,138,163.2031" style="stroke:#000000;stroke-width:1.0;"/><line style="stroke:#000000;stroke-width:2.0;" x1="34" x2="140" y1="163.2031" y2="163.2031"/><text fill="#000000" font-family="Malgun Gothic" font-size="13" lengthAdjust="spacing" textLength="88" x="46" y="158.061">&#49345;&#54408; &#46321;&#47197; &#50836;&#52397;</text><line style="stroke:#000000;stroke-width:2.0;" x1="146" x2="188" y1="194.4941" y2="194.4941"/><line style="stroke:#000000;stroke-width:2.0;" x1="188" x2="188" y1="194.4941" y2="207.4941"/><line style="stroke:#000000;stroke-width:2.0;" x1="147" x2="188" y1="207.4941" y2="207.4941"/><polygon fill="#000000" points="157,203.4941,147,207.4941,157,211.4941,153,207.4941" style="stroke:#000000;stroke-width:1.0;"/><text fill="#000000" font-family="Malgun Gothic" font-size="13" lengthAdjust="spacing" textLength="57" x="153" y="189.3521">&#51077;&#47141; &#44160;&#51613;</text><polygon fill="#000000" points="379,234.7852,389,238.7852,379,242.7852,383,238.7852" style="stroke:#000000;stroke-width:1.0;"/><line style="stroke:#000000;stroke-width:2.0;" x1="146" x2="385" y1="238.7852" y2="238.7852"/><text fill="#000000" font-family="Malgun Gothic" font-size="13" lengthAdjust="spacing" textLength="221" x="158" y="233.6431">POST /imageboard/imageboardWrite</text><polygon fill="#000000" points="514,266.0762,524,270.0762,514,274.0762,518,270.0762" style="stroke:#000000;stroke-width:1.0;"/><line style="stroke:#000000;stroke-width:2.0;" x1="391" x2="520" y1="270.0762" y2="270.0762"/><text fill="#000000" font-family="Malgun Gothic" font-size="13" lengthAdjust="spacing" textLength="111" x="403" y="264.9341">imageboardWrite()</text><line style="stroke:#000000;stroke-width:2.0;" x1="526" x2="568" y1="301.3672" y2="301.3672"/><line style="stroke:#000000;stroke-width:2.0;" x1="568" x2="568" y1="301.3672" y2="314.3672"/><line style="stroke:#000000;stroke-width:2.0;" x1="527" x2="568" y1="314.3672" y2="314.3672"/><polygon fill="#000000" points="537,310.3672,527,314.3672,537,318.3672,533,314.3672" style="stroke:#000000;stroke-width:1.0;"/><text fill="#000000" font-family="Malgun Gothic" font-size="13" lengthAdjust="spacing" textLength="101" x="533" y="296.2251">&#44221;&#47588; &#51333;&#47308;&#51068; &#44228;&#49328;</text><polygon fill="#000000" points="700,341.6582,710,345.6582,700,349.6582,704,345.6582" style="stroke:#000000;stroke-width:1.0;"/><line style="stroke:#000000;stroke-width:2.0;" x1="526" x2="706" y1="345.6582" y2="345.6582"/><text fill="#000000" font-family="Malgun Gothic" font-size="13" lengthAdjust="spacing" textLength="105" x="566.5" y="340.5161">INSERT &#44221;&#47588; &#49345;&#54408;</text><polygon fill="#000000" points="700,372.9492,710,376.9492,700,380.9492,704,376.9492" style="stroke:#000000;stroke-width:1.0;"/><line style="stroke:#000000;stroke-width:2.0;" x1="526" x2="706" y1="376.9492" y2="376.9492"/><text fill="#000000" font-family="Malgun Gothic" font-size="13" lengthAdjust="spacing" textLength="126" x="556" y="371.8071">INSERT &#51060;&#48120;&#51648; (&#45796;&#51473;)</text><polygon fill="#000000" points="537,404.2402,527,408.2402,537,412.2402,533,408.2402" style="stroke:#000000;stroke-width:1.0;"/><line style="stroke:#000000;stroke-width:2.0;stroke-dasharray:2.0,2.0;" x1="531" x2="711" y1="408.2402" y2="408.2402"/><text fill="#000000" font-family="Malgun Gothic" font-size="13" lengthAdjust="spacing" textLength="26" x="606" y="403.0981">&#49457;&#44277;</text><polygon fill="#000000" points="402,435.5313,392,439.5313,402,443.5313,398,439.5313" style="stroke:#000000;stroke-width:1.0;"/><line style="stroke:#000000;stroke-width:2.0;stroke-dasharray:2.0,2.0;" x1="396" x2="525" y1="439.5313" y2="439.5313"/><text fill="#000000" font-family="Malgun Gothic" font-size="13" lengthAdjust="spacing" textLength="26" x="445.5" y="434.3892">&#44208;&#44284;</text><polygon fill="#000000" points="157,466.8223,147,470.8223,157,474.8223,153,470.8223" style="stroke:#000000;stroke-width:1.0;"/><line style="stroke:#000000;stroke-width:2.0;stroke-dasharray:2.0,2.0;" x1="151" x2="390" y1="470.8223" y2="470.8223"/><text fill="#000000" font-family="Malgun Gothic" font-size="13" lengthAdjust="spacing" textLength="63" x="237" y="465.6802">JSON &#51025;&#45813;</text><polygon fill="#000000" points="45,498.1133,35,502.1133,45,506.1133,41,502.1133" style="stroke:#000000;stroke-width:1.0;"/><line style="stroke:#000000;stroke-width:2.0;stroke-dasharray:2.0,2.0;" x1="39" x2="145" y1="502.1133" y2="502.1133"/><text fill="#000000" font-family="Malgun Gothic" font-size="13" lengthAdjust="spacing" textLength="57" x="61.5" y="496.9712">&#46321;&#47197; &#50756;&#47308;</text><rect fill="#FFFFFF" height="3" style="stroke:#FFFFFF;stroke-width:1.0;" width="761" x="5" y="531.7588"/><line style="stroke:#000000;stroke-width:0.5;" x1="5" x2="766" y1="531.7588" y2="531.7588"/><line style="stroke:#000000;stroke-width:0.5;" x1="5" x2="766" y1="534.7588" y2="534.7588"/><rect fill="#FFFFFF" height="25.291" style="stroke:#000000;stroke-width:1.0;" width="107" x="332" y="520.1133"/><text fill="#000000" font-family="Malgun Gothic" font-size="13" font-weight="bold" lengthAdjust="spacing" textLength="88" x="338" y="538.2622">&#44221;&#47588; &#49345;&#54408; &#51312;&#54924;</text><polygon fill="#000000" points="134,574.6953,144,578.6953,134,582.6953,138,578.6953" style="stroke:#000000;stroke-width:1.0;"/><line style="stroke:#000000;stroke-width:2.0;" x1="34" x2="140" y1="578.6953" y2="578.6953"/><text fill="#000000" font-family="Malgun Gothic" font-size="13" lengthAdjust="spacing" textLength="88" x="46" y="573.5532">&#49345;&#54408; &#47785;&#47197; &#51312;&#54924;</text><polygon fill="#000000" points="379,605.9863,389,609.9863,379,613.9863,383,609.9863" style="stroke:#000000;stroke-width:1.0;"/><line style="stroke:#000000;stroke-width:2.0;" x1="146" x2="385" y1="609.9863" y2="609.9863"/><text fill="#000000" font-family="Malgun Gothic" font-size="13" lengthAdjust="spacing" textLength="201" x="168" y="604.8442">GET /imageboard/imageboardList</text><polygon fill="#000000" points="514,637.2773,524,641.2773,514,645.2773,518,641.2773" style="stroke:#000000;stroke-width:1.0;"/><line style="stroke:#000000;stroke-width:2.0;" x1="391" x2="520" y1="641.2773" y2="641.2773"/><text fill="#000000" font-family="Malgun Gothic" font-size="13" lengthAdjust="spacing" textLength="99" x="409" y="636.1353">imageboardList()</text><polygon fill="#000000" points="700,668.5684,710,672.5684,700,676.5684,704,672.5684" style="stroke:#000000;stroke-width:1.0;"/><line style="stroke:#000000;stroke-width:2.0;" x1="526" x2="706" y1="672.5684" y2="672.5684"/><text fill="#000000" font-family="Malgun Gothic" font-size="13" lengthAdjust="spacing" textLength="162" x="538" y="667.4263">SELECT &#44221;&#47588; &#49345;&#54408; + &#51060;&#48120;&#51648;</text><polygon fill="#000000" points="537,699.8594,527,703.8594,537,707.8594,533,703.8594" style="stroke:#000000;stroke-width:1.0;"/><line style="stroke:#000000;stroke-width:2.0;stroke-dasharray:2.0,2.0;" x1="531" x2="711" y1="703.8594" y2="703.8594"/><text fill="#000000" font-family="Malgun Gothic" font-size="13" lengthAdjust="spacing" textLength="57" x="590.5" y="698.7173">&#49345;&#54408; &#47785;&#47197;</text><polygon fill="#000000" points="402,731.1504,392,735.1504,402,739.1504,398,735.1504" style="stroke:#000000;stroke-width:1.0;"/><line style="stroke:#000000;stroke-width:2.0;stroke-dasharray:2.0,2.0;" x1="396" x2="525" y1="735.1504" y2="735.1504"/><text fill="#000000" font-family="Malgun Gothic" font-size="13" lengthAdjust="spacing" textLength="57" x="430" y="730.0083">&#49345;&#54408; &#47785;&#47197;</text><polygon fill="#000000" points="157,762.4414,147,766.4414,157,770.4414,153,766.4414" style="stroke:#000000;stroke-width:1.0;"/><line style="stroke:#000000;stroke-width:2.0;stroke-dasharray:2.0,2.0;" x1="151" x2="390" y1="766.4414" y2="766.4414"/><text fill="#000000" font-family="Malgun Gothic" font-size="13" lengthAdjust="spacing" textLength="63" x="237" y="761.2993">JSON &#51025;&#45813;</text><polygon fill="#000000" points="45,793.7324,35,797.7324,45,801.7324,41,797.7324" style="stroke:#000000;stroke-width:1.0;"/><line style="stroke:#000000;stroke-width:2.0;stroke-dasharray:2.0,2.0;" x1="39" x2="145" y1="797.7324" y2="797.7324"/><text fill="#000000" font-family="Malgun Gothic" font-size="13" lengthAdjust="spacing" textLength="88" x="46" y="792.5903">&#49345;&#54408; &#47785;&#47197; &#54364;&#49884;</text><rect fill="#FFFFFF" height="3" style="stroke:#FFFFFF;stroke-width:1.0;" width="761" x="5" y="827.3779"/><line style="stroke:#000000;stroke-width:0.5;" x1="5" x2="766" y1="827.3779" y2="827.3779"/><line style="stroke:#000000;stroke-width:0.5;" x1="5" x2="766" y1="830.3779" y2="830.3779"/><rect fill="#FFFFFF" height="25.291" style="stroke:#000000;stroke-width:1.0;" width="76" x="347.5" y="815.7324"/><text fill="#000000" font-family="Malgun Gothic" font-size="13" font-weight="bold" lengthAdjust="spacing" textLength="57" x="353.5" y="833.8813">&#51077;&#52272; &#46321;&#47197;</text><polygon fill="#000000" points="134,870.3145,144,874.3145,134,878.3145,138,874.3145" style="stroke:#000000;stroke-width:1.0;"/><line style="stroke:#000000;stroke-width:2.0;" x1="34" x2="140" y1="874.3145" y2="874.3145"/><text fill="#000000" font-family="Malgun Gothic" font-size="13" lengthAdjust="spacing" textLength="52" x="64" y="869.1724">&#51077;&#52272;&#54616;&#44592;</text><line style="stroke:#000000;stroke-width:2.0;" x1="146" x2="188" y1="905.6055" y2="905.6055"/><line style="stroke:#000000;stroke-width:2.0;" x1="188" x2="188" y1="905.6055" y2="918.6055"/><line style="stroke:#000000;stroke-width:2.0;" x1="147" x2="188" y1="918.6055" y2="918.6055"/><polygon fill="#000000" points="157,914.6055,147,918.6055,157,922.6055,153,918.6055" style="stroke:#000000;stroke-width:1.0;"/><text fill="#000000" font-family="Malgun Gothic" font-size="13" lengthAdjust="spacing" textLength="88" x="153" y="900.4634">&#51077;&#52272; &#44552;&#50529; &#44160;&#51613;</text><polygon fill="#000000" points="379,945.8965,389,949.8965,379,953.8965,383,949.8965" style="stroke:#000000;stroke-width:1.0;"/><line style="stroke:#000000;stroke-width:2.0;" x1="146" x2="385" y1="949.8965" y2="949.8965"/><text fill="#000000" font-family="Malgun Gothic" font-size="13" lengthAdjust="spacing" textLength="94" x="221.5" y="944.7544">POST /bid/write</text><polygon fill="#000000" points="514,977.1875,524,981.1875,514,985.1875,518,981.1875" style="stroke:#000000;stroke-width:1.0;"/><line style="stroke:#000000;stroke-width:2.0;" x1="391" x2="520" y1="981.1875" y2="981.1875"/><text fill="#000000" font-family="Malgun Gothic" font-size="13" lengthAdjust="spacing" textLength="88" x="414.5" y="976.0454">&#44221;&#47588; &#51221;&#48372; &#51312;&#54924;</text><polygon fill="#000000" points="700,1008.4785,710,1012.4785,700,1016.4785,704,1012.4785" style="stroke:#000000;stroke-width:1.0;"/><line style="stroke:#000000;stroke-width:2.0;" x1="526" x2="706" y1="1012.4785" y2="1012.4785"/><text fill="#000000" font-family="Malgun Gothic" font-size="13" lengthAdjust="spacing" textLength="104" x="567" y="1007.3364">SELECT &#44221;&#47588; &#51221;&#48372;</text><polygon fill="#000000" points="537,1039.7695,527,1043.7695,537,1047.7695,533,1043.7695" style="stroke:#000000;stroke-width:1.0;"/><line style="stroke:#000000;stroke-width:2.0;stroke-dasharray:2.0,2.0;" x1="531" x2="711" y1="1043.7695" y2="1043.7695"/><text fill="#000000" font-family="Malgun Gothic" font-size="13" lengthAdjust="spacing" textLength="57" x="590.5" y="1038.6274">&#44221;&#47588; &#51221;&#48372;</text><polygon fill="#000000" points="514,1071.0605,524,1075.0605,514,1079.0605,518,1075.0605" style="stroke:#000000;stroke-width:1.0;"/><line style="stroke:#000000;stroke-width:2.0;" x1="391" x2="520" y1="1075.0605" y2="1075.0605"/><text fill="#000000" font-family="Malgun Gothic" font-size="13" lengthAdjust="spacing" textLength="58" x="429.5" y="1069.9185">bidWrite()</text><line style="stroke:#000000;stroke-width:2.0;" x1="526" x2="568" y1="1106.3516" y2="1106.3516"/><line style="stroke:#000000;stroke-width:2.0;" x1="568" x2="568" y1="1106.3516" y2="1119.3516"/><line style="stroke:#000000;stroke-width:2.0;" x1="527" x2="568" y1="1119.3516" y2="1119.3516"/><polygon fill="#000000" points="537,1115.3516,527,1119.3516,537,1123.3516,533,1119.3516" style="stroke:#000000;stroke-width:1.0;"/><text fill="#000000" font-family="Malgun Gothic" font-size="13" lengthAdjust="spacing" textLength="119" x="533" y="1101.2095">&#48376;&#51064; &#51077;&#52272; &#48169;&#51648; &#44160;&#51613;</text><polygon fill="#000000" points="700,1146.6426,710,1150.6426,700,1154.6426,704,1150.6426" style="stroke:#000000;stroke-width:1.0;"/><line style="stroke:#000000;stroke-width:2.0;" x1="526" x2="706" y1="1150.6426" y2="1150.6426"/><text fill="#000000" font-family="Malgun Gothic" font-size="13" lengthAdjust="spacing" textLength="135" x="551.5" y="1145.5005">SELECT &#52572;&#44256; &#51077;&#52272; &#44552;&#50529;</text><polygon fill="#000000" points="537,1177.9336,527,1181.9336,537,1185.9336,533,1181.9336" style="stroke:#000000;stroke-width:1.0;"/><line style="stroke:#000000;stroke-width:2.0;stroke-dasharray:2.0,2.0;" x1="531" x2="711" y1="1181.9336" y2="1181.9336"/><text fill="#000000" font-family="Malgun Gothic" font-size="13" lengthAdjust="spacing" textLength="88" x="575" y="1176.7915">&#52572;&#44256; &#51077;&#52272; &#44552;&#50529;</text><line style="stroke:#000000;stroke-width:2.0;" x1="526" x2="568" y1="1213.2246" y2="1213.2246"/><line style="stroke:#000000;stroke-width:2.0;" x1="568" x2="568" y1="1213.2246" y2="1226.2246"/><line style="stroke:#000000;stroke-width:2.0;" x1="527" x2="568" y1="1226.2246" y2="1226.2246"/><polygon fill="#000000" points="537,1222.2246,527,1226.2246,537,1230.2246,533,1226.2246" style="stroke:#000000;stroke-width:1.0;"/><text fill="#000000" font-family="Malgun Gothic" font-size="13" lengthAdjust="spacing" textLength="88" x="533" y="1208.0825">&#51077;&#52272; &#44552;&#50529; &#44160;&#51613;</text><polygon fill="#000000" points="700,1253.5156,710,1257.5156,700,1261.5156,704,1257.5156" style="stroke:#000000;stroke-width:1.0;"/><line style="stroke:#000000;stroke-width:2.0;" x1="526" x2="706" y1="1257.5156" y2="1257.5156"/><text fill="#000000" font-family="Malgun Gothic" font-size="13" lengthAdjust="spacing" textLength="105" x="566.5" y="1252.3735">INSERT &#51077;&#52272; &#51221;&#48372;</text><polygon fill="#000000" points="700,1284.8066,710,1288.8066,700,1292.8066,704,1288.8066" style="stroke:#000000;stroke-width:1.0;"/><line style="stroke:#000000;stroke-width:2.0;" x1="526" x2="706" y1="1288.8066" y2="1288.8066"/><text fill="#000000" font-family="Malgun Gothic" font-size="13" lengthAdjust="spacing" textLength="123" x="557.5" y="1283.6646">UPDATE &#52572;&#44256; &#51077;&#52272;&#44032;</text><polygon fill="#000000" points="537,1316.0977,527,1320.0977,537,1324.0977,533,1320.0977" style="stroke:#000000;stroke-width:1.0;"/><line style="stroke:#000000;stroke-width:2.0;stroke-dasharray:2.0,2.0;" x1="531" x2="711" y1="1320.0977" y2="1320.0977"/><text fill="#000000" font-family="Malgun Gothic" font-size="13" lengthAdjust="spacing" textLength="26" x="606" y="1314.9556">&#49457;&#44277;</text><polygon fill="#000000" points="402,1347.3887,392,1351.3887,402,1355.3887,398,1351.3887" style="stroke:#000000;stroke-width:1.0;"/><line style="stroke:#000000;stroke-width:2.0;stroke-dasharray:2.0,2.0;" x1="396" x2="525" y1="1351.3887" y2="1351.3887"/><text fill="#000000" font-family="Malgun Gothic" font-size="13" lengthAdjust="spacing" textLength="26" x="445.5" y="1346.2466">&#44208;&#44284;</text><polygon fill="#000000" points="157,1378.6797,147,1382.6797,157,1386.6797,153,1382.6797" style="stroke:#000000;stroke-width:1.0;"/><line style="stroke:#000000;stroke-width:2.0;stroke-dasharray:2.0,2.0;" x1="151" x2="390" y1="1382.6797" y2="1382.6797"/><text fill="#000000" font-family="Malgun Gothic" font-size="13" lengthAdjust="spacing" textLength="63" x="237" y="1377.5376">JSON &#51025;&#45813;</text><polygon fill="#000000" points="45,1409.9707,35,1413.9707,45,1417.9707,41,1413.9707" style="stroke:#000000;stroke-width:1.0;"/><line style="stroke:#000000;stroke-width:2.0;stroke-dasharray:2.0,2.0;" x1="39" x2="145" y1="1413.9707" y2="1413.9707"/><text fill="#000000" font-family="Malgun Gothic" font-size="13" lengthAdjust="spacing" textLength="57" x="61.5" y="1408.8286">&#51077;&#52272; &#50756;&#47308;</text><rect fill="#FFFFFF" height="3" style="stroke:#FFFFFF;stroke-width:1.0;" width="761" x="5" y="1443.6162"/><line style="stroke:#000000;stroke-width:0.5;" x1="5" x2="766" y1="1443.6162" y2="1443.6162"/><line style="stroke:#000000;stroke-width:0.5;" x1="5" x2="766" y1="1446.6162" y2="1446.6162"/><rect fill="#FFFFFF" height="25.291" style="stroke:#000000;stroke-width:1.0;" width="107" x="332" y="1431.9707"/><text fill="#000000" font-family="Malgun Gothic" font-size="13" font-weight="bold" lengthAdjust="spacing" textLength="88" x="338" y="1450.1196">&#51077;&#52272; &#45236;&#50669; &#51312;&#54924;</text><polygon fill="#000000" points="134,1486.5527,144,1490.5527,134,1494.5527,138,1490.5527" style="stroke:#000000;stroke-width:1.0;"/><line style="stroke:#000000;stroke-width:2.0;" x1="34" x2="140" y1="1490.5527" y2="1490.5527"/><text fill="#000000" font-family="Malgun Gothic" font-size="13" lengthAdjust="spacing" textLength="88" x="46" y="1485.4106">&#51077;&#52272; &#45236;&#50669; &#51312;&#54924;</text><polygon fill="#000000" points="379,1517.8438,389,1521.8438,379,1525.8438,383,1521.8438" style="stroke:#000000;stroke-width:1.0;"/><line style="stroke:#000000;stroke-width:2.0;" x1="146" x2="385" y1="1521.8438" y2="1521.8438"/><text fill="#000000" font-family="Malgun Gothic" font-size="13" lengthAdjust="spacing" textLength="73" x="232" y="1516.7017">GET /bid/list</text><polygon fill="#000000" points="514,1549.1348,524,1553.1348,514,1557.1348,518,1553.1348" style="stroke:#000000;stroke-width:1.0;"/><line style="stroke:#000000;stroke-width:2.0;" x1="391" x2="520" y1="1553.1348" y2="1553.1348"/><text fill="#000000" font-family="Malgun Gothic" font-size="13" lengthAdjust="spacing" textLength="46" x="435.5" y="1547.9927">bidList()</text><polygon fill="#000000" points="700,1580.4258,710,1584.4258,700,1588.4258,704,1584.4258" style="stroke:#000000;stroke-width:1.0;"/><line style="stroke:#000000;stroke-width:2.0;" x1="526" x2="706" y1="1584.4258" y2="1584.4258"/><text fill="#000000" font-family="Malgun Gothic" font-size="13" lengthAdjust="spacing" textLength="104" x="567" y="1579.2837">SELECT &#51077;&#52272; &#45236;&#50669;</text><polygon fill="#000000" points="537,1611.7168,527,1615.7168,537,1619.7168,533,1615.7168" style="stroke:#000000;stroke-width:1.0;"/><line style="stroke:#000000;stroke-width:2.0;stroke-dasharray:2.0,2.0;" x1="531" x2="711" y1="1615.7168" y2="1615.7168"/><text fill="#000000" font-family="Malgun Gothic" font-size="13" lengthAdjust="spacing" textLength="57" x="590.5" y="1610.5747">&#51077;&#52272; &#45236;&#50669;</text><polygon fill="#000000" points="402,1643.0078,392,1647.0078,402,1651.0078,398,1647.0078" style="stroke:#000000;stroke-width:1.0;"/><line style="stroke:#000000;stroke-width:2.0;stroke-dasharray:2.0,2.0;" x1="396" x2="525" y1="1647.0078" y2="1647.0078"/><text fill="#000000" font-family="Malgun Gothic" font-size="13" lengthAdjust="spacing" textLength="57" x="430" y="1641.8657">&#51077;&#52272; &#45236;&#50669;</text><polygon fill="#000000" points="157,1674.2988,147,1678.2988,157,1682.2988,153,1678.2988" style="stroke:#000000;stroke-width:1.0;"/><line style="stroke:#000000;stroke-width:2.0;stroke-dasharray:2.0,2.0;" x1="151" x2="390" y1="1678.2988" y2="1678.2988"/><text fill="#000000" font-family="Malgun Gothic" font-size="13" lengthAdjust="spacing" textLength="63" x="237" y="1673.1567">JSON &#51025;&#45813;</text><polygon fill="#000000" points="45,1705.5898,35,1709.5898,45,1713.5898,41,1709.5898" style="stroke:#000000;stroke-width:1.0;"/><line style="stroke:#000000;stroke-width:2.0;stroke-dasharray:2.0,2.0;" x1="39" x2="145" y1="1709.5898" y2="1709.5898"/><text fill="#000000" font-family="Malgun Gothic" font-size="13" lengthAdjust="spacing" textLength="88" x="46" y="1704.4478">&#51077;&#52272; &#45236;&#50669; &#54364;&#49884;</text><!--SRC=[lPDHRz9G5CVV-ockF47CiiH74anWi4MpmJ9OVF7bhbnPiz9YMzmh8akMi8UX4fN00eek61Sx2WaFymkrb-_WRMrfRschqSItsvxVkUUS_xd_UyengY9Guo4dCF899zIW1AkWZ9x1EgziYuAIXoGUsuDyfIw07L4vvjYOXvJHypeIMBI7P1bMK9hdAW9WaQ0WAO1AIv9uMY9Nd0Y41myO1hAAA07S_8Px4tnr2Q0C3cMII_8KZkLgK510R5iYZI2X_5I87o2IaOYPdFENPhV8JqdaUIHPaFj9OqKalU1OP37scGOA4cHv1B8P2ybc62QL0lhqXt4z1lZLo-NhSs2ykJL60v1ACMRBOEFXggMa3y6zjtXwmpXX7tfrPWm_axiR-Ck0Ojpcas2_K2o1JQvAH3uIeLJs79z8d88O5pPJxPcIm8V54umTeYXdi8zdngSBFBW3kjR2JTNBPZD9y2XVp1sKQ1b263oO6TyN-Be1uaPxZCUT19FDW0rlKTowrRMvc- -RM9-gkdP7pKNfzhXOo9Co7QCzzwX647CRoPNq7rfaf83juP6wx5r4R-_hnBh28aCtivCBMymk9ok_tuj9qMinPIpcTdDRFgd1VLVMTJMzFOUAIbD_gosjpxBJn-s-9J5vorXLevrX8SlkUtsXXZl2l4LVdEFkwC-CSSILDq-ZVE08EUmQsinPQRJc5hgcCnqDgKRQYRAReItmOB5IIvsOFh7d3Eu9p_kwDgILMNy2GL1G_K21Gtpy2xN7zJ67-zbqAKVNrTN6VtQwqwBhT4VOvWo_kubsUW0PxNJpfV4HnYRnI4TJ5TULegAXBgQeVzJDdjrsyKy0]--></g></svg>