<?xml version="1.0" encoding="us-ascii" standalone="no"?><svg xmlns="http://www.w3.org/2000/svg" xmlns:xlink="http://www.w3.org/1999/xlink" contentStyleType="text/css" height="1442px" preserveAspectRatio="none" style="width:260px;height:1442px;background:#FFFFFF;" version="1.1" viewBox="0 0 260 1442" width="260px" zoomAndPan="magnify"><defs/><g><ellipse cx="100" cy="15" fill="#FFFFFF" rx="10" ry="10" style="stroke:#000000;stroke-width:1.0;"/><rect fill="#F08080" height="35.9609" rx="12.5" ry="12.5" style="stroke:#8B0000;stroke-width:1.0;" width="140" x="30" y="45"/><text fill="#000000" font-family="Malgun Gothic" font-size="12" lengthAdjust="spacing" textLength="120" x="40" y="68.0605">&#54924;&#50896; &#44032;&#51077; &#54168;&#51060;&#51648; &#51217;&#49549;</text><path d="M170,90.9609 L170,161.125 L150,165.125 L170,169.125 L170,239.2891 A0,0 0 0 0 170,239.2891 L253,239.2891 A0,0 0 0 0 253,239.2891 L253,100.9609 L243,90.9609 L170,90.9609 A0,0 0 0 0 170,90.9609 " fill="#FFFFFF" style="stroke:#000000;stroke-width:1.0;"/><path d="M243,90.9609 L243,100.9609 L253,100.9609 L243,90.9609 " fill="#FFFFFF" style="stroke:#000000;stroke-width:1.0;"/><text fill="#000000" font-family="Malgun Gothic" font-size="13" lengthAdjust="spacing" textLength="36" x="176" y="110.1099">- &#51060;&#47492;</text><text fill="#000000" font-family="Malgun Gothic" font-size="13" lengthAdjust="spacing" textLength="23" x="176" y="127.4009">- ID</text><text fill="#000000" font-family="Malgun Gothic" font-size="13" lengthAdjust="spacing" textLength="62" x="176" y="144.6919">- &#48708;&#48128;&#48264;&#54840;</text><text fill="#000000" font-family="Malgun Gothic" font-size="13" lengthAdjust="spacing" textLength="49" x="176" y="161.9829">- &#45769;&#45348;&#51076;</text><text fill="#000000" font-family="Malgun Gothic" font-size="13" lengthAdjust="spacing" textLength="49" x="176" y="179.2739">- &#51060;&#47700;&#51068;</text><text fill="#000000" font-family="Malgun Gothic" font-size="13" lengthAdjust="spacing" textLength="62" x="176" y="196.5649">- &#51204;&#54868;&#48264;&#54840;</text><text fill="#000000" font-family="Malgun Gothic" font-size="13" lengthAdjust="spacing" textLength="36" x="176" y="213.856">- &#51452;&#49548;</text><text fill="#000000" font-family="Malgun Gothic" font-size="13" lengthAdjust="spacing" textLength="36" x="176" y="231.147">- &#49457;&#48324;</text><rect fill="#F08080" height="35.9609" rx="12.5" ry="12.5" style="stroke:#8B0000;stroke-width:1.0;" width="100" x="50" y="147.1445"/><text fill="#000000" font-family="Malgun Gothic" font-size="12" lengthAdjust="spacing" textLength="80" x="60" y="170.2051">&#54924;&#50896; &#51221;&#48372; &#51077;&#47141;</text><rect fill="#F08080" height="35.9609" rx="12.5" ry="12.5" style="stroke:#8B0000;stroke-width:1.0;" width="140" x="30" y="259.2891"/><text fill="#000000" font-family="Malgun Gothic" font-size="12" lengthAdjust="spacing" textLength="120" x="40" y="282.3496">&#51077;&#47141; &#51221;&#48372; &#50976;&#54952;&#49457; &#44160;&#51613;</text><rect fill="#F08080" height="35.9609" rx="12.5" ry="12.5" style="stroke:#8B0000;stroke-width:1.0;" width="112" x="44" y="364.5654"/><text fill="#000000" font-family="Malgun Gothic" font-size="12" lengthAdjust="spacing" textLength="92" x="54" y="387.626">&#50724;&#47448; &#47700;&#49884;&#51648; &#54364;&#49884;</text><ellipse cx="100" cy="439.0459" fill="none" rx="11" ry="11" style="stroke:#000000;stroke-width:1.0;"/><ellipse cx="100" cy="439.0459" fill="#FFFFFF" rx="6" ry="6" style="stroke:#000000;stroke-width:1.0;"/><polygon fill="#F08080" points="39,315.25,161,315.25,173,327.25,161,339.25,39,339.25,27,327.25,39,315.25" style="stroke:#8B0000;stroke-width:1.0;"/><text fill="#000000" font-family="Malgun Gothic" font-size="11" lengthAdjust="spacing" textLength="33" x="104" y="351.2222">&#50500;&#45768;&#50724;</text><text fill="#000000" font-family="Malgun Gothic" font-size="12" lengthAdjust="spacing" textLength="122" x="39" y="332.3301">&#47784;&#46304; &#54596;&#46300;&#44032; &#50976;&#54952;&#54620;&#44032;?</text><text fill="#000000" font-family="Malgun Gothic" font-size="11" lengthAdjust="spacing" textLength="11" x="173" y="324.5913">&#50696;</text><rect fill="#F08080" height="35.9609" rx="12.5" ry="12.5" style="stroke:#8B0000;stroke-width:1.0;" width="88" x="56" y="492.0459"/><text fill="#000000" font-family="Malgun Gothic" font-size="12" lengthAdjust="spacing" textLength="68" x="66" y="515.1064">ID &#51473;&#48373; &#54869;&#51064;</text><rect fill="#F08080" height="35.9609" rx="12.5" ry="12.5" style="stroke:#8B0000;stroke-width:1.0;" width="112" x="44" y="597.3223"/><text fill="#000000" font-family="Malgun Gothic" font-size="12" lengthAdjust="spacing" textLength="92" x="54" y="620.3828">&#50724;&#47448; &#47700;&#49884;&#51648; &#54364;&#49884;</text><ellipse cx="100" cy="671.8027" fill="none" rx="11" ry="11" style="stroke:#000000;stroke-width:1.0;"/><ellipse cx="100" cy="671.8027" fill="#FFFFFF" rx="6" ry="6" style="stroke:#000000;stroke-width:1.0;"/><polygon fill="#F08080" points="39,548.0068,161,548.0068,173,560.0068,161,572.0068,39,572.0068,27,560.0068,39,548.0068" style="stroke:#8B0000;stroke-width:1.0;"/><text fill="#000000" font-family="Malgun Gothic" font-size="11" lengthAdjust="spacing" textLength="11" x="104" y="583.979">&#50696;</text><text fill="#000000" font-family="Malgun Gothic" font-size="12" lengthAdjust="spacing" textLength="122" x="39" y="565.0869">ID&#44032; &#51060;&#48120; &#51316;&#51116;&#54616;&#45716;&#44032;?</text><text fill="#000000" font-family="Malgun Gothic" font-size="11" lengthAdjust="spacing" textLength="33" x="173" y="557.3481">&#50500;&#45768;&#50724;</text><rect fill="#F08080" height="35.9609" rx="12.5" ry="12.5" style="stroke:#8B0000;stroke-width:1.0;" width="112" x="44" y="724.8027"/><text fill="#000000" font-family="Malgun Gothic" font-size="12" lengthAdjust="spacing" textLength="92" x="54" y="747.8633">&#45769;&#45348;&#51076; &#51473;&#48373; &#54869;&#51064;</text><rect fill="#F08080" height="35.9609" rx="12.5" ry="12.5" style="stroke:#8B0000;stroke-width:1.0;" width="112" x="44" y="830.0791"/><text fill="#000000" font-family="Malgun Gothic" font-size="12" lengthAdjust="spacing" textLength="92" x="54" y="853.1396">&#50724;&#47448; &#47700;&#49884;&#51648; &#54364;&#49884;</text><ellipse cx="100" cy="904.5596" fill="none" rx="11" ry="11" style="stroke:#000000;stroke-width:1.0;"/><ellipse cx="100" cy="904.5596" fill="#FFFFFF" rx="6" ry="6" style="stroke:#000000;stroke-width:1.0;"/><polygon fill="#F08080" points="27,780.7637,173,780.7637,185,792.7637,173,804.7637,27,804.7637,15,792.7637,27,780.7637" style="stroke:#8B0000;stroke-width:1.0;"/><text fill="#000000" font-family="Malgun Gothic" font-size="11" lengthAdjust="spacing" textLength="11" x="104" y="816.7358">&#50696;</text><text fill="#000000" font-family="Malgun Gothic" font-size="12" lengthAdjust="spacing" textLength="146" x="27" y="797.8438">&#45769;&#45348;&#51076;&#51060; &#51060;&#48120; &#51316;&#51116;&#54616;&#45716;&#44032;?</text><text fill="#000000" font-family="Malgun Gothic" font-size="11" lengthAdjust="spacing" textLength="33" x="185" y="790.105">&#50500;&#45768;&#50724;</text><rect fill="#F08080" height="35.9609" rx="12.5" ry="12.5" style="stroke:#8B0000;stroke-width:1.0;" width="168" x="16" y="957.5596"/><text fill="#000000" font-family="Malgun Gothic" font-size="12" lengthAdjust="spacing" textLength="148" x="26" y="980.6201">&#49436;&#48260;&#47196; &#54924;&#50896; &#44032;&#51077; &#50836;&#52397; &#51204;&#49569;</text><rect fill="#F08080" height="35.9609" rx="12.5" ry="12.5" style="stroke:#8B0000;stroke-width:1.0;" width="108" x="46" y="1013.5205"/><text fill="#000000" font-family="Malgun Gothic" font-size="12" lengthAdjust="spacing" textLength="88" x="56" y="1036.5811">&#48708;&#48128;&#48264;&#54840; &#50516;&#54840;&#54868;</text><rect fill="#F08080" height="35.9609" rx="12.5" ry="12.5" style="stroke:#8B0000;stroke-width:1.0;" width="120" x="40" y="1069.4814"/><text fill="#000000" font-family="Malgun Gothic" font-size="12" lengthAdjust="spacing" textLength="100" x="50" y="1092.542">&#54924;&#50896; &#51221;&#48372; DB &#51200;&#51109;</text><rect fill="#F08080" height="35.9609" rx="12.5" ry="12.5" style="stroke:#8B0000;stroke-width:1.0;" width="112" x="44" y="1174.7578"/><text fill="#000000" font-family="Malgun Gothic" font-size="12" lengthAdjust="spacing" textLength="92" x="54" y="1197.8184">&#50724;&#47448; &#47700;&#49884;&#51648; &#48152;&#54872;</text><ellipse cx="100" cy="1249.2383" fill="none" rx="11" ry="11" style="stroke:#000000;stroke-width:1.0;"/><ellipse cx="100" cy="1249.2383" fill="#FFFFFF" rx="6" ry="6" style="stroke:#000000;stroke-width:1.0;"/><polygon fill="#F08080" points="71,1125.4424,129,1125.4424,141,1137.4424,129,1149.4424,71,1149.4424,59,1137.4424,71,1125.4424" style="stroke:#8B0000;stroke-width:1.0;"/><text fill="#000000" font-family="Malgun Gothic" font-size="11" lengthAdjust="spacing" textLength="33" x="104" y="1161.4146">&#50500;&#45768;&#50724;</text><text fill="#000000" font-family="Malgun Gothic" font-size="12" lengthAdjust="spacing" textLength="58" x="71" y="1142.5225">&#51200;&#51109; &#49457;&#44277;?</text><text fill="#000000" font-family="Malgun Gothic" font-size="11" lengthAdjust="spacing" textLength="11" x="141" y="1134.7837">&#50696;</text><rect fill="#F08080" height="35.9609" rx="12.5" ry="12.5" style="stroke:#8B0000;stroke-width:1.0;" width="168" x="16" y="1302.2383"/><text fill="#000000" font-family="Malgun Gothic" font-size="12" lengthAdjust="spacing" textLength="148" x="26" y="1325.2988">&#54924;&#50896; &#44032;&#51077; &#49457;&#44277; &#47700;&#49884;&#51648; &#54364;&#49884;</text><rect fill="#F08080" height="35.9609" rx="12.5" ry="12.5" style="stroke:#8B0000;stroke-width:1.0;" width="136" x="32" y="1358.1992"/><text fill="#000000" font-family="Malgun Gothic" font-size="12" lengthAdjust="spacing" textLength="116" x="42" y="1381.2598">&#47196;&#44536;&#51064; &#54168;&#51060;&#51648;&#47196; &#51060;&#46041;</text><ellipse cx="100" cy="1425.1602" fill="none" rx="11" ry="11" style="stroke:#000000;stroke-width:1.0;"/><ellipse cx="100" cy="1425.1602" fill="#FFFFFF" rx="6" ry="6" style="stroke:#000000;stroke-width:1.0;"/><line style="stroke:#000000;stroke-width:1.0;" x1="100" x2="100" y1="25" y2="45"/><polygon fill="#000000" points="96,35,100,45,104,35,100,39" style="stroke:#000000;stroke-width:1.0;"/><line style="stroke:#000000;stroke-width:1.0;" x1="100" x2="100" y1="80.9609" y2="147.1445"/><polygon fill="#000000" points="96,137.1445,100,147.1445,104,137.1445,100,141.1445" style="stroke:#000000;stroke-width:1.0;"/><line style="stroke:#000000;stroke-width:1.0;" x1="100" x2="100" y1="183.1055" y2="259.2891"/><polygon fill="#000000" points="96,249.2891,100,259.2891,104,249.2891,100,253.2891" style="stroke:#000000;stroke-width:1.0;"/><line style="stroke:#000000;stroke-width:1.0;" x1="100" x2="100" y1="400.5264" y2="428.0459"/><polygon fill="#000000" points="96,418.0459,100,428.0459,104,418.0459,100,422.0459" style="stroke:#000000;stroke-width:1.0;"/><line style="stroke:#000000;stroke-width:1.0;" x1="100" x2="100" y1="339.25" y2="364.5654"/><polygon fill="#000000" points="96,354.5654,100,364.5654,104,354.5654,100,358.5654" style="stroke:#000000;stroke-width:1.0;"/><line style="stroke:#000000;stroke-width:1.0;" x1="173" x2="185" y1="327.25" y2="327.25"/><polygon fill="#000000" points="181,398.0459,185,408.0459,189,398.0459,185,402.0459" style="stroke:#000000;stroke-width:1.0;"/><line style="stroke:#000000;stroke-width:1.0;" x1="185" x2="185" y1="327.25" y2="472.0459"/><line style="stroke:#000000;stroke-width:1.0;" x1="185" x2="100" y1="472.0459" y2="472.0459"/><line style="stroke:#000000;stroke-width:1.0;" x1="100" x2="100" y1="472.0459" y2="492.0459"/><polygon fill="#000000" points="96,482.0459,100,492.0459,104,482.0459,100,486.0459" style="stroke:#000000;stroke-width:1.0;"/><line style="stroke:#000000;stroke-width:1.0;" x1="100" x2="100" y1="295.25" y2="315.25"/><polygon fill="#000000" points="96,305.25,100,315.25,104,305.25,100,309.25" style="stroke:#000000;stroke-width:1.0;"/><line style="stroke:#000000;stroke-width:1.0;" x1="100" x2="100" y1="633.2832" y2="660.8027"/><polygon fill="#000000" points="96,650.8027,100,660.8027,104,650.8027,100,654.8027" style="stroke:#000000;stroke-width:1.0;"/><line style="stroke:#000000;stroke-width:1.0;" x1="100" x2="100" y1="572.0068" y2="597.3223"/><polygon fill="#000000" points="96,587.3223,100,597.3223,104,587.3223,100,591.3223" style="stroke:#000000;stroke-width:1.0;"/><line style="stroke:#000000;stroke-width:1.0;" x1="173" x2="185" y1="560.0068" y2="560.0068"/><polygon fill="#000000" points="181,630.8027,185,640.8027,189,630.8027,185,634.8027" style="stroke:#000000;stroke-width:1.0;"/><line style="stroke:#000000;stroke-width:1.0;" x1="185" x2="185" y1="560.0068" y2="704.8027"/><line style="stroke:#000000;stroke-width:1.0;" x1="185" x2="100" y1="704.8027" y2="704.8027"/><line style="stroke:#000000;stroke-width:1.0;" x1="100" x2="100" y1="704.8027" y2="724.8027"/><polygon fill="#000000" points="96,714.8027,100,724.8027,104,714.8027,100,718.8027" style="stroke:#000000;stroke-width:1.0;"/><line style="stroke:#000000;stroke-width:1.0;" x1="100" x2="100" y1="528.0068" y2="548.0068"/><polygon fill="#000000" points="96,538.0068,100,548.0068,104,538.0068,100,542.0068" style="stroke:#000000;stroke-width:1.0;"/><line style="stroke:#000000;stroke-width:1.0;" x1="100" x2="100" y1="866.04" y2="893.5596"/><polygon fill="#000000" points="96,883.5596,100,893.5596,104,883.5596,100,887.5596" style="stroke:#000000;stroke-width:1.0;"/><line style="stroke:#000000;stroke-width:1.0;" x1="100" x2="100" y1="804.7637" y2="830.0791"/><polygon fill="#000000" points="96,820.0791,100,830.0791,104,820.0791,100,824.0791" style="stroke:#000000;stroke-width:1.0;"/><line style="stroke:#000000;stroke-width:1.0;" x1="185" x2="197" y1="792.7637" y2="792.7637"/><polygon fill="#000000" points="193,863.5596,197,873.5596,201,863.5596,197,867.5596" style="stroke:#000000;stroke-width:1.0;"/><line style="stroke:#000000;stroke-width:1.0;" x1="197" x2="197" y1="792.7637" y2="937.5596"/><line style="stroke:#000000;stroke-width:1.0;" x1="197" x2="100" y1="937.5596" y2="937.5596"/><line style="stroke:#000000;stroke-width:1.0;" x1="100" x2="100" y1="937.5596" y2="957.5596"/><polygon fill="#000000" points="96,947.5596,100,957.5596,104,947.5596,100,951.5596" style="stroke:#000000;stroke-width:1.0;"/><line style="stroke:#000000;stroke-width:1.0;" x1="100" x2="100" y1="760.7637" y2="780.7637"/><polygon fill="#000000" points="96,770.7637,100,780.7637,104,770.7637,100,774.7637" style="stroke:#000000;stroke-width:1.0;"/><line style="stroke:#000000;stroke-width:1.0;" x1="100" x2="100" y1="993.5205" y2="1013.5205"/><polygon fill="#000000" points="96,1003.5205,100,1013.5205,104,1003.5205,100,1007.5205" style="stroke:#000000;stroke-width:1.0;"/><line style="stroke:#000000;stroke-width:1.0;" x1="100" x2="100" y1="1049.4814" y2="1069.4814"/><polygon fill="#000000" points="96,1059.4814,100,1069.4814,104,1059.4814,100,1063.4814" style="stroke:#000000;stroke-width:1.0;"/><line style="stroke:#000000;stroke-width:1.0;" x1="100" x2="100" y1="1210.7188" y2="1238.2383"/><polygon fill="#000000" points="96,1228.2383,100,1238.2383,104,1228.2383,100,1232.2383" style="stroke:#000000;stroke-width:1.0;"/><line style="stroke:#000000;stroke-width:1.0;" x1="100" x2="100" y1="1149.4424" y2="1174.7578"/><polygon fill="#000000" points="96,1164.7578,100,1174.7578,104,1164.7578,100,1168.7578" style="stroke:#000000;stroke-width:1.0;"/><line style="stroke:#000000;stroke-width:1.0;" x1="141" x2="166" y1="1137.4424" y2="1137.4424"/><polygon fill="#000000" points="162,1208.2383,166,1218.2383,170,1208.2383,166,1212.2383" style="stroke:#000000;stroke-width:1.0;"/><line style="stroke:#000000;stroke-width:1.0;" x1="166" x2="166" y1="1137.4424" y2="1282.2383"/><line style="stroke:#000000;stroke-width:1.0;" x1="166" x2="100" y1="1282.2383" y2="1282.2383"/><line style="stroke:#000000;stroke-width:1.0;" x1="100" x2="100" y1="1282.2383" y2="1302.2383"/><polygon fill="#000000" points="96,1292.2383,100,1302.2383,104,1292.2383,100,1296.2383" style="stroke:#000000;stroke-width:1.0;"/><line style="stroke:#000000;stroke-width:1.0;" x1="100" x2="100" y1="1105.4424" y2="1125.4424"/><polygon fill="#000000" points="96,1115.4424,100,1125.4424,104,1115.4424,100,1119.4424" style="stroke:#000000;stroke-width:1.0;"/><line style="stroke:#000000;stroke-width:1.0;" x1="100" x2="100" y1="1338.1992" y2="1358.1992"/><polygon fill="#000000" points="96,1348.1992,100,1358.1992,104,1348.1992,100,1352.1992" style="stroke:#000000;stroke-width:1.0;"/><line style="stroke:#000000;stroke-width:1.0;" x1="100" x2="100" y1="1394.1602" y2="1414.1602"/><polygon fill="#000000" points="96,1404.1602,100,1414.1602,104,1404.1602,100,1408.1602" style="stroke:#000000;stroke-width:1.0;"/><!--SRC=[lPFFZz905CVl_IkUUreE7lIu74ns6ms9Uj2_O48BD7HRKWOJDIOSAa5PVv2bIM4BAH7MrMX4O2Cc-nSnR_u7txG8h6wCNkobR-QzcU_d_PXhl6GUcb2ncULerRBbL9Z73i4m2wncyzkkm-ypyk_SOtQnvi0TbvUi_CvM9Cjpwv757yDJ3UZRP_boqNDhZd7Wsgu7TwrYYH-u7hDJj-iPffUwTEQL7vX6ig-47bfFJBXnKtkcQLNEFAvfUx9tX2TlOJcfu-0voDSXzkVulWuOjx7nAhk9m3WGipbGb8Z7MSrnkGcUagRRhmET4gT-OkRqv2U- -s9I5zEc31VfHkk5y4SuyDS7FdImVv6kObzsErl1-Eu26qUfwNyLCryp7GEKA16b36kYA9QzCug2vRIEftrYjWgmApwUYUCOPE2BuuZIMyN9G2rkPO2wui0kahlLn72KIOgqHvOOXw3GMf6gWsn7P6KJRvMx5SsqgoQT2viPXMGLY2Ud0uxQOdOEiXjWVx4YoEc9B2NwPG4udEFWamn2yR9p2K1Tz6_I6-IV0ElINicnzXBAVy51Fn9JNmmZk3nTsElWzBDgDZQ6QhIsPmGmwD2Fnk3teTFtoQ8hngkCqeMQZENi_EzxAIQXx8P_xkKln8d25KKWzc6q_BQWAcyUZSfOrVTDDwiU60dy0000]--></g></svg>