<?xml version="1.0" encoding="us-ascii" standalone="no"?><svg xmlns="http://www.w3.org/2000/svg" xmlns:xlink="http://www.w3.org/1999/xlink" contentStyleType="text/css" height="1628px" preserveAspectRatio="none" style="width:318px;height:1628px;background:#FFFFFF;" version="1.1" viewBox="0 0 318 1628" width="318px" zoomAndPan="magnify"><defs/><g><ellipse cx="150" cy="15" fill="#FFFFFF" rx="10" ry="10" style="stroke:#000000;stroke-width:1.0;"/><rect fill="#ADD8E6" height="35.9609" rx="12.5" ry="12.5" style="stroke:#00008B;stroke-width:1.0;" width="152" x="74" y="45"/><text fill="#000000" font-family="Malgun Gothic" font-size="12" lengthAdjust="spacing" textLength="132" x="84" y="68.0605">&#49324;&#50857;&#51088;&#44032; &#44221;&#47588; &#49345;&#54408; &#51312;&#54924;</text><rect fill="#ADD8E6" height="35.9609" rx="12.5" ry="12.5" style="stroke:#00008B;stroke-width:1.0;" width="124" x="88" y="100.9609"/><text fill="#000000" font-family="Malgun Gothic" font-size="12" lengthAdjust="spacing" textLength="104" x="98" y="124.0215">&#51077;&#52272;&#54616;&#44592; &#48260;&#53948; &#53364;&#47533;</text><rect fill="#ADD8E6" height="35.9609" rx="12.5" ry="12.5" style="stroke:#00008B;stroke-width:1.0;" width="136" x="82" y="206.2373"/><text fill="#000000" font-family="Malgun Gothic" font-size="12" lengthAdjust="spacing" textLength="116" x="92" y="229.2979">&#47196;&#44536;&#51064; &#54168;&#51060;&#51648;&#47196; &#51060;&#46041;</text><ellipse cx="150" cy="280.7178" fill="none" rx="11" ry="11" style="stroke:#000000;stroke-width:1.0;"/><ellipse cx="150" cy="280.7178" fill="#FFFFFF" rx="6" ry="6" style="stroke:#000000;stroke-width:1.0;"/><polygon fill="#ADD8E6" points="104,156.9219,196,156.9219,208,168.9219,196,180.9219,104,180.9219,92,168.9219,104,156.9219" style="stroke:#00008B;stroke-width:1.0;"/><text fill="#000000" font-family="Malgun Gothic" font-size="11" lengthAdjust="spacing" textLength="44" x="154" y="192.894">&#48120;&#47196;&#44536;&#51064;</text><text fill="#000000" font-family="Malgun Gothic" font-size="12" lengthAdjust="spacing" textLength="92" x="104" y="174.002">&#47196;&#44536;&#51064; &#49345;&#53468; &#54869;&#51064;</text><text fill="#000000" font-family="Malgun Gothic" font-size="11" lengthAdjust="spacing" textLength="44" x="208" y="166.2632">&#47196;&#44536;&#51064;&#46120;</text><rect fill="#ADD8E6" height="35.9609" rx="12.5" ry="12.5" style="stroke:#00008B;stroke-width:1.0;" width="100" x="100" y="333.7178"/><text fill="#000000" font-family="Malgun Gothic" font-size="12" lengthAdjust="spacing" textLength="80" x="110" y="356.7783">&#51077;&#52272; &#44552;&#50529; &#51077;&#47141;</text><rect fill="#ADD8E6" height="35.9609" rx="12.5" ry="12.5" style="stroke:#00008B;stroke-width:1.0;" width="140" x="80" y="389.6787"/><text fill="#000000" font-family="Malgun Gothic" font-size="12" lengthAdjust="spacing" textLength="120" x="90" y="412.7393">&#51077;&#52272; &#44552;&#50529; &#50976;&#54952;&#49457; &#44160;&#51613;</text><rect fill="#ADD8E6" height="35.9609" rx="12.5" ry="12.5" style="stroke:#00008B;stroke-width:1.0;" width="112" x="94" y="494.9551"/><text fill="#000000" font-family="Malgun Gothic" font-size="12" lengthAdjust="spacing" textLength="92" x="104" y="518.0156">&#50724;&#47448; &#47700;&#49884;&#51648; &#54364;&#49884;</text><ellipse cx="150" cy="569.4355" fill="none" rx="11" ry="11" style="stroke:#000000;stroke-width:1.0;"/><ellipse cx="150" cy="569.4355" fill="#FFFFFF" rx="6" ry="6" style="stroke:#000000;stroke-width:1.0;"/><polygon fill="#ADD8E6" points="47,445.6396,253,445.6396,265,457.6396,253,469.6396,47,469.6396,35,457.6396,47,445.6396" style="stroke:#00008B;stroke-width:1.0;"/><text fill="#000000" font-family="Malgun Gothic" font-size="11" lengthAdjust="spacing" textLength="33" x="154" y="481.6118">&#50500;&#45768;&#50724;</text><text fill="#000000" font-family="Malgun Gothic" font-size="12" lengthAdjust="spacing" textLength="206" x="47" y="462.7197">&#51077;&#52272; &#44552;&#50529;&#51060; &#52572;&#49548; &#51077;&#52272; &#44552;&#50529; &#51060;&#49345;&#51064;&#44032;?</text><text fill="#000000" font-family="Malgun Gothic" font-size="11" lengthAdjust="spacing" textLength="11" x="265" y="454.981">&#50696;</text><rect fill="#ADD8E6" height="35.9609" rx="12.5" ry="12.5" style="stroke:#00008B;stroke-width:1.0;" width="112" x="94" y="671.751"/><text fill="#000000" font-family="Malgun Gothic" font-size="12" lengthAdjust="spacing" textLength="92" x="104" y="694.8115">&#50724;&#47448; &#47700;&#49884;&#51648; &#54364;&#49884;</text><ellipse cx="150" cy="746.2314" fill="none" rx="11" ry="11" style="stroke:#000000;stroke-width:1.0;"/><ellipse cx="150" cy="746.2314" fill="#FFFFFF" rx="6" ry="6" style="stroke:#000000;stroke-width:1.0;"/><polygon fill="#ADD8E6" points="27,622.4355,273,622.4355,285,634.4355,273,646.4355,27,646.4355,15,634.4355,27,622.4355" style="stroke:#00008B;stroke-width:1.0;"/><text fill="#000000" font-family="Malgun Gothic" font-size="11" lengthAdjust="spacing" textLength="33" x="154" y="658.4077">&#50500;&#45768;&#50724;</text><text fill="#000000" font-family="Malgun Gothic" font-size="12" lengthAdjust="spacing" textLength="246" x="27" y="639.5156">&#51077;&#52272; &#44552;&#50529;&#51060; &#54788;&#51116; &#52572;&#44256; &#51077;&#52272; &#44552;&#50529;&#48372;&#45796; &#45458;&#51008;&#44032;?</text><text fill="#000000" font-family="Malgun Gothic" font-size="11" lengthAdjust="spacing" textLength="11" x="285" y="631.7769">&#50696;</text><rect fill="#ADD8E6" height="35.9609" rx="12.5" ry="12.5" style="stroke:#00008B;stroke-width:1.0;" width="140" x="80" y="799.2314"/><text fill="#000000" font-family="Malgun Gothic" font-size="12" lengthAdjust="spacing" textLength="120" x="90" y="822.292">&#49436;&#48260;&#47196; &#51077;&#52272; &#50836;&#52397; &#51204;&#49569;</text><rect fill="#ADD8E6" height="35.9609" rx="12.5" ry="12.5" style="stroke:#00008B;stroke-width:1.0;" width="220" x="40" y="855.1924"/><text fill="#000000" font-family="Malgun Gothic" font-size="12" lengthAdjust="spacing" textLength="200" x="50" y="878.2529">&#49436;&#48260;&#50640;&#49436; &#51089;&#49457;&#51088; &#48376;&#51064; &#51077;&#52272; &#48169;&#51648; &#44160;&#51613;</text><rect fill="#ADD8E6" height="35.9609" rx="12.5" ry="12.5" style="stroke:#00008B;stroke-width:1.0;" width="112" x="94" y="960.4688"/><text fill="#000000" font-family="Malgun Gothic" font-size="12" lengthAdjust="spacing" textLength="92" x="104" y="983.5293">&#50724;&#47448; &#47700;&#49884;&#51648; &#48152;&#54872;</text><ellipse cx="150" cy="1034.9492" fill="none" rx="11" ry="11" style="stroke:#000000;stroke-width:1.0;"/><ellipse cx="150" cy="1034.9492" fill="#FFFFFF" rx="6" ry="6" style="stroke:#000000;stroke-width:1.0;"/><polygon fill="#ADD8E6" points="103,911.1533,197,911.1533,209,923.1533,197,935.1533,103,935.1533,91,923.1533,103,911.1533" style="stroke:#00008B;stroke-width:1.0;"/><text fill="#000000" font-family="Malgun Gothic" font-size="11" lengthAdjust="spacing" textLength="11" x="154" y="947.1255">&#50696;</text><text fill="#000000" font-family="Malgun Gothic" font-size="12" lengthAdjust="spacing" textLength="94" x="103" y="928.2334">&#51089;&#49457;&#51088; &#48376;&#51064;&#51064;&#44032;?</text><text fill="#000000" font-family="Malgun Gothic" font-size="11" lengthAdjust="spacing" textLength="33" x="209" y="920.4946">&#50500;&#45768;&#50724;</text><rect fill="#ADD8E6" height="35.9609" rx="12.5" ry="12.5" style="stroke:#00008B;stroke-width:1.0;" width="180" x="60" y="1087.9492"/><text fill="#000000" font-family="Malgun Gothic" font-size="12" lengthAdjust="spacing" textLength="160" x="70" y="1111.0098">&#49436;&#48260;&#50640;&#49436; &#52572;&#44256; &#51077;&#52272; &#44552;&#50529; &#51312;&#54924;</text><rect fill="#ADD8E6" height="35.9609" rx="12.5" ry="12.5" style="stroke:#00008B;stroke-width:1.0;" width="112" x="94" y="1143.9102"/><text fill="#000000" font-family="Malgun Gothic" font-size="12" lengthAdjust="spacing" textLength="92" x="104" y="1166.9707">&#51077;&#52272; &#44552;&#50529; &#51116;&#44160;&#51613;</text><rect fill="#ADD8E6" height="35.9609" rx="12.5" ry="12.5" style="stroke:#00008B;stroke-width:1.0;" width="112" x="94" y="1249.1865"/><text fill="#000000" font-family="Malgun Gothic" font-size="12" lengthAdjust="spacing" textLength="92" x="104" y="1272.2471">&#50724;&#47448; &#47700;&#49884;&#51648; &#48152;&#54872;</text><ellipse cx="150" cy="1323.667" fill="none" rx="11" ry="11" style="stroke:#000000;stroke-width:1.0;"/><ellipse cx="150" cy="1323.667" fill="#FFFFFF" rx="6" ry="6" style="stroke:#000000;stroke-width:1.0;"/><polygon fill="#ADD8E6" points="41,1199.8711,259,1199.8711,271,1211.8711,259,1223.8711,41,1223.8711,29,1211.8711,41,1199.8711" style="stroke:#00008B;stroke-width:1.0;"/><text fill="#000000" font-family="Malgun Gothic" font-size="11" lengthAdjust="spacing" textLength="33" x="154" y="1235.8433">&#50500;&#45768;&#50724;</text><text fill="#000000" font-family="Malgun Gothic" font-size="12" lengthAdjust="spacing" textLength="218" x="41" y="1216.9512">&#51077;&#52272; &#44552;&#50529;&#51060; &#52572;&#44256; &#51077;&#52272; &#44552;&#50529;&#48372;&#45796; &#45458;&#51008;&#44032;?</text><text fill="#000000" font-family="Malgun Gothic" font-size="11" lengthAdjust="spacing" textLength="11" x="271" y="1209.2124">&#50696;</text><rect fill="#ADD8E6" height="35.9609" rx="12.5" ry="12.5" style="stroke:#00008B;stroke-width:1.0;" width="120" x="90" y="1376.667"/><text fill="#000000" font-family="Malgun Gothic" font-size="12" lengthAdjust="spacing" textLength="100" x="100" y="1399.7275">&#51077;&#52272; &#51221;&#48372; DB &#51200;&#51109;</text><rect fill="#ADD8E6" height="35.9609" rx="12.5" ry="12.5" style="stroke:#00008B;stroke-width:1.0;" width="140" x="80" y="1432.6279"/><text fill="#000000" font-family="Malgun Gothic" font-size="12" lengthAdjust="spacing" textLength="120" x="90" y="1455.6885">&#51077;&#52272; &#49457;&#44277; &#47700;&#49884;&#51648; &#48152;&#54872;</text><rect fill="#ADD8E6" height="35.9609" rx="12.5" ry="12.5" style="stroke:#00008B;stroke-width:1.0;" width="128" x="86" y="1488.5889"/><text fill="#000000" font-family="Malgun Gothic" font-size="12" lengthAdjust="spacing" textLength="108" x="96" y="1511.6494">&#51077;&#52272; &#45236;&#50669; &#54868;&#47732; &#44081;&#49888;</text><rect fill="#ADD8E6" height="35.9609" rx="12.5" ry="12.5" style="stroke:#00008B;stroke-width:1.0;" width="152" x="74" y="1544.5498"/><text fill="#000000" font-family="Malgun Gothic" font-size="12" lengthAdjust="spacing" textLength="132" x="84" y="1567.6104">&#52572;&#44256; &#51077;&#52272; &#44552;&#50529; &#50629;&#45936;&#51060;&#53944;</text><ellipse cx="150" cy="1611.5107" fill="none" rx="11" ry="11" style="stroke:#000000;stroke-width:1.0;"/><ellipse cx="150" cy="1611.5107" fill="#FFFFFF" rx="6" ry="6" style="stroke:#000000;stroke-width:1.0;"/><line style="stroke:#000000;stroke-width:1.0;" x1="150" x2="150" y1="25" y2="45"/><polygon fill="#000000" points="146,35,150,45,154,35,150,39" style="stroke:#000000;stroke-width:1.0;"/><line style="stroke:#000000;stroke-width:1.0;" x1="150" x2="150" y1="80.9609" y2="100.9609"/><polygon fill="#000000" points="146,90.9609,150,100.9609,154,90.9609,150,94.9609" style="stroke:#000000;stroke-width:1.0;"/><line style="stroke:#000000;stroke-width:1.0;" x1="150" x2="150" y1="242.1982" y2="269.7178"/><polygon fill="#000000" points="146,259.7178,150,269.7178,154,259.7178,150,263.7178" style="stroke:#000000;stroke-width:1.0;"/><line style="stroke:#000000;stroke-width:1.0;" x1="150" x2="150" y1="180.9219" y2="206.2373"/><polygon fill="#000000" points="146,196.2373,150,206.2373,154,196.2373,150,200.2373" style="stroke:#000000;stroke-width:1.0;"/><line style="stroke:#000000;stroke-width:1.0;" x1="208" x2="228" y1="168.9219" y2="168.9219"/><polygon fill="#000000" points="224,239.7178,228,249.7178,232,239.7178,228,243.7178" style="stroke:#000000;stroke-width:1.0;"/><line style="stroke:#000000;stroke-width:1.0;" x1="228" x2="228" y1="168.9219" y2="313.7178"/><line style="stroke:#000000;stroke-width:1.0;" x1="228" x2="150" y1="313.7178" y2="313.7178"/><line style="stroke:#000000;stroke-width:1.0;" x1="150" x2="150" y1="313.7178" y2="333.7178"/><polygon fill="#000000" points="146,323.7178,150,333.7178,154,323.7178,150,327.7178" style="stroke:#000000;stroke-width:1.0;"/><line style="stroke:#000000;stroke-width:1.0;" x1="150" x2="150" y1="136.9219" y2="156.9219"/><polygon fill="#000000" points="146,146.9219,150,156.9219,154,146.9219,150,150.9219" style="stroke:#000000;stroke-width:1.0;"/><line style="stroke:#000000;stroke-width:1.0;" x1="150" x2="150" y1="369.6787" y2="389.6787"/><polygon fill="#000000" points="146,379.6787,150,389.6787,154,379.6787,150,383.6787" style="stroke:#000000;stroke-width:1.0;"/><line style="stroke:#000000;stroke-width:1.0;" x1="150" x2="150" y1="530.916" y2="558.4355"/><polygon fill="#000000" points="146,548.4355,150,558.4355,154,548.4355,150,552.4355" style="stroke:#000000;stroke-width:1.0;"/><line style="stroke:#000000;stroke-width:1.0;" x1="150" x2="150" y1="469.6396" y2="494.9551"/><polygon fill="#000000" points="146,484.9551,150,494.9551,154,484.9551,150,488.9551" style="stroke:#000000;stroke-width:1.0;"/><line style="stroke:#000000;stroke-width:1.0;" x1="265" x2="277" y1="457.6396" y2="457.6396"/><polygon fill="#000000" points="273,528.4355,277,538.4355,281,528.4355,277,532.4355" style="stroke:#000000;stroke-width:1.0;"/><line style="stroke:#000000;stroke-width:1.0;" x1="277" x2="277" y1="457.6396" y2="602.4355"/><line style="stroke:#000000;stroke-width:1.0;" x1="277" x2="150" y1="602.4355" y2="602.4355"/><line style="stroke:#000000;stroke-width:1.0;" x1="150" x2="150" y1="602.4355" y2="622.4355"/><polygon fill="#000000" points="146,612.4355,150,622.4355,154,612.4355,150,616.4355" style="stroke:#000000;stroke-width:1.0;"/><line style="stroke:#000000;stroke-width:1.0;" x1="150" x2="150" y1="425.6396" y2="445.6396"/><polygon fill="#000000" points="146,435.6396,150,445.6396,154,435.6396,150,439.6396" style="stroke:#000000;stroke-width:1.0;"/><line style="stroke:#000000;stroke-width:1.0;" x1="150" x2="150" y1="707.7119" y2="735.2314"/><polygon fill="#000000" points="146,725.2314,150,735.2314,154,725.2314,150,729.2314" style="stroke:#000000;stroke-width:1.0;"/><line style="stroke:#000000;stroke-width:1.0;" x1="150" x2="150" y1="646.4355" y2="671.751"/><polygon fill="#000000" points="146,661.751,150,671.751,154,661.751,150,665.751" style="stroke:#000000;stroke-width:1.0;"/><line style="stroke:#000000;stroke-width:1.0;" x1="285" x2="297" y1="634.4355" y2="634.4355"/><polygon fill="#000000" points="293,705.2314,297,715.2314,301,705.2314,297,709.2314" style="stroke:#000000;stroke-width:1.0;"/><line style="stroke:#000000;stroke-width:1.0;" x1="297" x2="297" y1="634.4355" y2="779.2314"/><line style="stroke:#000000;stroke-width:1.0;" x1="297" x2="150" y1="779.2314" y2="779.2314"/><line style="stroke:#000000;stroke-width:1.0;" x1="150" x2="150" y1="779.2314" y2="799.2314"/><polygon fill="#000000" points="146,789.2314,150,799.2314,154,789.2314,150,793.2314" style="stroke:#000000;stroke-width:1.0;"/><line style="stroke:#000000;stroke-width:1.0;" x1="150" x2="150" y1="835.1924" y2="855.1924"/><polygon fill="#000000" points="146,845.1924,150,855.1924,154,845.1924,150,849.1924" style="stroke:#000000;stroke-width:1.0;"/><line style="stroke:#000000;stroke-width:1.0;" x1="150" x2="150" y1="996.4297" y2="1023.9492"/><polygon fill="#000000" points="146,1013.9492,150,1023.9492,154,1013.9492,150,1017.9492" style="stroke:#000000;stroke-width:1.0;"/><line style="stroke:#000000;stroke-width:1.0;" x1="150" x2="150" y1="935.1533" y2="960.4688"/><polygon fill="#000000" points="146,950.4688,150,960.4688,154,950.4688,150,954.4688" style="stroke:#000000;stroke-width:1.0;"/><line style="stroke:#000000;stroke-width:1.0;" x1="209" x2="221" y1="923.1533" y2="923.1533"/><polygon fill="#000000" points="217,993.9492,221,1003.9492,225,993.9492,221,997.9492" style="stroke:#000000;stroke-width:1.0;"/><line style="stroke:#000000;stroke-width:1.0;" x1="221" x2="221" y1="923.1533" y2="1067.9492"/><line style="stroke:#000000;stroke-width:1.0;" x1="221" x2="150" y1="1067.9492" y2="1067.9492"/><line style="stroke:#000000;stroke-width:1.0;" x1="150" x2="150" y1="1067.9492" y2="1087.9492"/><polygon fill="#000000" points="146,1077.9492,150,1087.9492,154,1077.9492,150,1081.9492" style="stroke:#000000;stroke-width:1.0;"/><line style="stroke:#000000;stroke-width:1.0;" x1="150" x2="150" y1="891.1533" y2="911.1533"/><polygon fill="#000000" points="146,901.1533,150,911.1533,154,901.1533,150,905.1533" style="stroke:#000000;stroke-width:1.0;"/><line style="stroke:#000000;stroke-width:1.0;" x1="150" x2="150" y1="1123.9102" y2="1143.9102"/><polygon fill="#000000" points="146,1133.9102,150,1143.9102,154,1133.9102,150,1137.9102" style="stroke:#000000;stroke-width:1.0;"/><line style="stroke:#000000;stroke-width:1.0;" x1="150" x2="150" y1="1285.1475" y2="1312.667"/><polygon fill="#000000" points="146,1302.667,150,1312.667,154,1302.667,150,1306.667" style="stroke:#000000;stroke-width:1.0;"/><line style="stroke:#000000;stroke-width:1.0;" x1="150" x2="150" y1="1223.8711" y2="1249.1865"/><polygon fill="#000000" points="146,1239.1865,150,1249.1865,154,1239.1865,150,1243.1865" style="stroke:#000000;stroke-width:1.0;"/><line style="stroke:#000000;stroke-width:1.0;" x1="271" x2="283" y1="1211.8711" y2="1211.8711"/><polygon fill="#000000" points="279,1282.667,283,1292.667,287,1282.667,283,1286.667" style="stroke:#000000;stroke-width:1.0;"/><line style="stroke:#000000;stroke-width:1.0;" x1="283" x2="283" y1="1211.8711" y2="1356.667"/><line style="stroke:#000000;stroke-width:1.0;" x1="283" x2="150" y1="1356.667" y2="1356.667"/><line style="stroke:#000000;stroke-width:1.0;" x1="150" x2="150" y1="1356.667" y2="1376.667"/><polygon fill="#000000" points="146,1366.667,150,1376.667,154,1366.667,150,1370.667" style="stroke:#000000;stroke-width:1.0;"/><line style="stroke:#000000;stroke-width:1.0;" x1="150" x2="150" y1="1179.8711" y2="1199.8711"/><polygon fill="#000000" points="146,1189.8711,150,1199.8711,154,1189.8711,150,1193.8711" style="stroke:#000000;stroke-width:1.0;"/><line style="stroke:#000000;stroke-width:1.0;" x1="150" x2="150" y1="1412.6279" y2="1432.6279"/><polygon fill="#000000" points="146,1422.6279,150,1432.6279,154,1422.6279,150,1426.6279" style="stroke:#000000;stroke-width:1.0;"/><line style="stroke:#000000;stroke-width:1.0;" x1="150" x2="150" y1="1468.5889" y2="1488.5889"/><polygon fill="#000000" points="146,1478.5889,150,1488.5889,154,1478.5889,150,1482.5889" style="stroke:#000000;stroke-width:1.0;"/><line style="stroke:#000000;stroke-width:1.0;" x1="150" x2="150" y1="1524.5498" y2="1544.5498"/><polygon fill="#000000" points="146,1534.5498,150,1544.5498,154,1534.5498,150,1538.5498" style="stroke:#000000;stroke-width:1.0;"/><line style="stroke:#000000;stroke-width:1.0;" x1="150" x2="150" y1="1580.5107" y2="1600.5107"/><polygon fill="#000000" points="146,1590.5107,150,1600.5107,154,1590.5107,150,1594.5107" style="stroke:#000000;stroke-width:1.0;"/><!--SRC=[hLJBRjfG4DtxAwPPbMMxX4Kb6ZMRDfj-WGK6B1mR6LEfhIf1S10AQKiY40OPP2JoG0B50Q9wqVwGxzn_w1Y8ULRTnAlndJDtpZapzWiZ8vr8a5D4MHNoMLdDYRfu0aaf9HOKuvsc6iSYvGy-Y4gweCAHPcJanC4QKamOyYVP-0nV1Q0dBYQoQLqhgCctcgBfy5vEPuouKf0MMKrFIleYSoZgsJ0HDFeeVv7WrMlXco3a3L4t126AfoFi3B5NzzqY-9C_x7O0M2xngofWt-MTYrW0wfsXw_AcvNiki8d9pty3BytOpPYoSWfUihxj__AmwyrhopRmTfFU8a3QLKhVUo4YCcSJNLNm7nPsPtXRf2EWYFrin-QOlA7b14d9Islti_fTH93Kf9mAQO7lLR7P1tfZpdLizznsUESEpGUILyIRxfBo1eZQ0ZxQMBc0hM9YLYvHOxBdpPCSR9giLaLhiDH24RksW0qRMBD92F1Bcw8T5MXLG_9xAN3BnDueOE9FdKqcR3fZjG6moXLsYyzD9egcJMET3s3H53iDd8m17HCh_LY8m5QT0W9Taf-qDC2cYwalgfWx33fk-Ro9tVOoeB6VE7CjthPsYQy4Rz9_8hV7lPrTNYtDwBzRyOop-9UaZLai9-0qgGySnYagOczziSbFV_guvzeGmKvds1hJLzXWmnduxWFMd7bwhpUjC_RT9R7yt8i5VmRYzHS0]--></g></svg>