<?xml version="1.0" encoding="us-ascii" standalone="no"?><svg xmlns="http://www.w3.org/2000/svg" xmlns:xlink="http://www.w3.org/1999/xlink" contentStyleType="text/css" height="1740px" preserveAspectRatio="none" style="width:290px;height:1740px;background:#FFFFFF;" version="1.1" viewBox="0 0 290 1740" width="290px" zoomAndPan="magnify"><defs/><g><ellipse cx="136" cy="15" fill="#FFFFFF" rx="10" ry="10" style="stroke:#000000;stroke-width:1.0;"/><rect fill="#ADD8E6" height="35.9609" rx="12.5" ry="12.5" style="stroke:#00008B;stroke-width:1.0;" width="152" x="60" y="45"/><text fill="#000000" font-family="Malgun Gothic" font-size="12" lengthAdjust="spacing" textLength="132" x="70" y="68.0605">&#49324;&#50857;&#51088;&#44032; &#44221;&#47588; &#49345;&#54408; &#51312;&#54924;</text><rect fill="#ADD8E6" height="35.9609" rx="12.5" ry="12.5" style="stroke:#00008B;stroke-width:1.0;" width="124" x="74" y="100.9609"/><text fill="#000000" font-family="Malgun Gothic" font-size="12" lengthAdjust="spacing" textLength="104" x="84" y="124.0215">&#51077;&#52272;&#54616;&#44592; &#48260;&#53948; &#53364;&#47533;</text><rect fill="#ADD8E6" height="35.9609" rx="12.5" ry="12.5" style="stroke:#00008B;stroke-width:1.0;" width="136" x="68" y="206.2373"/><text fill="#000000" font-family="Malgun Gothic" font-size="12" lengthAdjust="spacing" textLength="116" x="78" y="229.2979">&#47196;&#44536;&#51064; &#54168;&#51060;&#51648;&#47196; &#51060;&#46041;</text><ellipse cx="136" cy="280.7178" fill="none" rx="11" ry="11" style="stroke:#000000;stroke-width:1.0;"/><ellipse cx="136" cy="280.7178" fill="#FFFFFF" rx="6" ry="6" style="stroke:#000000;stroke-width:1.0;"/><polygon fill="#ADD8E6" points="90,156.9219,182,156.9219,194,168.9219,182,180.9219,90,180.9219,78,168.9219,90,156.9219" style="stroke:#00008B;stroke-width:1.0;"/><text fill="#000000" font-family="Malgun Gothic" font-size="11" lengthAdjust="spacing" textLength="44" x="140" y="192.894">&#48120;&#47196;&#44536;&#51064;</text><text fill="#000000" font-family="Malgun Gothic" font-size="12" lengthAdjust="spacing" textLength="92" x="90" y="174.002">&#47196;&#44536;&#51064; &#49345;&#53468; &#54869;&#51064;</text><text fill="#000000" font-family="Malgun Gothic" font-size="11" lengthAdjust="spacing" textLength="44" x="194" y="166.2632">&#47196;&#44536;&#51064;&#46120;</text><rect fill="#ADD8E6" height="35.9609" rx="12.5" ry="12.5" style="stroke:#00008B;stroke-width:1.0;" width="100" x="86" y="333.7178"/><text fill="#000000" font-family="Malgun Gothic" font-size="12" lengthAdjust="spacing" textLength="80" x="96" y="356.7783">&#51077;&#52272; &#44552;&#50529; &#51077;&#47141;</text><rect fill="#ADD8E6" height="35.9609" rx="12.5" ry="12.5" style="stroke:#00008B;stroke-width:1.0;" width="140" x="66" y="389.6787"/><text fill="#000000" font-family="Malgun Gothic" font-size="12" lengthAdjust="spacing" textLength="120" x="76" y="412.7393">&#51077;&#52272; &#44552;&#50529; &#50976;&#54952;&#49457; &#44160;&#51613;</text><rect fill="#ADD8E6" height="35.9609" rx="12.5" ry="12.5" style="stroke:#00008B;stroke-width:1.0;" width="112" x="80" y="494.9551"/><text fill="#000000" font-family="Malgun Gothic" font-size="12" lengthAdjust="spacing" textLength="92" x="90" y="518.0156">&#50724;&#47448; &#47700;&#49884;&#51648; &#54364;&#49884;</text><ellipse cx="136" cy="569.4355" fill="none" rx="11" ry="11" style="stroke:#000000;stroke-width:1.0;"/><ellipse cx="136" cy="569.4355" fill="#FFFFFF" rx="6" ry="6" style="stroke:#000000;stroke-width:1.0;"/><polygon fill="#ADD8E6" points="33,445.6396,239,445.6396,251,457.6396,239,469.6396,33,469.6396,21,457.6396,33,445.6396" style="stroke:#00008B;stroke-width:1.0;"/><text fill="#000000" font-family="Malgun Gothic" font-size="11" lengthAdjust="spacing" textLength="33" x="140" y="481.6118">&#50500;&#45768;&#50724;</text><text fill="#000000" font-family="Malgun Gothic" font-size="12" lengthAdjust="spacing" textLength="206" x="33" y="462.7197">&#51077;&#52272; &#44552;&#50529;&#51060; &#52572;&#49548; &#51077;&#52272; &#44552;&#50529; &#51060;&#49345;&#51064;&#44032;?</text><text fill="#000000" font-family="Malgun Gothic" font-size="11" lengthAdjust="spacing" textLength="11" x="251" y="454.981">&#50696;</text><rect fill="#ADD8E6" height="35.9609" rx="12.5" ry="12.5" style="stroke:#00008B;stroke-width:1.0;" width="140" x="66" y="622.4355"/><text fill="#000000" font-family="Malgun Gothic" font-size="12" lengthAdjust="spacing" textLength="120" x="76" y="645.4961">&#49436;&#48260;&#47196; &#51077;&#52272; &#50836;&#52397; &#51204;&#49569;</text><rect fill="#ADD8E6" height="35.9609" rx="12.5" ry="12.5" style="stroke:#00008B;stroke-width:1.0;" width="180" x="46" y="678.3965"/><text fill="#000000" font-family="Malgun Gothic" font-size="12" lengthAdjust="spacing" textLength="160" x="56" y="701.457">&#49436;&#48260;&#50640;&#49436; &#44221;&#47588; &#49345;&#54408; &#51221;&#48372; &#51312;&#54924;</text><rect fill="#ADD8E6" height="35.9609" rx="12.5" ry="12.5" style="stroke:#00008B;stroke-width:1.0;" width="112" x="80" y="783.6729"/><text fill="#000000" font-family="Malgun Gothic" font-size="12" lengthAdjust="spacing" textLength="92" x="90" y="806.7334">&#50724;&#47448; &#47700;&#49884;&#51648; &#48152;&#54872;</text><ellipse cx="136" cy="858.1533" fill="none" rx="11" ry="11" style="stroke:#000000;stroke-width:1.0;"/><ellipse cx="136" cy="858.1533" fill="#FFFFFF" rx="6" ry="6" style="stroke:#000000;stroke-width:1.0;"/><polygon fill="#ADD8E6" points="64,734.3574,208,734.3574,220,746.3574,208,758.3574,64,758.3574,52,746.3574,64,734.3574" style="stroke:#00008B;stroke-width:1.0;"/><text fill="#000000" font-family="Malgun Gothic" font-size="11" lengthAdjust="spacing" textLength="33" x="140" y="770.3296">&#50500;&#45768;&#50724;</text><text fill="#000000" font-family="Malgun Gothic" font-size="12" lengthAdjust="spacing" textLength="144" x="64" y="751.4375">&#44221;&#47588; &#49345;&#53468;&#44032; "&#51652;&#54665;&#51473;"&#51064;&#44032;?</text><text fill="#000000" font-family="Malgun Gothic" font-size="11" lengthAdjust="spacing" textLength="11" x="220" y="743.6987">&#50696;</text><rect fill="#ADD8E6" height="35.9609" rx="12.5" ry="12.5" style="stroke:#00008B;stroke-width:1.0;" width="220" x="26" y="911.1533"/><text fill="#000000" font-family="Malgun Gothic" font-size="12" lengthAdjust="spacing" textLength="200" x="36" y="934.2139">&#49436;&#48260;&#50640;&#49436; &#51089;&#49457;&#51088; &#48376;&#51064; &#51077;&#52272; &#48169;&#51648; &#44160;&#51613;</text><rect fill="#ADD8E6" height="35.9609" rx="12.5" ry="12.5" style="stroke:#00008B;stroke-width:1.0;" width="112" x="80" y="1016.4297"/><text fill="#000000" font-family="Malgun Gothic" font-size="12" lengthAdjust="spacing" textLength="92" x="90" y="1039.4902">&#50724;&#47448; &#47700;&#49884;&#51648; &#48152;&#54872;</text><ellipse cx="136" cy="1090.9102" fill="none" rx="11" ry="11" style="stroke:#000000;stroke-width:1.0;"/><ellipse cx="136" cy="1090.9102" fill="#FFFFFF" rx="6" ry="6" style="stroke:#000000;stroke-width:1.0;"/><polygon fill="#ADD8E6" points="89,967.1143,183,967.1143,195,979.1143,183,991.1143,89,991.1143,77,979.1143,89,967.1143" style="stroke:#00008B;stroke-width:1.0;"/><text fill="#000000" font-family="Malgun Gothic" font-size="11" lengthAdjust="spacing" textLength="11" x="140" y="1003.0864">&#50696;</text><text fill="#000000" font-family="Malgun Gothic" font-size="12" lengthAdjust="spacing" textLength="94" x="89" y="984.1943">&#51089;&#49457;&#51088; &#48376;&#51064;&#51064;&#44032;?</text><text fill="#000000" font-family="Malgun Gothic" font-size="11" lengthAdjust="spacing" textLength="33" x="195" y="976.4556">&#50500;&#45768;&#50724;</text><rect fill="#ADD8E6" height="35.9609" rx="12.5" ry="12.5" style="stroke:#00008B;stroke-width:1.0;" width="180" x="46" y="1143.9102"/><text fill="#000000" font-family="Malgun Gothic" font-size="12" lengthAdjust="spacing" textLength="160" x="56" y="1166.9707">&#49436;&#48260;&#50640;&#49436; &#52572;&#44256; &#51077;&#52272; &#44552;&#50529; &#51312;&#54924;</text><rect fill="#ADD8E6" height="35.9609" rx="12.5" ry="12.5" style="stroke:#00008B;stroke-width:1.0;" width="112" x="80" y="1199.8711"/><text fill="#000000" font-family="Malgun Gothic" font-size="12" lengthAdjust="spacing" textLength="92" x="90" y="1222.9316">&#51077;&#52272; &#44552;&#50529; &#51116;&#44160;&#51613;</text><rect fill="#ADD8E6" height="35.9609" rx="12.5" ry="12.5" style="stroke:#00008B;stroke-width:1.0;" width="112" x="80" y="1305.1475"/><text fill="#000000" font-family="Malgun Gothic" font-size="12" lengthAdjust="spacing" textLength="92" x="90" y="1328.208">&#50724;&#47448; &#47700;&#49884;&#51648; &#48152;&#54872;</text><ellipse cx="136" cy="1379.6279" fill="none" rx="11" ry="11" style="stroke:#000000;stroke-width:1.0;"/><ellipse cx="136" cy="1379.6279" fill="#FFFFFF" rx="6" ry="6" style="stroke:#000000;stroke-width:1.0;"/><polygon fill="#ADD8E6" points="27,1255.832,245,1255.832,257,1267.832,245,1279.832,27,1279.832,15,1267.832,27,1255.832" style="stroke:#00008B;stroke-width:1.0;"/><text fill="#000000" font-family="Malgun Gothic" font-size="11" lengthAdjust="spacing" textLength="33" x="140" y="1291.8042">&#50500;&#45768;&#50724;</text><text fill="#000000" font-family="Malgun Gothic" font-size="12" lengthAdjust="spacing" textLength="218" x="27" y="1272.9121">&#51077;&#52272; &#44552;&#50529;&#51060; &#52572;&#44256; &#51077;&#52272; &#44552;&#50529;&#48372;&#45796; &#45458;&#51008;&#44032;?</text><text fill="#000000" font-family="Malgun Gothic" font-size="11" lengthAdjust="spacing" textLength="11" x="257" y="1265.1733">&#50696;</text><rect fill="#ADD8E6" height="35.9609" rx="12.5" ry="12.5" style="stroke:#00008B;stroke-width:1.0;" width="120" x="76" y="1432.6279"/><text fill="#000000" font-family="Malgun Gothic" font-size="12" lengthAdjust="spacing" textLength="100" x="86" y="1455.6885">&#51077;&#52272; &#51221;&#48372; DB &#51200;&#51109;</text><rect fill="#ADD8E6" height="35.9609" rx="12.5" ry="12.5" style="stroke:#00008B;stroke-width:1.0;" width="226" x="23" y="1488.5889"/><text fill="#000000" font-family="Malgun Gothic" font-size="12" lengthAdjust="spacing" textLength="206" x="33" y="1511.6494">&#44221;&#47588; &#49345;&#54408;&#51032; MAX_BID_PRICE &#50629;&#45936;&#51060;&#53944;</text><rect fill="#ADD8E6" height="35.9609" rx="12.5" ry="12.5" style="stroke:#00008B;stroke-width:1.0;" width="140" x="66" y="1544.5498"/><text fill="#000000" font-family="Malgun Gothic" font-size="12" lengthAdjust="spacing" textLength="120" x="76" y="1567.6104">&#51077;&#52272; &#49457;&#44277; &#47700;&#49884;&#51648; &#48152;&#54872;</text><rect fill="#ADD8E6" height="35.9609" rx="12.5" ry="12.5" style="stroke:#00008B;stroke-width:1.0;" width="128" x="72" y="1600.5107"/><text fill="#000000" font-family="Malgun Gothic" font-size="12" lengthAdjust="spacing" textLength="108" x="82" y="1623.5713">&#51077;&#52272; &#45236;&#50669; &#54868;&#47732; &#44081;&#49888;</text><rect fill="#ADD8E6" height="35.9609" rx="12.5" ry="12.5" style="stroke:#00008B;stroke-width:1.0;" width="152" x="60" y="1656.4717"/><text fill="#000000" font-family="Malgun Gothic" font-size="12" lengthAdjust="spacing" textLength="132" x="70" y="1679.5322">&#52572;&#44256; &#51077;&#52272; &#44552;&#50529; &#50629;&#45936;&#51060;&#53944;</text><ellipse cx="136" cy="1723.4326" fill="none" rx="11" ry="11" style="stroke:#000000;stroke-width:1.0;"/><ellipse cx="136" cy="1723.4326" fill="#FFFFFF" rx="6" ry="6" style="stroke:#000000;stroke-width:1.0;"/><line style="stroke:#000000;stroke-width:1.0;" x1="136" x2="136" y1="25" y2="45"/><polygon fill="#000000" points="132,35,136,45,140,35,136,39" style="stroke:#000000;stroke-width:1.0;"/><line style="stroke:#000000;stroke-width:1.0;" x1="136" x2="136" y1="80.9609" y2="100.9609"/><polygon fill="#000000" points="132,90.9609,136,100.9609,140,90.9609,136,94.9609" style="stroke:#000000;stroke-width:1.0;"/><line style="stroke:#000000;stroke-width:1.0;" x1="136" x2="136" y1="242.1982" y2="269.7178"/><polygon fill="#000000" points="132,259.7178,136,269.7178,140,259.7178,136,263.7178" style="stroke:#000000;stroke-width:1.0;"/><line style="stroke:#000000;stroke-width:1.0;" x1="136" x2="136" y1="180.9219" y2="206.2373"/><polygon fill="#000000" points="132,196.2373,136,206.2373,140,196.2373,136,200.2373" style="stroke:#000000;stroke-width:1.0;"/><line style="stroke:#000000;stroke-width:1.0;" x1="194" x2="214" y1="168.9219" y2="168.9219"/><polygon fill="#000000" points="210,239.7178,214,249.7178,218,239.7178,214,243.7178" style="stroke:#000000;stroke-width:1.0;"/><line style="stroke:#000000;stroke-width:1.0;" x1="214" x2="214" y1="168.9219" y2="313.7178"/><line style="stroke:#000000;stroke-width:1.0;" x1="214" x2="136" y1="313.7178" y2="313.7178"/><line style="stroke:#000000;stroke-width:1.0;" x1="136" x2="136" y1="313.7178" y2="333.7178"/><polygon fill="#000000" points="132,323.7178,136,333.7178,140,323.7178,136,327.7178" style="stroke:#000000;stroke-width:1.0;"/><line style="stroke:#000000;stroke-width:1.0;" x1="136" x2="136" y1="136.9219" y2="156.9219"/><polygon fill="#000000" points="132,146.9219,136,156.9219,140,146.9219,136,150.9219" style="stroke:#000000;stroke-width:1.0;"/><line style="stroke:#000000;stroke-width:1.0;" x1="136" x2="136" y1="369.6787" y2="389.6787"/><polygon fill="#000000" points="132,379.6787,136,389.6787,140,379.6787,136,383.6787" style="stroke:#000000;stroke-width:1.0;"/><line style="stroke:#000000;stroke-width:1.0;" x1="136" x2="136" y1="530.916" y2="558.4355"/><polygon fill="#000000" points="132,548.4355,136,558.4355,140,548.4355,136,552.4355" style="stroke:#000000;stroke-width:1.0;"/><line style="stroke:#000000;stroke-width:1.0;" x1="136" x2="136" y1="469.6396" y2="494.9551"/><polygon fill="#000000" points="132,484.9551,136,494.9551,140,484.9551,136,488.9551" style="stroke:#000000;stroke-width:1.0;"/><line style="stroke:#000000;stroke-width:1.0;" x1="251" x2="263" y1="457.6396" y2="457.6396"/><polygon fill="#000000" points="259,528.4355,263,538.4355,267,528.4355,263,532.4355" style="stroke:#000000;stroke-width:1.0;"/><line style="stroke:#000000;stroke-width:1.0;" x1="263" x2="263" y1="457.6396" y2="602.4355"/><line style="stroke:#000000;stroke-width:1.0;" x1="263" x2="136" y1="602.4355" y2="602.4355"/><line style="stroke:#000000;stroke-width:1.0;" x1="136" x2="136" y1="602.4355" y2="622.4355"/><polygon fill="#000000" points="132,612.4355,136,622.4355,140,612.4355,136,616.4355" style="stroke:#000000;stroke-width:1.0;"/><line style="stroke:#000000;stroke-width:1.0;" x1="136" x2="136" y1="425.6396" y2="445.6396"/><polygon fill="#000000" points="132,435.6396,136,445.6396,140,435.6396,136,439.6396" style="stroke:#000000;stroke-width:1.0;"/><line style="stroke:#000000;stroke-width:1.0;" x1="136" x2="136" y1="658.3965" y2="678.3965"/><polygon fill="#000000" points="132,668.3965,136,678.3965,140,668.3965,136,672.3965" style="stroke:#000000;stroke-width:1.0;"/><line style="stroke:#000000;stroke-width:1.0;" x1="136" x2="136" y1="819.6338" y2="847.1533"/><polygon fill="#000000" points="132,837.1533,136,847.1533,140,837.1533,136,841.1533" style="stroke:#000000;stroke-width:1.0;"/><line style="stroke:#000000;stroke-width:1.0;" x1="136" x2="136" y1="758.3574" y2="783.6729"/><polygon fill="#000000" points="132,773.6729,136,783.6729,140,773.6729,136,777.6729" style="stroke:#000000;stroke-width:1.0;"/><line style="stroke:#000000;stroke-width:1.0;" x1="220" x2="232" y1="746.3574" y2="746.3574"/><polygon fill="#000000" points="228,817.1533,232,827.1533,236,817.1533,232,821.1533" style="stroke:#000000;stroke-width:1.0;"/><line style="stroke:#000000;stroke-width:1.0;" x1="232" x2="232" y1="746.3574" y2="891.1533"/><line style="stroke:#000000;stroke-width:1.0;" x1="232" x2="136" y1="891.1533" y2="891.1533"/><line style="stroke:#000000;stroke-width:1.0;" x1="136" x2="136" y1="891.1533" y2="911.1533"/><polygon fill="#000000" points="132,901.1533,136,911.1533,140,901.1533,136,905.1533" style="stroke:#000000;stroke-width:1.0;"/><line style="stroke:#000000;stroke-width:1.0;" x1="136" x2="136" y1="714.3574" y2="734.3574"/><polygon fill="#000000" points="132,724.3574,136,734.3574,140,724.3574,136,728.3574" style="stroke:#000000;stroke-width:1.0;"/><line style="stroke:#000000;stroke-width:1.0;" x1="136" x2="136" y1="1052.3906" y2="1079.9102"/><polygon fill="#000000" points="132,1069.9102,136,1079.9102,140,1069.9102,136,1073.9102" style="stroke:#000000;stroke-width:1.0;"/><line style="stroke:#000000;stroke-width:1.0;" x1="136" x2="136" y1="991.1143" y2="1016.4297"/><polygon fill="#000000" points="132,1006.4297,136,1016.4297,140,1006.4297,136,1010.4297" style="stroke:#000000;stroke-width:1.0;"/><line style="stroke:#000000;stroke-width:1.0;" x1="195" x2="207" y1="979.1143" y2="979.1143"/><polygon fill="#000000" points="203,1049.9102,207,1059.9102,211,1049.9102,207,1053.9102" style="stroke:#000000;stroke-width:1.0;"/><line style="stroke:#000000;stroke-width:1.0;" x1="207" x2="207" y1="979.1143" y2="1123.9102"/><line style="stroke:#000000;stroke-width:1.0;" x1="207" x2="136" y1="1123.9102" y2="1123.9102"/><line style="stroke:#000000;stroke-width:1.0;" x1="136" x2="136" y1="1123.9102" y2="1143.9102"/><polygon fill="#000000" points="132,1133.9102,136,1143.9102,140,1133.9102,136,1137.9102" style="stroke:#000000;stroke-width:1.0;"/><line style="stroke:#000000;stroke-width:1.0;" x1="136" x2="136" y1="947.1143" y2="967.1143"/><polygon fill="#000000" points="132,957.1143,136,967.1143,140,957.1143,136,961.1143" style="stroke:#000000;stroke-width:1.0;"/><line style="stroke:#000000;stroke-width:1.0;" x1="136" x2="136" y1="1179.8711" y2="1199.8711"/><polygon fill="#000000" points="132,1189.8711,136,1199.8711,140,1189.8711,136,1193.8711" style="stroke:#000000;stroke-width:1.0;"/><line style="stroke:#000000;stroke-width:1.0;" x1="136" x2="136" y1="1341.1084" y2="1368.6279"/><polygon fill="#000000" points="132,1358.6279,136,1368.6279,140,1358.6279,136,1362.6279" style="stroke:#000000;stroke-width:1.0;"/><line style="stroke:#000000;stroke-width:1.0;" x1="136" x2="136" y1="1279.832" y2="1305.1475"/><polygon fill="#000000" points="132,1295.1475,136,1305.1475,140,1295.1475,136,1299.1475" style="stroke:#000000;stroke-width:1.0;"/><line style="stroke:#000000;stroke-width:1.0;" x1="257" x2="269" y1="1267.832" y2="1267.832"/><polygon fill="#000000" points="265,1338.6279,269,1348.6279,273,1338.6279,269,1342.6279" style="stroke:#000000;stroke-width:1.0;"/><line style="stroke:#000000;stroke-width:1.0;" x1="269" x2="269" y1="1267.832" y2="1412.6279"/><line style="stroke:#000000;stroke-width:1.0;" x1="269" x2="136" y1="1412.6279" y2="1412.6279"/><line style="stroke:#000000;stroke-width:1.0;" x1="136" x2="136" y1="1412.6279" y2="1432.6279"/><polygon fill="#000000" points="132,1422.6279,136,1432.6279,140,1422.6279,136,1426.6279" style="stroke:#000000;stroke-width:1.0;"/><line style="stroke:#000000;stroke-width:1.0;" x1="136" x2="136" y1="1235.832" y2="1255.832"/><polygon fill="#000000" points="132,1245.832,136,1255.832,140,1245.832,136,1249.832" style="stroke:#000000;stroke-width:1.0;"/><line style="stroke:#000000;stroke-width:1.0;" x1="136" x2="136" y1="1468.5889" y2="1488.5889"/><polygon fill="#000000" points="132,1478.5889,136,1488.5889,140,1478.5889,136,1482.5889" style="stroke:#000000;stroke-width:1.0;"/><line style="stroke:#000000;stroke-width:1.0;" x1="136" x2="136" y1="1524.5498" y2="1544.5498"/><polygon fill="#000000" points="132,1534.5498,136,1544.5498,140,1534.5498,136,1538.5498" style="stroke:#000000;stroke-width:1.0;"/><line style="stroke:#000000;stroke-width:1.0;" x1="136" x2="136" y1="1580.5107" y2="1600.5107"/><polygon fill="#000000" points="132,1590.5107,136,1600.5107,140,1590.5107,136,1594.5107" style="stroke:#000000;stroke-width:1.0;"/><line style="stroke:#000000;stroke-width:1.0;" x1="136" x2="136" y1="1636.4717" y2="1656.4717"/><polygon fill="#000000" points="132,1646.4717,136,1656.4717,140,1646.4717,136,1650.4717" style="stroke:#000000;stroke-width:1.0;"/><line style="stroke:#000000;stroke-width:1.0;" x1="136" x2="136" y1="1692.4326" y2="1712.4326"/><polygon fill="#000000" points="132,1702.4326,136,1712.4326,140,1702.4326,136,1706.4326" style="stroke:#000000;stroke-width:1.0;"/><!--SRC=[hLDDZz9W4BxtLuoSvAZ7vM1aKRE9QunUl6qQAD3GRKaf9cfCO649Bgl21gIGGah2Bakon2uViGVzGtsd_y6X8D-9Rc9Fyxxpl3FFC_FqdXONZWL8IhmeSwc4A2TvbJ-6Y13bqvBsL96r5ppbVOUy54lBy4pHucBOjuBamvhuLjJUmGSEw0louKHCLT9oP5-H51MUYx6u5fJImYohg151dML2l9fO9AQDNell1NZmaFl8SIcDLpMEsyEJ6spsiLrsh0mumr-irmNCPTsB8c37SfldWIceVOgMvTPqnxQ03VFksKzmisDsDQ2i68Nxh6CuFsnisTxRd05keqOdFv1scTBVxGN2xx7PMxvml-ZO6cClGrT04VlQ27YObAOaEK5A2IlrMVdQpmboH8mkQ85Z5x7M0JenypAmVM-ORlCQyxSaBuDNhJdbDH2r1PmOM3Y7ZSV4B9UbnZIUHt_aO2tFIaNKktCj5B5B7LY_YYM3X81RCIZQKe5wSOLytg19Uffd7R5PnU40qCnZeHDO8B1Ufc1pDMQDZSRB3Kq5hI1ondIRFkpbtM-Vi5lntLK0itIteV-BW3azR5TemcGZOAEP3sQYcDMVrjkO_3fsazoqoTreBUNi9ZSnd96vkTaDTozjTFDNdsnLesMmKXTOuG9RcVy_wRb1PaiF1IdAODkp-fejiAN3uUCtHy63qD7BLmVxJm3hf-opHQpTCtj5AetV6Krsi5WWsCaOwmFwZQkiFmR7kiMIwQLtZdAzYoVZDm00]--></g></svg>