<?xml version="1.0" encoding="us-ascii" standalone="no"?><svg xmlns="http://www.w3.org/2000/svg" xmlns:xlink="http://www.w3.org/1999/xlink" contentStyleType="text/css" height="2411px" preserveAspectRatio="none" style="width:674px;height:2411px;background:#FFFFFF;" version="1.1" viewBox="0 0 674 2411" width="674px" zoomAndPan="magnify"><defs/><g><!--cluster ???? ???--><g id="cluster_&#44264;&#46300;&#50725;&#49496; &#49884;&#49828;&#53596;"><rect fill="#FFFFFF" height="1713" rx="2.5" ry="2.5" style="stroke:#000000;stroke-width:1.0;" width="535" x="133" y="268.77"/><text fill="#000000" font-family="Malgun Gothic" font-size="14" font-weight="bold" lengthAdjust="spacing" textLength="103" x="349" y="286.0073">&#44264;&#46300;&#50725;&#49496; &#49884;&#49828;&#53596;</text></g><!--cluster ?? ??--><g id="cluster_&#54924;&#50896; &#44288;&#47532;"><path d="M175,1223.77 L237,1223.77 A3.75,3.75 0 0 1 239.5,1226.27 L246.5,1248.3911 L358,1248.3911 A2.5,2.5 0 0 1 360.5,1250.8911 L360.5,1450.27 A2.5,2.5 0 0 1 358,1452.77 L175,1452.77 A2.5,2.5 0 0 1 172.5,1450.27 L172.5,1226.27 A2.5,2.5 0 0 1 175,1223.77 " fill="#FFFFFF" style="stroke:#000000;stroke-width:1.0;"/><line style="stroke:#000000;stroke-width:1.0;" x1="172.5" x2="246.5" y1="1248.3911" y2="1248.3911"/><text fill="#000000" font-family="Malgun Gothic" font-size="14" font-weight="bold" lengthAdjust="spacing" textLength="61" x="176.5" y="1241.0073">&#54924;&#50896; &#44288;&#47532;</text></g><!--cluster ?? ???--><g id="cluster_&#44221;&#47588; &#49884;&#49828;&#53596;"><path d="M178.5,1476.77 L254.5,1476.77 A3.75,3.75 0 0 1 257,1479.27 L264,1501.3911 L641.5,1501.3911 A2.5,2.5 0 0 1 644,1503.8911 L644,1769.27 A2.5,2.5 0 0 1 641.5,1771.77 L178.5,1771.77 A2.5,2.5 0 0 1 176,1769.27 L176,1479.27 A2.5,2.5 0 0 1 178.5,1476.77 " fill="#FFFFFF" style="stroke:#000000;stroke-width:1.0;"/><line style="stroke:#000000;stroke-width:1.0;" x1="176" x2="264" y1="1501.3911" y2="1501.3911"/><text fill="#000000" font-family="Malgun Gothic" font-size="14" font-weight="bold" lengthAdjust="spacing" textLength="75" x="180" y="1494.0073">&#44221;&#47588; &#49884;&#49828;&#53596;</text></g><!--cluster ??? ???--><g id="cluster_&#44172;&#49884;&#54032; &#49884;&#49828;&#53596;"><path d="M159.5,773.77 L249.5,773.77 A3.75,3.75 0 0 1 252,776.27 L259,798.3911 L632.5,798.3911 A2.5,2.5 0 0 1 635,800.8911 L635,1010.27 A2.5,2.5 0 0 1 632.5,1012.77 L159.5,1012.77 A2.5,2.5 0 0 1 157,1010.27 L157,776.27 A2.5,2.5 0 0 1 159.5,773.77 " fill="#FFFFFF" style="stroke:#000000;stroke-width:1.0;"/><line style="stroke:#000000;stroke-width:1.0;" x1="157" x2="259" y1="798.3911" y2="798.3911"/><text fill="#000000" font-family="Malgun Gothic" font-size="14" font-weight="bold" lengthAdjust="spacing" textLength="89" x="161" y="791.0073">&#44172;&#49884;&#54032; &#49884;&#49828;&#53596;</text></g><!--cluster ?????--><g id="cluster_&#44277;&#44396;&#51060;&#48292;&#53944;"><path d="M173.5,1036.77 L244.5,1036.77 A3.75,3.75 0 0 1 247,1039.27 L254,1061.3911 L641.5,1061.3911 A2.5,2.5 0 0 1 644,1063.8911 L644,1197.27 A2.5,2.5 0 0 1 641.5,1199.77 L173.5,1199.77 A2.5,2.5 0 0 1 171,1197.27 L171,1039.27 A2.5,2.5 0 0 1 173.5,1036.77 " fill="#FFFFFF" style="stroke:#000000;stroke-width:1.0;"/><line style="stroke:#000000;stroke-width:1.0;" x1="171" x2="254" y1="1061.3911" y2="1061.3911"/><text fill="#000000" font-family="Malgun Gothic" font-size="14" font-weight="bold" lengthAdjust="spacing" textLength="70" x="175" y="1054.0073">&#44277;&#44396;&#51060;&#48292;&#53944;</text></g><!--cluster ??? ??--><g id="cluster_&#44288;&#47532;&#51088; &#44592;&#45733;"><path d="M173.5,313.77 L249.5,313.77 A3.75,3.75 0 0 1 252,316.27 L259,338.3911 L359.5,338.3911 A2.5,2.5 0 0 1 362,340.8911 L362,747.27 A2.5,2.5 0 0 1 359.5,749.77 L173.5,749.77 A2.5,2.5 0 0 1 171,747.27 L171,316.27 A2.5,2.5 0 0 1 173.5,313.77 " fill="#FFFFFF" style="stroke:#000000;stroke-width:1.0;"/><line style="stroke:#000000;stroke-width:1.0;" x1="171" x2="259" y1="338.3911" y2="338.3911"/><text fill="#000000" font-family="Malgun Gothic" font-size="14" font-weight="bold" lengthAdjust="spacing" textLength="75" x="175" y="331.0073">&#44288;&#47532;&#51088; &#44592;&#45733;</text></g><!--cluster ?? ??--><g id="cluster_&#44277;&#53685; &#44592;&#45733;"><path d="M171,1795.77 L233,1795.77 A3.75,3.75 0 0 1 235.5,1798.27 L242.5,1820.3911 L362,1820.3911 A2.5,2.5 0 0 1 364.5,1822.8911 L364.5,1955.27 A2.5,2.5 0 0 1 362,1957.77 L171,1957.77 A2.5,2.5 0 0 1 168.5,1955.27 L168.5,1798.27 A2.5,2.5 0 0 1 171,1795.77 " fill="#FFFFFF" style="stroke:#000000;stroke-width:1.0;"/><line style="stroke:#000000;stroke-width:1.0;" x1="168.5" x2="242.5" y1="1820.3911" y2="1820.3911"/><text fill="#000000" font-family="Malgun Gothic" font-size="14" font-weight="bold" lengthAdjust="spacing" textLength="61" x="172.5" y="1813.0073">&#44277;&#53685; &#44592;&#45733;</text></g><g id="elem_UC1"><ellipse cx="266.3229" cy="1277.6167" fill="#ADD8E6" rx="55.3229" ry="16.3467" style="stroke:#00008B;stroke-width:1.0;"/><text fill="#000000" font-family="Malgun Gothic" font-size="14" lengthAdjust="spacing" textLength="61" x="232.8229" y="1282.4854">&#54924;&#50896; &#44032;&#51077;</text></g><g id="elem_UC2"><ellipse cx="266.6852" cy="1347.807" fill="#ADD8E6" rx="78.1852" ry="18.037" style="stroke:#00008B;stroke-width:1.0;"/><text fill="#000000" font-family="Malgun Gothic" font-size="14" lengthAdjust="spacing" textLength="104" x="211.6852" y="1352.6757">&#47196;&#44536;&#51064;/&#47196;&#44536;&#50500;&#50883;</text></g><g id="elem_UC3"><ellipse cx="266.6088" cy="1418.5918" fill="#ADD8E6" rx="74.6088" ry="17.3218" style="stroke:#00008B;stroke-width:1.0;"/><text fill="#000000" font-family="Malgun Gothic" font-size="14" lengthAdjust="spacing" textLength="94" x="216.6088" y="1423.4604">&#54924;&#50896; &#51221;&#48372; &#44288;&#47532;</text></g><g id="elem_UC4"><ellipse cx="266.6088" cy="1667.5918" fill="#ADD8E6" rx="74.6088" ry="17.3218" style="stroke:#00008B;stroke-width:1.0;"/><text fill="#000000" font-family="Malgun Gothic" font-size="14" lengthAdjust="spacing" textLength="94" x="216.6088" y="1672.4604">&#44221;&#47588; &#49345;&#54408; &#46321;&#47197;</text></g><g id="elem_UC5"><ellipse cx="553.6088" cy="1720.5918" fill="#ADD8E6" rx="74.6088" ry="17.3218" style="stroke:#00008B;stroke-width:1.0;"/><text fill="#000000" font-family="Malgun Gothic" font-size="14" lengthAdjust="spacing" textLength="94" x="503.6088" y="1725.4604">&#44221;&#47588; &#49345;&#54408; &#51312;&#54924;</text></g><g id="elem_UC6"><ellipse cx="266.6088" cy="1737.5918" fill="#ADD8E6" rx="74.6088" ry="17.3218" style="stroke:#00008B;stroke-width:1.0;"/><text fill="#000000" font-family="Malgun Gothic" font-size="14" lengthAdjust="spacing" textLength="94" x="216.6088" y="1742.4604">&#44221;&#47588; &#49345;&#54408; &#44288;&#47532;</text></g><g id="elem_UC7"><ellipse cx="266.6078" cy="1598.5808" fill="#ADD8E6" rx="51.6078" ry="16.3108" style="stroke:#00008B;stroke-width:1.0;"/><text fill="#000000" font-family="Malgun Gothic" font-size="14" lengthAdjust="spacing" textLength="56" x="235.6078" y="1603.4494">&#51077;&#52272;&#54616;&#44592;</text></g><g id="elem_UC8"><ellipse cx="553.6088" cy="1565.5918" fill="#ADD8E6" rx="74.6088" ry="17.3218" style="stroke:#00008B;stroke-width:1.0;"/><text fill="#000000" font-family="Malgun Gothic" font-size="14" lengthAdjust="spacing" textLength="94" x="503.6088" y="1570.4604">&#51077;&#52272; &#45236;&#50669; &#51312;&#54924;</text></g><g id="elem_UC9"><ellipse cx="266.3229" cy="1530.6167" fill="#ADD8E6" rx="55.3229" ry="16.3467" style="stroke:#00008B;stroke-width:1.0;"/><text fill="#000000" font-family="Malgun Gothic" font-size="14" lengthAdjust="spacing" textLength="61" x="232.8229" y="1535.4854">&#51593;&#49884; &#44396;&#47588;</text></g><g id="elem_UC10"><ellipse cx="553.7274" cy="955.6959" fill="#ADD8E6" rx="65.7274" ry="16.4259" style="stroke:#00008B;stroke-width:1.0;"/><text fill="#000000" font-family="Malgun Gothic" font-size="14" lengthAdjust="spacing" textLength="75" x="513.2274" y="960.5645">&#44172;&#49884;&#54032; &#51312;&#54924;</text></g><g id="elem_UC11"><ellipse cx="266.4639" cy="900.8628" fill="#ADD8E6" rx="93.4639" ry="21.0928" style="stroke:#00008B;stroke-width:1.0;"/><text fill="#000000" font-family="Malgun Gothic" font-size="14" lengthAdjust="spacing" textLength="143" x="193.311" y="905.3399">&#44172;&#49884;&#44544; &#51089;&#49457;/&#49688;&#51221;/&#49325;&#51228;</text></g><g id="elem_UC12"><ellipse cx="266.2589" cy="976.7218" fill="#ADD8E6" rx="87.7589" ry="19.9518" style="stroke:#00008B;stroke-width:1.0;"/><text fill="#000000" font-family="Malgun Gothic" font-size="14" lengthAdjust="spacing" textLength="129" x="198.7589" y="981.5904">&#45843;&#44544; &#51089;&#49457;/&#49688;&#51221;/&#49325;&#51228;</text></g><g id="elem_UC13"><ellipse cx="266.3229" cy="827.6167" fill="#ADD8E6" rx="55.3229" ry="16.3467" style="stroke:#00008B;stroke-width:1.0;"/><text fill="#000000" font-family="Malgun Gothic" font-size="14" lengthAdjust="spacing" textLength="61" x="232.8229" y="832.4854">&#50508;&#47548; &#51312;&#54924;</text></g><g id="elem_UC14"><ellipse cx="266.6604" cy="1164.6021" fill="#ADD8E6" rx="79.6604" ry="18.3321" style="stroke:#00008B;stroke-width:1.0;"/><text fill="#000000" font-family="Malgun Gothic" font-size="14" lengthAdjust="spacing" textLength="108" x="209.6604" y="1169.4707">&#51060;&#48292;&#53944; &#49345;&#54408; &#44288;&#47532;</text></g><g id="elem_UC15"><ellipse cx="266.6604" cy="1092.6021" fill="#ADD8E6" rx="79.6604" ry="18.3321" style="stroke:#00008B;stroke-width:1.0;"/><text fill="#000000" font-family="Malgun Gothic" font-size="14" lengthAdjust="spacing" textLength="108" x="209.6604" y="1097.4707">&#51060;&#48292;&#53944; &#49345;&#54408; &#51452;&#47928;</text></g><g id="elem_UC16"><ellipse cx="553.6088" cy="1092.5918" fill="#ADD8E6" rx="74.6088" ry="17.3218" style="stroke:#00008B;stroke-width:1.0;"/><text fill="#000000" font-family="Malgun Gothic" font-size="14" lengthAdjust="spacing" textLength="94" x="503.6088" y="1097.4604">&#51452;&#47928; &#45236;&#50669; &#51312;&#54924;</text></g><g id="elem_UC17"><ellipse cx="266.3861" cy="716.7472" fill="#ADD8E6" rx="72.8861" ry="16.9772" style="stroke:#00008B;stroke-width:1.0;"/><text fill="#000000" font-family="Malgun Gothic" font-size="14" lengthAdjust="spacing" textLength="89" x="218.8861" y="721.6159">&#44288;&#47532;&#51088; &#47196;&#44536;&#51064;</text></g><g id="elem_UC18"><ellipse cx="266.3229" cy="367.6167" fill="#ADD8E6" rx="55.3229" ry="16.3467" style="stroke:#00008B;stroke-width:1.0;"/><text fill="#000000" font-family="Malgun Gothic" font-size="14" lengthAdjust="spacing" textLength="61" x="232.8229" y="372.4854">&#54924;&#50896; &#44288;&#47532;</text></g><g id="elem_UC19"><ellipse cx="266.7274" cy="435.6959" fill="#ADD8E6" rx="65.7274" ry="16.4259" style="stroke:#00008B;stroke-width:1.0;"/><text fill="#000000" font-family="Malgun Gothic" font-size="14" lengthAdjust="spacing" textLength="75" x="226.2274" y="440.5645">&#44172;&#49884;&#54032; &#44288;&#47532;</text></g><g id="elem_UC20"><ellipse cx="266.6088" cy="504.5918" fill="#ADD8E6" rx="74.6088" ry="17.3218" style="stroke:#00008B;stroke-width:1.0;"/><text fill="#000000" font-family="Malgun Gothic" font-size="14" lengthAdjust="spacing" textLength="94" x="216.6088" y="509.4604">&#44221;&#47588; &#49345;&#54408; &#44288;&#47532;</text></g><g id="elem_UC21"><ellipse cx="266.6088" cy="574.5918" fill="#ADD8E6" rx="74.6088" ry="17.3218" style="stroke:#00008B;stroke-width:1.0;"/><text fill="#000000" font-family="Malgun Gothic" font-size="14" lengthAdjust="spacing" textLength="94" x="216.6088" y="579.4604">&#44144;&#47000; &#53685;&#44228; &#51312;&#54924;</text></g><g id="elem_UC22"><ellipse cx="266.6604" cy="645.6021" fill="#ADD8E6" rx="79.6604" ry="18.3321" style="stroke:#00008B;stroke-width:1.0;"/><text fill="#000000" font-family="Malgun Gothic" font-size="14" lengthAdjust="spacing" textLength="108" x="209.6604" y="650.4707">&#49884;&#49828;&#53596; &#49444;&#51221; &#44288;&#47532;</text></g><g id="elem_UC23"><ellipse cx="266.3202" cy="1850.734" fill="#ADD8E6" rx="77.8202" ry="17.964" style="stroke:#00008B;stroke-width:1.0;"/><text fill="#000000" font-family="Malgun Gothic" font-size="14" lengthAdjust="spacing" textLength="103" x="211.8202" y="1855.6027">&#47700;&#51064;&#54168;&#51060;&#51648; &#51312;&#54924;</text></g><g id="elem_UC24"><ellipse cx="266.4165" cy="1922.5533" fill="#ADD8E6" rx="81.9165" ry="18.7833" style="stroke:#00008B;stroke-width:1.0;"/><text fill="#000000" font-family="Malgun Gothic" font-size="14" lengthAdjust="spacing" textLength="114" x="206.4165" y="1927.422">&#44552; &#49884;&#49464;/&#45684;&#49828; &#51312;&#54924;</text></g><!--entity User--><g id="elem_User"><ellipse cx="48.5" cy="991.77" fill="#FFFFFF" rx="8" ry="8" style="stroke:#000000;stroke-width:1.0;"/><path d="M48.5,999.77 L48.5,1026.77 M35.5,1007.77 L61.5,1007.77 M48.5,1026.77 L35.5,1041.77 M48.5,1026.77 L61.5,1041.77 " fill="none" style="stroke:#000000;stroke-width:1.0;"/><text fill="#000000" font-family="Malgun Gothic" font-size="14" lengthAdjust="spacing" textLength="75" x="11" y="1059.0073">&#51068;&#48152; &#49324;&#50857;&#51088;</text></g><!--entity Seller--><g id="elem_Seller"><ellipse cx="48.5" cy="1604.77" fill="#FFFFFF" rx="8" ry="8" style="stroke:#000000;stroke-width:1.0;"/><path d="M48.5,1612.77 L48.5,1639.77 M35.5,1620.77 L61.5,1620.77 M48.5,1639.77 L35.5,1654.77 M48.5,1639.77 L61.5,1654.77 " fill="none" style="stroke:#000000;stroke-width:1.0;"/><text fill="#000000" font-family="Malgun Gothic" font-size="14" lengthAdjust="spacing" textLength="42" x="27.5" y="1672.0073">&#54032;&#47588;&#51088;</text></g><!--entity Admin--><g id="elem_Admin"><ellipse cx="48.5" cy="1106.77" fill="#FFFFFF" rx="8" ry="8" style="stroke:#000000;stroke-width:1.0;"/><path d="M48.5,1114.77 L48.5,1141.77 M35.5,1122.77 L61.5,1122.77 M48.5,1141.77 L35.5,1156.77 M48.5,1141.77 L61.5,1156.77 " fill="none" style="stroke:#000000;stroke-width:1.0;"/><text fill="#000000" font-family="Malgun Gothic" font-size="14" lengthAdjust="spacing" textLength="42" x="27.5" y="1174.0073">&#44288;&#47532;&#51088;</text></g><!--link User to UC1--><g id="link_User_UC1"><path d="M76.93,1062.83 C80.21,1068.4 83.34,1074.14 86,1079.77 C109.98,1130.46 89.34,1156.49 125,1199.77 C151.96,1232.5 190.8259,1251.743 222.5159,1263.693 " fill="none" id="User-to-UC1" style="stroke:#000000;stroke-width:1.0;"/><polygon fill="#000000" points="228.13,1265.81,221.1202,1258.8917,223.4516,1264.0458,218.2975,1266.3772,228.13,1265.81" style="stroke:#000000;stroke-width:1.0;"/></g><!--link User to UC2--><g id="link_User_UC2"><path d="M77.91,1062.81 C80.99,1068.33 83.8,1074.07 86,1079.77 C123.62,1177.32 54.25,1234.79 125,1311.77 C141.61,1329.84 160.0721,1338.1657 183.8421,1343.0357 " fill="none" id="User-to-UC2" style="stroke:#000000;stroke-width:1.0;"/><polygon fill="#000000" points="189.72,1344.24,181.706,1338.515,184.8217,1343.2364,180.1003,1346.3522,189.72,1344.24" style="stroke:#000000;stroke-width:1.0;"/></g><!--link User to UC3--><g id="link_User_UC3"><path d="M78.29,1063.05 C81.27,1068.49 83.95,1074.14 86,1079.77 C109.2,1143.57 80.03,1331.91 125,1382.77 C142.01,1402.01 161.8712,1410.5329 186.7112,1415.1529 " fill="none" id="User-to-UC3" style="stroke:#000000;stroke-width:1.0;"/><polygon fill="#000000" points="192.61,1416.25,184.4932,1410.6717,187.6943,1415.3357,183.0303,1418.5369,192.61,1416.25" style="stroke:#000000;stroke-width:1.0;"/></g><!--link User to UC5--><g id="link_User_UC5"><path d="M50.77,982.68 C55.65,842.01 75.44,377.12 125,334.77 C208.63,263.31 288.58,263.65 372.5,334.77 C530.61,468.76 428.1,588.57 449,794.77 C467.07,973.09 427.17,1429.19 479,1600.77 C491.15,1640.99 516.3995,1676.6566 534.1295,1698.7966 " fill="none" id="User-to-UC5" style="stroke:#000000;stroke-width:1.0;"/><polygon fill="#000000" points="537.88,1703.48,535.3765,1693.9546,534.7546,1699.5772,529.132,1698.9553,537.88,1703.48" style="stroke:#000000;stroke-width:1.0;"/></g><!--link User to UC7--><g id="link_User_UC7"><path d="M78.55,1062.96 C81.49,1068.41 84.09,1074.09 86,1079.77 C120.52,1182.24 54.78,1482.54 125,1564.77 C146.84,1590.34 178.3218,1598.0843 209.0818,1600.0143 " fill="none" id="User-to-UC7" style="stroke:#000000;stroke-width:1.0;"/><polygon fill="#000000" points="215.07,1600.39,206.3381,1595.8343,210.0798,1600.0769,205.8372,1603.8186,215.07,1600.39" style="stroke:#000000;stroke-width:1.0;"/></g><!--link User to UC8--><g id="link_User_UC8"><path d="M49.87,982.59 C51.69,831.48 61.9,303.39 116,253.77 C170.53,203.75 395.85,202.28 449,253.77 C486.77,290.35 472.97,1147.53 479,1199.77 C494.65,1335.29 532.7612,1489.5902 546.3412,1542.2302 " fill="none" id="User-to-UC8" style="stroke:#000000;stroke-width:1.0;"/><polygon fill="#000000" points="547.84,1548.04,549.465,1538.3261,546.591,1543.1985,541.7186,1540.3245,547.84,1548.04" style="stroke:#000000;stroke-width:1.0;"/></g><!--link User to UC9--><g id="link_User_UC9"><path d="M78.44,1062.99 C81.4,1068.44 84.03,1074.11 86,1079.77 C113.38,1158.48 78.46,1383.63 125,1452.77 C148.37,1487.48 186.9196,1506.3386 219.5296,1517.6186 " fill="none" id="User-to-UC9" style="stroke:#000000;stroke-width:1.0;"/><polygon fill="#000000" points="225.2,1519.58,218.0021,1512.8577,220.4747,1517.9455,215.3869,1520.4181,225.2,1519.58" style="stroke:#000000;stroke-width:1.0;"/></g><!--link User to UC10--><g id="link_User_UC10"><path d="M49.3,982.57 C48.86,814.22 51.47,171.76 116,111.77 C224.39,11 338.16,13.69 449,111.77 C513.61,168.94 546.2442,819.3763 551.4742,933.0463 " fill="none" id="User-to-UC10" style="stroke:#000000;stroke-width:1.0;"/><polygon fill="#000000" points="551.75,939.04,555.3321,929.8657,551.5202,934.0453,547.3406,930.2334,551.75,939.04" style="stroke:#000000;stroke-width:1.0;"/></g><!--link User to UC11--><g id="link_User_UC11"><path d="M75.5,982.35 C86.51,967.87 100.41,952.49 116,941.77 C136.95,927.35 156.9891,919.4452 181.2691,913.3752 " fill="none" id="User-to-UC11" style="stroke:#000000;stroke-width:1.0;"/><polygon fill="#000000" points="187.09,911.92,177.3886,910.2223,182.2393,913.1327,179.3289,917.9834,187.09,911.92" style="stroke:#000000;stroke-width:1.0;"/></g><!--link User to UC12--><g id="link_User_UC12"><path d="M86.14,1014.96 C117.68,1008.25 158.0315,999.6492 195.6615,991.6392 " fill="none" id="User-to-UC12" style="stroke:#000000;stroke-width:1.0;"/><polygon fill="#000000" points="201.53,990.39,191.8944,988.3514,196.6396,991.431,193.56,996.1761,201.53,990.39" style="stroke:#000000;stroke-width:1.0;"/></g><!--link User to UC13--><g id="link_User_UC13"><path d="M54.88,982.74 C62.12,945.04 78.72,889.86 116,858.77 C142.26,836.87 174.0357,829.6043 205.0357,827.3543 " fill="none" id="User-to-UC13" style="stroke:#000000;stroke-width:1.0;"/><polygon fill="#000000" points="211.02,826.92,201.7541,823.582,206.0331,827.282,202.3332,831.561,211.02,826.92" style="stroke:#000000;stroke-width:1.0;"/></g><!--link User to UC15--><g id="link_User_UC15"><path d="M86.14,1034.64 C122.85,1046.54 173.762,1063.0409 213.552,1075.9309 " fill="none" id="User-to-UC15" style="stroke:#000000;stroke-width:1.0;"/><polygon fill="#000000" points="219.26,1077.78,211.9308,1071.201,214.5034,1076.2391,209.4653,1078.8117,219.26,1077.78" style="stroke:#000000;stroke-width:1.0;"/></g><!--link User to UC16--><g id="link_User_UC16"><path d="M49.56,982.76 C50.22,823.12 56.67,237.59 116,182.77 C170.35,132.55 395.74,131.4 449,182.77 C515.42,246.83 443.95,927.4 479,1012.77 C489.6,1038.59 507.9041,1057.4447 525.3441,1072.0047 " fill="none" id="User-to-UC16" style="stroke:#000000;stroke-width:1.0;"/><polygon fill="#000000" points="529.95,1075.85,525.6047,1067.0115,526.1118,1072.6456,520.4777,1073.1527,529.95,1075.85" style="stroke:#000000;stroke-width:1.0;"/></g><!--link User to UC23--><g id="link_User_UC23"><path d="M78.68,1062.91 C81.6,1068.37 84.16,1074.07 86,1079.77 C97.85,1116.4 104.63,1739.09 125,1771.77 C145.43,1804.54 179.0365,1822.8482 210.8665,1834.6882 " fill="none" id="User-to-UC23" style="stroke:#000000;stroke-width:1.0;"/><polygon fill="#000000" points="216.49,1836.78,209.4492,1829.8932,211.8037,1835.0368,206.6601,1837.3913,216.49,1836.78" style="stroke:#000000;stroke-width:1.0;"/></g><!--link User to UC24--><g id="link_User_UC24"><path d="M78.74,1062.9 C81.64,1068.36 84.18,1074.06 86,1079.77 C129.44,1216.29 108.69,1580.69 116,1723.77 C116.92,1741.77 113.6,1871.8 125,1885.77 C139.99,1904.14 157.0537,1912.7049 180.0737,1917.8349 " fill="none" id="User-to-UC24" style="stroke:#000000;stroke-width:1.0;"/><polygon fill="#000000" points="185.93,1919.14,178.0155,1913.2781,181.0497,1918.0524,176.2754,1921.0866,185.93,1919.14" style="stroke:#000000;stroke-width:1.0;"/></g><!--link Seller to UC1--><g id="link_Seller_UC1"><path d="M53.63,1595.56 C62.42,1517.96 85.45,1351.65 125,1311.77 C147.26,1289.31 175.6802,1281.3315 204.8602,1278.3915 " fill="none" id="Seller-to-UC1" style="stroke:#000000;stroke-width:1.0;"/><polygon fill="#000000" points="210.83,1277.79,201.4744,1274.7124,205.8552,1278.2912,202.2763,1282.6721,210.83,1277.79" style="stroke:#000000;stroke-width:1.0;"/></g><!--link Seller to UC2--><g id="link_Seller_UC2"><path d="M49.93,1595.52 C52.77,1539.92 66.37,1440.08 125,1383.77 C142.71,1366.76 161.438,1358.7229 185.108,1353.7529 " fill="none" id="Seller-to-UC2" style="stroke:#000000;stroke-width:1.0;"/><polygon fill="#000000" points="190.98,1352.52,181.3501,1350.4548,186.0867,1353.5474,182.994,1358.284,190.98,1352.52" style="stroke:#000000;stroke-width:1.0;"/></g><!--link Seller to UC3--><g id="link_Seller_UC3"><path d="M64.33,1595.7 C76.92,1565.9 97.35,1525.74 125,1497.77 C153.92,1468.51 190.4408,1449.1868 220.9908,1436.0068 " fill="none" id="Seller-to-UC3" style="stroke:#000000;stroke-width:1.0;"/><polygon fill="#000000" points="226.5,1433.63,216.6517,1433.5224,221.909,1435.6107,219.8208,1440.868,226.5,1433.63" style="stroke:#000000;stroke-width:1.0;"/></g><!--link Seller to UC4--><g id="link_Seller_UC4"><path d="M69.82,1638.78 C99.96,1643.24 151.8648,1650.9305 196.8748,1657.6005 " fill="none" id="Seller-to-UC4" style="stroke:#000000;stroke-width:1.0;"/><polygon fill="#000000" points="202.81,1658.48,194.4936,1653.2039,197.864,1657.7471,193.3209,1661.1175,202.81,1658.48" style="stroke:#000000;stroke-width:1.0;"/></g><!--link Seller to UC5--><g id="link_Seller_UC5"><path d="M50.43,1676.08 C54.02,1814.24 69.23,2262.41 116,2304.77 C225.71,2404.11 335.58,2399.85 449,2304.77 C538.66,2229.6 550.5946,1833.6891 552.1646,1744.3691 " fill="none" id="Seller-to-UC5" style="stroke:#000000;stroke-width:1.0;"/><polygon fill="#000000" points="552.27,1738.37,548.1124,1747.2983,552.1821,1743.3692,556.1112,1747.4389,552.27,1738.37" style="stroke:#000000;stroke-width:1.0;"/></g><!--link Seller to UC6--><g id="link_Seller_UC6"><path d="M69.51,1658.48 C83.63,1673.17 103.76,1691.58 125,1702.77 C148.8,1715.31 171.368,1722.2475 196.428,1727.5075 " fill="none" id="Seller-to-UC6" style="stroke:#000000;stroke-width:1.0;"/><polygon fill="#000000" points="202.3,1728.74,194.3136,1722.9765,197.4066,1727.7129,192.6703,1730.8059,202.3,1728.74" style="stroke:#000000;stroke-width:1.0;"/></g><!--link Seller to UC8--><g id="link_Seller_UC8"><path d="M51.56,1675.91 C58,1793.45 79.51,2130.6 116,2162.77 C227.01,2260.65 341.11,2264.08 449,2162.77 C487.71,2126.41 462.99,1736.4 479,1685.77 C491.67,1645.7 516.768,1610.006 534.318,1587.816 " fill="none" id="Seller-to-UC8" style="stroke:#000000;stroke-width:1.0;"/><polygon fill="#000000" points="538.04,1583.11,529.3197,1587.6877,534.9383,1587.0317,535.5944,1592.6504,538.04,1583.11" style="stroke:#000000;stroke-width:1.0;"/></g><!--link Seller to UC10--><g id="link_Seller_UC10"><path d="M51.28,1675.9 C56.13,1764.64 72.95,1973.04 125,2015.77 C238.39,2108.84 384.18,2084.37 449,1952.77 C492.97,1863.51 446.86,1151.93 479,1057.77 C490.71,1023.48 513.9953,995.1179 531.8353,976.3579 " fill="none" id="Seller-to-UC10" style="stroke:#000000;stroke-width:1.0;"/><polygon fill="#000000" points="535.97,972.01,526.8694,975.7754,532.5244,975.6333,532.6666,981.2883,535.97,972.01" style="stroke:#000000;stroke-width:1.0;"/></g><!--link Seller to UC11--><g id="link_Seller_UC11"><path d="M52.59,1595.67 C63.9,1451.13 103.46,963.96 125,938.77 C138.55,922.92 152.1778,914.9777 172.2678,909.2777 " fill="none" id="Seller-to-UC11" style="stroke:#000000;stroke-width:1.0;"/><polygon fill="#000000" points="178.04,907.64,168.2899,906.2484,173.2299,909.0047,170.4735,913.9447,178.04,907.64" style="stroke:#000000;stroke-width:1.0;"/></g><!--link Seller to UC12--><g id="link_Seller_UC12"><path d="M52.68,1595.68 C62.75,1472.09 95.1,1102.53 125,1057.77 C145.95,1026.39 177.9131,1007.9329 208.9031,995.3129 " fill="none" id="Seller-to-UC12" style="stroke:#000000;stroke-width:1.0;"/><polygon fill="#000000" points="214.46,993.05,204.616,992.7398,209.8292,994.9358,207.6333,1000.149,214.46,993.05" style="stroke:#000000;stroke-width:1.0;"/></g><!--link Seller to UC13--><g id="link_Seller_UC13"><path d="M52.79,1595.52 C65.68,1438.57 112.69,875.69 125,861.77 C146.2,837.8 175.1514,829.7768 204.8814,827.2568 " fill="none" id="Seller-to-UC13" style="stroke:#000000;stroke-width:1.0;"/><polygon fill="#000000" points="210.86,826.75,201.5543,823.5244,205.8779,827.1723,202.23,831.4958,210.86,826.75" style="stroke:#000000;stroke-width:1.0;"/></g><!--link Seller to UC14--><g id="link_Seller_UC14"><path d="M53.01,1595.56 C61.35,1507.48 84.77,1300.89 125,1244.77 C147.81,1212.94 181.9015,1194.259 213.2915,1181.829 " fill="none" id="Seller-to-UC14" style="stroke:#000000;stroke-width:1.0;"/><polygon fill="#000000" points="218.87,1179.62,209.0295,1179.2145,214.2212,1181.4609,211.9749,1186.6526,218.87,1179.62" style="stroke:#000000;stroke-width:1.0;"/></g><!--link Seller to UC16--><g id="link_Seller_UC16"><path d="M48.98,1676.09 C48.63,1777.35 53.9,2038.06 116,2091.77 C227.95,2188.57 341.74,2193.75 449,2091.77 C472.95,2069 475.21,1530.59 479,1497.77 C496.47,1346.56 534.4273,1172.4524 547.1273,1116.2624 " fill="none" id="Seller-to-UC16" style="stroke:#000000;stroke-width:1.0;"/><polygon fill="#000000" points="548.45,1110.41,542.5643,1118.3067,547.3477,1115.287,550.3675,1120.0704,548.45,1110.41" style="stroke:#000000;stroke-width:1.0;"/></g><!--link Seller to UC23--><g id="link_Seller_UC23"><path d="M60.24,1675.88 C70.29,1706.95 88.03,1749.34 116,1777.77 C143.95,1806.18 179.5604,1823.1495 211.6604,1834.6295 " fill="none" id="Seller-to-UC23" style="stroke:#000000;stroke-width:1.0;"/><polygon fill="#000000" points="217.31,1836.65,210.1826,1829.8529,212.602,1834.9663,207.4887,1837.3857,217.31,1836.65" style="stroke:#000000;stroke-width:1.0;"/></g><!--link Seller to UC24--><g id="link_Seller_UC24"><path d="M54.12,1675.86 C62.63,1742.3 82.98,1870.89 116,1900.77 C135.16,1918.11 155.7357,1924.8051 181.1457,1927.1651 " fill="none" id="Seller-to-UC24" style="stroke:#000000;stroke-width:1.0;"/><polygon fill="#000000" points="187.12,1927.72,178.5285,1922.9048,182.1414,1927.2576,177.7887,1930.8705,187.12,1927.72" style="stroke:#000000;stroke-width:1.0;"/></g><!--link Admin to UC17--><g id="link_Admin_UC17"><path d="M69.53,1111.29 C75.77,1101.81 82.04,1090.74 86,1079.77 C129.39,959.51 51.73,899.54 125,794.77 C147.7,762.3 182.8233,743.9333 214.6133,732.1633 " fill="none" id="Admin-to-UC17" style="stroke:#000000;stroke-width:1.0;"/><polygon fill="#000000" points="220.24,730.08,210.4111,729.4537,215.5511,731.816,213.1887,736.956,220.24,730.08" style="stroke:#000000;stroke-width:1.0;"/></g><!--link Admin to UC18--><g id="link_Admin_UC18"><path d="M69.66,1112.05 C76.08,1102.45 82.43,1091.12 86,1079.77 C108.66,1007.79 73.99,457.37 125,401.77 C146.55,378.28 175.314,370.2659 204.864,367.6159 " fill="none" id="Admin-to-UC18" style="stroke:#000000;stroke-width:1.0;"/><polygon fill="#000000" points="210.84,367.08,201.5187,363.8999,205.86,367.5266,202.2333,371.8679,210.84,367.08" style="stroke:#000000;stroke-width:1.0;"/></g><!--link Admin to UC19--><g id="link_Admin_UC19"><path d="M69.63,1112.03 C76.04,1102.44 82.39,1091.11 86,1079.77 C106.58,1015.04 78.82,519.56 125,469.77 C144.28,448.98 167.9732,440.7069 195.0632,437.0769 " fill="none" id="Admin-to-UC19" style="stroke:#000000;stroke-width:1.0;"/><polygon fill="#000000" points="201.01,436.28,191.5585,433.5107,196.0543,436.9441,192.621,441.4399,201.01,436.28" style="stroke:#000000;stroke-width:1.0;"/></g><!--link Admin to UC20--><g id="link_Admin_UC20"><path d="M69.58,1112.02 C75.98,1102.42 82.35,1091.09 86,1079.77 C122.91,965.26 43.61,628.37 125,539.77 C142.26,520.98 162.0172,512.6658 186.7072,508.1658 " fill="none" id="Admin-to-UC20" style="stroke:#000000;stroke-width:1.0;"/><polygon fill="#000000" points="192.61,507.09,183.0386,504.7686,187.691,507.9865,184.4731,512.6389,192.61,507.09" style="stroke:#000000;stroke-width:1.0;"/></g><!--link Admin to UC21--><g id="link_Admin_UC21"><path d="M69.51,1112 C75.91,1102.39 82.29,1091.07 86,1079.77 C118.7,980.2 54.41,687.23 125,609.77 C142.19,590.91 161.9264,582.5712 186.6164,578.0912 " fill="none" id="Admin-to-UC21" style="stroke:#000000;stroke-width:1.0;"/><polygon fill="#000000" points="192.52,577.02,182.9505,574.6911,187.6003,577.9127,184.3787,582.5625,192.52,577.02" style="stroke:#000000;stroke-width:1.0;"/></g><!--link Admin to UC22--><g id="link_Admin_UC22"><path d="M69.54,1111.66 C75.86,1102.11 82.19,1090.91 86,1079.77 C114.77,995.69 67.15,749.23 125,681.77 C140.74,663.42 158.5567,654.9967 182.0167,650.0967 " fill="none" id="Admin-to-UC22" style="stroke:#000000;stroke-width:1.0;"/><polygon fill="#000000" points="187.89,648.87,178.2623,646.7946,182.9956,649.8923,179.8979,654.6256,187.89,648.87" style="stroke:#000000;stroke-width:1.0;"/></g><!--link Admin to UC5--><g id="link_Admin_UC5"><path d="M52.84,1177.83 C67.11,1349.08 122.42,2011.11 125,2015.77 C196.42,2144.58 250.28,2168.15 390,2214.77 C414.87,2223.07 428.65,2231.3 449,2214.77 C525.44,2152.69 547.1147,1824.8517 551.3547,1744.2717 " fill="none" id="Admin-to-UC5" style="stroke:#000000;stroke-width:1.0;"/><polygon fill="#000000" points="551.67,1738.28,547.2026,1747.0574,551.4073,1743.2731,555.1916,1747.4777,551.67,1738.28" style="stroke:#000000;stroke-width:1.0;"/></g><!--link Admin to UC10--><g id="link_Admin_UC10"><path d="M52.82,1177.79 C66.44,1341.42 117.64,1951.15 125,1957.77 C206.82,2031.29 281.11,2018.99 372.5,1957.77 C446.76,1908.02 429.83,1859.07 449,1771.77 C483.05,1616.65 427.06,1207.84 479,1057.77 C490.85,1023.53 514.1126,995.1548 531.9026,976.3848 " fill="none" id="Admin-to-UC10" style="stroke:#000000;stroke-width:1.0;"/><polygon fill="#000000" points="536.03,972.03,526.9356,975.8106,532.5905,975.659,532.7421,981.3138,536.03,972.03" style="stroke:#000000;stroke-width:1.0;"/></g><!--link Admin to UC14--><g id="link_Admin_UC14"><path d="M69.82,1140.31 C98.49,1143.89 146.2664,1149.8656 190.1764,1155.3556 " fill="none" id="Admin-to-UC14" style="stroke:#000000;stroke-width:1.0;"/><polygon fill="#000000" points="196.13,1156.1,187.6958,1151.0143,191.1686,1155.4797,186.7033,1158.9525,196.13,1156.1" style="stroke:#000000;stroke-width:1.0;"/></g><!--link Admin to UC23--><g id="link_Admin_UC23"><path d="M53.16,1178.1 C65.65,1314 106.79,1748.06 125,1771.77 C149.04,1803.06 183.6412,1821.6317 214.8912,1834.0017 " fill="none" id="Admin-to-UC23" style="stroke:#000000;stroke-width:1.0;"/><polygon fill="#000000" points="220.47,1836.21,213.574,1829.1783,215.821,1834.3697,210.6295,1836.6167,220.47,1836.21" style="stroke:#000000;stroke-width:1.0;"/></g><!--link Admin to UC24--><g id="link_Admin_UC24"><path d="M52.92,1177.79 C65.48,1324.53 108.75,1826.18 116,1859.77 C118.58,1871.72 116.03,1877.45 125,1885.77 C142.39,1901.89 160.1034,1909.8122 182.9634,1915.0822 " fill="none" id="Admin-to-UC24" style="stroke:#000000;stroke-width:1.0;"/><polygon fill="#000000" points="188.81,1916.43,180.9386,1910.5105,183.9378,1915.3068,179.1415,1918.306,188.81,1916.43" style="stroke:#000000;stroke-width:1.0;"/></g><!--link UC7 to UC8--><g id="link_UC7_UC8"><path d="M317.1,1601.94 C353.76,1603.38 404.76,1603.5 449,1596.77 C470.51,1593.49 488.0864,1588.7129 507.0964,1582.3929 " fill="none" id="UC7-to-UC8" style="stroke:#000000;stroke-width:1.0;stroke-dasharray:7.0,7.0;"/><polygon fill="#000000" points="512.79,1580.5,502.9877,1579.5436,508.0453,1582.0774,505.5115,1587.135,512.79,1580.5" style="stroke:#000000;stroke-width:1.0;"/><text fill="#000000" font-family="Malgun Gothic" font-size="13" lengthAdjust="spacing" textLength="54" x="392.5" y="1592.9189">&#171;extend&#187;</text></g><!--link UC9 to UC8--><g id="link_UC9_UC8"><path d="M318.12,1536.98 C365.23,1542.77 429.7348,1550.6884 481.0948,1556.9984 " fill="none" id="UC9-to-UC8" style="stroke:#000000;stroke-width:1.0;stroke-dasharray:7.0,7.0;"/><polygon fill="#000000" points="487.05,1557.73,478.6049,1552.6624,482.0873,1557.1203,477.6294,1560.6027,487.05,1557.73" style="stroke:#000000;stroke-width:1.0;"/><text fill="#000000" font-family="Malgun Gothic" font-size="13" lengthAdjust="spacing" textLength="54" x="392.5" y="1542.9189">&#171;extend&#187;</text></g><!--link UC15 to UC16--><g id="link_UC15_UC16"><path d="M346.13,1092.77 C387.49,1092.77 431.89,1092.77 472.53,1092.77 " fill="none" id="UC15-to-UC16" style="stroke:#000000;stroke-width:1.0;stroke-dasharray:7.0,7.0;"/><polygon fill="#000000" points="478.53,1092.77,469.53,1088.77,473.53,1092.77,469.53,1096.77,478.53,1092.77" style="stroke:#000000;stroke-width:1.0;"/><text fill="#000000" font-family="Malgun Gothic" font-size="13" lengthAdjust="spacing" textLength="54" x="392.5" y="1088.9189">&#171;extend&#187;</text></g><!--link UC4 to UC5--><g id="link_UC4_UC5"><path d="M326.38,1678.3 C361.91,1684.7 408.08,1693.09 449,1700.77 C464.11,1703.6 474.5587,1705.593 489.6887,1708.513 " fill="none" id="UC4-to-UC5" style="stroke:#000000;stroke-width:1.0;stroke-dasharray:7.0,7.0;"/><polygon fill="#000000" points="495.58,1709.65,487.5011,1704.017,490.6706,1708.7025,485.9851,1711.872,495.58,1709.65" style="stroke:#000000;stroke-width:1.0;"/><text fill="#000000" font-family="Malgun Gothic" font-size="13" lengthAdjust="spacing" textLength="57" x="391" y="1686.9189">&#171;include&#187;</text></g><!--link UC6 to UC5--><g id="link_UC6_UC5"><path d="M339.05,1733.5 C382.42,1730.91 431.5606,1727.9763 474.9306,1725.3963 " fill="none" id="UC6-to-UC5" style="stroke:#000000;stroke-width:1.0;stroke-dasharray:7.0,7.0;"/><polygon fill="#000000" points="480.92,1725.04,471.6984,1721.5815,475.9288,1725.3369,472.1734,1729.5674,480.92,1725.04" style="stroke:#000000;stroke-width:1.0;"/><text fill="#000000" font-family="Malgun Gothic" font-size="13" lengthAdjust="spacing" textLength="57" x="391" y="1723.9189">&#171;include&#187;</text></g><!--link UC11 to UC10--><g id="link_UC11_UC10"><path d="M337.95,914.36 C388.39,924.1 449.2786,935.8538 494.8586,944.6438 " fill="none" id="UC11-to-UC10" style="stroke:#000000;stroke-width:1.0;stroke-dasharray:7.0,7.0;"/><polygon fill="#000000" points="500.75,945.78,492.6703,940.1481,495.8405,944.8332,491.1554,948.0034,500.75,945.78" style="stroke:#000000;stroke-width:1.0;"/><text fill="#000000" font-family="Malgun Gothic" font-size="13" lengthAdjust="spacing" textLength="57" x="391" y="921.9189">&#171;include&#187;</text></g><!--SRC=[bLNBJjj05DtxAwRPT0Lad7U5a0fLkscxgVe1Lc92XB6HuqYLAgGKGWKqQjFIg2aa4QZX9GKfaA1cGN_8C_w7tlY5Px19crMExfbxpxdtplYHiIAloMXTaKggK5ujgUkIBgsXWhmiLHJZkQOQhoM8nrv9Ih6YeXUQiLBAnmBCIbdEIsKPlHSG_1Qb_6fHrofgOKbJD1szB1LNZ4Mb8ZjHJI_8kXDv9kchTc1341HvsK26XlG96nLAkfmtIfeg25BU06gCTcx9e8NePfyUND1k8uQaCdfRbdMFODKRvApdHTx8Yd8NCqTLSjhtOayBQs1Kc5IGrA82pipXETblqzO9tOOIdzfqhsTjjsDWoDQy3ewa8l2iWpezR20dNSprE_bv7V0PWohjRZiQb_1z6Zbkcx_7j3EUS_yrQ_Hmo-MBaMdfKPCCHtvzcvsmsHkSKlFw3tI3zN8lgqVQ-c1zsq5a_ueSTzoioMbiUZm0KIuxDOtDA4xVPqEpw61WDLlcUE2oCb4iH3P7zCSbgo0RmZxT1Vl8lEc349UMYsXM7PYmG5FxvVE2jN4yYcgEguXslzBQrHpTQS7qvkZc9JrgUmV3DgE-F-rKo7xGPfsStdAo8ZPZU0CjePqHkUvPU-DGetuqT7uu-GydwAzRqXzx9q8Mn2643XEdmvLxjnZ1bf2za_0P-IJ_ZdbPCz7NbR6NVMZoB3NtNuilXYtArO1qMyZwU6CEQsmRn93ry1SKqLeFLeCh84QD7F8_r3LoyHqQPNrkmHpfMPNJaGYHFTwnBqiDNh3T4KZYZYHT8I3bCUBVxebeS2jCdcyqCxDWlv4180P18WXIGP09WcmGv9ZKSGOnbJ1J2ZErC5CCTZAea662Mt3fVu0yUyuto3V8G9652HOcMPXYOPg5MQvGdCDSPSoLnbnjp1N7N3cHuplc0tVJCMz_PBqK6HPcMPXZ85mI1c8MYWnCiPdOe-24EPfWeJEqdqtQFV4NSYc3PcVjfg8dQ7vUVcV8Qc5X0GAvg01EkH6SPaEJx5_wLlFyBdlIfQPiPadDAvM2R6T9HqOmzlB7kTXV]--></g></svg>