<?xml version="1.0" encoding="us-ascii" standalone="no"?><svg xmlns="http://www.w3.org/2000/svg" xmlns:xlink="http://www.w3.org/1999/xlink" contentStyleType="text/css" height="683px" preserveAspectRatio="none" style="width:952px;height:683px;background:#FFFFFF;" version="1.1" viewBox="0 0 952 683" width="952px" zoomAndPan="magnify"><defs/><g><text fill="#000000" font-family="Malgun Gothic" font-size="16" font-weight="bold" lengthAdjust="spacing" textLength="210" x="365.75" y="32.4141">&#44264;&#46300;&#50725;&#49496; &#51452;&#50836; &#53580;&#51060;&#48660; &#44288;&#44228;&#46020;</text><!--class Member--><g id="elem_Member"><rect codeLine="16" fill="#FFFFFF" height="172.3086" id="Member" rx="7.5" ry="7.5" style="stroke:#000000;stroke-width:1.0;" width="88" x="368.5" y="54.2813"/><ellipse cx="385.55" cy="73.9121" fill="#FFFFFF" rx="9" ry="9" style="stroke:#000000;stroke-width:1.0;"/><path d="M382.0656,78.9121 L382.0656,68.8965 L389.5031,68.8965 L389.5031,70.584 L384.0969,70.584 L384.0969,72.8027 L389.1281,72.8027 L389.1281,74.4902 L384.0969,74.4902 L384.0969,77.2246 L389.6906,77.2246 L389.6906,78.9121 L382.0656,78.9121 Z " fill="#000000"/><text fill="#000000" font-family="Malgun Gothic" font-size="11" lengthAdjust="spacing" textLength="51" x="398.45" y="71.2534">MEMBER1</text><text fill="#000000" font-family="Malgun Gothic" font-size="11" lengthAdjust="spacing" textLength="28" x="409.95" y="85.8843">(&#54924;&#50896;)</text><line style="stroke:#000000;stroke-width:1.0;" x1="369.5" x2="455.5" y1="93.543" y2="93.543"/><ellipse cx="379.5" cy="106.3584" fill="#FFFFFF" rx="3" ry="3" style="stroke:#000000;stroke-width:1.0;"/><text fill="#000000" font-family="Malgun Gothic" font-size="11" lengthAdjust="spacing" textLength="40" x="386.5" y="109.5151">ID &#171;PK&#187;</text><line style="stroke:#000000;stroke-width:1.0;" x1="369.5" x2="455.5" y1="116.1738" y2="116.1738"/><text fill="#000000" font-family="Malgun Gothic" font-size="11" lengthAdjust="spacing" textLength="31" x="374.5" y="132.146">NAME</text><text fill="#000000" font-family="Malgun Gothic" font-size="11" lengthAdjust="spacing" textLength="56" x="374.5" y="146.7769">NICKNAME</text><text fill="#000000" font-family="Malgun Gothic" font-size="11" lengthAdjust="spacing" textLength="24" x="374.5" y="161.4077">PWD</text><text fill="#000000" font-family="Malgun Gothic" font-size="11" lengthAdjust="spacing" textLength="31" x="374.5" y="176.0386">EMAIL</text><text fill="#000000" font-family="Malgun Gothic" font-size="11" lengthAdjust="spacing" textLength="17" x="374.5" y="190.6694">TEL</text><text fill="#000000" font-family="Malgun Gothic" font-size="11" lengthAdjust="spacing" textLength="30" x="374.5" y="205.3003">ADDR</text><text fill="#000000" font-family="Malgun Gothic" font-size="11" lengthAdjust="spacing" textLength="76" x="374.5" y="219.9312">IS_SUSPENDED</text></g><!--class Imageboard--><g id="elem_Imageboard"><rect codeLine="28" fill="#FFFFFF" height="186.9395" id="Imageboard" rx="7.5" ry="7.5" style="stroke:#000000;stroke-width:1.0;" width="129" x="12" y="286.2813"/><ellipse cx="35.8" cy="305.9121" fill="#FFFFFF" rx="9" ry="9" style="stroke:#000000;stroke-width:1.0;"/><path d="M32.3156,310.9121 L32.3156,300.8965 L39.7531,300.8965 L39.7531,302.584 L34.3469,302.584 L34.3469,304.8027 L39.3781,304.8027 L39.3781,306.4902 L34.3469,306.4902 L34.3469,309.2246 L39.9406,309.2246 L39.9406,310.9121 L32.3156,310.9121 Z " fill="#000000"/><text fill="#000000" font-family="Malgun Gothic" font-size="11" lengthAdjust="spacing" textLength="77" x="50.2" y="303.2534">IMAGEBOARD1</text><text fill="#000000" font-family="Malgun Gothic" font-size="11" lengthAdjust="spacing" textLength="54" x="61.7" y="317.8843">(&#44221;&#47588; &#49345;&#54408;)</text><line style="stroke:#000000;stroke-width:1.0;" x1="13" x2="140" y1="325.543" y2="325.543"/><ellipse cx="23" cy="338.3584" fill="#FFFFFF" rx="3" ry="3" style="stroke:#000000;stroke-width:1.0;"/><text fill="#000000" font-family="Malgun Gothic" font-size="11" lengthAdjust="spacing" textLength="50" x="30" y="341.5151">SEQ &#171;PK&#187;</text><line style="stroke:#000000;stroke-width:1.0;" x1="13" x2="140" y1="348.1738" y2="348.1738"/><text fill="#000000" font-family="Malgun Gothic" font-size="11" lengthAdjust="spacing" textLength="73" x="18" y="364.146">IMAGEID &#171;FK&#187;</text><text fill="#000000" font-family="Malgun Gothic" font-size="11" lengthAdjust="spacing" textLength="65" x="18" y="378.7769">IMAGENAME</text><text fill="#000000" font-family="Malgun Gothic" font-size="11" lengthAdjust="spacing" textLength="63" x="18" y="393.4077">IMAGEPRICE</text><text fill="#000000" font-family="Malgun Gothic" font-size="11" lengthAdjust="spacing" textLength="80" x="18" y="408.0386">MAX_BID_PRICE</text><text fill="#000000" font-family="Malgun Gothic" font-size="11" lengthAdjust="spacing" textLength="56" x="18" y="422.6694">CATEGORY</text><text fill="#000000" font-family="Malgun Gothic" font-size="11" lengthAdjust="spacing" textLength="39" x="18" y="437.3003">STATUS</text><text fill="#000000" font-family="Malgun Gothic" font-size="11" lengthAdjust="spacing" textLength="117" x="18" y="451.9312">AUCTION_START_DATE</text><text fill="#000000" font-family="Malgun Gothic" font-size="11" lengthAdjust="spacing" textLength="107" x="18" y="466.562">AUCTION_END_DATE</text></g><!--class Bid--><g id="elem_Bid"><rect codeLine="41" fill="#FFFFFF" height="143.0469" id="Bid" rx="7.5" ry="7.5" style="stroke:#000000;stroke-width:1.0;" width="137" x="166" y="533.2813"/><ellipse cx="216.75" cy="552.9121" fill="#FFFFFF" rx="9" ry="9" style="stroke:#000000;stroke-width:1.0;"/><path d="M213.2656,557.9121 L213.2656,547.8965 L220.7031,547.8965 L220.7031,549.584 L215.2969,549.584 L215.2969,551.8027 L220.3281,551.8027 L220.3281,553.4902 L215.2969,553.4902 L215.2969,556.2246 L220.8906,556.2246 L220.8906,557.9121 L213.2656,557.9121 Z " fill="#000000"/><text fill="#000000" font-family="Malgun Gothic" font-size="11" lengthAdjust="spacing" textLength="23" x="236.75" y="550.2534">BID1</text><text fill="#000000" font-family="Malgun Gothic" font-size="11" lengthAdjust="spacing" textLength="28" x="234.25" y="564.8843">(&#51077;&#52272;)</text><line style="stroke:#000000;stroke-width:1.0;" x1="167" x2="302" y1="572.543" y2="572.543"/><ellipse cx="177" cy="585.3584" fill="#FFFFFF" rx="3" ry="3" style="stroke:#000000;stroke-width:1.0;"/><text fill="#000000" font-family="Malgun Gothic" font-size="11" lengthAdjust="spacing" textLength="72" x="184" y="588.5151">BID_SEQ &#171;PK&#187;</text><line style="stroke:#000000;stroke-width:1.0;" x1="167" x2="302" y1="595.1738" y2="595.1738"/><text fill="#000000" font-family="Malgun Gothic" font-size="11" lengthAdjust="spacing" textLength="125" x="172" y="611.146">IMAGEBOARD_SEQ &#171;FK&#187;</text><text fill="#000000" font-family="Malgun Gothic" font-size="11" lengthAdjust="spacing" textLength="82" x="172" y="625.7769">BIDDER_ID &#171;FK&#187;</text><text fill="#000000" font-family="Malgun Gothic" font-size="11" lengthAdjust="spacing" textLength="70" x="172" y="640.4077">BID_AMOUNT</text><text fill="#000000" font-family="Malgun Gothic" font-size="11" lengthAdjust="spacing" textLength="47" x="172" y="655.0386">BID_TIME</text><text fill="#000000" font-family="Malgun Gothic" font-size="11" lengthAdjust="spacing" textLength="39" x="172" y="669.6694">STATUS</text></g><!--class Board--><g id="elem_Board"><rect codeLine="51" fill="#FFFFFF" height="128.416" id="Board" rx="7.5" ry="7.5" style="stroke:#000000;stroke-width:1.0;" width="116" x="663.5" y="76.2813"/><ellipse cx="696.75" cy="95.9121" fill="#FFFFFF" rx="9" ry="9" style="stroke:#000000;stroke-width:1.0;"/><path d="M693.2656,100.9121 L693.2656,90.8965 L700.7031,90.8965 L700.7031,92.584 L695.2969,92.584 L695.2969,94.8027 L700.3281,94.8027 L700.3281,96.4902 L695.2969,96.4902 L695.2969,99.2246 L700.8906,99.2246 L700.8906,100.9121 L693.2656,100.9121 Z " fill="#000000"/><text fill="#000000" font-family="Malgun Gothic" font-size="11" lengthAdjust="spacing" textLength="43" x="713.25" y="93.2534">BOARD1</text><text fill="#000000" font-family="Malgun Gothic" font-size="11" lengthAdjust="spacing" textLength="39" x="715.25" y="107.8843">(&#44172;&#49884;&#54032;)</text><line style="stroke:#000000;stroke-width:1.0;" x1="664.5" x2="778.5" y1="115.543" y2="115.543"/><ellipse cx="674.5" cy="128.3584" fill="#FFFFFF" rx="3" ry="3" style="stroke:#000000;stroke-width:1.0;"/><text fill="#000000" font-family="Malgun Gothic" font-size="11" lengthAdjust="spacing" textLength="92" x="681.5" y="131.5151">BOARD_SEQ &#171;PK&#187;</text><line style="stroke:#000000;stroke-width:1.0;" x1="664.5" x2="778.5" y1="138.1738" y2="138.1738"/><text fill="#000000" font-family="Malgun Gothic" font-size="11" lengthAdjust="spacing" textLength="73" x="669.5" y="154.146">BOARD_NAME</text><text fill="#000000" font-family="Malgun Gothic" font-size="11" lengthAdjust="spacing" textLength="66" x="669.5" y="168.7769">BOARD_TYPE</text><text fill="#000000" font-family="Malgun Gothic" font-size="11" lengthAdjust="spacing" textLength="98" x="669.5" y="183.4077">BOARD_CATEGORY</text><text fill="#000000" font-family="Malgun Gothic" font-size="11" lengthAdjust="spacing" textLength="50" x="669.5" y="198.0386">IS_ACTIVE</text></g><!--class BoardPost--><g id="elem_BoardPost"><rect codeLine="60" fill="#FFFFFF" height="157.6777" id="BoardPost" rx="7.5" ry="7.5" style="stroke:#000000;stroke-width:1.0;" width="106" x="515.5" y="300.7813"/><ellipse cx="529.85" cy="320.4121" fill="#FFFFFF" rx="9" ry="9" style="stroke:#000000;stroke-width:1.0;"/><path d="M526.3656,325.4121 L526.3656,315.3965 L533.8031,315.3965 L533.8031,317.084 L528.3969,317.084 L528.3969,319.3027 L533.4281,319.3027 L533.4281,320.9902 L528.3969,320.9902 L528.3969,323.7246 L533.9906,323.7246 L533.9906,325.4121 L526.3656,325.4121 Z " fill="#000000"/><text fill="#000000" font-family="Malgun Gothic" font-size="11" lengthAdjust="spacing" textLength="75" x="542.15" y="317.7534">BOARD_POST1</text><text fill="#000000" font-family="Malgun Gothic" font-size="11" lengthAdjust="spacing" textLength="39" x="560.15" y="332.3843">(&#44172;&#49884;&#44544;)</text><line style="stroke:#000000;stroke-width:1.0;" x1="516.5" x2="620.5" y1="340.043" y2="340.043"/><ellipse cx="526.5" cy="352.8584" fill="#FFFFFF" rx="3" ry="3" style="stroke:#000000;stroke-width:1.0;"/><text fill="#000000" font-family="Malgun Gothic" font-size="11" lengthAdjust="spacing" textLength="82" x="533.5" y="356.0151">POST_SEQ &#171;PK&#187;</text><line style="stroke:#000000;stroke-width:1.0;" x1="516.5" x2="620.5" y1="362.6738" y2="362.6738"/><text fill="#000000" font-family="Malgun Gothic" font-size="11" lengthAdjust="spacing" textLength="91" x="521.5" y="378.646">BOARD_SEQ &#171;FK&#187;</text><text fill="#000000" font-family="Malgun Gothic" font-size="11" lengthAdjust="spacing" textLength="89" x="521.5" y="393.2769">MEMBER_ID &#171;FK&#187;</text><text fill="#000000" font-family="Malgun Gothic" font-size="11" lengthAdjust="spacing" textLength="58" x="521.5" y="407.9077">POST_TITLE</text><text fill="#000000" font-family="Malgun Gothic" font-size="11" lengthAdjust="spacing" textLength="82" x="521.5" y="422.5386">POST_CONTENT</text><text fill="#000000" font-family="Malgun Gothic" font-size="11" lengthAdjust="spacing" textLength="69" x="521.5" y="437.1694">VIEW_COUNT</text><text fill="#000000" font-family="Malgun Gothic" font-size="11" lengthAdjust="spacing" textLength="53" x="521.5" y="451.8003">IS_NOTICE</text></g><!--class EventProduct--><g id="elem_EventProduct"><rect codeLine="71" fill="#FFFFFF" height="143.0469" id="EventProduct" rx="7.5" ry="7.5" style="stroke:#000000;stroke-width:1.0;" width="130" x="656.5" y="308.2813"/><ellipse cx="672.65" cy="327.9121" fill="#FFFFFF" rx="9" ry="9" style="stroke:#000000;stroke-width:1.0;"/><path d="M669.1656,332.9121 L669.1656,322.8965 L676.6031,322.8965 L676.6031,324.584 L671.1969,324.584 L671.1969,326.8027 L676.2281,326.8027 L676.2281,328.4902 L671.1969,328.4902 L671.1969,331.2246 L676.7906,331.2246 L676.7906,332.9121 L669.1656,332.9121 Z " fill="#000000"/><text fill="#000000" font-family="Malgun Gothic" font-size="11" lengthAdjust="spacing" textLength="95" x="685.35" y="325.2534">EVENT_PRODUCT1</text><text fill="#000000" font-family="Malgun Gothic" font-size="11" lengthAdjust="spacing" textLength="61" x="702.35" y="339.8843">(&#44277;&#44396;&#51060;&#48292;&#53944;)</text><line style="stroke:#000000;stroke-width:1.0;" x1="657.5" x2="785.5" y1="347.543" y2="347.543"/><ellipse cx="667.5" cy="360.3584" fill="#FFFFFF" rx="3" ry="3" style="stroke:#000000;stroke-width:1.0;"/><text fill="#000000" font-family="Malgun Gothic" font-size="11" lengthAdjust="spacing" textLength="106" x="674.5" y="363.5151">PRODUCT_SEQ &#171;PK&#187;</text><line style="stroke:#000000;stroke-width:1.0;" x1="657.5" x2="785.5" y1="370.1738" y2="370.1738"/><text fill="#000000" font-family="Malgun Gothic" font-size="11" lengthAdjust="spacing" textLength="91" x="662.5" y="386.146">BOARD_SEQ &#171;FK&#187;</text><text fill="#000000" font-family="Malgun Gothic" font-size="11" lengthAdjust="spacing" textLength="87" x="662.5" y="400.7769">PRODUCT_NAME</text><text fill="#000000" font-family="Malgun Gothic" font-size="11" lengthAdjust="spacing" textLength="58" x="662.5" y="415.4077">SALE_PRICE</text><text fill="#000000" font-family="Malgun Gothic" font-size="11" lengthAdjust="spacing" textLength="93" x="662.5" y="430.0386">STOCK_QUANTITY</text><text fill="#000000" font-family="Malgun Gothic" font-size="11" lengthAdjust="spacing" textLength="77" x="662.5" y="444.6694">EVENT_STATUS</text></g><!--class EventOrder--><g id="elem_EventOrder"><rect codeLine="81" fill="#FFFFFF" height="143.0469" id="EventOrder" rx="7.5" ry="7.5" style="stroke:#000000;stroke-width:1.0;" width="117" x="533" y="533.2813"/><ellipse cx="549.6" cy="552.9121" fill="#FFFFFF" rx="9" ry="9" style="stroke:#000000;stroke-width:1.0;"/><path d="M546.1156,557.9121 L546.1156,547.8965 L553.5531,547.8965 L553.5531,549.584 L548.1469,549.584 L548.1469,551.8027 L553.1781,551.8027 L553.1781,553.4902 L548.1469,553.4902 L548.1469,556.2246 L553.7406,556.2246 L553.7406,557.9121 L546.1156,557.9121 Z " fill="#000000"/><text fill="#000000" font-family="Malgun Gothic" font-size="11" lengthAdjust="spacing" textLength="81" x="562.4" y="550.2534">EVENT_ORDER1</text><text fill="#000000" font-family="Malgun Gothic" font-size="11" lengthAdjust="spacing" textLength="28" x="588.9" y="564.8843">(&#51452;&#47928;)</text><line style="stroke:#000000;stroke-width:1.0;" x1="534" x2="649" y1="572.543" y2="572.543"/><ellipse cx="544" cy="585.3584" fill="#FFFFFF" rx="3" ry="3" style="stroke:#000000;stroke-width:1.0;"/><text fill="#000000" font-family="Malgun Gothic" font-size="11" lengthAdjust="spacing" textLength="92" x="551" y="588.5151">ORDER_SEQ &#171;PK&#187;</text><line style="stroke:#000000;stroke-width:1.0;" x1="534" x2="649" y1="595.1738" y2="595.1738"/><text fill="#000000" font-family="Malgun Gothic" font-size="11" lengthAdjust="spacing" textLength="105" x="539" y="611.146">PRODUCT_SEQ &#171;FK&#187;</text><text fill="#000000" font-family="Malgun Gothic" font-size="11" lengthAdjust="spacing" textLength="89" x="539" y="625.7769">MEMBER_ID &#171;FK&#187;</text><text fill="#000000" font-family="Malgun Gothic" font-size="11" lengthAdjust="spacing" textLength="95" x="539" y="640.4077">ORDER_QUANTITY</text><text fill="#000000" font-family="Malgun Gothic" font-size="11" lengthAdjust="spacing" textLength="71" x="539" y="655.0386">ORDER_PRICE</text><text fill="#000000" font-family="Malgun Gothic" font-size="11" lengthAdjust="spacing" textLength="81" x="539" y="669.6694">ORDER_STATUS</text></g><!--class Manager--><g id="elem_Manager"><rect codeLine="91" fill="#FFFFFF" height="113.7852" id="Manager" rx="7.5" ry="7.5" style="stroke:#000000;stroke-width:1.0;" width="122" x="814.5" y="83.2813"/><ellipse cx="843.25" cy="102.9121" fill="#FFFFFF" rx="9" ry="9" style="stroke:#000000;stroke-width:1.0;"/><path d="M839.7656,107.9121 L839.7656,97.8965 L847.2031,97.8965 L847.2031,99.584 L841.7969,99.584 L841.7969,101.8027 L846.8281,101.8027 L846.8281,103.4902 L841.7969,103.4902 L841.7969,106.2246 L847.3906,106.2246 L847.3906,107.9121 L839.7656,107.9121 Z " fill="#000000"/><text fill="#000000" font-family="Malgun Gothic" font-size="11" lengthAdjust="spacing" textLength="59" x="858.75" y="100.2534">MANAGER1</text><text fill="#000000" font-family="Malgun Gothic" font-size="11" lengthAdjust="spacing" textLength="39" x="868.75" y="114.8843">(&#44288;&#47532;&#51088;)</text><line style="stroke:#000000;stroke-width:1.0;" x1="815.5" x2="935.5" y1="122.543" y2="122.543"/><ellipse cx="825.5" cy="135.3584" fill="#FFFFFF" rx="3" ry="3" style="stroke:#000000;stroke-width:1.0;"/><text fill="#000000" font-family="Malgun Gothic" font-size="11" lengthAdjust="spacing" textLength="98" x="832.5" y="138.5151">MANAGER_ID &#171;PK&#187;</text><line style="stroke:#000000;stroke-width:1.0;" x1="815.5" x2="935.5" y1="145.1738" y2="145.1738"/><text fill="#000000" font-family="Malgun Gothic" font-size="11" lengthAdjust="spacing" textLength="89" x="820.5" y="161.146">MANAGER_NAME</text><text fill="#000000" font-family="Malgun Gothic" font-size="11" lengthAdjust="spacing" textLength="82" x="820.5" y="175.7769">MANAGER_PWD</text><text fill="#000000" font-family="Malgun Gothic" font-size="11" lengthAdjust="spacing" textLength="85" x="820.5" y="190.4077">MANAGER_ROLE</text></g><g id="elem_GMN18"><path d="M492,113.2813 L492,136.2813 L456.6,140.2813 L492,144.2813 L492,166.8047 A7.5,7.5 0 0 0 499.5,174.3047 L599.5,174.3047 A7.5,7.5 0 0 0 607,166.8047 L607,115.7813 L597,105.7813 L499.5,105.7813 A7.5,7.5 0 0 0 492,113.2813 " fill="#FFFFFF" style="stroke:#000000;stroke-width:1.0;"/><path d="M597,105.7813 L597,112.0313 A3.75,3.75 0 0 0 600.75,115.7813 L607,115.7813 L597,105.7813 " fill="#FFFFFF" style="stroke:#000000;stroke-width:1.0;"/><text fill="#000000" font-family="Malgun Gothic" font-size="11" font-weight="bold" lengthAdjust="spacing" textLength="59" x="498" y="122.7534">&#54924;&#50896; &#53580;&#51060;&#48660;</text><text fill="#000000" font-family="Malgun Gothic" font-size="11" lengthAdjust="spacing" textLength="94" x="498" y="137.3843">- &#54924;&#50896; &#44032;&#51077;/&#47196;&#44536;&#51064;</text><text fill="#000000" font-family="Malgun Gothic" font-size="11" lengthAdjust="spacing" textLength="83" x="498" y="152.0151">- &#44228;&#51221; &#51221;&#51648; &#44288;&#47532;</text><text fill="#000000" font-family="Malgun Gothic" font-size="11" lengthAdjust="spacing" textLength="68" x="498" y="166.646">- &#45769;&#45348;&#51076; &#54364;&#49884;</text></g><g id="elem_GMN21"><path d="M176.5,345.7813 L176.5,376.2813 L141.08,380.2813 L176.5,384.2813 L176.5,413.9355 A7.5,7.5 0 0 0 184,421.4355 L331,421.4355 A7.5,7.5 0 0 0 338.5,413.9355 L338.5,348.2813 L328.5,338.2813 L184,338.2813 A7.5,7.5 0 0 0 176.5,345.7813 " fill="#FFFFFF" style="stroke:#000000;stroke-width:1.0;"/><path d="M328.5,338.2813 L328.5,344.5313 A3.75,3.75 0 0 0 332.25,348.2813 L338.5,348.2813 L328.5,338.2813 " fill="#FFFFFF" style="stroke:#000000;stroke-width:1.0;"/><text fill="#000000" font-family="Malgun Gothic" font-size="11" font-weight="bold" lengthAdjust="spacing" textLength="85" x="182.5" y="355.2534">&#44221;&#47588; &#49345;&#54408; &#53580;&#51060;&#48660;</text><text fill="#000000" font-family="Malgun Gothic" font-size="11" lengthAdjust="spacing" textLength="141" x="182.5" y="369.8843">- &#44264;&#46300;/&#49892;&#48260; &#46321; 8&#44060; &#52852;&#53580;&#44256;&#47532;</text><text fill="#000000" font-family="Malgun Gothic" font-size="11" lengthAdjust="spacing" textLength="83" x="182.5" y="384.5151">- &#44221;&#47588; &#44592;&#44036; &#49444;&#51221;</text><text fill="#000000" font-family="Malgun Gothic" font-size="11" lengthAdjust="spacing" textLength="83" x="182.5" y="399.146">- &#44144;&#47000; &#48169;&#49885; &#49440;&#53469;</text><text fill="#000000" font-family="Malgun Gothic" font-size="11" lengthAdjust="spacing" textLength="57" x="182.5" y="413.7769">- &#49345;&#53468; &#44288;&#47532;</text></g><g id="elem_GMN24"><path d="M338.5,577.7813 L338.5,601.2813 L303.24,605.2813 L338.5,609.2813 L338.5,631.3047 A7.5,7.5 0 0 0 346,638.8047 L461,638.8047 A7.5,7.5 0 0 0 468.5,631.3047 L468.5,580.2813 L458.5,570.2813 L346,570.2813 A7.5,7.5 0 0 0 338.5,577.7813 " fill="#FFFFFF" style="stroke:#000000;stroke-width:1.0;"/><path d="M458.5,570.2813 L458.5,576.5313 A3.75,3.75 0 0 0 462.25,580.2813 L468.5,580.2813 L458.5,570.2813 " fill="#FFFFFF" style="stroke:#000000;stroke-width:1.0;"/><text fill="#000000" font-family="Malgun Gothic" font-size="11" font-weight="bold" lengthAdjust="spacing" textLength="59" x="344.5" y="587.2534">&#51077;&#52272; &#53580;&#51060;&#48660;</text><text fill="#000000" font-family="Malgun Gothic" font-size="11" lengthAdjust="spacing" textLength="68" x="344.5" y="601.8843">- &#49892;&#49884;&#44036; &#51077;&#52272;</text><text fill="#000000" font-family="Malgun Gothic" font-size="11" lengthAdjust="spacing" textLength="83" x="344.5" y="616.5151">- &#51077;&#52272; &#51060;&#47141; &#44288;&#47532;</text><text fill="#000000" font-family="Malgun Gothic" font-size="11" lengthAdjust="spacing" textLength="109" x="344.5" y="631.146">- &#52572;&#44256; &#51077;&#52272; &#44552;&#50529; &#52628;&#51201;</text></g><g id="elem_GMN27"><path d="M821.5,352.7813 L821.5,406.3047 A7.5,7.5 0 0 0 829,413.8047 L936,413.8047 A7.5,7.5 0 0 0 943.5,406.3047 L943.5,355.2813 L933.5,345.2813 L829,345.2813 A7.5,7.5 0 0 0 821.5,352.7813 " fill="#FFFFFF" style="stroke:#000000;stroke-width:1.0;"/><path d="M933.5,345.2813 L933.5,351.5313 A3.75,3.75 0 0 0 937.25,355.2813 L943.5,355.2813 L933.5,345.2813 " fill="#FFFFFF" style="stroke:#000000;stroke-width:1.0;"/><text fill="#000000" font-family="Malgun Gothic" font-size="11" font-weight="bold" lengthAdjust="spacing" textLength="70" x="827.5" y="362.2534">&#44172;&#49884;&#54032; &#53580;&#51060;&#48660;</text><text fill="#000000" font-family="Malgun Gothic" font-size="11" lengthAdjust="spacing" textLength="68" x="827.5" y="376.8843">- &#51068;&#48152; &#44172;&#49884;&#54032;</text><text fill="#000000" font-family="Malgun Gothic" font-size="11" lengthAdjust="spacing" textLength="101" x="827.5" y="391.5151">- &#44277;&#44396;&#51060;&#48292;&#53944; &#44172;&#49884;&#54032;</text><text fill="#000000" font-family="Malgun Gothic" font-size="11" lengthAdjust="spacing" textLength="94" x="827.5" y="406.146">- &#44172;&#49884;&#54032; &#53440;&#51077; &#44288;&#47532;</text></g><!--link Member to Imageboard--><g id="link_Member_Imageboard"><path codeLine="100" d="M390.5,234.2913 C390.5,269.5613 390.5,294.2813 390.5,294.2813 C390.5,294.2813 251.1,294.2813 159.18,294.2813 " fill="none" id="Member-Imageboard" style="stroke:#000000;stroke-width:1.0;"/><line style="stroke:#000000;stroke-width:1.0;" x1="386.5" x2="394.5" y1="230.2913" y2="230.2913"/><line style="stroke:#000000;stroke-width:1.0;" x1="386.5" x2="394.5" y1="233.2913" y2="233.2913"/><line style="stroke:#000000;stroke-width:1.0;" x1="390.5" x2="390.5" y1="234.2913" y2="226.2913"/><line style="stroke:#000000;stroke-width:1.0;" x1="149.18" x2="141.18" y1="294.2813" y2="300.2813"/><line style="stroke:#000000;stroke-width:1.0;" x1="149.18" x2="141.18" y1="294.2813" y2="288.2813"/><line style="stroke:#000000;stroke-width:1.0;" x1="149.18" x2="141.18" y1="294.2813" y2="294.2813"/><ellipse cx="155.18" cy="294.2813" fill="none" rx="4" ry="4" style="stroke:#000000;stroke-width:1.0;"/><text fill="#000000" font-family="Malgun Gothic" font-size="14" lengthAdjust="spacing" textLength="28" x="269.84" y="271.5186">&#46321;&#47197;</text><text fill="#000000" font-family="Malgun Gothic" font-size="14" lengthAdjust="spacing" textLength="30" x="268.84" y="290.1396">(1:N)</text></g><!--link Member to Bid--><g id="link_Member_Bid"><path codeLine="101" d="M412.5,234.3813 C412.5,356.7513 412.5,558.2813 412.5,558.2813 C412.5,558.2813 371.21,558.2813 321.06,558.2813 " fill="none" id="Member-Bid" style="stroke:#000000;stroke-width:1.0;"/><line style="stroke:#000000;stroke-width:1.0;" x1="408.5" x2="416.5" y1="230.3813" y2="230.3813"/><line style="stroke:#000000;stroke-width:1.0;" x1="408.5" x2="416.5" y1="233.3813" y2="233.3813"/><line style="stroke:#000000;stroke-width:1.0;" x1="412.5" x2="412.5" y1="234.3813" y2="226.3813"/><line style="stroke:#000000;stroke-width:1.0;" x1="311.06" x2="303.06" y1="558.2813" y2="564.2813"/><line style="stroke:#000000;stroke-width:1.0;" x1="311.06" x2="303.06" y1="558.2813" y2="552.2813"/><line style="stroke:#000000;stroke-width:1.0;" x1="311.06" x2="303.06" y1="558.2813" y2="558.2813"/><ellipse cx="317.06" cy="558.2813" fill="none" rx="4" ry="4" style="stroke:#000000;stroke-width:1.0;"/><text fill="#000000" font-family="Malgun Gothic" font-size="14" lengthAdjust="spacing" textLength="28" x="382.5" y="424.2886">&#51077;&#52272;</text><text fill="#000000" font-family="Malgun Gothic" font-size="14" lengthAdjust="spacing" textLength="30" x="381.5" y="442.9096">(1:N)</text></g><!--link Imageboard to Bid--><g id="link_Imageboard_Bid"><path codeLine="102" d="M149.01,466.2813 C165.79,466.2813 171.25,466.2813 171.25,466.2813 C171.25,466.2813 171.25,481.3013 171.25,515.1012 " fill="none" id="Imageboard-Bid" style="stroke:#000000;stroke-width:1.0;"/><line style="stroke:#000000;stroke-width:1.0;" x1="145.01" x2="145.01" y1="470.2813" y2="462.2813"/><line style="stroke:#000000;stroke-width:1.0;" x1="148.01" x2="148.01" y1="470.2813" y2="462.2813"/><line style="stroke:#000000;stroke-width:1.0;" x1="149.01" x2="141.01" y1="466.2813" y2="466.2813"/><line style="stroke:#000000;stroke-width:1.0;" x1="171.25" x2="177.25" y1="525.1012" y2="533.1012"/><line style="stroke:#000000;stroke-width:1.0;" x1="171.25" x2="165.25" y1="525.1012" y2="533.1012"/><line style="stroke:#000000;stroke-width:1.0;" x1="171.25" x2="171.25" y1="525.1012" y2="533.1012"/><ellipse cx="171.25" cy="519.1012" fill="none" rx="4" ry="4" style="stroke:#000000;stroke-width:1.0;"/><text fill="#000000" font-family="Malgun Gothic" font-size="14" lengthAdjust="spacing" textLength="56" x="114.25" y="500.8086">&#51077;&#52272;&#45236;&#50669;</text><text fill="#000000" font-family="Malgun Gothic" font-size="14" lengthAdjust="spacing" textLength="30" x="127.25" y="519.4296">(1:N)</text></g><!--link Board to BoardPost--><g id="link_Board_BoardPost"><path codeLine="104" d="M655.48,190.2813 C630.21,190.2813 614.25,190.2813 614.25,190.2813 C614.25,190.2813 614.25,230.5913 614.25,282.5113 " fill="none" id="Board-BoardPost" style="stroke:#000000;stroke-width:1.0;"/><line style="stroke:#000000;stroke-width:1.0;" x1="659.48" x2="659.48" y1="186.2813" y2="194.2813"/><line style="stroke:#000000;stroke-width:1.0;" x1="656.48" x2="656.48" y1="186.2813" y2="194.2813"/><line style="stroke:#000000;stroke-width:1.0;" x1="655.48" x2="663.48" y1="190.2813" y2="190.2813"/><line style="stroke:#000000;stroke-width:1.0;" x1="614.25" x2="620.25" y1="292.5113" y2="300.5113"/><line style="stroke:#000000;stroke-width:1.0;" x1="614.25" x2="608.25" y1="292.5113" y2="300.5113"/><line style="stroke:#000000;stroke-width:1.0;" x1="614.25" x2="614.25" y1="292.5113" y2="300.5113"/><ellipse cx="614.25" cy="286.5113" fill="none" rx="4" ry="4" style="stroke:#000000;stroke-width:1.0;"/><text fill="#000000" font-family="Malgun Gothic" font-size="14" lengthAdjust="spacing" textLength="42" x="571.25" y="198.0186">&#44172;&#49884;&#44544;</text><text fill="#000000" font-family="Malgun Gothic" font-size="14" lengthAdjust="spacing" textLength="30" x="577.25" y="216.6396">(1:N)</text></g><!--link Member to BoardPost--><g id="link_Member_BoardPost"><path codeLine="105" d="M464.73,215.2813 C508.57,215.2813 561.25,215.2813 561.25,215.2813 C561.25,215.2813 561.25,240.3612 561.25,282.4213 " fill="none" id="Member-BoardPost" style="stroke:#000000;stroke-width:1.0;"/><line style="stroke:#000000;stroke-width:1.0;" x1="460.73" x2="460.73" y1="219.2813" y2="211.2813"/><line style="stroke:#000000;stroke-width:1.0;" x1="463.73" x2="463.73" y1="219.2813" y2="211.2813"/><line style="stroke:#000000;stroke-width:1.0;" x1="464.73" x2="456.73" y1="215.2813" y2="215.2813"/><line style="stroke:#000000;stroke-width:1.0;" x1="561.25" x2="567.25" y1="292.4213" y2="300.4213"/><line style="stroke:#000000;stroke-width:1.0;" x1="561.25" x2="555.25" y1="292.4213" y2="300.4213"/><line style="stroke:#000000;stroke-width:1.0;" x1="561.25" x2="561.25" y1="292.4213" y2="300.4213"/><ellipse cx="561.25" cy="286.4213" fill="none" rx="4" ry="4" style="stroke:#000000;stroke-width:1.0;"/><text fill="#000000" font-family="Malgun Gothic" font-size="14" lengthAdjust="spacing" textLength="28" x="521.56" y="192.5186">&#51089;&#49457;</text><text fill="#000000" font-family="Malgun Gothic" font-size="14" lengthAdjust="spacing" textLength="30" x="520.56" y="211.1396">(1:N)</text></g><!--link Board to EventProduct--><g id="link_Board_EventProduct"><path codeLine="107" d="M721.5,212.4613 C721.5,244.4713 721.5,257.2813 721.5,290.2413 " fill="none" id="Board-EventProduct" style="stroke:#000000;stroke-width:1.0;"/><line style="stroke:#000000;stroke-width:1.0;" x1="717.5" x2="725.5" y1="208.4613" y2="208.4613"/><line style="stroke:#000000;stroke-width:1.0;" x1="717.5" x2="725.5" y1="211.4613" y2="211.4613"/><line style="stroke:#000000;stroke-width:1.0;" x1="721.5" x2="721.5" y1="212.4613" y2="204.4613"/><line style="stroke:#000000;stroke-width:1.0;" x1="721.5" x2="727.5" y1="300.2413" y2="308.2413"/><line style="stroke:#000000;stroke-width:1.0;" x1="721.5" x2="715.5" y1="300.2413" y2="308.2413"/><line style="stroke:#000000;stroke-width:1.0;" x1="721.5" x2="721.5" y1="300.2413" y2="308.2413"/><ellipse cx="721.5" cy="294.2413" fill="none" rx="4" ry="4" style="stroke:#000000;stroke-width:1.0;"/><text fill="#000000" font-family="Malgun Gothic" font-size="14" lengthAdjust="spacing" textLength="28" x="691.5" y="233.5886">&#49345;&#54408;</text><text fill="#000000" font-family="Malgun Gothic" font-size="14" lengthAdjust="spacing" textLength="30" x="690.5" y="252.2096">(1:N)</text></g><!--link EventProduct to EventOrder--><g id="link_EventProduct_EventOrder"><path codeLine="108" d="M648.07,380.2813 C636.33,380.2813 635.75,380.2813 635.75,380.2813 C635.75,380.2813 635.75,449.4313 635.75,515.1313 " fill="none" id="EventProduct-EventOrder" style="stroke:#000000;stroke-width:1.0;"/><line style="stroke:#000000;stroke-width:1.0;" x1="652.07" x2="652.07" y1="376.2813" y2="384.2813"/><line style="stroke:#000000;stroke-width:1.0;" x1="649.07" x2="649.07" y1="376.2813" y2="384.2813"/><line style="stroke:#000000;stroke-width:1.0;" x1="648.07" x2="656.07" y1="380.2813" y2="380.2813"/><line style="stroke:#000000;stroke-width:1.0;" x1="635.75" x2="641.75" y1="525.1313" y2="533.1313"/><line style="stroke:#000000;stroke-width:1.0;" x1="635.75" x2="629.75" y1="525.1313" y2="533.1313"/><line style="stroke:#000000;stroke-width:1.0;" x1="635.75" x2="635.75" y1="525.1313" y2="533.1313"/><ellipse cx="635.75" cy="519.1313" fill="none" rx="4" ry="4" style="stroke:#000000;stroke-width:1.0;"/><text fill="#000000" font-family="Malgun Gothic" font-size="14" lengthAdjust="spacing" textLength="28" x="629.75" y="462.7786">&#51452;&#47928;</text><text fill="#000000" font-family="Malgun Gothic" font-size="14" lengthAdjust="spacing" textLength="30" x="628.75" y="481.3996">(1:N)</text></g><!--link Member to EventOrder--><g id="link_Member_EventOrder"><path codeLine="109" d="M434.5,234.3813 C434.5,353.5613 434.5,546.2813 434.5,546.2813 C434.5,546.2813 470.04,546.2813 514.59,546.2813 " fill="none" id="Member-EventOrder" style="stroke:#000000;stroke-width:1.0;"/><line style="stroke:#000000;stroke-width:1.0;" x1="430.5" x2="438.5" y1="230.3813" y2="230.3813"/><line style="stroke:#000000;stroke-width:1.0;" x1="430.5" x2="438.5" y1="233.3813" y2="233.3813"/><line style="stroke:#000000;stroke-width:1.0;" x1="434.5" x2="434.5" y1="234.3813" y2="226.3813"/><line style="stroke:#000000;stroke-width:1.0;" x1="524.59" x2="532.59" y1="546.2813" y2="540.2813"/><line style="stroke:#000000;stroke-width:1.0;" x1="524.59" x2="532.59" y1="546.2813" y2="552.2813"/><line style="stroke:#000000;stroke-width:1.0;" x1="524.59" x2="532.59" y1="546.2813" y2="546.2813"/><ellipse cx="518.59" cy="546.2813" fill="none" rx="4" ry="4" style="stroke:#000000;stroke-width:1.0;"/><text fill="#000000" font-family="Malgun Gothic" font-size="14" lengthAdjust="spacing" textLength="28" x="436.5" y="412.6186">&#51452;&#47928;</text><text fill="#000000" font-family="Malgun Gothic" font-size="14" lengthAdjust="spacing" textLength="30" x="435.5" y="431.2396">(1:N)</text></g><!--link Board to GMN27--><g id="link_Board_GMN27"><path d="M779.7,201.2813 C824.57,201.2813 879,201.2813 879,201.2813 C879,201.2813 879,292.9913 879,344.9413 " fill="none" id="Board-GMN27" style="stroke:#000000;stroke-width:1.0;stroke-dasharray:7.0,7.0;"/></g><!--SRC=[bLLjQzjM5FxkNt7dBriDfdXiOvHIa2qrYCIIQydf2WEZn4eiPaj1bZUwTf0k3dHpOEkQCDFPnc7fka46ojlcGVU7fEl_iADxzN9bnw7p5_cUyznpd_ESSyzzpsdgRHtjj3J3p7I-CCmTpTRQg6MOklDuHqUMxJGjnc5RNREnQTccRgF2nuoZqzGQrbU6kOssj5P7PpmDVKlhjfpxbkb86foLBMkjxQw9LYodQMnchqSgnjSwAdp4E3TRMgUJk3wSTt6EOniRNKTFC0K6unXEIty73Z6EXlY4SPcMyouH8bZ48KD28k_YT__b40zUu_q1mh- -nQyEqMp_08yk_UaXyYvtlOkU_qClaz5DsF0O3X3AHQ5Q-DpyOFRg0F_ouwqiqZgehBStGFid6GI_719vTFTkPVNUFRBEvyb7uie2_IEMLkD5vI5FlaAP4zV8FrMWNuxdg-IFgDILcb8H95xWCzyaLCGojo8KPQxA1tIyyt_zDoS8xpsR_VISiXBRshQ-OMbs8sQc20-keKOY4TBt8mynnIp9gb8LItHPvZwh5qM-dbXAd2gioDL7PA6ed5fJQ1AraYhAKXrCLRNE0ofbXfoeaKaB0WVvuF4-TbsQID58CWZElI4BeaS8Y9E1FRnGhQSp309nPRacgV5I5SDymmnOLedE1xW_d1s4bI-cv6LFdwT7VR6aTAa-gh3Bb8nGTmvaMXSMUDGhig8cPBpfBaEcOdMSc500l97Fd5AqlUUK8a5KKLqJacL9bbGXb6vT51w28L8IU4ko6dG6mrjO1pGqZCn3wGdrYollwZIuQESdi- -dD07XIy1NRAlHtMHoe9l-JnhHbbXjXLiJc7PLLBcqMdzGuoH8YwfD2IuMdjhbAazlFSm8_vHbAziDvkOJt1AcwJnkbfp6IH6afYI7yAW5mcLEWdj0oCByydyxnUDeIcac38I4R8YiNpkk8cSiOMI89bQqhifhfDBlezdH5UwVXbCJuSaH7WqouMXy-ZIVjvwm8-aEolelp_pZ4H0jt95kPUUWmQK739q3COO9S1tE__OI__ndZCuKKyZuUW0-lZhBZcV1UFm2zywMX4qrRG0c8pW6fzpi5jevmGRIKqjut0ZD1CyQietjfeEihV0PWkhaSlHrIjwoN0xCUHIQFNSNzBhj7m-zlwTuD2K-A1hKZDJjpIwYlKCSVlyxltU2npqqUp44qQ3L6kH1dJy_AGxXa7gI5gZGf_Ssxf_uvpq4hO0-zTmXmlzS0jAxc4IdXr6ygUkvq5L0P7947MUkFnuWt_q3zqVWcCpsHiGH7BWtZ39OHXRwXh2aZRD03tW5_H4SIG3KIB41SFAQbGXV3O5ovFUcp_7HCS9_7UB9ita26vRZM6t2W54gV5GMQOpU-ku0nO1GkjJidFScmVQ2CYy8yHy0]--></g></svg>