<?xml version="1.0" encoding="us-ascii" standalone="no"?><svg xmlns="http://www.w3.org/2000/svg" xmlns:xlink="http://www.w3.org/1999/xlink" contentStyleType="text/css" height="1046px" preserveAspectRatio="none" style="width:1387px;height:1046px;background:#FFFFFF;" version="1.1" viewBox="0 0 1387 1046" width="1387px" zoomAndPan="magnify"><defs/><g><!--cluster Frontend Layer (React + Vite)--><g id="cluster_Frontend Layer (React + Vite)"><path d="M13.5,11 L216.5,11 A3.75,3.75 0 0 1 219,13.5 L226,35.6211 L846.5,35.6211 A2.5,2.5 0 0 1 849,38.1211 L849,451.5 A2.5,2.5 0 0 1 846.5,454 L13.5,454 A2.5,2.5 0 0 1 11,451.5 L11,13.5 A2.5,2.5 0 0 1 13.5,11 " fill="#FFFFFF" style="stroke:#000000;stroke-width:1.0;"/><line style="stroke:#000000;stroke-width:1.0;" x1="11" x2="226" y1="35.6211" y2="35.6211"/><text fill="#000000" font-family="Malgun Gothic" font-size="14" font-weight="bold" lengthAdjust="spacing" textLength="202" x="15" y="28.2373">Frontend Layer (React + Vite)</text></g><!--cluster Backend Layer (Spring Boot)--><g id="cluster_Backend Layer (Spring Boot)"><path d="M875.5,323 L1073.5,323 A3.75,3.75 0 0 1 1076,325.5 L1083,347.6211 L1234.5,347.6211 A2.5,2.5 0 0 1 1237,350.1211 L1237,738.5 A2.5,2.5 0 0 1 1234.5,741 L875.5,741 A2.5,2.5 0 0 1 873,738.5 L873,325.5 A2.5,2.5 0 0 1 875.5,323 " fill="#FFFFFF" style="stroke:#000000;stroke-width:1.0;"/><line style="stroke:#000000;stroke-width:1.0;" x1="873" x2="1083" y1="347.6211" y2="347.6211"/><text fill="#000000" font-family="Malgun Gothic" font-size="14" font-weight="bold" lengthAdjust="spacing" textLength="197" x="877" y="340.2373">Backend Layer (Spring Boot)</text></g><!--cluster Database Layer (Oracle)--><g id="cluster_Database Layer (Oracle)"><path d="M858.5,792 L1022.5,792 A3.75,3.75 0 0 1 1025,794.5 L1032,816.6211 L1047.5,816.6211 A2.5,2.5 0 0 1 1050,819.1211 L1050,1036.5 A2.5,2.5 0 0 1 1047.5,1039 L858.5,1039 A2.5,2.5 0 0 1 856,1036.5 L856,794.5 A2.5,2.5 0 0 1 858.5,792 " fill="#FFFFFF" style="stroke:#000000;stroke-width:1.0;"/><line style="stroke:#000000;stroke-width:1.0;" x1="856" x2="1032" y1="816.6211" y2="816.6211"/><text fill="#000000" font-family="Malgun Gothic" font-size="14" font-weight="bold" lengthAdjust="spacing" textLength="163" x="860" y="809.2373">Database Layer (Oracle)</text></g><!--cluster Oracle Database--><g id="cluster_Oracle Database"><path d="M880,847 C880,837 953,837 953,837 C953,837 1026,837 1026,847 L1026,1005 C1026,1015 953,1015 953,1015 C953,1015 880,1015 880,1005 L880,847 " fill="#FFFFFF" style="stroke:#000000;stroke-width:1.0;"/><path d="M880,847 C880,857 953,857 953,857 C953,857 1026,857 1026,847 " fill="none" style="stroke:#000000;stroke-width:1.0;"/><text fill="#000000" font-family="Malgun Gothic" font-size="14" font-weight="bold" lengthAdjust="spacing" textLength="111" x="897.5" y="874.2373">Oracle Database</text></g><!--entity ReactApp--><g id="elem_ReactApp"><rect fill="#FFFFE0" height="45.9609" rx="2.5" ry="2.5" style="stroke:#FF8C00;stroke-width:1.0;" width="134" x="452" y="48"/><rect fill="#FFFFE0" height="10" style="stroke:#FF8C00;stroke-width:1.0;" width="15" x="566" y="53"/><rect fill="#FFFFE0" height="2" style="stroke:#FF8C00;stroke-width:1.0;" width="4" x="564" y="55"/><rect fill="#FFFFE0" height="2" style="stroke:#FF8C00;stroke-width:1.0;" width="4" x="564" y="59"/><text fill="#000000" font-family="Malgun Gothic" font-size="12" lengthAdjust="spacing" textLength="94" x="467" y="81.0605">React Application</text></g><!--entity ImageboardComp--><g id="elem_ImageboardComp"><rect fill="#FFFFE0" height="77.8828" rx="2.5" ry="2.5" style="stroke:#FF8C00;stroke-width:1.0;" width="159" x="178.5" y="180"/><rect fill="#FFFFE0" height="10" style="stroke:#FF8C00;stroke-width:1.0;" width="15" x="317.5" y="185"/><rect fill="#FFFFE0" height="2" style="stroke:#FF8C00;stroke-width:1.0;" width="4" x="315.5" y="187"/><rect fill="#FFFFE0" height="2" style="stroke:#FF8C00;stroke-width:1.0;" width="4" x="315.5" y="191"/><text fill="#000000" font-family="Malgun Gothic" font-size="12" lengthAdjust="spacing" textLength="76" x="193.5" y="213.0605">&#44221;&#47588; &#52980;&#54252;&#45324;&#53944;</text><text fill="#000000" font-family="Malgun Gothic" font-size="12" lengthAdjust="spacing" textLength="119" x="193.5" y="229.0215">- &#49345;&#54408; &#46321;&#47197;/&#51312;&#54924;/&#49688;&#51221;</text><text fill="#000000" font-family="Malgun Gothic" font-size="12" lengthAdjust="spacing" textLength="62" x="193.5" y="244.9824">- &#51077;&#52272;/&#44144;&#47000;</text></g><!--entity MemberComp--><g id="elem_MemberComp"><rect fill="#FFFFE0" height="77.8828" rx="2.5" ry="2.5" style="stroke:#FF8C00;stroke-width:1.0;" width="116" x="27" y="180"/><rect fill="#FFFFE0" height="10" style="stroke:#FF8C00;stroke-width:1.0;" width="15" x="123" y="185"/><rect fill="#FFFFE0" height="2" style="stroke:#FF8C00;stroke-width:1.0;" width="4" x="121" y="187"/><rect fill="#FFFFE0" height="2" style="stroke:#FF8C00;stroke-width:1.0;" width="4" x="121" y="191"/><text fill="#000000" font-family="Malgun Gothic" font-size="12" lengthAdjust="spacing" textLength="76" x="42" y="213.0605">&#54924;&#50896; &#52980;&#54252;&#45324;&#53944;</text><text fill="#000000" font-family="Malgun Gothic" font-size="12" lengthAdjust="spacing" textLength="74" x="42" y="229.0215">- &#47196;&#44536;&#51064;/&#44032;&#51077;</text><text fill="#000000" font-family="Malgun Gothic" font-size="12" lengthAdjust="spacing" textLength="61" x="42" y="244.9824">- &#51221;&#48372; &#44288;&#47532;</text></g><!--entity BoardComp--><g id="elem_BoardComp"><rect fill="#FFFFE0" height="77.8828" rx="2.5" ry="2.5" style="stroke:#FF8C00;stroke-width:1.0;" width="128" x="373" y="180"/><rect fill="#FFFFE0" height="10" style="stroke:#FF8C00;stroke-width:1.0;" width="15" x="481" y="185"/><rect fill="#FFFFE0" height="2" style="stroke:#FF8C00;stroke-width:1.0;" width="4" x="479" y="187"/><rect fill="#FFFFE0" height="2" style="stroke:#FF8C00;stroke-width:1.0;" width="4" x="479" y="191"/><text fill="#000000" font-family="Malgun Gothic" font-size="12" lengthAdjust="spacing" textLength="88" x="388" y="213.0605">&#44172;&#49884;&#54032; &#52980;&#54252;&#45324;&#53944;</text><text fill="#000000" font-family="Malgun Gothic" font-size="12" lengthAdjust="spacing" textLength="74" x="388" y="229.0215">- &#44172;&#49884;&#44544;/&#45843;&#44544;</text><text fill="#000000" font-family="Malgun Gothic" font-size="12" lengthAdjust="spacing" textLength="74" x="388" y="244.9824">- &#51060;&#48292;&#53944;/&#51452;&#47928;</text></g><!--entity ManagerComp--><g id="elem_ManagerComp"><rect fill="#FFFFE0" height="77.8828" rx="2.5" ry="2.5" style="stroke:#FF8C00;stroke-width:1.0;" width="130" x="703" y="180"/><rect fill="#FFFFE0" height="10" style="stroke:#FF8C00;stroke-width:1.0;" width="15" x="813" y="185"/><rect fill="#FFFFE0" height="2" style="stroke:#FF8C00;stroke-width:1.0;" width="4" x="811" y="187"/><rect fill="#FFFFE0" height="2" style="stroke:#FF8C00;stroke-width:1.0;" width="4" x="811" y="191"/><text fill="#000000" font-family="Malgun Gothic" font-size="12" lengthAdjust="spacing" textLength="88" x="718" y="213.0605">&#44288;&#47532;&#51088; &#52980;&#54252;&#45324;&#53944;</text><text fill="#000000" font-family="Malgun Gothic" font-size="12" lengthAdjust="spacing" textLength="90" x="718" y="229.0215">- &#54924;&#50896;/&#49345;&#54408; &#44288;&#47532;</text><text fill="#000000" font-family="Malgun Gothic" font-size="12" lengthAdjust="spacing" textLength="62" x="718" y="244.9824">- &#53685;&#44228;/&#49444;&#51221;</text></g><!--entity CommonComp--><g id="elem_CommonComp"><rect fill="#FFFFE0" height="77.8828" rx="2.5" ry="2.5" style="stroke:#FF8C00;stroke-width:1.0;" width="131" x="536.5" y="180"/><rect fill="#FFFFE0" height="10" style="stroke:#FF8C00;stroke-width:1.0;" width="15" x="647.5" y="185"/><rect fill="#FFFFE0" height="2" style="stroke:#FF8C00;stroke-width:1.0;" width="4" x="645.5" y="187"/><rect fill="#FFFFE0" height="2" style="stroke:#FF8C00;stroke-width:1.0;" width="4" x="645.5" y="191"/><text fill="#000000" font-family="Malgun Gothic" font-size="12" lengthAdjust="spacing" textLength="76" x="551.5" y="213.0605">&#44277;&#53685; &#52980;&#54252;&#45324;&#53944;</text><text fill="#000000" font-family="Malgun Gothic" font-size="12" lengthAdjust="spacing" textLength="91" x="551.5" y="229.0215">- &#47700;&#51064;/&#54756;&#45908;/&#54392;&#53552;</text><text fill="#000000" font-family="Malgun Gothic" font-size="12" lengthAdjust="spacing" textLength="62" x="551.5" y="244.9824">- &#54045;&#50629;/&#52264;&#53944;</text></g><!--entity ScriptComp--><g id="elem_ScriptComp"><rect fill="#FFFFE0" height="77.8828" rx="2.5" ry="2.5" style="stroke:#FF8C00;stroke-width:1.0;" width="113" x="201.5" y="360"/><rect fill="#FFFFE0" height="10" style="stroke:#FF8C00;stroke-width:1.0;" width="15" x="294.5" y="365"/><rect fill="#FFFFE0" height="2" style="stroke:#FF8C00;stroke-width:1.0;" width="4" x="292.5" y="367"/><rect fill="#FFFFE0" height="2" style="stroke:#FF8C00;stroke-width:1.0;" width="4" x="292.5" y="371"/><text fill="#000000" font-family="Malgun Gothic" font-size="12" lengthAdjust="spacing" textLength="63" x="216.5" y="393.0605">Script Layer</text><text fill="#000000" font-family="Malgun Gothic" font-size="12" lengthAdjust="spacing" textLength="55" x="216.5" y="409.0215">- API &#54840;&#52636;</text><text fill="#000000" font-family="Malgun Gothic" font-size="12" lengthAdjust="spacing" textLength="73" x="216.5" y="424.9824">- &#50976;&#54952;&#49457; &#44160;&#49324;</text></g><!--entity SpringApp--><g id="elem_SpringApp"><rect fill="#FFFFE0" height="45.9609" rx="2.5" ry="2.5" style="stroke:#FF8C00;stroke-width:1.0;" width="169" x="1051.5" y="376"/><rect fill="#FFFFE0" height="10" style="stroke:#FF8C00;stroke-width:1.0;" width="15" x="1200.5" y="381"/><rect fill="#FFFFE0" height="2" style="stroke:#FF8C00;stroke-width:1.0;" width="4" x="1198.5" y="383"/><rect fill="#FFFFE0" height="2" style="stroke:#FF8C00;stroke-width:1.0;" width="4" x="1198.5" y="387"/><text fill="#000000" font-family="Malgun Gothic" font-size="12" lengthAdjust="spacing" textLength="129" x="1066.5" y="409.0605">Spring Boot Application</text></g><!--entity ControllerLayer--><g id="elem_ControllerLayer"><rect fill="#FFFFE0" height="77.8828" rx="2.5" ry="2.5" style="stroke:#FF8C00;stroke-width:1.0;" width="127" x="889.5" y="360"/><rect fill="#FFFFE0" height="10" style="stroke:#FF8C00;stroke-width:1.0;" width="15" x="996.5" y="365"/><rect fill="#FFFFE0" height="2" style="stroke:#FF8C00;stroke-width:1.0;" width="4" x="994.5" y="367"/><rect fill="#FFFFE0" height="2" style="stroke:#FF8C00;stroke-width:1.0;" width="4" x="994.5" y="371"/><text fill="#000000" font-family="Malgun Gothic" font-size="12" lengthAdjust="spacing" textLength="85" x="904.5" y="393.0605">Controller Layer</text><text fill="#000000" font-family="Malgun Gothic" font-size="12" lengthAdjust="spacing" textLength="57" x="904.5" y="409.0215">- REST API</text><text fill="#000000" font-family="Malgun Gothic" font-size="12" lengthAdjust="spacing" textLength="87" x="904.5" y="424.9824">- 19&#44060; &#52968;&#53944;&#47204;&#47084;</text></g><!--entity ServiceLayer--><g id="elem_ServiceLayer"><rect fill="#FFFFE0" height="77.8828" rx="2.5" ry="2.5" style="stroke:#FF8C00;stroke-width:1.0;" width="125" x="890.5" y="508"/><rect fill="#FFFFE0" height="10" style="stroke:#FF8C00;stroke-width:1.0;" width="15" x="995.5" y="513"/><rect fill="#FFFFE0" height="2" style="stroke:#FF8C00;stroke-width:1.0;" width="4" x="993.5" y="515"/><rect fill="#FFFFE0" height="2" style="stroke:#FF8C00;stroke-width:1.0;" width="4" x="993.5" y="519"/><text fill="#000000" font-family="Malgun Gothic" font-size="12" lengthAdjust="spacing" textLength="70" x="905.5" y="541.0605">Service Layer</text><text fill="#000000" font-family="Malgun Gothic" font-size="12" lengthAdjust="spacing" textLength="85" x="905.5" y="557.0215">- &#48708;&#51592;&#45768;&#49828; &#47196;&#51649;</text><text fill="#000000" font-family="Malgun Gothic" font-size="12" lengthAdjust="spacing" textLength="75" x="905.5" y="572.9824">- 18&#44060; &#49436;&#48708;&#49828;</text></g><!--entity DAOLayer--><g id="elem_DAOLayer"><rect fill="#FFFFE0" height="77.8828" rx="2.5" ry="2.5" style="stroke:#FF8C00;stroke-width:1.0;" width="113" x="896.5" y="647"/><rect fill="#FFFFE0" height="10" style="stroke:#FF8C00;stroke-width:1.0;" width="15" x="989.5" y="652"/><rect fill="#FFFFE0" height="2" style="stroke:#FF8C00;stroke-width:1.0;" width="4" x="987.5" y="654"/><rect fill="#FFFFE0" height="2" style="stroke:#FF8C00;stroke-width:1.0;" width="4" x="987.5" y="658"/><text fill="#000000" font-family="Malgun Gothic" font-size="12" lengthAdjust="spacing" textLength="58" x="911.5" y="680.0605">DAO Layer</text><text fill="#000000" font-family="Malgun Gothic" font-size="12" lengthAdjust="spacing" textLength="73" x="911.5" y="696.0215">- &#45936;&#51060;&#53552; &#51217;&#44540;</text><text fill="#000000" font-family="Malgun Gothic" font-size="12" lengthAdjust="spacing" textLength="65" x="911.5" y="711.9824">- 12&#44060; DAO</text></g><!--entity OracleDB--><g id="elem_OracleDB"><rect fill="#FFFFE0" height="109.8047" rx="2.5" ry="2.5" style="stroke:#FF8C00;stroke-width:1.0;" width="114" x="896" y="889"/><rect fill="#FFFFE0" height="10" style="stroke:#FF8C00;stroke-width:1.0;" width="15" x="990" y="894"/><rect fill="#FFFFE0" height="2" style="stroke:#FF8C00;stroke-width:1.0;" width="4" x="988" y="896"/><rect fill="#FFFFE0" height="2" style="stroke:#FF8C00;stroke-width:1.0;" width="4" x="988" y="900"/><text fill="#000000" font-family="Malgun Gothic" font-size="12" lengthAdjust="spacing" textLength="66" x="911" y="922.0605">19&#44060; &#53580;&#51060;&#48660;</text><text fill="#000000" font-family="Malgun Gothic" font-size="12" lengthAdjust="spacing" textLength="62" x="911" y="938.0215">- &#44221;&#47588;/&#51077;&#52272;</text><text fill="#000000" font-family="Malgun Gothic" font-size="12" lengthAdjust="spacing" textLength="74" x="911" y="953.9824">- &#54924;&#50896;/&#44172;&#49884;&#54032;</text><text fill="#000000" font-family="Malgun Gothic" font-size="12" lengthAdjust="spacing" textLength="74" x="911" y="969.9434">- &#51060;&#48292;&#53944;/&#51452;&#47928;</text><text fill="#000000" font-family="Malgun Gothic" font-size="12" lengthAdjust="spacing" textLength="74" x="911" y="985.9043">- &#44288;&#47532;&#51088;/&#49444;&#51221;</text></g><g id="elem_GMN34"><path d="M865,23 L865,67 L586.19,71 L865,75 L865,119.4551 A0,0 0 0 0 865,119.4551 L997,119.4551 A0,0 0 0 0 997,119.4551 L997,33 L987,23 L865,23 A0,0 0 0 0 865,23 " fill="#FFFFFF" style="stroke:#000000;stroke-width:1.0;"/><path d="M987,23 L987,33 L997,33 L987,23 " fill="#FFFFFF" style="stroke:#000000;stroke-width:1.0;"/><text fill="#000000" font-family="Malgun Gothic" font-size="13" font-weight="bold" lengthAdjust="spacing" textLength="65" x="871" y="42.1489">&#54532;&#47200;&#53944;&#50644;&#46300;</text><text fill="#000000" font-family="Malgun Gothic" font-size="13" lengthAdjust="spacing" textLength="83" x="871" y="59.4399">- React + Vite</text><text fill="#000000" font-family="Malgun Gothic" font-size="13" lengthAdjust="spacing" textLength="111" x="871" y="76.731">- &#52980;&#54252;&#45324;&#53944; &#44592;&#48152; UI</text><text fill="#000000" font-family="Malgun Gothic" font-size="13" lengthAdjust="spacing" textLength="87" x="871" y="94.022">- React Router</text><text fill="#000000" font-family="Malgun Gothic" font-size="13" lengthAdjust="spacing" textLength="68" x="871" y="111.313">- Bootstrap</text></g><g id="elem_GMN37"><path d="M1255.5,351 L1255.5,395 L1220.6,399 L1255.5,403 L1255.5,447.4551 A0,0 0 0 0 1255.5,447.4551 L1380.5,447.4551 A0,0 0 0 0 1380.5,447.4551 L1380.5,361 L1370.5,351 L1255.5,351 A0,0 0 0 0 1255.5,351 " fill="#FFFFFF" style="stroke:#000000;stroke-width:1.0;"/><path d="M1370.5,351 L1370.5,361 L1380.5,361 L1370.5,351 " fill="#FFFFFF" style="stroke:#000000;stroke-width:1.0;"/><text fill="#000000" font-family="Malgun Gothic" font-size="13" font-weight="bold" lengthAdjust="spacing" textLength="39" x="1261.5" y="370.1489">&#48177;&#50644;&#46300;</text><text fill="#000000" font-family="Malgun Gothic" font-size="13" lengthAdjust="spacing" textLength="104" x="1261.5" y="387.4399">- Spring Boot 4.0</text><text fill="#000000" font-family="Malgun Gothic" font-size="13" lengthAdjust="spacing" textLength="79" x="1261.5" y="404.731">- RESTful API</text><text fill="#000000" font-family="Malgun Gothic" font-size="13" lengthAdjust="spacing" textLength="94" x="1261.5" y="422.022">- JPA/Hibernate</text><text fill="#000000" font-family="Malgun Gothic" font-size="13" lengthAdjust="spacing" textLength="63" x="1261.5" y="439.313">- Java 17+</text></g><g id="elem_GMN40"><path d="M1066.5,896 L1066.5,940 L1010.09,944 L1066.5,948 L1066.5,992.4551 A0,0 0 0 0 1066.5,992.4551 L1187.5,992.4551 A0,0 0 0 0 1187.5,992.4551 L1187.5,906 L1177.5,896 L1066.5,896 A0,0 0 0 0 1066.5,896 " fill="#FFFFFF" style="stroke:#000000;stroke-width:1.0;"/><path d="M1177.5,896 L1177.5,906 L1187.5,906 L1177.5,896 " fill="#FFFFFF" style="stroke:#000000;stroke-width:1.0;"/><text fill="#000000" font-family="Malgun Gothic" font-size="13" font-weight="bold" lengthAdjust="spacing" textLength="78" x="1072.5" y="915.1489">&#45936;&#51060;&#53552;&#48288;&#51060;&#49828;</text><text fill="#000000" font-family="Malgun Gothic" font-size="13" lengthAdjust="spacing" textLength="95" x="1072.5" y="932.4399">- Oracle DB 19c</text><text fill="#000000" font-family="Malgun Gothic" font-size="13" lengthAdjust="spacing" textLength="81" x="1072.5" y="949.731">- 19&#44060; &#53580;&#51060;&#48660;</text><text fill="#000000" font-family="Malgun Gothic" font-size="13" lengthAdjust="spacing" textLength="100" x="1072.5" y="967.022">- &#49884;&#53248;&#49828; &#44592;&#48152; PK</text><text fill="#000000" font-family="Malgun Gothic" font-size="13" lengthAdjust="spacing" textLength="93" x="1072.5" y="984.313">- &#51064;&#45937;&#49828; &#52572;&#51201;&#54868;</text></g><!--link ReactApp to ImageboardComp--><g id="link_ReactApp_ImageboardComp"><path d="M479.64,94.02 C439.06,116.72 380.2164,149.6309 331.3764,176.9509 " fill="none" id="ReactApp-to-ImageboardComp" style="stroke:#000000;stroke-width:1.0;"/><polygon fill="#000000" points="326.14,179.88,335.9474,178.9772,330.5037,177.4391,332.0419,171.9953,326.14,179.88" style="stroke:#000000;stroke-width:1.0;"/></g><!--link ReactApp to MemberComp--><g id="link_ReactApp_MemberComp"><path d="M451.86,88.58 C379.04,107.41 259.94,140.67 161,180 C155.11,182.34 154.5044,182.4701 148.5044,185.2201 " fill="none" id="ReactApp-to-MemberComp" style="stroke:#000000;stroke-width:1.0;"/><polygon fill="#000000" points="143.05,187.72,152.8982,187.6064,147.5953,185.6367,149.565,180.3338,143.05,187.72" style="stroke:#000000;stroke-width:1.0;"/></g><!--link ReactApp to BoardComp--><g id="link_ReactApp_BoardComp"><path d="M506.55,94.17 C493.78,116.91 476.6073,147.4681 461.2973,174.7381 " fill="none" id="ReactApp-to-BoardComp" style="stroke:#000000;stroke-width:1.0;"/><polygon fill="#000000" points="458.36,179.97,466.2538,174.0804,460.8077,175.6101,459.278,170.164,458.36,179.97" style="stroke:#000000;stroke-width:1.0;"/></g><!--link ReactApp to ManagerComp--><g id="link_ReactApp_ManagerComp"><path d="M556.55,94.02 C595.27,116.72 651.2239,149.5255 697.8239,176.8455 " fill="none" id="ReactApp-to-ManagerComp" style="stroke:#000000;stroke-width:1.0;"/><polygon fill="#000000" points="703,179.88,697.2589,171.8775,698.6866,177.3512,693.2129,178.7789,703,179.88" style="stroke:#000000;stroke-width:1.0;"/></g><!--link ReactApp to CommonComp--><g id="link_ReactApp_CommonComp"><path d="M531.61,94.17 C544.53,116.91 561.9151,147.4837 577.4151,174.7537 " fill="none" id="ReactApp-to-CommonComp" style="stroke:#000000;stroke-width:1.0;"/><polygon fill="#000000" points="580.38,179.97,579.4102,170.169,577.9093,175.6231,572.4552,174.1222,580.38,179.97" style="stroke:#000000;stroke-width:1.0;"/></g><!--link ImageboardComp to ScriptComp--><g id="link_ImageboardComp_ScriptComp"><path d="M258,258.19 C258,288.22 258,323.86 258,353.88 " fill="none" id="ImageboardComp-to-ScriptComp" style="stroke:#000000;stroke-width:1.0;"/><polygon fill="#000000" points="258,359.88,262,350.88,258,354.88,254,350.88,258,359.88" style="stroke:#000000;stroke-width:1.0;"/></g><!--link MemberComp to ScriptComp--><g id="link_MemberComp_ScriptComp"><path d="M122.11,258.19 C151.3,288.22 187.5987,325.5569 216.7687,355.5769 " fill="none" id="MemberComp-to-ScriptComp" style="stroke:#000000;stroke-width:1.0;"/><polygon fill="#000000" points="220.95,359.88,217.5468,350.6378,217.4656,356.2941,211.8093,356.2128,220.95,359.88" style="stroke:#000000;stroke-width:1.0;"/></g><!--link BoardComp to ScriptComp--><g id="link_BoardComp_ScriptComp"><path d="M398.6,258.19 C368.4,288.22 330.7739,325.6287 300.5939,355.6487 " fill="none" id="BoardComp-to-ScriptComp" style="stroke:#000000;stroke-width:1.0;"/><polygon fill="#000000" points="296.34,359.88,305.5418,356.3689,299.8849,356.3539,299.9,350.697,296.34,359.88" style="stroke:#000000;stroke-width:1.0;"/></g><!--link ImageboardComp to ControllerLayer--><g id="link_ImageboardComp_ControllerLayer"><path d="M337.6,252.26 C343.45,254.3 349.3,256.24 355,258 C412.07,275.61 429.67,268.12 486,288 C504.18,294.42 506.27,302.44 525,307 C559.99,315.53 815.16,302.68 849,315 C874.61,324.32 894.2984,338.6234 912.8384,355.7134 " fill="none" id="ImageboardComp-to-ControllerLayer" style="stroke:#000000;stroke-width:1.0;"/><polygon fill="#000000" points="917.25,359.78,913.3436,350.739,913.5736,356.3912,907.9215,356.6212,917.25,359.78" style="stroke:#000000;stroke-width:1.0;"/><text fill="#000000" font-family="Malgun Gothic" font-size="13" lengthAdjust="spacing" textLength="64" x="526" y="303.1489">HTTP/REST</text></g><!--link MemberComp to ControllerLayer--><g id="link_MemberComp_ControllerLayer"><path d="M143.24,251.08 C149.15,253.64 155.13,256 161,258 C268.59,294.64 298.97,295.03 412,307 C436.15,309.56 826.16,306.77 849,315 C874.64,324.24 894.3306,338.5309 912.8606,355.6309 " fill="none" id="MemberComp-to-ControllerLayer" style="stroke:#000000;stroke-width:1.0;"/><polygon fill="#000000" points="917.27,359.7,913.3687,350.6568,913.5955,356.3091,907.9432,356.5359,917.27,359.7" style="stroke:#000000;stroke-width:1.0;"/><text fill="#000000" font-family="Malgun Gothic" font-size="13" lengthAdjust="spacing" textLength="64" x="413" y="303.1489">HTTP/REST</text></g><!--link BoardComp to ControllerLayer--><g id="link_BoardComp_ControllerLayer"><path d="M501.25,250.33 C507.23,252.98 513.21,255.58 519,258 C554.03,272.66 563.62,274.22 599,288 C619.99,296.18 623.97,302.26 646,307 C690.14,316.49 806.69,299.25 849,315 C874.55,324.51 894.2225,338.8297 912.7725,355.8797 " fill="none" id="BoardComp-to-ControllerLayer" style="stroke:#000000;stroke-width:1.0;"/><polygon fill="#000000" points="917.19,359.94,913.2706,350.9046,913.5088,356.5564,907.8569,356.7946,917.19,359.94" style="stroke:#000000;stroke-width:1.0;"/><text fill="#000000" font-family="Malgun Gothic" font-size="13" lengthAdjust="spacing" textLength="64" x="647" y="303.1489">HTTP/REST</text></g><!--link ManagerComp to ControllerLayer--><g id="link_ManagerComp_ControllerLayer"><path d="M807.69,258.19 C838.9,288.22 877.8564,325.6999 909.0564,355.7199 " fill="none" id="ManagerComp-to-ControllerLayer" style="stroke:#000000;stroke-width:1.0;"/><polygon fill="#000000" points="913.38,359.88,909.668,350.7575,909.777,356.4133,904.1212,356.5223,913.38,359.88" style="stroke:#000000;stroke-width:1.0;"/><text fill="#000000" font-family="Malgun Gothic" font-size="13" lengthAdjust="spacing" textLength="64" x="855" y="303.1489">HTTP/REST</text></g><!--link CommonComp to ControllerLayer--><g id="link_CommonComp_ControllerLayer"><path d="M661.49,258.08 C692.36,275.97 731.41,295.78 769,307 C803.24,317.22 815.9,301.53 849,315 C873.82,325.1 893.0436,339.0725 911.5236,355.7325 " fill="none" id="CommonComp-to-ControllerLayer" style="stroke:#000000;stroke-width:1.0;"/><polygon fill="#000000" points="915.98,359.75,911.9737,350.7528,912.2663,356.4021,906.617,356.6947,915.98,359.75" style="stroke:#000000;stroke-width:1.0;"/><text fill="#000000" font-family="Malgun Gothic" font-size="13" lengthAdjust="spacing" textLength="64" x="770" y="303.1489">HTTP/REST</text></g><!--link ControllerLayer to ServiceLayer--><g id="link_ControllerLayer_ServiceLayer"><path d="M953,438.36 C953,459.82 953,480.48 953,501.9 " fill="none" id="ControllerLayer-to-ServiceLayer" style="stroke:#000000;stroke-width:1.0;"/><polygon fill="#000000" points="953,507.9,957,498.9,953,502.9,949,498.9,953,507.9" style="stroke:#000000;stroke-width:1.0;"/></g><!--link ServiceLayer to DAOLayer--><g id="link_ServiceLayer_DAOLayer"><path d="M953,586.16 C953,605.01 953,621.69 953,640.57 " fill="none" id="ServiceLayer-to-DAOLayer" style="stroke:#000000;stroke-width:1.0;"/><polygon fill="#000000" points="953,646.57,957,637.57,953,641.57,949,637.57,953,646.57" style="stroke:#000000;stroke-width:1.0;"/></g><!--link DAOLayer to OracleDB--><g id="link_DAOLayer_OracleDB"><path d="M953,725.05 C953,768.37 953,833.48 953,882.63 " fill="none" id="DAOLayer-to-OracleDB" style="stroke:#000000;stroke-width:1.0;"/><polygon fill="#000000" points="953,888.63,957,879.63,953,883.63,949,879.63,953,888.63" style="stroke:#000000;stroke-width:1.0;"/><text fill="#000000" font-family="Malgun Gothic" font-size="13" lengthAdjust="spacing" textLength="56" x="954" y="772.1489">JDBC/JPA</text></g><!--SRC=[ZLLTRnD757tVNp7D2wsHsGOXbVQXKXoNaW0bIj9A5Ut3P3rnLbdlh3Ph420a1vmg2evQ6gEar4vjrG8gvM6TEB1LwH_QcVqFlJFZZSSVAVZ5zlquzzwpvzxzA5WZ9O8y1zkkiR5kknxsSGaLo2ekEy4rwWRVOF1FtS9EiUoYhscmPbjJMgH5InvrYHkWXmQ2JmvRwqMVbjt2B7MeZsxQnRNWU-8uz9xoKxz0VENBOt_zje_T8f4kKMt9Va3Gz6NZaM5uW8IBKFkQ3mxY5j1DV9_uwED5Wgq0NKJVsG7vPAfVzuwopdYUOriuiAdx8y8RI5h1A6C6lTw9Z_zbhpg8_zDBVZvYrLgo4_tWPX5_ifdyketONfUrcoPlXycBcict3tZhkNGVRl4mDEDko0uF9FvS2LfSeTY7SKjZLI2R__xBM1NMRiHl8zwCp3Yi0AQ4RZrd9pqKzohivP64laLAAuAfqeJcQ_nf8wcD8ojF75LCLjk3BudSxB7Z3WIO_Cztx2YIuBdpMbODyCDnR3MCsQT8nKdxJwVnITNarGxCe3h7Bh0okVMJKuWVP-Ilkg0ZsU-mtRgPF8kIQYYnQqs-lsNoy3K4Icm0BL5t4lIIvTjUe4GYScSMvb1o4F4t3Sb2evMyUCshNU2emXyhYbMA1DC59pIiwMt9ysst29JHO20tpJWcEkMReBfP4B9F7GTGpzfS_6ffMVGgVaz_7eSD84TCozeTziTHV-OqJMQD3KxykxP51f3ixof_kSsURlETZX0RVxKfqQzAz6f3-7SwgbMLEn4tFtDRmzmDGKZmM42fp-AtxoJWPG48OH8AlXMCJcKU1tW5Rv2KIrXtonbiRI5rJoa7IkFJ0CcreYNPgWafHtKbTB6_fbf8JPrdgp59-J8nrRSkM5KydvCb7ua1Bg2pgyFtm_WuDD9BWhBPBqVNViYdxUsGFNTEkBOiGmvDwSFbf5UJxg3Wg2TtNee-Nq1HN_2Jwene3ts1hYylBvX2jQE5_oyqz-6W0pxU6pkWwBsXC76wrknnZxsffCzrD4aofM-5_aTwpuIU_f3ML4DGTJwVcpNd5sOCmwK1GRvu1IAwgh-CCfcaNcNj5eYJxzVPNYEJ0MiMwUysQT0l9OgZa8K7wDivBNQHbWEvkrbvZ3O27tk665FK7kr0lqoP30kxGyNrctRbqgUg292tMdR4XPB_OIppkWsFtSNz3kVnNOocFxjuRb5jkw1cUaVOSGj-m1tg5qyFG0wke2Kj8sklw83bhbJ4NUjpiN13sPiHs-qAEpzjyDPcybjzqCz_]--></g></svg>