<?xml version="1.0" encoding="us-ascii" standalone="no"?><svg xmlns="http://www.w3.org/2000/svg" xmlns:xlink="http://www.w3.org/1999/xlink" contentStyleType="text/css" height="887px" preserveAspectRatio="none" style="width:1606px;height:887px;background:#FFFFFF;" version="1.1" viewBox="0 0 1606 887" width="1606px" zoomAndPan="magnify"><defs/><g><!--cluster Frontend Layer--><g id="cluster_Frontend Layer"><path d="M165.5,11 L270.5,11 A3.75,3.75 0 0 1 273,13.5 L280,35.6211 L1126.5,35.6211 A2.5,2.5 0 0 1 1129,38.1211 L1129,231 A2.5,2.5 0 0 1 1126.5,233.5 L165.5,233.5 A2.5,2.5 0 0 1 163,231 L163,13.5 A2.5,2.5 0 0 1 165.5,11 " fill="#FFFFFF" style="stroke:#000000;stroke-width:1.0;"/><line style="stroke:#000000;stroke-width:1.0;" x1="163" x2="280" y1="35.6211" y2="35.6211"/><text fill="#000000" font-family="Malgun Gothic" font-size="14" font-weight="bold" lengthAdjust="spacing" textLength="104" x="167" y="28.2373">Frontend Layer</text></g><!--cluster Backend Layer--><g id="cluster_Backend Layer"><path d="M195.5,284.5 L296.5,284.5 A3.75,3.75 0 0 1 299,287 L306,309.1211 L1463.5,309.1211 A2.5,2.5 0 0 1 1466,311.6211 L1466,611.5 A2.5,2.5 0 0 1 1463.5,614 L195.5,614 A2.5,2.5 0 0 1 193,611.5 L193,287 A2.5,2.5 0 0 1 195.5,284.5 " fill="#FFFFFF" style="stroke:#000000;stroke-width:1.0;"/><line style="stroke:#000000;stroke-width:1.0;" x1="193" x2="306" y1="309.1211" y2="309.1211"/><text fill="#000000" font-family="Malgun Gothic" font-size="14" font-weight="bold" lengthAdjust="spacing" textLength="100" x="197" y="301.7373">Backend Layer</text></g><!--cluster Database Layer--><g id="cluster_Database Layer"><path d="M13.5,665 L118.5,665 A3.75,3.75 0 0 1 121,667.5 L128,689.6211 L1088.5,689.6211 A2.5,2.5 0 0 1 1091,692.1211 L1091,877.5 A2.5,2.5 0 0 1 1088.5,880 L13.5,880 A2.5,2.5 0 0 1 11,877.5 L11,667.5 A2.5,2.5 0 0 1 13.5,665 " fill="#FFFFFF" style="stroke:#000000;stroke-width:1.0;"/><line style="stroke:#000000;stroke-width:1.0;" x1="11" x2="128" y1="689.6211" y2="689.6211"/><text fill="#000000" font-family="Malgun Gothic" font-size="14" font-weight="bold" lengthAdjust="spacing" textLength="104" x="15" y="682.2373">Database Layer</text></g><!--cluster Oracle DB--><g id="cluster_Oracle DB"><path d="M43,728 C43,718 551,718 551,718 C551,718 1059,718 1059,728 L1059,838 C1059,848 551,848 551,848 C551,848 43,848 43,838 L43,728 " fill="#FFFFFF" style="stroke:#000000;stroke-width:1.0;"/><path d="M43,728 C43,738 551,738 551,738 C551,738 1059,738 1059,728 " fill="none" style="stroke:#000000;stroke-width:1.0;"/><text fill="#000000" font-family="Malgun Gothic" font-size="14" font-weight="bold" lengthAdjust="spacing" textLength="68" x="517" y="755.2373">Oracle DB</text></g><!--entity ReactApp--><g id="elem_ReactApp"><rect fill="#FFFFE0" height="45.9609" rx="2.5" ry="2.5" style="stroke:#FF8C00;stroke-width:1.0;" width="134" x="677" y="48"/><rect fill="#FFFFE0" height="10" style="stroke:#FF8C00;stroke-width:1.0;" width="15" x="791" y="53"/><rect fill="#FFFFE0" height="2" style="stroke:#FF8C00;stroke-width:1.0;" width="4" x="789" y="55"/><rect fill="#FFFFE0" height="2" style="stroke:#FF8C00;stroke-width:1.0;" width="4" x="789" y="59"/><text fill="#000000" font-family="Malgun Gothic" font-size="12" lengthAdjust="spacing" textLength="94" x="692" y="81.0605">React Application</text></g><!--entity ImageboardComp--><g id="elem_ImageboardComp"><rect fill="#FFFFE0" height="45.9609" rx="2.5" ry="2.5" style="stroke:#FF8C00;stroke-width:1.0;" width="177" x="179.5" y="171.5"/><rect fill="#FFFFE0" height="10" style="stroke:#FF8C00;stroke-width:1.0;" width="15" x="336.5" y="176.5"/><rect fill="#FFFFE0" height="2" style="stroke:#FF8C00;stroke-width:1.0;" width="4" x="334.5" y="178.5"/><rect fill="#FFFFE0" height="2" style="stroke:#FF8C00;stroke-width:1.0;" width="4" x="334.5" y="182.5"/><text fill="#000000" font-family="Malgun Gothic" font-size="12" lengthAdjust="spacing" textLength="137" x="194.5" y="204.5605">Imageboard Components</text></g><!--entity MemberComp--><g id="elem_MemberComp"><rect fill="#FFFFE0" height="45.9609" rx="2.5" ry="2.5" style="stroke:#FF8C00;stroke-width:1.0;" width="158" x="571" y="171.5"/><rect fill="#FFFFE0" height="10" style="stroke:#FF8C00;stroke-width:1.0;" width="15" x="709" y="176.5"/><rect fill="#FFFFE0" height="2" style="stroke:#FF8C00;stroke-width:1.0;" width="4" x="707" y="178.5"/><rect fill="#FFFFE0" height="2" style="stroke:#FF8C00;stroke-width:1.0;" width="4" x="707" y="182.5"/><text fill="#000000" font-family="Malgun Gothic" font-size="12" lengthAdjust="spacing" textLength="118" x="586" y="204.5605">Member Components</text></g><!--entity BoardComp--><g id="elem_BoardComp"><rect fill="#FFFFE0" height="45.9609" rx="2.5" ry="2.5" style="stroke:#FF8C00;stroke-width:1.0;" width="144" x="392" y="171.5"/><rect fill="#FFFFE0" height="10" style="stroke:#FF8C00;stroke-width:1.0;" width="15" x="516" y="176.5"/><rect fill="#FFFFE0" height="2" style="stroke:#FF8C00;stroke-width:1.0;" width="4" x="514" y="178.5"/><rect fill="#FFFFE0" height="2" style="stroke:#FF8C00;stroke-width:1.0;" width="4" x="514" y="182.5"/><text fill="#000000" font-family="Malgun Gothic" font-size="12" lengthAdjust="spacing" textLength="104" x="407" y="204.5605">Board Components</text></g><!--entity AdminComp--><g id="elem_AdminComp"><rect fill="#FFFFE0" height="45.9609" rx="2.5" ry="2.5" style="stroke:#FF8C00;stroke-width:1.0;" width="149" x="764.5" y="171.5"/><rect fill="#FFFFE0" height="10" style="stroke:#FF8C00;stroke-width:1.0;" width="15" x="893.5" y="176.5"/><rect fill="#FFFFE0" height="2" style="stroke:#FF8C00;stroke-width:1.0;" width="4" x="891.5" y="178.5"/><rect fill="#FFFFE0" height="2" style="stroke:#FF8C00;stroke-width:1.0;" width="4" x="891.5" y="182.5"/><text fill="#000000" font-family="Malgun Gothic" font-size="12" lengthAdjust="spacing" textLength="109" x="779.5" y="204.5605">Admin Components</text></g><!--entity CommonComp--><g id="elem_CommonComp"><rect fill="#FFFFE0" height="45.9609" rx="2.5" ry="2.5" style="stroke:#FF8C00;stroke-width:1.0;" width="164" x="949" y="171.5"/><rect fill="#FFFFE0" height="10" style="stroke:#FF8C00;stroke-width:1.0;" width="15" x="1093" y="176.5"/><rect fill="#FFFFE0" height="2" style="stroke:#FF8C00;stroke-width:1.0;" width="4" x="1091" y="178.5"/><rect fill="#FFFFE0" height="2" style="stroke:#FF8C00;stroke-width:1.0;" width="4" x="1091" y="182.5"/><text fill="#000000" font-family="Malgun Gothic" font-size="12" lengthAdjust="spacing" textLength="124" x="964" y="204.5605">Common Components</text></g><!--entity SpringApp--><g id="elem_SpringApp"><rect fill="#FFFFE0" height="45.9609" rx="2.5" ry="2.5" style="stroke:#FF8C00;stroke-width:1.0;" width="169" x="1280.5" y="321.5"/><rect fill="#FFFFE0" height="10" style="stroke:#FF8C00;stroke-width:1.0;" width="15" x="1429.5" y="326.5"/><rect fill="#FFFFE0" height="2" style="stroke:#FF8C00;stroke-width:1.0;" width="4" x="1427.5" y="328.5"/><rect fill="#FFFFE0" height="2" style="stroke:#FF8C00;stroke-width:1.0;" width="4" x="1427.5" y="332.5"/><text fill="#000000" font-family="Malgun Gothic" font-size="12" lengthAdjust="spacing" textLength="129" x="1295.5" y="354.5605">Spring Boot Application</text></g><!--entity ImageboardCtrl--><g id="elem_ImageboardCtrl"><rect fill="#FFFFE0" height="45.9609" rx="2.5" ry="2.5" style="stroke:#FF8C00;stroke-width:1.0;" width="157" x="209.5" y="321.5"/><rect fill="#FFFFE0" height="10" style="stroke:#FF8C00;stroke-width:1.0;" width="15" x="346.5" y="326.5"/><rect fill="#FFFFE0" height="2" style="stroke:#FF8C00;stroke-width:1.0;" width="4" x="344.5" y="328.5"/><rect fill="#FFFFE0" height="2" style="stroke:#FF8C00;stroke-width:1.0;" width="4" x="344.5" y="332.5"/><text fill="#000000" font-family="Malgun Gothic" font-size="12" lengthAdjust="spacing" textLength="117" x="224.5" y="354.5605">ImageboardController</text></g><!--entity MemberCtrl--><g id="elem_MemberCtrl"><rect fill="#FFFFE0" height="45.9609" rx="2.5" ry="2.5" style="stroke:#FF8C00;stroke-width:1.0;" width="138" x="561" y="321.5"/><rect fill="#FFFFE0" height="10" style="stroke:#FF8C00;stroke-width:1.0;" width="15" x="679" y="326.5"/><rect fill="#FFFFE0" height="2" style="stroke:#FF8C00;stroke-width:1.0;" width="4" x="677" y="328.5"/><rect fill="#FFFFE0" height="2" style="stroke:#FF8C00;stroke-width:1.0;" width="4" x="677" y="332.5"/><text fill="#000000" font-family="Malgun Gothic" font-size="12" lengthAdjust="spacing" textLength="98" x="576" y="354.5605">MemberController</text></g><!--entity BoardCtrl--><g id="elem_BoardCtrl"><rect fill="#FFFFE0" height="45.9609" rx="2.5" ry="2.5" style="stroke:#FF8C00;stroke-width:1.0;" width="124" x="402" y="321.5"/><rect fill="#FFFFE0" height="10" style="stroke:#FF8C00;stroke-width:1.0;" width="15" x="506" y="326.5"/><rect fill="#FFFFE0" height="2" style="stroke:#FF8C00;stroke-width:1.0;" width="4" x="504" y="328.5"/><rect fill="#FFFFE0" height="2" style="stroke:#FF8C00;stroke-width:1.0;" width="4" x="504" y="332.5"/><text fill="#000000" font-family="Malgun Gothic" font-size="12" lengthAdjust="spacing" textLength="84" x="417" y="354.5605">BoardController</text></g><!--entity BidCtrl--><g id="elem_BidCtrl"><rect fill="#FFFFE0" height="45.9609" rx="2.5" ry="2.5" style="stroke:#FF8C00;stroke-width:1.0;" width="110" x="899" y="321.5"/><rect fill="#FFFFE0" height="10" style="stroke:#FF8C00;stroke-width:1.0;" width="15" x="989" y="326.5"/><rect fill="#FFFFE0" height="2" style="stroke:#FF8C00;stroke-width:1.0;" width="4" x="987" y="328.5"/><rect fill="#FFFFE0" height="2" style="stroke:#FF8C00;stroke-width:1.0;" width="4" x="987" y="332.5"/><text fill="#000000" font-family="Malgun Gothic" font-size="12" lengthAdjust="spacing" textLength="70" x="914" y="354.5605">BidController</text></g><!--entity AdminCtrl--><g id="elem_AdminCtrl"><rect fill="#FFFFE0" height="45.9609" rx="2.5" ry="2.5" style="stroke:#FF8C00;stroke-width:1.0;" width="129" x="734.5" y="321.5"/><rect fill="#FFFFE0" height="10" style="stroke:#FF8C00;stroke-width:1.0;" width="15" x="843.5" y="326.5"/><rect fill="#FFFFE0" height="2" style="stroke:#FF8C00;stroke-width:1.0;" width="4" x="841.5" y="328.5"/><rect fill="#FFFFE0" height="2" style="stroke:#FF8C00;stroke-width:1.0;" width="4" x="841.5" y="332.5"/><text fill="#000000" font-family="Malgun Gothic" font-size="12" lengthAdjust="spacing" textLength="89" x="749.5" y="354.5605">AdminController</text></g><!--entity StatsCtrl--><g id="elem_StatsCtrl"><rect fill="#FFFFE0" height="45.9609" rx="2.5" ry="2.5" style="stroke:#FF8C00;stroke-width:1.0;" width="201" x="1044.5" y="321.5"/><rect fill="#FFFFE0" height="10" style="stroke:#FF8C00;stroke-width:1.0;" width="15" x="1225.5" y="326.5"/><rect fill="#FFFFE0" height="2" style="stroke:#FF8C00;stroke-width:1.0;" width="4" x="1223.5" y="328.5"/><rect fill="#FFFFE0" height="2" style="stroke:#FF8C00;stroke-width:1.0;" width="4" x="1223.5" y="332.5"/><text fill="#000000" font-family="Malgun Gothic" font-size="12" lengthAdjust="spacing" textLength="161" x="1059.5" y="354.5605">TransactionStatisticsController</text></g><!--entity ImageboardSvc--><g id="elem_ImageboardSvc"><rect fill="#FFFFE0" height="45.9609" rx="2.5" ry="2.5" style="stroke:#FF8C00;stroke-width:1.0;" width="142" x="213" y="445"/><rect fill="#FFFFE0" height="10" style="stroke:#FF8C00;stroke-width:1.0;" width="15" x="335" y="450"/><rect fill="#FFFFE0" height="2" style="stroke:#FF8C00;stroke-width:1.0;" width="4" x="333" y="452"/><rect fill="#FFFFE0" height="2" style="stroke:#FF8C00;stroke-width:1.0;" width="4" x="333" y="456"/><text fill="#000000" font-family="Malgun Gothic" font-size="12" lengthAdjust="spacing" textLength="102" x="228" y="478.0605">ImageboardService</text></g><!--entity MemberSvc--><g id="elem_MemberSvc"><rect fill="#FFFFE0" height="45.9609" rx="2.5" ry="2.5" style="stroke:#FF8C00;stroke-width:1.0;" width="123" x="719.5" y="445"/><rect fill="#FFFFE0" height="10" style="stroke:#FF8C00;stroke-width:1.0;" width="15" x="822.5" y="450"/><rect fill="#FFFFE0" height="2" style="stroke:#FF8C00;stroke-width:1.0;" width="4" x="820.5" y="452"/><rect fill="#FFFFE0" height="2" style="stroke:#FF8C00;stroke-width:1.0;" width="4" x="820.5" y="456"/><text fill="#000000" font-family="Malgun Gothic" font-size="12" lengthAdjust="spacing" textLength="83" x="734.5" y="478.0605">MemberService</text></g><!--entity BoardSvc--><g id="elem_BoardSvc"><rect fill="#FFFFE0" height="45.9609" rx="2.5" ry="2.5" style="stroke:#FF8C00;stroke-width:1.0;" width="109" x="409.5" y="445"/><rect fill="#FFFFE0" height="10" style="stroke:#FF8C00;stroke-width:1.0;" width="15" x="498.5" y="450"/><rect fill="#FFFFE0" height="2" style="stroke:#FF8C00;stroke-width:1.0;" width="4" x="496.5" y="452"/><rect fill="#FFFFE0" height="2" style="stroke:#FF8C00;stroke-width:1.0;" width="4" x="496.5" y="456"/><text fill="#000000" font-family="Malgun Gothic" font-size="12" lengthAdjust="spacing" textLength="69" x="424.5" y="478.0605">BoardService</text></g><!--entity BidSvc--><g id="elem_BidSvc"><rect fill="#FFFFE0" height="45.9609" rx="2.5" ry="2.5" style="stroke:#FF8C00;stroke-width:1.0;" width="95" x="915.5" y="445"/><rect fill="#FFFFE0" height="10" style="stroke:#FF8C00;stroke-width:1.0;" width="15" x="990.5" y="450"/><rect fill="#FFFFE0" height="2" style="stroke:#FF8C00;stroke-width:1.0;" width="4" x="988.5" y="452"/><rect fill="#FFFFE0" height="2" style="stroke:#FF8C00;stroke-width:1.0;" width="4" x="988.5" y="456"/><text fill="#000000" font-family="Malgun Gothic" font-size="12" lengthAdjust="spacing" textLength="55" x="930.5" y="478.0605">BidService</text></g><!--entity StatsSvc--><g id="elem_StatsSvc"><rect fill="#FFFFE0" height="45.9609" rx="2.5" ry="2.5" style="stroke:#FF8C00;stroke-width:1.0;" width="186" x="1052" y="445"/><rect fill="#FFFFE0" height="10" style="stroke:#FF8C00;stroke-width:1.0;" width="15" x="1218" y="450"/><rect fill="#FFFFE0" height="2" style="stroke:#FF8C00;stroke-width:1.0;" width="4" x="1216" y="452"/><rect fill="#FFFFE0" height="2" style="stroke:#FF8C00;stroke-width:1.0;" width="4" x="1216" y="456"/><text fill="#000000" font-family="Malgun Gothic" font-size="12" lengthAdjust="spacing" textLength="146" x="1067" y="478.0605">TransactionStatisticsService</text></g><!--entity ImageboardDAO--><g id="elem_ImageboardDAO"><rect fill="#FFFFE0" height="45.9609" rx="2.5" ry="2.5" style="stroke:#FF8C00;stroke-width:1.0;" width="130" x="214" y="552"/><rect fill="#FFFFE0" height="10" style="stroke:#FF8C00;stroke-width:1.0;" width="15" x="324" y="557"/><rect fill="#FFFFE0" height="2" style="stroke:#FF8C00;stroke-width:1.0;" width="4" x="322" y="559"/><rect fill="#FFFFE0" height="2" style="stroke:#FF8C00;stroke-width:1.0;" width="4" x="322" y="563"/><text fill="#000000" font-family="Malgun Gothic" font-size="12" lengthAdjust="spacing" textLength="90" x="229" y="585.0605">ImageboardDAO</text></g><!--entity MemberDAO--><g id="elem_MemberDAO"><rect fill="#FFFFE0" height="45.9609" rx="2.5" ry="2.5" style="stroke:#FF8C00;stroke-width:1.0;" width="111" x="725.5" y="552"/><rect fill="#FFFFE0" height="10" style="stroke:#FF8C00;stroke-width:1.0;" width="15" x="816.5" y="557"/><rect fill="#FFFFE0" height="2" style="stroke:#FF8C00;stroke-width:1.0;" width="4" x="814.5" y="559"/><rect fill="#FFFFE0" height="2" style="stroke:#FF8C00;stroke-width:1.0;" width="4" x="814.5" y="563"/><text fill="#000000" font-family="Malgun Gothic" font-size="12" lengthAdjust="spacing" textLength="71" x="740.5" y="585.0605">MemberDAO</text></g><!--entity BoardDAO--><g id="elem_BoardDAO"><rect fill="#FFFFE0" height="45.9609" rx="2.5" ry="2.5" style="stroke:#FF8C00;stroke-width:1.0;" width="97" x="415.5" y="552"/><rect fill="#FFFFE0" height="10" style="stroke:#FF8C00;stroke-width:1.0;" width="15" x="492.5" y="557"/><rect fill="#FFFFE0" height="2" style="stroke:#FF8C00;stroke-width:1.0;" width="4" x="490.5" y="559"/><rect fill="#FFFFE0" height="2" style="stroke:#FF8C00;stroke-width:1.0;" width="4" x="490.5" y="563"/><text fill="#000000" font-family="Malgun Gothic" font-size="12" lengthAdjust="spacing" textLength="57" x="430.5" y="585.0605">BoardDAO</text></g><!--entity BidDAO--><g id="elem_BidDAO"><rect fill="#FFFFE0" height="45.9609" rx="2.5" ry="2.5" style="stroke:#FF8C00;stroke-width:1.0;" width="83" x="936.5" y="552"/><rect fill="#FFFFE0" height="10" style="stroke:#FF8C00;stroke-width:1.0;" width="15" x="999.5" y="557"/><rect fill="#FFFFE0" height="2" style="stroke:#FF8C00;stroke-width:1.0;" width="4" x="997.5" y="559"/><rect fill="#FFFFE0" height="2" style="stroke:#FF8C00;stroke-width:1.0;" width="4" x="997.5" y="563"/><text fill="#000000" font-family="Malgun Gothic" font-size="12" lengthAdjust="spacing" textLength="43" x="951.5" y="585.0605">BidDAO</text></g><!--entity StatsDAO--><g id="elem_StatsDAO"><rect fill="#FFFFE0" height="45.9609" rx="2.5" ry="2.5" style="stroke:#FF8C00;stroke-width:1.0;" width="174" x="1058" y="552"/><rect fill="#FFFFE0" height="10" style="stroke:#FF8C00;stroke-width:1.0;" width="15" x="1212" y="557"/><rect fill="#FFFFE0" height="2" style="stroke:#FF8C00;stroke-width:1.0;" width="4" x="1210" y="559"/><rect fill="#FFFFE0" height="2" style="stroke:#FF8C00;stroke-width:1.0;" width="4" x="1210" y="563"/><text fill="#000000" font-family="Malgun Gothic" font-size="12" lengthAdjust="spacing" textLength="134" x="1073" y="585.0605">TransactionStatisticsDAO</text></g><!--entity ImageboardTable--><g id="elem_ImageboardTable"><rect fill="#FFFFE0" height="45.9609" rx="2.5" ry="2.5" style="stroke:#FF8C00;stroke-width:1.0;" width="123" x="86.5" y="778"/><rect fill="#FFFFE0" height="10" style="stroke:#FF8C00;stroke-width:1.0;" width="15" x="189.5" y="783"/><rect fill="#FFFFE0" height="2" style="stroke:#FF8C00;stroke-width:1.0;" width="4" x="187.5" y="785"/><rect fill="#FFFFE0" height="2" style="stroke:#FF8C00;stroke-width:1.0;" width="4" x="187.5" y="789"/><text fill="#000000" font-family="Malgun Gothic" font-size="12" lengthAdjust="spacing" textLength="83" x="101.5" y="811.0605">IMAGEBOARD1</text></g><!--entity BidTable--><g id="elem_BidTable"><rect fill="#FFFFE0" height="45.9609" rx="2.5" ry="2.5" style="stroke:#FF8C00;stroke-width:1.0;" width="66" x="969" y="778"/><rect fill="#FFFFE0" height="10" style="stroke:#FF8C00;stroke-width:1.0;" width="15" x="1015" y="783"/><rect fill="#FFFFE0" height="2" style="stroke:#FF8C00;stroke-width:1.0;" width="4" x="1013" y="785"/><rect fill="#FFFFE0" height="2" style="stroke:#FF8C00;stroke-width:1.0;" width="4" x="1013" y="789"/><text fill="#000000" font-family="Malgun Gothic" font-size="12" lengthAdjust="spacing" textLength="26" x="984" y="811.0605">BID1</text></g><!--entity MemberTable--><g id="elem_MemberTable"><rect fill="#FFFFE0" height="45.9609" rx="2.5" ry="2.5" style="stroke:#FF8C00;stroke-width:1.0;" width="95" x="838.5" y="778"/><rect fill="#FFFFE0" height="10" style="stroke:#FF8C00;stroke-width:1.0;" width="15" x="913.5" y="783"/><rect fill="#FFFFE0" height="2" style="stroke:#FF8C00;stroke-width:1.0;" width="4" x="911.5" y="785"/><rect fill="#FFFFE0" height="2" style="stroke:#FF8C00;stroke-width:1.0;" width="4" x="911.5" y="789"/><text fill="#000000" font-family="Malgun Gothic" font-size="12" lengthAdjust="spacing" textLength="55" x="853.5" y="811.0605">MEMBER1</text></g><!--entity BoardTable--><g id="elem_BoardTable"><rect fill="#FFFFE0" height="45.9609" rx="2.5" ry="2.5" style="stroke:#FF8C00;stroke-width:1.0;" width="87" x="420.5" y="778"/><rect fill="#FFFFE0" height="10" style="stroke:#FF8C00;stroke-width:1.0;" width="15" x="487.5" y="783"/><rect fill="#FFFFE0" height="2" style="stroke:#FF8C00;stroke-width:1.0;" width="4" x="485.5" y="785"/><rect fill="#FFFFE0" height="2" style="stroke:#FF8C00;stroke-width:1.0;" width="4" x="485.5" y="789"/><text fill="#000000" font-family="Malgun Gothic" font-size="12" lengthAdjust="spacing" textLength="47" x="435.5" y="811.0605">BOARD1</text></g><!--entity BoardPostTable--><g id="elem_BoardPostTable"><rect fill="#FFFFE0" height="45.9609" rx="2.5" ry="2.5" style="stroke:#FF8C00;stroke-width:1.0;" width="121" x="542.5" y="778"/><rect fill="#FFFFE0" height="10" style="stroke:#FF8C00;stroke-width:1.0;" width="15" x="643.5" y="783"/><rect fill="#FFFFE0" height="2" style="stroke:#FF8C00;stroke-width:1.0;" width="4" x="641.5" y="785"/><rect fill="#FFFFE0" height="2" style="stroke:#FF8C00;stroke-width:1.0;" width="4" x="641.5" y="789"/><text fill="#000000" font-family="Malgun Gothic" font-size="12" lengthAdjust="spacing" textLength="81" x="557.5" y="811.0605">BOARD_POST1</text></g><!--entity EventProductTable--><g id="elem_EventProductTable"><rect fill="#FFFFE0" height="45.9609" rx="2.5" ry="2.5" style="stroke:#FF8C00;stroke-width:1.0;" width="141" x="244.5" y="778"/><rect fill="#FFFFE0" height="10" style="stroke:#FF8C00;stroke-width:1.0;" width="15" x="365.5" y="783"/><rect fill="#FFFFE0" height="2" style="stroke:#FF8C00;stroke-width:1.0;" width="4" x="363.5" y="785"/><rect fill="#FFFFE0" height="2" style="stroke:#FF8C00;stroke-width:1.0;" width="4" x="363.5" y="789"/><text fill="#000000" font-family="Malgun Gothic" font-size="12" lengthAdjust="spacing" textLength="101" x="259.5" y="811.0605">EVENT_PRODUCT1</text></g><!--entity ManagerTable--><g id="elem_ManagerTable"><rect fill="#FFFFE0" height="45.9609" rx="2.5" ry="2.5" style="stroke:#FF8C00;stroke-width:1.0;" width="104" x="699" y="778"/><rect fill="#FFFFE0" height="10" style="stroke:#FF8C00;stroke-width:1.0;" width="15" x="783" y="783"/><rect fill="#FFFFE0" height="2" style="stroke:#FF8C00;stroke-width:1.0;" width="4" x="781" y="785"/><rect fill="#FFFFE0" height="2" style="stroke:#FF8C00;stroke-width:1.0;" width="4" x="781" y="789"/><text fill="#000000" font-family="Malgun Gothic" font-size="12" lengthAdjust="spacing" textLength="64" x="714" y="811.0605">MANAGER1</text></g><g id="elem_GMN64"><path d="M1145,31.5 L1145,67 L811.04,71 L1145,75 L1145,110.6641 A0,0 0 0 0 1145,110.6641 L1277,110.6641 A0,0 0 0 0 1277,110.6641 L1277,41.5 L1267,31.5 L1145,31.5 A0,0 0 0 0 1145,31.5 " fill="#FFFFFF" style="stroke:#000000;stroke-width:1.0;"/><path d="M1267,31.5 L1267,41.5 L1277,41.5 L1267,31.5 " fill="#FFFFFF" style="stroke:#000000;stroke-width:1.0;"/><text fill="#000000" font-family="Malgun Gothic" font-size="13" lengthAdjust="spacing" textLength="73" x="1151" y="50.6489">React + Vite</text><text fill="#000000" font-family="Malgun Gothic" font-size="13" lengthAdjust="spacing" textLength="111" x="1151" y="67.9399">- &#52980;&#54252;&#45324;&#53944; &#44592;&#48152; UI</text><text fill="#000000" font-family="Malgun Gothic" font-size="13" lengthAdjust="spacing" textLength="87" x="1151" y="85.231">- React Router</text><text fill="#000000" font-family="Malgun Gothic" font-size="13" lengthAdjust="spacing" textLength="68" x="1151" y="102.522">- Bootstrap</text></g><g id="elem_GMN67"><path d="M1484.5,305 L1484.5,340.5 L1449.7,344.5 L1484.5,348.5 L1484.5,384.1641 A0,0 0 0 0 1484.5,384.1641 L1599.5,384.1641 A0,0 0 0 0 1599.5,384.1641 L1599.5,315 L1589.5,305 L1484.5,305 A0,0 0 0 0 1484.5,305 " fill="#FFFFFF" style="stroke:#000000;stroke-width:1.0;"/><path d="M1589.5,305 L1589.5,315 L1599.5,315 L1589.5,305 " fill="#FFFFFF" style="stroke:#000000;stroke-width:1.0;"/><text fill="#000000" font-family="Malgun Gothic" font-size="13" lengthAdjust="spacing" textLength="84" x="1490.5" y="324.1489">Spring Boot 3</text><text fill="#000000" font-family="Malgun Gothic" font-size="13" lengthAdjust="spacing" textLength="79" x="1490.5" y="341.4399">- RESTful API</text><text fill="#000000" font-family="Malgun Gothic" font-size="13" lengthAdjust="spacing" textLength="94" x="1490.5" y="358.731">- JPA/Hibernate</text><text fill="#000000" font-family="Malgun Gothic" font-size="13" lengthAdjust="spacing" textLength="63" x="1490.5" y="376.022">- Java 17+</text></g><g id="elem_GMN70"><path d="M1107.5,761.5 L1107.5,840.6641 L1228.5,840.6641 L1228.5,771.5 L1218.5,761.5 L1107.5,761.5 " fill="#FFFFFF" style="stroke:#000000;stroke-width:1.0;"/><path d="M1218.5,761.5 L1218.5,771.5 L1228.5,771.5 L1218.5,761.5 " fill="#FFFFFF" style="stroke:#000000;stroke-width:1.0;"/><text fill="#000000" font-family="Malgun Gothic" font-size="13" lengthAdjust="spacing" textLength="98" x="1113.5" y="780.6489">Oracle Database</text><text fill="#000000" font-family="Malgun Gothic" font-size="13" lengthAdjust="spacing" textLength="81" x="1113.5" y="797.9399">- 19&#44060; &#53580;&#51060;&#48660;</text><text fill="#000000" font-family="Malgun Gothic" font-size="13" lengthAdjust="spacing" textLength="100" x="1113.5" y="815.231">- &#49884;&#53248;&#49828; &#44592;&#48152; PK</text><text fill="#000000" font-family="Malgun Gothic" font-size="13" lengthAdjust="spacing" textLength="93" x="1113.5" y="832.522">- &#51064;&#45937;&#49828; &#52572;&#51201;&#54868;</text></g><!--link ReactApp to ImageboardComp--><g id="link_ReactApp_ImageboardComp"><path d="M676.81,89.15 C592.37,110.7 453.1136,146.246 360.4236,169.906 " fill="none" id="ReactApp-to-ImageboardComp" style="stroke:#000000;stroke-width:1.0;"/><polygon fill="#000000" points="354.61,171.39,364.3197,173.0398,359.4547,170.1534,362.3411,165.2883,354.61,171.39" style="stroke:#000000;stroke-width:1.0;"/></g><!--link ReactApp to MemberComp--><g id="link_ReactApp_MemberComp"><path d="M726.98,94 C710.05,115.89 687.8818,144.5347 670.8818,166.5047 " fill="none" id="ReactApp-to-MemberComp" style="stroke:#000000;stroke-width:1.0;"/><polygon fill="#000000" points="667.21,171.25,675.8813,166.5799,670.2698,167.2956,669.5542,161.6842,667.21,171.25" style="stroke:#000000;stroke-width:1.0;"/></g><!--link ReactApp to BoardComp--><g id="link_ReactApp_BoardComp"><path d="M693.29,94 C642.71,115.95 570.924,147.1012 520.304,169.0712 " fill="none" id="ReactApp-to-BoardComp" style="stroke:#000000;stroke-width:1.0;"/><polygon fill="#000000" points="514.8,171.46,524.6485,171.5461,519.3866,169.4693,521.4634,164.2075,514.8,171.46" style="stroke:#000000;stroke-width:1.0;"/></g><!--link ReactApp to AdminComp--><g id="link_ReactApp_AdminComp"><path d="M761.2,94 C778.31,115.89 800.7353,144.5525 817.9053,166.5225 " fill="none" id="ReactApp-to-AdminComp" style="stroke:#000000;stroke-width:1.0;"/><polygon fill="#000000" points="821.6,171.25,819.2097,161.6956,818.5211,167.3104,812.9063,166.6218,821.6,171.25" style="stroke:#000000;stroke-width:1.0;"/></g><!--link ReactApp to CommonComp--><g id="link_ReactApp_CommonComp"><path d="M795.97,94 C847.83,115.95 921.5148,147.1507 973.4048,169.1207 " fill="none" id="ReactApp-to-CommonComp" style="stroke:#000000;stroke-width:1.0;"/><polygon fill="#000000" points="978.93,171.46,972.2018,164.2676,974.3257,169.5106,969.0827,171.6344,978.93,171.46" style="stroke:#000000;stroke-width:1.0;"/></g><!--link ImageboardComp to ImageboardCtrl--><g id="link_ImageboardComp_ImageboardCtrl"><path d="M270.99,217.66 C274.76,245.56 280.4064,287.2741 284.1864,315.2441 " fill="none" id="ImageboardComp-to-ImageboardCtrl" style="stroke:#000000;stroke-width:1.0;"/><polygon fill="#000000" points="284.99,321.19,287.7486,311.7354,284.3204,316.235,279.8207,312.8068,284.99,321.19" style="stroke:#000000;stroke-width:1.0;"/><text fill="#000000" font-family="Malgun Gothic" font-size="13" lengthAdjust="spacing" textLength="64" x="279" y="264.6489">HTTP/REST</text></g><!--link MemberComp to MemberCtrl--><g id="link_MemberComp_MemberCtrl"><path d="M647.01,217.66 C643.24,245.56 637.5936,287.2741 633.8136,315.2441 " fill="none" id="MemberComp-to-MemberCtrl" style="stroke:#000000;stroke-width:1.0;"/><polygon fill="#000000" points="633.01,321.19,638.1793,312.8068,633.6796,316.235,630.2514,311.7354,633.01,321.19" style="stroke:#000000;stroke-width:1.0;"/><text fill="#000000" font-family="Malgun Gothic" font-size="13" lengthAdjust="spacing" textLength="64" x="644" y="264.6489">HTTP/REST</text></g><!--link BoardComp to BoardCtrl--><g id="link_BoardComp_BoardCtrl"><path d="M464,217.66 C464,245.56 464,287.22 464,315.19 " fill="none" id="BoardComp-to-BoardCtrl" style="stroke:#000000;stroke-width:1.0;"/><polygon fill="#000000" points="464,321.19,468,312.19,464,316.19,460,312.19,464,321.19" style="stroke:#000000;stroke-width:1.0;"/><text fill="#000000" font-family="Malgun Gothic" font-size="13" lengthAdjust="spacing" textLength="64" x="465" y="264.6489">HTTP/REST</text></g><!--link AdminComp to AdminCtrl--><g id="link_AdminComp_AdminCtrl"><path d="M833.01,217.66 C825.47,245.56 814.1556,287.4278 806.5956,315.3978 " fill="none" id="AdminComp-to-AdminCtrl" style="stroke:#000000;stroke-width:1.0;"/><polygon fill="#000000" points="805.03,321.19,811.2398,313.5455,806.3346,316.3632,803.5169,311.4581,805.03,321.19" style="stroke:#000000;stroke-width:1.0;"/><text fill="#000000" font-family="Malgun Gothic" font-size="13" lengthAdjust="spacing" textLength="64" x="824" y="264.6489">HTTP/REST</text></g><!--link AdminComp to StatsCtrl--><g id="link_AdminComp_StatsCtrl"><path d="M881.15,217.53 C896.93,225.46 915.12,234.24 932,241.5 C973.34,259.28 986.19,257.55 1027,276.5 C1055.63,289.79 1081.4812,304.4329 1104.5112,318.3129 " fill="none" id="AdminComp-to-StatsCtrl" style="stroke:#000000;stroke-width:1.0;"/><polygon fill="#000000" points="1109.65,321.41,1104.0065,313.3384,1105.3676,318.829,1099.877,320.1902,1109.65,321.41" style="stroke:#000000;stroke-width:1.0;"/><text fill="#000000" font-family="Malgun Gothic" font-size="13" lengthAdjust="spacing" textLength="64" x="1008" y="264.6489">HTTP/REST</text></g><!--link ImageboardCtrl to ImageboardSvc--><g id="link_ImageboardCtrl_ImageboardSvc"><path d="M287.28,367.5 C286.56,389.39 285.6593,416.7833 284.9293,438.7533 " fill="none" id="ImageboardCtrl-to-ImageboardSvc" style="stroke:#000000;stroke-width:1.0;"/><polygon fill="#000000" points="284.73,444.75,289.0267,435.8878,284.896,439.7528,281.0311,435.6221,284.73,444.75" style="stroke:#000000;stroke-width:1.0;"/></g><!--link MemberCtrl to MemberSvc--><g id="link_MemberCtrl_MemberSvc"><path d="M657.34,367.5 C684.63,389.45 721.6257,419.2283 748.9257,441.1983 " fill="none" id="MemberCtrl-to-MemberSvc" style="stroke:#000000;stroke-width:1.0;"/><polygon fill="#000000" points="753.6,444.96,749.0963,436.2012,749.7047,441.8252,744.0807,442.4336,753.6,444.96" style="stroke:#000000;stroke-width:1.0;"/></g><!--link BoardCtrl to BoardSvc--><g id="link_BoardCtrl_BoardSvc"><path d="M464,367.5 C464,389.39 464,416.78 464,438.75 " fill="none" id="BoardCtrl-to-BoardSvc" style="stroke:#000000;stroke-width:1.0;"/><polygon fill="#000000" points="464,444.75,468,435.75,464,439.75,460,435.75,464,444.75" style="stroke:#000000;stroke-width:1.0;"/></g><!--link BidCtrl to BidSvc--><g id="link_BidCtrl_BidSvc"><path d="M955.63,367.5 C957.25,389.39 959.2761,416.7964 960.9061,438.7664 " fill="none" id="BidCtrl-to-BidSvc" style="stroke:#000000;stroke-width:1.0;"/><polygon fill="#000000" points="961.35,444.75,964.6731,435.4787,960.9801,439.7637,956.6951,436.0706,961.35,444.75" style="stroke:#000000;stroke-width:1.0;"/></g><!--link AdminCtrl to MemberSvc--><g id="link_AdminCtrl_MemberSvc"><path d="M795.74,367.5 C792.5,389.39 788.428,416.8446 785.178,438.8146 " fill="none" id="AdminCtrl-to-MemberSvc" style="stroke:#000000;stroke-width:1.0;"/><polygon fill="#000000" points="784.3,444.75,789.574,436.4322,785.0317,439.8038,781.6601,435.2615,784.3,444.75" style="stroke:#000000;stroke-width:1.0;"/></g><!--link StatsCtrl to StatsSvc--><g id="link_StatsCtrl_StatsSvc"><path d="M1145,367.5 C1145,389.39 1145,416.78 1145,438.75 " fill="none" id="StatsCtrl-to-StatsSvc" style="stroke:#000000;stroke-width:1.0;"/><polygon fill="#000000" points="1145,444.75,1149,435.75,1145,439.75,1141,435.75,1145,444.75" style="stroke:#000000;stroke-width:1.0;"/></g><!--link ImageboardSvc to ImageboardDAO--><g id="link_ImageboardSvc_ImageboardDAO"><path d="M282.95,491.01 C282.1,508.81 281.2081,527.7769 280.3481,545.6669 " fill="none" id="ImageboardSvc-to-ImageboardDAO" style="stroke:#000000;stroke-width:1.0;"/><polygon fill="#000000" points="280.06,551.66,284.4875,542.8624,280.3001,546.6658,276.4968,542.4783,280.06,551.66" style="stroke:#000000;stroke-width:1.0;"/></g><!--link MemberSvc to MemberDAO--><g id="link_MemberSvc_MemberDAO"><path d="M781,491.01 C781,508.81 781,527.77 781,545.66 " fill="none" id="MemberSvc-to-MemberDAO" style="stroke:#000000;stroke-width:1.0;"/><polygon fill="#000000" points="781,551.66,785,542.66,781,546.66,777,542.66,781,551.66" style="stroke:#000000;stroke-width:1.0;"/></g><!--link BoardSvc to BoardDAO--><g id="link_BoardSvc_BoardDAO"><path d="M464,491.01 C464,508.81 464,527.77 464,545.66 " fill="none" id="BoardSvc-to-BoardDAO" style="stroke:#000000;stroke-width:1.0;"/><polygon fill="#000000" points="464,551.66,468,542.66,464,546.66,460,542.66,464,551.66" style="stroke:#000000;stroke-width:1.0;"/></g><!--link BidSvc to BidDAO--><g id="link_BidSvc_BidDAO"><path d="M966.14,491.01 C968.69,508.81 971.4001,527.8305 973.9601,545.7205 " fill="none" id="BidSvc-to-BidDAO" style="stroke:#000000;stroke-width:1.0;"/><polygon fill="#000000" points="974.81,551.66,977.4948,542.1841,974.1017,546.7104,969.5755,543.3174,974.81,551.66" style="stroke:#000000;stroke-width:1.0;"/></g><!--link StatsSvc to StatsDAO--><g id="link_StatsSvc_StatsDAO"><path d="M1145,491.01 C1145,508.81 1145,527.77 1145,545.66 " fill="none" id="StatsSvc-to-StatsDAO" style="stroke:#000000;stroke-width:1.0;"/><polygon fill="#000000" points="1145,551.66,1149,542.66,1145,546.66,1141,542.66,1145,551.66" style="stroke:#000000;stroke-width:1.0;"/></g><!--link ImageboardDAO to ImageboardTable--><g id="link_ImageboardDAO_ImageboardTable"><path d="M261.51,598.08 C254.22,607.66 245.87,619.16 239,630 C206.58,681.19 177.1403,739.5824 161.1303,772.5624 " fill="none" id="ImageboardDAO-to-ImageboardTable" style="stroke:#000000;stroke-width:1.0;"/><polygon fill="#000000" points="158.51,777.96,166.0388,771.6104,160.6935,773.462,158.842,768.1167,158.51,777.96" style="stroke:#000000;stroke-width:1.0;"/><text fill="#000000" font-family="Malgun Gothic" font-size="13" lengthAdjust="spacing" textLength="56" x="240" y="645.1489">JDBC/JPA</text></g><!--link BidDAO to BidTable--><g id="link_BidDAO_BidTable"><path d="M980.39,598.3 C984.99,641.23 994.3911,728.9641 998.9811,771.8241 " fill="none" id="BidDAO-to-BidTable" style="stroke:#000000;stroke-width:1.0;"/><polygon fill="#000000" points="999.62,777.79,1002.6389,768.4152,999.0876,772.8184,994.6844,769.2671,999.62,777.79" style="stroke:#000000;stroke-width:1.0;"/><text fill="#000000" font-family="Malgun Gothic" font-size="13" lengthAdjust="spacing" textLength="56" x="986" y="645.1489">JDBC/JPA</text></g><!--link MemberDAO to MemberTable--><g id="link_MemberDAO_MemberTable"><path d="M806.13,598.02 C815.32,607.15 825.13,618.33 832,630 C860.6,678.57 874.7111,738.1053 881.1211,771.8753 " fill="none" id="MemberDAO-to-MemberTable" style="stroke:#000000;stroke-width:1.0;"/><polygon fill="#000000" points="882.24,777.77,884.4915,768.1819,881.3076,772.8577,876.6318,769.6738,882.24,777.77" style="stroke:#000000;stroke-width:1.0;"/><text fill="#000000" font-family="Malgun Gothic" font-size="13" lengthAdjust="spacing" textLength="56" x="842" y="645.1489">JDBC/JPA</text></g><!--link BoardDAO to BoardTable--><g id="link_BoardDAO_BoardTable"><path d="M464,598.3 C464,641.23 464,728.93 464,771.79 " fill="none" id="BoardDAO-to-BoardTable" style="stroke:#000000;stroke-width:1.0;"/><polygon fill="#000000" points="464,777.79,468,768.79,464,772.79,460,768.79,464,777.79" style="stroke:#000000;stroke-width:1.0;"/><text fill="#000000" font-family="Malgun Gothic" font-size="13" lengthAdjust="spacing" textLength="56" x="465" y="645.1489">JDBC/JPA</text></g><!--link BoardDAO to BoardPostTable--><g id="link_BoardDAO_BoardPostTable"><path d="M497.06,598.02 C508.59,606.91 520.92,617.94 530,630 C565.35,676.96 585.829,737.8788 595.559,772.0988 " fill="none" id="BoardDAO-to-BoardPostTable" style="stroke:#000000;stroke-width:1.0;"/><polygon fill="#000000" points="597.2,777.87,598.586,768.1192,595.8325,773.0606,590.891,770.3071,597.2,777.87" style="stroke:#000000;stroke-width:1.0;"/><text fill="#000000" font-family="Malgun Gothic" font-size="13" lengthAdjust="spacing" textLength="56" x="543" y="645.1489">JDBC/JPA</text></g><!--link BoardDAO to EventProductTable--><g id="link_BoardDAO_EventProductTable"><path d="M431.26,598.26 C419.75,607.18 407.37,618.16 398,630 C360.69,677.12 336.3001,738.0896 324.2901,772.2496 " fill="none" id="BoardDAO-to-EventProductTable" style="stroke:#000000;stroke-width:1.0;"/><polygon fill="#000000" points="322.3,777.91,329.0587,770.7462,323.9584,773.193,321.5115,768.0928,322.3,777.91" style="stroke:#000000;stroke-width:1.0;"/><text fill="#000000" font-family="Malgun Gothic" font-size="13" lengthAdjust="spacing" textLength="56" x="399" y="645.1489">JDBC/JPA</text></g><!--link MemberDAO to ManagerTable--><g id="link_MemberDAO_ManagerTable"><path d="M776,598.25 C773.94,607.96 771.65,619.51 770,630 C761.69,682.81 756.1922,739.4228 753.3522,771.9328 " fill="none" id="MemberDAO-to-ManagerTable" style="stroke:#000000;stroke-width:1.0;"/><polygon fill="#000000" points="752.83,777.91,757.5981,769.2923,753.2651,772.929,749.6284,768.596,752.83,777.91" style="stroke:#000000;stroke-width:1.0;"/><text fill="#000000" font-family="Malgun Gothic" font-size="13" lengthAdjust="spacing" textLength="56" x="771" y="645.1489">JDBC/JPA</text></g><!--link Oracle DB to GMN70--><g id="link_Oracle DB_GMN70"><path d="M44.3951,717.2108 C44.4843,716.0825 44.5831,714.9543 44.692,713.8271 C45.1274,709.318 45.7241,704.824 46.511,700.3978 C48.0848,691.5456 50.4195,682.9651 53.7478,675.0798 C60.4044,659.3094 71.035,646.32 87.5,639.5 C136.06,619.39 984.94,619.39 1033.5,639.5 C1088.28,662.19 1127.71,721.15 1149.2,761.19 " fill="none" id="Oracle DB-GMN70" style="stroke:#000000;stroke-width:1.0;stroke-dasharray:7.0,7.0;"/></g><!--SRC=[VLRFQnD15BxlNp7cug6K4Zs87eIT96rJcoOaQK6AbCdkD1swsGcpauXAeO9UQiLBGOKMF7Zq4AL2mF-eIVu7P_RdxEniSmdvtlVU-xwNVOzzm4_m28EnXuXl1QV47oE6Hi35nsZYyKtgypqaufKMyeOJ7snHVaASYi9qw6XCVUnpyCu2uWEHSpfaTEAxDUfH1dR9y8I_n9v7NqTnobpCebWTiTCsG_uGXo7PhKVUOb1zP9rPrbXKGaFHUvE90FPTi8lUO5Q96nrsCN8uiCTZZpY84-g_0YW08Ih0a9E9EsoEHAq1HSm5jGGDmemi8WDwNWkF1fZfEH5guaDJ2rXMtNP7nDVP8MXY2sn42_G83VdgrEGVKHnQRyo8FnI2Q75qKUpUsTN4Fy6evs6cZuupppmwBIK63NHeQ03BQaDIe18ZCHvcZXfX1d9VF8o1U7x4H7fS32RWn0cqP1a8qkJoKVKmcn87QtFgJHtpc5HwZ1IfK2yCIsgAOUHen4GokbNJGgj9OhdJkjtMN0h4x3AXfh-C3XCMBAabxAGKOY8OdIKfeIkPf6vB7N4qG07EhukRe1LnfXmFWpfCGk4sDLlsLWEsxMwzgasWZmOUpeYm6JE4NYtKQhHWerjLngBdPlMXgRGC7tNQlRx2wT20Qxp6GMElVzJfjklxjPZQc8ffTHXr9uxERjbxmbeY2_d2bwBhJCxk8KWFy_BhxExFp4fkBrXVVwwVrLnCEPyv79hfsK7CmShXKyLm2kBRP-KrwBB43eDdOBlVxsnq6xs-bQbIHUeic2i7ZPLImOhy-pdfLSbnXAti-aXZyNPQcekyCRcnYlZCYmp0N59wF-Bh6O7HjSXavojaKbFX4XPQOtLIgDold29Deuod9PK64eTgIde38bM9G8aahJCT4XKwn5Ue8TvUAzTM4n8-r6BeEtLOszZfs5PKFEbJ2ASo5T756celQ6vJeAGxMqehxEizmfILLLcMJpa6JBwK0NgilYr5hrDhu81mkUJhOFdlTlNbr-B3vUfY3kxciyNi6zXlXg68swKJZba8oFU9W3CqjkG6oXvw9_NbGdq9UHmL54_xySG3TYTg8AHkR1FXnqUncXqqHQ3wPAsqWNAYHKBo8ta4P8dgqxlPDLXzl5pUt2xcLv79JzUhy_FbnS_4OUT5XD_C5vz_Itpvzthvu_tg-rNM-Jy0]--></g></svg>